<?xml version="1.0" encoding="utf-8"?>
<!-- Generator: Adobe Illustrator 21.0.2, SVG Export Plug-In . SVG Version: 6.00 Build 0)  -->
<svg version="1.1" id="Layer_1" xmlns="http://www.w3.org/2000/svg" xmlns:xlink="http://www.w3.org/1999/xlink" x="0px" y="0px"
	 viewBox="0 0 2000 2000" style="enable-background:new 0 0 2000 2000;" xml:space="preserve">
<style type="text/css">
	.st0{fill:#333333;}
	.st1{fill:#AFCFDB;}
	.st2{fill:none;stroke:#333333;stroke-miterlimit:10;}
</style>
<g>
	<g>
		<g>
			<path class="st0" d="M1642.3,2000H357.7C160.5,2000,0,1839.5,0,1642.3V357.6C0,160.5,160.5,0,357.7,0h1284.6
				C1839.5,0,2000,160.5,2000,357.6v1284.6C2000,1839.5,1839.5,2000,1642.3,2000z M357.7,143.3c-118.2,0-214.4,96.1-214.4,214.3
				v1284.6c0,118.2,96.2,214.5,214.4,214.5h1284.6c118.2,0,214.4-96.3,214.4-214.5V357.6c0-118.2-96.2-214.3-214.4-214.3H357.7z"/>
		</g>
	</g>
	<g>
		<g>
			<path class="st0" d="M502,613.5h185.5v650.6h402.1v151.4H502V613.5z"/>
		</g>
		<g>
			<path class="st0" d="M1564.2,790.1v164.8c-14.8-1.1-26.3-2.2-40-2.2c-98.6,0-163.8,53.7-163.8,171.8v291h-178.8V799h170.7v81.4
				C1395.9,820.8,1469.2,790.1,1564.2,790.1z"/>
		</g>
	</g>
</g>
</svg>
