<?xml version="1.0" encoding="utf-8"?>
<!-- Generator: Adobe Illustrator 21.0.2, SVG Export Plug-In . SVG Version: 6.00 Build 0)  -->
<svg version="1.1" id="Layer_1" xmlns="http://www.w3.org/2000/svg" xmlns:xlink="http://www.w3.org/1999/xlink" x="0px" y="0px"
	 viewBox="0 0 500 500" style="enable-background:new 0 0 500 500;" xml:space="preserve">
<style type="text/css">
	.st0{fill:#333333;}
</style>
<path class="st0" d="M483.5,161c-19.2,24.3-44.9,43.2-79.1,48.6c-8.5,1.4-16.6,2-24.2,2c-1.7,0-3.4-0.1-5-0.2l0.5,29.4l0,0
	L206.2,410.5L79.8,284.1l169.5-169.5l0,0h0l124.2,2.1l1.4,82.5c-1.1,0-20-0.1-35.9-10.3c4.4-10.5,2.3-23-6.2-31.5
	c-11.2-11.2-29.5-11.2-40.7,0c-11.2,11.2-11.2,29.5,0,40.7c11.2,11.2,29.5,11.2,40.7,0c1.3-1.3,2.3-2.6,3.3-4l0,0
	c0,0,16.5,11.3,38.9,11.1v0c8.7,0.4,18.2-0.2,28.4-1.8c33.7-5.4,58.8-24.6,77.5-49.2C443.3,63.7,354,0,249.9,0
	C111.8,0-0.1,111.9-0.1,250c0,138.1,111.9,250,250,250c138.1,0,250-111.9,250-250C499.9,218.7,494.1,188.7,483.5,161z"/>
</svg>
