<?xml version="1.0" encoding="utf-8"?>
<!-- Generator: Adobe Illustrator 21.0.2, SVG Export Plug-In . SVG Version: 6.00 Build 0)  -->
<svg version="1.1" id="Layer_1" xmlns="http://www.w3.org/2000/svg" xmlns:xlink="http://www.w3.org/1999/xlink" x="0px" y="0px"
	 viewBox="0 0 500 500" style="enable-background:new 0 0 500 500;" xml:space="preserve">
<style type="text/css">
	.st0{fill:#333333;}
</style>
<g>
	<path class="st0" d="M278.2,304.5c21.4,0,38.9-17.4,38.9-38.9s-17.4-38.9-38.9-38.9c-21.4,0-38.9,17.4-38.9,38.9
		S256.8,304.5,278.2,304.5z M278.2,233c18,0,32.6,14.6,32.6,32.6s-14.6,32.6-32.6,32.6c-18,0-32.6-14.6-32.6-32.6
		S260.2,233,278.2,233z"/>
	<path class="st0" d="M250,0C111.9,0,0,111.9,0,250s111.9,250,250,250c138.1,0,250-111.9,250-250S388.1,0,250,0z M156,167.2H182v6.6
		H156V167.2z M379.1,328.9c0,10.9-8.9,19.7-19.7,19.7H143.9c-10.9,0-19.7-8.9-19.7-19.7v-79.6h90.1c-1.3,5.2-2.1,10.7-2.1,16.3
		c0,36.4,29.6,66,66,66s66-29.6,66-66c0-5.6-0.8-11.1-2.1-16.3h37V328.9z M224.7,265.6c0-29.5,24-53.5,53.5-53.5
		c29.5,0,53.5,24,53.5,53.5c0,29.5-24,53.5-53.5,53.5C248.7,319.1,224.7,295.1,224.7,265.6z M379.1,236.8h-41.6
		c-10.7-22-33.2-37.2-59.3-37.2s-48.6,15.2-59.3,37.2h-94.7v-34.4c0-10.9,8.9-19.7,19.7-19.7h69.9l35.5-32.8h57.8l35.5,32.8h16.8
		c10.9,0,19.7,8.9,19.7,19.7V236.8z"/>
</g>
</svg>
