<?xml version="1.0" encoding="utf-8"?>
<!-- Generator: Adobe Illustrator 21.0.2, SVG Export Plug-In . SVG Version: 6.00 Build 0)  -->
<svg version="1.1" id="Layer_1" xmlns="http://www.w3.org/2000/svg" xmlns:xlink="http://www.w3.org/1999/xlink" x="0px" y="0px"
	 viewBox="0 0 500 500" style="enable-background:new 0 0 500 500;" xml:space="preserve">
<style type="text/css">
	.st0{fill:#333333;}
</style>
<g>
	<polygon class="st0" points="312,269.7 258.8,177.5 238.9,212 271.5,269.7 	"/>
	<polygon class="st0" points="258.8,269.7 219.9,202.4 181.1,269.7 205.6,269.7 	"/>
	<rect x="181.1" y="305.5" class="st0" width="77.7" height="6.3"/>
	<path class="st0" d="M316.6,9v89.9h4.2v12.8h-14.6V98.9h4.2V7.4C291,2.6,270.8,0,250,0c-21.9,0-43.1,2.8-63.3,8.1v90.8h4.2v12.8
		h-14.6V98.9h4.2v-89C76.2,40,0,136.1,0,250c0,138.1,111.9,250,250,250c138.1,0,250-111.9,250-250C500,135,422.3,38.2,316.6,9z
		 M348.1,395.3H148.3V98.9H170V118h27.1V98.9h102.8V118H327V98.9h21.1V395.3z"/>
	<rect x="181.1" y="284.4" class="st0" width="130.9" height="6.3"/>
</g>
</svg>
