<?xml version="1.0" encoding="utf-8"?>
<!-- Generator: Adobe Illustrator 21.0.2, SVG Export Plug-In . SVG Version: 6.00 Build 0)  -->
<svg version="1.1" id="Layer_1" xmlns="http://www.w3.org/2000/svg" xmlns:xlink="http://www.w3.org/1999/xlink" x="0px" y="0px"
	 viewBox="0 0 2000 2000" style="enable-background:new 0 0 2000 2000;" xml:space="preserve">
<style type="text/css">
	.st0{fill:#333333;}
</style>
<g>
	<g>
		<path class="st0" d="M1000,2000C448.6,2000,0,1551.4,0,1000S448.6,0,1000,0s1000,448.6,1000,1000S1551.4,2000,1000,2000z
			 M1000,66.3C485.2,66.3,66.3,485.2,66.3,1000c0,514.8,418.9,933.7,933.7,933.7c514.9,0,933.7-418.9,933.7-933.7
			C1933.7,485.2,1514.8,66.3,1000,66.3z"/>
	</g>
	<g>
		<g>
			<path class="st0" d="M1381.5,1454.7h-763c-51.1,0-92.7-40-92.7-89.2v-56.1c0-132.3,89.6-248.3,222.8-288.8
				c89.4-28.5,90.9-77.4,90.9-79.5l61.4,1.3c0.2,4.1,8.3,96.6-132.6,141.5c-105.6,32.1-176.3,122.6-176.3,225.5v56.1
				c0,12.4,12.1,22.9,26.4,22.9h763c14.3,0,26.4-10.5,26.4-22.9v-56.1c0-102.6-70.5-193.1-175.4-225.2
				c-141.1-45-138.4-135-138.2-139l66.1-3.3c0.1,1.2,1.8,50.4,91.9,79.1c132.6,40.5,221.9,156.5,221.9,288.5v56.1
				C1474.2,1414.7,1432.6,1454.7,1381.5,1454.7z"/>
		</g>
		<g>
			<path class="st0" d="M1000,1047.2c-140.6,0-255-145.3-255-324c0-140.6,114.4-255,255-255c140.6,0,255,114.4,255,255
				C1255,901.8,1140.6,1047.2,1000,1047.2z M1000,534.5c-104,0-188.7,84.6-188.7,188.7c0,142.1,84.6,257.7,188.7,257.7
				c104.1,0,188.7-115.6,188.7-257.7C1188.7,619.1,1104,534.5,1000,534.5z"/>
		</g>
	</g>
</g>
</svg>
