<?xml version="1.0" encoding="utf-8"?>
<!-- Generator: Adobe Illustrator 21.0.2, SVG Export Plug-In . SVG Version: 6.00 Build 0)  -->
<svg version="1.1" id="Layer_1" xmlns="http://www.w3.org/2000/svg" xmlns:xlink="http://www.w3.org/1999/xlink" x="0px" y="0px"
	 viewBox="0 0 2000 2000" style="enable-background:new 0 0 2000 2000;" xml:space="preserve">
<style type="text/css">
	.st0{fill:#333333;}
	.st1{fill:#AFCFDB;}
</style>
<g>
	<path class="st1" d="M1000,1830.4c-457.9,0-830.4-372.5-830.4-830.4S542.1,169.6,1000,169.6s830.4,372.5,830.4,830.4
		S1457.9,1830.4,1000,1830.4z M1000,201.3c-440.4,0-798.7,358.3-798.7,798.7s358.3,798.7,798.7,798.7s798.7-358.3,798.7-798.7
		S1440.4,201.3,1000,201.3z"/>
</g>
<g>
	<path class="st0" d="M1000,2000C448.6,2000,0,1551.4,0,1000C0,448.6,448.6,0,1000,0c551.4,0,1000,448.6,1000,1000
		C2000,1551.4,1551.4,2000,1000,2000z M1000,31.7C466.1,31.7,31.7,466.1,31.7,1000s434.4,968.3,968.3,968.3s968.3-434.4,968.3-968.3
		S1533.9,31.7,1000,31.7z"/>
</g>
</svg>
