<?xml version="1.0" encoding="utf-8"?>
<!-- Generator: Adobe Illustrator 21.0.2, SVG Export Plug-In . SVG Version: 6.00 Build 0)  -->
<svg version="1.1" id="Layer_1" xmlns="http://www.w3.org/2000/svg" xmlns:xlink="http://www.w3.org/1999/xlink" x="0px" y="0px"
	 viewBox="0 0 1000 1000" style="enable-background:new 0 0 1000 1000;" xml:space="preserve">
<style type="text/css">
	.st0{fill:#253654;}
	.st1{fill:#FFFFFF;}
</style>
<rect class="st0" width="1000" height="1000"/>
<g>
	<polygon class="st1" points="396.2,606.9 396.2,606.9 396.2,599.5 396.2,87.4 293.2,87.4 293.2,606.9 295.7,609.4 396.2,710 
		540.6,710 554,606.9 396.2,606.9 	"/>
	<polygon class="st1" points="603.8,710 661.2,652.5 706.8,606.9 706.8,376.7 596.3,710 	"/>
	<polygon class="st1" points="719.5,87.4 604.1,87.4 604.1,87.4 603.8,87.4 603.8,91.1 581.8,343.2 615.5,343.2 567.9,710 
		708.3,286.5 675.9,286.5 	"/>
</g>
<g>
	<path class="st1" d="M329.5,873.1h-36.4v-88.4h13.3v75.2h23V873.1z"/>
	<path class="st1" d="M352,873.1h-13.3v-88.4H352V873.1z"/>
	<path class="st1" d="M385,874.2c-5.9,0-10.9-2.1-15-6.2c-4.1-4.1-6.2-9.1-6.2-14.9v-48.3c0-5.9,2.1-10.9,6.2-15
		c4.1-4.1,9.1-6.2,15-6.2c5.9,0,10.9,2.1,15,6.2c4.1,4.1,6.1,9.1,6.1,15v10.1h-13.8v-10.4c0-2.1-0.8-3.9-2.3-5.4
		c-1.5-1.5-3.3-2.3-5.4-2.3c-2.1,0-3.9,0.8-5.4,2.3c-1.5,1.5-2.2,3.3-2.2,5.4V853c0,2.1,0.7,3.9,2.2,5.4c1.5,1.5,3.3,2.2,5.4,2.2
		c2.1,0,3.9-0.7,5.4-2.2c1.5-1.5,2.3-3.3,2.3-5.4v-17.4h-7.4v-13.4h21.2v30.9c0,5.9-2.1,10.9-6.2,15
		C395.8,872.2,390.8,874.2,385,874.2z"/>
	<path class="st1" d="M431,835.6v37.5h-13.3v-88.4H431v37.6h16.1v-37.6h13.3v88.4h-13.3v-37.5H431z"/>
	<path class="st1" d="M485.4,798.1h-14.2v-13.4h41.6v13.4h-14.1v75h-13.3V798.1z"/>
	<path class="st1" d="M538.6,784.6l17.7,59.5v-59.5h13.3v88.5h-14.3l-18.4-56.7v56.7h-13.3v-88.5H538.6z"/>
	<path class="st1" d="M594.9,873.1h-13.3v-88.4h13.3V873.1z"/>
	<path class="st1" d="M621.8,784.6l17.7,59.5v-59.5h13.3v88.5h-14.3l-18.4-56.7v56.7h-13.3v-88.5H621.8z"/>
	<path class="st1" d="M685.7,874.2c-5.9,0-10.9-2.1-15-6.2c-4.1-4.1-6.2-9.1-6.2-14.9v-48.3c0-5.9,2.1-10.9,6.2-15
		c4.1-4.1,9.1-6.2,15-6.2c5.9,0,10.9,2.1,15,6.2c4.1,4.1,6.1,9.1,6.1,15v10.1H693v-10.4c0-2.1-0.8-3.9-2.3-5.4
		c-1.5-1.5-3.3-2.3-5.4-2.3c-2.1,0-3.9,0.8-5.4,2.3c-1.5,1.5-2.2,3.3-2.2,5.4V853c0,2.1,0.7,3.9,2.2,5.4c1.5,1.5,3.3,2.2,5.4,2.2
		c2.1,0,3.9-0.7,5.4-2.2c1.5-1.5,2.3-3.3,2.3-5.4v-17.4h-7.4v-13.4h21.2v30.9c0,5.9-2.1,10.9-6.2,15
		C696.5,872.2,691.5,874.2,685.7,874.2z"/>
</g>
</svg>
