<?xml version="1.0" encoding="utf-8"?>
<!-- Generator: Adobe Illustrator 21.0.2, SVG Export Plug-In . SVG Version: 6.00 Build 0)  -->
<svg version="1.1" id="Layer_1" xmlns="http://www.w3.org/2000/svg" xmlns:xlink="http://www.w3.org/1999/xlink" x="0px" y="0px"
	 viewBox="0 0 1000 1000" style="enable-background:new 0 0 1000 1000;" xml:space="preserve">
<style type="text/css">
	.st0{fill:#4D4C4D;}
	.st1{fill:#D5CDA6;}
</style>
<rect x="-8.1" y="-8.1" class="st0" width="1022.8" height="1022.8"/>
<g>
	<path class="st1" d="M296.1,498.5v-12.2H317v12.2c0,0.8-0.5,1.2-1.4,1.2v1.2h10v-1.2c-0.3,0-0.6-0.1-0.8-0.3
		c-0.2-0.2-0.4-0.5-0.4-0.9V469c0-0.4,0.1-0.7,0.4-0.9c0.2-0.2,0.5-0.3,0.8-0.3v-1.2h-10v1.2c1,0,1.4,0.4,1.4,1.2V480h-20.9V469
		c0-0.4,0.1-0.7,0.4-0.9c0.2-0.2,0.5-0.3,0.8-0.3v-1.2h-9.8v1.2c0.8,0,1.2,0.4,1.2,1.2v29.5c0,0.8-0.4,1.2-1.2,1.2v1.2h9.8v-1.2
		c-0.3,0-0.6-0.1-0.8-0.3C296.2,499.2,296.1,498.9,296.1,498.5z"/>
	<path class="st1" d="M338,469v19.2c0,2.6,0.4,4.7,1.1,6.3c0.7,1.7,1.8,3,3.3,4c1.5,1,3.3,1.7,5.5,2c2.2,0.3,4.7,0.5,7.6,0.5
		c2.9,0,5.4-0.2,7.6-0.5c2.2-0.3,4-1,5.5-2c1.5-1,2.6-2.3,3.3-4c0.7-1.7,1.1-3.8,1.1-6.3V469c0-0.8,0.5-1.2,1.6-1.2v-1.2h-10.4v1.2
		c1.3,0,2,0.4,2,1.2v19.5c0,2.7-0.9,4.6-2.6,5.6c-1.8,1-4.3,1.5-7.7,1.5c-3.4,0-6-0.5-7.7-1.5c-1.8-1-2.6-2.9-2.6-5.6V469
		c0-0.8,0.5-1.2,1.4-1.2v-1.2h-10.7v1.2C337.4,467.8,338,468.2,338,469z"/>
	<path class="st1" d="M394.4,499.7c-1,0-1.5-0.4-1.5-1.2v-21.6l19.8,20.7c0.7,0.7,1,1.2,1,1.5c0,0.4-0.3,0.6-0.8,0.6v1.2h10.5v-1.2
		c-0.8,0-1.2-0.4-1.2-1.2V469c0-0.8,0.4-1.2,1.2-1.2v-1.2h-9.8v1.2c1.1,0,1.7,0.4,1.7,1.2v20.7l-18.7-19.4c-0.9-0.9-1.3-1.5-1.3-1.8
		c0-0.4,0.2-0.7,0.5-0.7v-1.2h-11.1v1.2c0.8,0,1.2,0.4,1.2,1.2v29.5c0,0.8-0.4,1.2-1.2,1.2v1.2h9.6V499.7z"/>
	<path class="st1" d="M433.7,472.9c0.4-0.2,0.7-0.3,1.1-0.3h10.7v25.9c0,0.4-0.1,0.7-0.4,0.9c-0.2,0.2-0.5,0.3-0.8,0.3v1.2h10v-1.2
		c-1,0-1.4-0.4-1.4-1.2v-25.9h10.7c0.4,0,0.8,0.1,1.1,0.3c0.4,0.2,0.6,0.6,0.6,1.2h1.2v-9.1h-1.2c0,0.6-0.2,1-0.6,1.2
		c-0.4,0.2-0.7,0.3-1.1,0.3h-28.9c-0.4,0-0.8-0.1-1.1-0.3c-0.4-0.2-0.6-0.6-0.6-1.2H432v9.1h1.2
		C433.1,473.6,433.3,473.2,433.7,472.9z"/>
	<path class="st1" d="M506.7,501c0.4,0.1,0.6,0.5,0.6,1.1h1.2v-8.9h-1.2c0,0.5-0.2,0.9-0.6,1.2c-0.4,0.3-0.9,0.5-1.6,0.5h-21.7v-9
		h12.8c0.9,0,1.5,0.1,2,0.4c0.5,0.3,0.7,0.9,0.7,1.9h1.2v-10.1h-1.2c0,1-0.2,1.6-0.7,1.9c-0.5,0.2-1.1,0.4-2,0.4h-12.8v-8.1h21.1
		c0.9,0,1.6,0.1,1.9,0.4c0.4,0.2,0.6,0.6,0.6,1.1h1.2v-8.6h-1.2c0,0.5-0.2,0.9-0.6,1.1c-0.4,0.3-1,0.4-1.9,0.4h-29.7v1.2
		c0.3,0,0.6,0.1,0.8,0.3c0.2,0.2,0.4,0.5,0.4,0.9v29.5c0,0.4-0.1,0.7-0.4,0.9c-0.2,0.2-0.5,0.3-0.8,0.3v1.2h30.3
		C505.7,500.8,506.3,500.9,506.7,501z"/>
	<path class="st1" d="M529,499.7c-0.7,0-1.2-0.1-1.5-0.3c-0.3-0.2-0.4-0.5-0.4-0.9v-11.6h9.3l7.2,10.1c0.3,0.5,0.6,0.9,0.8,1.1
		c0.2,0.3,0.3,0.5,0.3,0.7c0,0.2-0.1,0.4-0.4,0.5c-0.3,0.1-0.6,0.2-1,0.2v1.2h12.2v-1.2c-0.3,0-0.7,0-1.1-0.1
		c-0.4-0.1-0.8-0.3-1.1-0.8l-8.7-12.4c2.9-0.5,5.1-1.5,6.8-3.1c1.7-1.5,2.5-3.7,2.5-6.6c0-1.9-0.3-3.4-1-4.7
		c-0.7-1.3-1.6-2.3-2.8-3.1c-1.2-0.8-2.7-1.4-4.4-1.8c-1.7-0.4-3.6-0.6-5.7-0.6h-22.2v1.2c1.3,0,1.9,0.4,1.9,1.2v29.5
		c0,0.8-0.6,1.2-1.9,1.2v1.2H529V499.7z M527.1,472.2h11.3c1.6,0,2.9,0.1,3.9,0.4c1,0.2,1.9,0.6,2.5,1c0.6,0.4,1,0.9,1.3,1.5
		c0.3,0.6,0.4,1.2,0.4,1.9c0,0.7-0.1,1.3-0.4,1.9c-0.3,0.6-0.7,1.1-1.3,1.5c-0.6,0.4-1.4,0.8-2.5,1c-1,0.2-2.3,0.4-3.9,0.4h-11.3
		V472.2z"/>
	<path class="st1" d="M583.6,472.9c0.4-0.2,0.7-0.3,1.1-0.3h10.7v25.9c0,0.4-0.1,0.7-0.4,0.9c-0.2,0.2-0.5,0.3-0.8,0.3v1.2h10v-1.2
		c-1,0-1.4-0.4-1.4-1.2v-25.9h10.7c0.4,0,0.8,0.1,1.1,0.3c0.4,0.2,0.6,0.6,0.6,1.2h1.2v-9.1h-1.2c0,0.6-0.2,1-0.6,1.2
		c-0.4,0.2-0.7,0.3-1.1,0.3h-28.9c-0.4,0-0.8-0.1-1.1-0.3c-0.4-0.2-0.6-0.6-0.6-1.2h-1.2v9.1h1.2
		C583.1,473.6,583.3,473.2,583.6,472.9z"/>
	<path class="st1" d="M635.6,499.7c-0.7,0-1.2-0.1-1.5-0.3c-0.3-0.2-0.4-0.5-0.4-0.9v-11.6h9.3l7.2,10.1c0.3,0.5,0.6,0.9,0.8,1.1
		c0.2,0.3,0.3,0.5,0.3,0.7c0,0.2-0.1,0.4-0.4,0.5c-0.3,0.1-0.6,0.2-1,0.2v1.2h12.2v-1.2c-0.3,0-0.7,0-1.1-0.1
		c-0.4-0.1-0.8-0.3-1.1-0.8l-8.7-12.4c2.9-0.5,5.1-1.5,6.8-3.1c1.7-1.5,2.5-3.7,2.5-6.6c0-1.9-0.3-3.4-1-4.7
		c-0.7-1.3-1.6-2.3-2.8-3.1c-1.2-0.8-2.7-1.4-4.4-1.8c-1.7-0.4-3.6-0.6-5.7-0.6h-22.2v1.2c1.3,0,1.9,0.4,1.9,1.2v29.5
		c0,0.8-0.6,1.2-1.9,1.2v1.2h11.3V499.7z M633.6,472.2h11.3c1.6,0,2.9,0.1,3.9,0.4c1,0.2,1.9,0.6,2.5,1c0.6,0.4,1,0.9,1.3,1.5
		c0.3,0.6,0.4,1.2,0.4,1.9c0,0.7-0.1,1.3-0.4,1.9c-0.3,0.6-0.7,1.1-1.3,1.5c-0.6,0.4-1.4,0.8-2.5,1c-1,0.2-2.3,0.4-3.9,0.4h-11.3
		V472.2z"/>
	<path class="st1" d="M703.6,501c0.4,0.1,0.6,0.5,0.6,1.1h1.2v-8.9h-1.2c0,0.5-0.2,0.9-0.6,1.2c-0.4,0.3-0.9,0.5-1.6,0.5h-21.7v-9
		H693c0.9,0,1.5,0.1,2,0.4c0.5,0.3,0.7,0.9,0.7,1.9h1.2v-10.1h-1.2c0,1-0.2,1.6-0.7,1.9c-0.5,0.2-1.1,0.4-2,0.4h-12.8v-8.1h21.1
		c0.9,0,1.6,0.1,1.9,0.4c0.4,0.2,0.6,0.6,0.6,1.1h1.2v-8.6h-1.2c0,0.5-0.2,0.9-0.6,1.1c-0.4,0.3-1,0.4-1.9,0.4h-29.7v1.2
		c0.3,0,0.6,0.1,0.8,0.3c0.2,0.2,0.4,0.5,0.4,0.9v29.5c0,0.4-0.1,0.7-0.4,0.9c-0.2,0.2-0.5,0.3-0.8,0.3v1.2H702
		C702.7,500.8,703.2,500.9,703.6,501z"/>
	<path class="st1" d="M725,499.7c-1.2,0-1.8-0.4-1.8-1.2v-21.7h0.1l12.8,24h0.2l13.1-23.9h0.1v21.6c0,0.8-0.6,1.2-1.8,1.2v1.2H758
		v-1.2c-0.3,0-0.7-0.1-0.9-0.3c-0.3-0.2-0.4-0.5-0.4-0.9v-29.7c0-0.4,0.1-0.7,0.4-0.8c0.3-0.2,0.6-0.2,0.9-0.2v-1.2h-12v1.2
		c0.6,0,0.8,0.2,0.8,0.7c0,0.3-0.1,0.6-0.2,0.9c-0.2,0.3-0.4,0.8-0.7,1.3l-9.4,16.7l-9.3-16.9c-0.2-0.4-0.4-0.8-0.6-1.1
		c-0.2-0.3-0.3-0.6-0.3-0.8c0-0.3,0.1-0.5,0.4-0.6c0.2-0.1,0.5-0.2,0.7-0.2v-1.2h-12.2v1.2c0.3,0,0.7,0.1,0.9,0.2
		c0.3,0.2,0.4,0.4,0.4,0.8v29.7c0,0.4-0.1,0.7-0.4,0.9c-0.3,0.2-0.6,0.3-0.9,0.3v1.2h9.8V499.7z"/>
	<path class="st1" d="M798.4,500.2c1.6-0.5,3-1.1,4.1-1.9c1.1-0.8,1.9-1.8,2.5-2.9c0.6-1.1,0.8-2.3,0.8-3.6c0-2.5-0.7-4.4-2.1-5.7
		c-1.4-1.3-3.1-2.3-5.2-2.9V483c1.7-0.6,3.2-1.5,4.5-2.6c1.3-1.1,1.9-2.7,1.9-4.7c0-1.7-0.4-3.1-1.3-4.3c-0.9-1.1-2-2.1-3.4-2.8
		c-1.4-0.7-3.1-1.2-4.9-1.6c-1.9-0.3-3.8-0.5-5.8-0.5h-20.4v1.2c1.2,0,1.8,0.4,1.8,1.2v29.5c0,0.8-0.6,1.2-1.8,1.2v1.2H793
		C795,500.8,796.8,500.6,798.4,500.2z M778.3,472.2h12.4c2,0,3.6,0.2,4.8,0.7c1.3,0.5,1.9,1.6,1.9,3.2c0,1.6-0.6,2.7-1.9,3.2
		c-1.3,0.5-2.9,0.7-4.8,0.7h-12.4V472.2z M778.3,494.9v-9.2h12.4c2.7,0,4.7,0.4,5.9,1.3c1.2,0.8,1.8,2,1.8,3.4
		c0,1.4-0.6,2.5-1.8,3.4c-1.2,0.8-3.2,1.3-5.9,1.3H778.3z"/>
	<path class="st1" d="M847.4,501c0.4,0.1,0.6,0.5,0.6,1.1h1.2v-8.9H848c0,0.5-0.2,0.9-0.6,1.2c-0.4,0.3-0.9,0.5-1.6,0.5h-21.6V469
		c0-0.8,0.6-1.2,1.8-1.2v-1.2h-11.2v1.2c1.3,0,2,0.4,2,1.2v29.5c0,0.8-0.7,1.2-2,1.2v1.2h31C846.4,500.8,847,500.9,847.4,501z"/>
	<path class="st1" d="M887.9,501c0.4,0.1,0.6,0.5,0.6,1.1h1.2v-8.9h-1.2c0,0.5-0.2,0.9-0.6,1.2c-0.4,0.3-0.9,0.5-1.6,0.5h-21.7v-9
		h12.8c0.9,0,1.5,0.1,2,0.4c0.5,0.3,0.7,0.9,0.7,1.9h1.2v-10.1h-1.2c0,1-0.2,1.6-0.7,1.9c-0.5,0.2-1.1,0.4-2,0.4h-12.8v-8.1h21.1
		c0.9,0,1.5,0.1,1.9,0.4c0.4,0.2,0.6,0.6,0.6,1.1h1.2v-8.6h-1.2c0,0.5-0.2,0.9-0.6,1.1c-0.4,0.3-1,0.4-1.9,0.4H856v1.2
		c0.3,0,0.6,0.1,0.8,0.3c0.2,0.2,0.4,0.5,0.4,0.9v29.5c0,0.4-0.1,0.7-0.4,0.9c-0.2,0.2-0.5,0.3-0.8,0.3v1.2h30.3
		C887,500.8,887.5,500.9,887.9,501z"/>
	<path class="st1" d="M921.4,466.6v1.2c0.3,0,0.7,0,1.1,0.1c0.4,0.1,0.6,0.3,0.6,0.6c0,0.3-0.1,0.5-0.3,0.8
		c-0.2,0.3-0.5,0.7-0.8,1.2l-7.6,10.5c-0.6-0.9-1.3-2-2.2-3.3c-0.9-1.3-1.8-2.6-2.6-3.8c-0.8-1.2-1.6-2.3-2.2-3.3
		c-0.6-1-0.9-1.6-0.9-1.9c0-0.4,0.2-0.7,0.5-0.8c0.3-0.1,0.7-0.2,1.1-0.2v-1.2h-13.5v1.2c0.4,0,1,0.2,1.6,0.5
		c0.6,0.3,1.1,0.7,1.4,1.1l12.6,17.6v11.6c0,0.4-0.1,0.7-0.4,0.9c-0.3,0.2-0.6,0.3-1,0.3v1.2H919v-1.2c-1,0-1.5-0.4-1.5-1.2v-11.6
		l11.1-15.7c0.5-0.8,1-1.4,1.3-1.9c0.4-0.5,0.7-0.8,1-1c0.3-0.2,0.6-0.4,0.9-0.5c0.3-0.1,0.6-0.1,1-0.1v-1.2H921.4z"/>
	<rect x="301.2" y="525.4" class="st1" width="617.8" height="2.9"/>
	<path class="st1" d="M385.6,574.4c-0.3,0-0.8,0-1.3-0.2c-0.7-0.2-1.7-0.7-2.9-3.8c-2.1-5.2-7.4-19.2-7.9-20.5
		c-0.4-1.1-0.5-1.2-0.7-1.2s-0.3,0.2-0.7,1.3l-7.7,21.1c-0.6,1.7-1.3,3-2.9,3.2c-0.3,0-0.6,0.1-0.8,0.1c-0.3,0-0.5,0.1-0.5,0.2
		c0,0.2,0.2,0.3,0.6,0.3c1.6,0,3.5-0.1,3.8-0.1c0.4,0,1.7,0.1,2.5,0.1c0.3,0,0.6-0.1,0.6-0.3c0-0.1-0.1-0.2-0.4-0.2
		c-0.1,0-0.2,0-0.3,0c-0.6,0-1.2-0.3-1.2-1c0-0.6,0.2-1.4,0.5-2.3l2-6c0.1-0.2,0.2-0.3,0.3-0.3h7.3c0.2,0,0.2,0.1,0.3,0.2l3.2,8.4
		c0.2,0.5,0,0.8-0.2,0.9c-0.1,0-0.2,0.1-0.2,0.2c0,0.2,0.4,0.2,1,0.2c2.3,0.1,4.8,0.1,5.3,0.1c0.4,0,0.7-0.1,0.7-0.3
		C386,574.5,385.8,574.4,385.6,574.4z M375.5,563.7H369c-0.1,0-0.2-0.1-0.1-0.2l3-9.2c0.2-0.5,0.3-0.5,0.5,0l3.2,9.2
		C375.7,563.6,375.7,563.7,375.5,563.7z"/>
	<path class="st1" d="M407.2,569.5c-0.2,0-0.3,0.2-0.4,0.5c-0.2,1-0.5,1.8-1.1,2.4c-1.2,1.2-2.9,1.4-5.2,1.4c-6,0-10.6-5-10.6-10.6
		c0-3,0.5-5.4,2.7-7.4c1-0.9,2.8-2,6.5-2c2.6,0,5,0.8,6,1.7c0.8,0.6,1.3,2,1.3,3c0,0.4,0,0.6,0.3,0.6c0.2,0,0.2-0.2,0.3-0.6
		c0-0.4,0-2.2,0.1-3.1c0.1-1.1,0.2-1.4,0.2-1.7c0-0.2,0-0.3-0.3-0.3c-0.8,0-1.9-0.2-3-0.4c-1.7-0.2-2.9-0.4-4.5-0.4
		c-4.6,0-7.3,1.3-9.1,3c-2.7,2.6-3.4,5.9-3.4,7.8c0,2.8,0.7,6.1,3.6,8.7c2.4,2.1,5.5,3.1,10,3.1c1.9,0,4.2-0.2,5.4-0.7
		c0.5-0.2,0.6-0.3,0.8-0.8c0.2-0.7,0.7-3.5,0.7-3.8C407.3,569.7,407.3,569.5,407.2,569.5z"/>
	<path class="st1" d="M431.3,569.5c-0.2,0-0.3,0.2-0.4,0.5c-0.2,1-0.5,1.8-1.1,2.4c-1.2,1.2-2.9,1.4-5.2,1.4c-6,0-10.6-5-10.6-10.6
		c0-3,0.5-5.4,2.7-7.4c1-0.9,2.8-2,6.5-2c2.6,0,5,0.8,6,1.7c0.8,0.6,1.3,2,1.3,3c0,0.4,0,0.6,0.3,0.6c0.2,0,0.2-0.2,0.3-0.6
		c0-0.4,0-2.2,0.1-3.1c0.1-1.1,0.2-1.4,0.2-1.7c0-0.2,0-0.3-0.3-0.3c-0.8,0-1.9-0.2-3-0.4c-1.7-0.2-2.9-0.4-4.5-0.4
		c-4.6,0-7.3,1.3-9.1,3c-2.7,2.6-3.4,5.9-3.4,7.8c0,2.8,0.7,6.1,3.6,8.7c2.4,2.1,5.5,3.1,10,3.1c1.9,0,4.2-0.2,5.4-0.7
		c0.5-0.2,0.6-0.3,0.8-0.8c0.2-0.7,0.7-3.5,0.7-3.8C431.4,569.7,431.4,569.5,431.3,569.5z"/>
	<path class="st1" d="M447,552.7c-8.4,0-11.9,6.8-11.9,11.3c0,5.2,3.4,11.3,11.7,11.3c7.2,0,12-5.3,12-11.8
		C458.9,556.7,453.7,552.7,447,552.7z M447.7,574.1c-5.7,0-9.4-4.4-9.4-11.1c0-6.4,3.8-9.3,8.5-9.3c4.7,0,8.9,3.8,8.9,10.6
		C455.7,573,450,574.1,447.7,574.1z"/>
	<path class="st1" d="M484.6,553.1c-1,0-2.4,0.1-2.6,0.1c-0.1,0-1.8-0.1-3.3-0.1c-0.3,0-0.5,0.1-0.5,0.3c0,0.1,0.1,0.2,0.3,0.2
		c0.3,0,0.7,0,1,0.1c1.1,0.2,1.2,0.7,1.3,1.7c0.1,0.9,0.1,1.7,0.1,6.1v3.6c0,3-0.3,5.5-1.7,7.1c-1.3,1.5-2.9,2-4.7,2
		c-1.4,0-3-0.3-4.5-1.6c-1.3-1.2-2.1-2.9-2.1-7.1v-4c0-4.5,0-5.3,0-6.2c0.1-1,0.2-1.5,1-1.6c0.3,0,0.5-0.1,0.7-0.1
		c0.2,0,0.4-0.1,0.4-0.2c0-0.2-0.1-0.2-0.5-0.2c-0.9,0-2.9,0.1-3.2,0.1c-0.2,0-2.1-0.1-3.5-0.1c-0.4,0-0.5,0.1-0.5,0.3
		c0,0.1,0.1,0.2,0.4,0.2c0.3,0,0.7,0,0.9,0.1c1.1,0.1,1.2,0.7,1.3,1.6c0.1,0.9,0.1,1.7,0.1,6.2v4.2c0,4.2,1.1,6.3,2.5,7.6
		c2.2,2,5.4,2,6.4,2c1.8,0,4-0.2,6.2-2c2.4-2.1,2.8-5.7,2.8-8.8v-3c0-4.5,0-5.2,0-6.1c0.1-1,0.2-1.6,1.2-1.7c0.3,0,0.4,0,0.6,0
		c0.2,0,0.3-0.1,0.3-0.2C485.1,553.1,485,553.1,484.6,553.1z"/>
	<path class="st1" d="M536.4,552.9c-0.1,0-0.2,0-0.6,0.1c-0.5,0.1-1.5,0.2-2.4,0.2h-11.1c0,0-1,0-2.2-0.2c-0.6-0.1-1.3-0.4-1.5-0.4
		c-0.1,0-0.2,0.1-0.3,0.5c-0.2,0.9-0.7,3.2-0.7,3.4c0,0.2,0,0.3,0.2,0.3c0.1,0,0.2,0,0.3-0.3c0.1-0.2,0.2-0.6,0.5-1.1
		c0.5-0.7,1-1.1,3.1-1.1c1.4,0,3.2,0,4.3,0v12.1c0,2.5,0,5-0.1,6.2c-0.1,1.2-0.2,1.6-0.9,1.7c-0.3,0-0.5,0-0.7,0
		c-0.3,0-0.4,0.1-0.4,0.2c0,0.2,0.1,0.2,0.5,0.2c0.9,0,2.9-0.1,3-0.1c0.1,0,2.1,0.1,3.9,0.1c0.3,0,0.4-0.1,0.4-0.3
		c0-0.1-0.1-0.2-0.4-0.2c-0.3,0-0.9,0-1.3-0.1c-0.8-0.2-0.9-0.7-1-1.5c-0.1-1.3-0.2-3.7-0.2-6.3v-12.1c1,0,2,0,3.3,0
		c3.4,0,3.9,0.4,4,1.7c0,0.3,0,0.4,0,0.5c0,0.3,0.1,0.4,0.2,0.4c0.1,0,0.2-0.1,0.2-0.4c0-0.3,0.1-2.5,0.1-3.5
		C536.6,553,536.5,552.9,536.4,552.9z"/>
	<path class="st1" d="M548.1,574.4c-0.1,0-0.8,0-1.3-0.1c-0.9-0.2-1-0.6-1.2-1.6c-0.2-1.2-0.1-3.6-0.1-6.2v-5.1c0-4.5,0-5.3,0-6.2
		c0.1-1,0.2-1.5,1.2-1.6c0.2,0,0.4,0,0.6-0.1c0.3,0,0.4-0.1,0.4-0.2c0-0.2-0.2-0.2-0.5-0.2c-1,0-2.9,0.1-3.1,0.1
		c-0.1,0-2-0.1-3.1-0.1c-0.4,0-0.5,0.1-0.5,0.2c0,0.1,0.1,0.2,0.4,0.2c0.2,0,0.4,0,0.8,0.1c0.7,0.1,0.9,0.6,1,1.6
		c0.1,0.9,0.1,1.7,0.1,6.2v5.1c0,2.5,0,5-0.2,6.2c-0.1,0.8-0.2,1.5-0.8,1.6c-0.3,0.1-0.6,0.1-0.8,0.1c-0.3,0-0.4,0.1-0.4,0.2
		c0,0.2,0.2,0.2,0.5,0.2c1,0,3-0.1,3.1-0.1c0.2,0,2.1,0.1,3.9,0.1c0.3,0,0.5-0.1,0.5-0.2C548.4,574.5,548.4,574.5,548.1,574.4z"/>
	<path class="st1" d="M576.5,553.1c-1.3,0-2.4,0.1-2.7,0.1c-0.3,0-1.7-0.1-3.2-0.1c-0.3,0-0.6,0-0.6,0.2c0,0.1,0.1,0.3,0.4,0.3
		c0.2,0,0.7,0,1.3,0.1c0.9,0.2,1.1,0.8,1.2,2.7l0.4,14.1c-0.9-0.8-4.3-4.3-6.9-6.9c-4.8-4.9-9.5-9.7-9.8-10
		c-0.2-0.2-0.8-0.9-1.1-0.9c-0.3,0-0.4,0.3-0.4,1.4c0,5.6,0,0.4,0,16.6c0,2.5-0.2,3.4-0.9,3.6c-0.4,0.1-0.8,0.1-1.1,0.1
		c-0.3,0-0.5,0.1-0.5,0.2c0,0.2,0.2,0.2,0.5,0.2c1.5,0,2.7-0.1,3-0.1c0.2,0,1.5,0.1,3.3,0.1c0.4,0,0.5-0.1,0.5-0.2
		c0-0.1-0.1-0.2-0.4-0.2c-0.3,0-0.8,0-1.4-0.1c-0.8-0.2-1.1-1.1-1.1-3.4l-0.4-13.3c0.8,0.9,4.2,4.4,7.8,8.1c3,2.9,7.7,7.6,7.8,7.6
		c1.7,1.6,2,1.8,2.2,1.8c0.2,0,0.3-0.2,0.3-1.9l0.1-17.1c0-2,0.2-2.4,1-2.5c0.4-0.1,0.6-0.1,0.8-0.1c0.2,0,0.3-0.1,0.3-0.3
		C577,553.1,576.9,553.1,576.5,553.1z"/>
	<path class="st1" d="M513,553.1c-1.3,0-2.4,0.1-2.7,0.1c-0.3,0-1.7-0.1-3.2-0.1c-0.3,0-0.6,0-0.6,0.2c0,0.1,0.1,0.3,0.4,0.3
		c0.2,0,0.7,0,1.3,0.1c0.9,0.2,1.1,0.8,1.2,2.7l0.4,14.1c-0.9-0.8-4.3-4.3-6.9-6.9c-4.8-4.9-9.5-9.7-9.8-10
		c-0.2-0.2-0.8-0.9-1.1-0.9c-0.3,0-0.4,0.3-0.4,1.4c0,5.6,0,0.4,0,16.6c0,2.5-0.2,3.4-0.9,3.6c-0.4,0.1-0.8,0.1-1.1,0.1
		c-0.3,0-0.5,0.1-0.5,0.2c0,0.2,0.2,0.2,0.5,0.2c1.5,0,2.7-0.1,3-0.1c0.2,0,1.5,0.1,3.3,0.1c0.4,0,0.5-0.1,0.5-0.2
		c0-0.1-0.1-0.2-0.4-0.2c-0.3,0-0.8,0-1.4-0.1c-0.8-0.2-1.1-1.1-1.1-3.4l-0.4-13.3c0.8,0.9,4.2,4.4,7.8,8.1c3,2.9,7.7,7.6,7.8,7.6
		c1.7,1.6,2,1.8,2.2,1.8c0.2,0,0.3-0.2,0.3-1.9l0.1-17.1c0-2,0.2-2.4,1-2.5c0.4-0.1,0.6-0.1,0.8-0.1c0.2,0,0.3-0.1,0.3-0.3
		C513.5,553.1,513.4,553.1,513,553.1z"/>
	<path class="st1" d="M603.1,564.1c-0.9,0-2.9,0.1-3.1,0.1c-0.1,0-2.1-0.1-3.5-0.1c-0.4,0-0.5,0.1-0.5,0.2c0,0.1,0.1,0.2,0.4,0.2
		c0.3,0,0.6,0,0.8,0.1c1.2,0.2,1.4,0.6,1.4,2.9v4.9c0,0.5-0.2,0.8-0.6,1c-0.8,0.4-2.3,0.6-3.2,0.6c-3,0-5.5-1-7.7-3.2
		c-0.9-0.8-3.1-3.8-3.1-7.9c0-3.4,1.1-5.9,2.9-7.3c2.3-1.7,4.4-1.8,6.3-1.8c3.8,0,6.3,1.3,7,2.4c0.5,0.7,0.6,1.8,0.6,2.1
		c0,0.2,0.1,0.4,0.2,0.4c0.2,0,0.3-0.1,0.3-0.6c0-3,0.2-4,0.2-4.4c0-0.1,0-0.3-0.3-0.3c-0.7,0-2-0.2-2.6-0.3
		c-1.2-0.2-2.7-0.5-4.9-0.5c-2.1,0-5,0.2-7.6,1.7c-2.8,1.7-5.1,5-5.1,9.6c0,3.9,1.8,6.7,3.7,8.3c3.5,2.9,7.7,3.1,10,3.1
		c1.7,0,4.4-0.3,6.3-1.3c0.4-0.2,0.4-0.2,0.4-1.6v-3.1c0-1.2,0-2.1,0.1-3.1c0.1-1,0.3-1.6,1.1-1.7c0.3,0,0.3,0,0.6,0
		c0.3,0,0.4-0.1,0.4-0.2C603.5,564.1,603.4,564.1,603.1,564.1z"/>
	<path class="st1" d="M641.1,568.8c-0.2,0-0.3,0.1-0.3,0.5c-0.1,0.6-0.5,2.1-1.3,2.9c-1.4,1.4-3.4,1.7-5.9,1.7
		c-7.3,0-12.3-5.9-12.3-12.4c0-3.5,0.6-6.5,3.1-8.9c1.2-1.2,3.3-2.5,7.8-2.5c3,0,5.6,0.9,6.8,1.9c0.9,0.7,1.4,2.1,1.4,3.5
		c0,0.5,0,0.7,0.3,0.7c0.2,0,0.3-0.2,0.3-0.7c0-0.5,0-2.4,0.1-3.5c0.1-1.2,0.2-1.6,0.2-1.9c0-0.2-0.1-0.3-0.3-0.4
		c-1.3-0.2-2.3-0.3-3.6-0.5c-1.7-0.3-3.6-0.4-4.9-0.4c-5.2,0-8.3,1.6-10.4,3.6c-3,3-3.8,7-3.8,9.3c0,3.2,0.8,7.1,4.1,10.1
		c2.7,2.4,6.1,3.7,11.2,3.7c2.2,0,4.8-0.2,6.1-0.8c0.6-0.3,0.7-0.3,0.9-1c0.3-1.2,0.7-4.1,0.7-4.3
		C641.4,569,641.3,568.8,641.1,568.8z"/>
	<path class="st1" d="M657.2,552.7c-8.4,0-11.9,6.8-11.9,11.3c0,5.2,3.4,11.3,11.7,11.3c7.2,0,12-5.3,12-11.8
		C669.1,556.7,664,552.7,657.2,552.7z M657.9,574.1c-5.7,0-9.4-4.4-9.4-11.1c0-6.4,3.8-9.3,8.5-9.3c4.7,0,8.9,3.8,8.9,10.6
		C665.9,573,660.2,574.1,657.9,574.1z"/>
	<path class="st1" d="M696.8,553.1c-1.3,0-2.4,0.1-2.7,0.1c-0.3,0-1.7-0.1-3.2-0.1c-0.3,0-0.6,0-0.6,0.2c0,0.1,0.1,0.3,0.4,0.3
		c0.2,0,0.7,0,1.3,0.1c0.9,0.2,1.1,0.8,1.2,2.7l0.4,14.1c-0.9-0.8-4.3-4.3-6.9-6.9c-4.8-4.9-9.5-9.7-9.8-10
		c-0.2-0.2-0.8-0.9-1.1-0.9c-0.3,0-0.4,0.3-0.4,1.4c0,5.6,0,0.4,0,16.6c0,2.5-0.2,3.4-0.9,3.6c-0.4,0.1-0.8,0.1-1.1,0.1
		c-0.3,0-0.5,0.1-0.5,0.2c0,0.2,0.2,0.2,0.5,0.2c1.5,0,2.7-0.1,3-0.1s1.5,0.1,3.3,0.1c0.4,0,0.5-0.1,0.5-0.2c0-0.1-0.1-0.2-0.4-0.2
		c-0.3,0-0.8,0-1.4-0.1c-0.8-0.2-1.1-1.1-1.1-3.4l-0.4-13.3c0.8,0.9,4.2,4.4,7.8,8.1c3,2.9,7.7,7.6,7.8,7.6c1.7,1.6,2,1.8,2.2,1.8
		s0.3-0.2,0.3-1.9l0.1-17.1c0-2,0.2-2.4,1-2.5c0.4-0.1,0.6-0.1,0.8-0.1c0.2,0,0.3-0.1,0.3-0.3C697.2,553.1,697.1,553.1,696.8,553.1z
		"/>
	<path class="st1" d="M708.4,562.3l-0.8-0.6c-2.8-2.1-3.6-3.1-3.6-4.7c0-2,1.5-3.3,3.6-3.3c2.9,0,3.6,1.3,3.8,1.6
		c0.3,0.6,0.4,1.3,0.4,1.6c0,0.2,0.1,0.4,0.2,0.4c0.2,0,0.2-0.2,0.2-0.7c0-2,0.1-3.2,0.1-3.3c0-0.1-0.1-0.2-0.3-0.2
		c-0.2,0-0.5,0-1.2-0.2c-0.7-0.2-1.6-0.3-2.8-0.3c-3.8,0-6.3,2.1-6.3,5.2c0,2,0.7,3.8,3.9,6.4l1.4,1.1c2.5,2,3.4,3.2,3.4,5.1
		c0,1.7-1.4,3.6-4.2,3.6c-2,0-4-0.8-4.4-3.1c-0.1-0.4-0.1-0.8-0.1-1c0-0.2-0.1-0.3-0.2-0.3c-0.2,0-0.2,0.2-0.3,0.5
		c0,0.5-0.1,1.6-0.1,3.2c0,0.8,0,1,0.4,1.2c1.3,0.6,2.6,0.7,4,0.7c1.6,0,3.3-0.3,4.6-1.2c2.1-1.4,2.6-3.6,2.6-4.8
		C712.9,566.9,711.9,565.1,708.4,562.3z"/>
	<path class="st1" d="M738.4,553.1c-1,0-2.4,0.1-2.6,0.1c-0.1,0-1.8-0.1-3.3-0.1c-0.3,0-0.5,0.1-0.5,0.3c0,0.1,0.1,0.2,0.3,0.2
		c0.3,0,0.7,0,1,0.1c1.1,0.2,1.2,0.7,1.3,1.7c0.1,0.9,0.1,1.7,0.1,6.1v3.6c0,3-0.3,5.5-1.7,7.1c-1.3,1.5-2.9,2-4.7,2
		c-1.4,0-3-0.3-4.5-1.6c-1.3-1.2-2.1-2.9-2.1-7.1v-4c0-4.5,0-5.3,0-6.2c0.1-1,0.2-1.5,1-1.6c0.3,0,0.5-0.1,0.7-0.1
		c0.2,0,0.4-0.1,0.4-0.2c0-0.2-0.1-0.2-0.5-0.2c-0.9,0-2.9,0.1-3.2,0.1c-0.2,0-2.1-0.1-3.5-0.1c-0.4,0-0.5,0.1-0.5,0.3
		c0,0.1,0.1,0.2,0.4,0.2c0.3,0,0.7,0,0.9,0.1c1.1,0.1,1.2,0.7,1.3,1.6c0.1,0.9,0.1,1.7,0.1,6.2v4.2c0,4.2,1.1,6.3,2.5,7.6
		c2.2,2,5.4,2,6.4,2c1.8,0,4-0.2,6.2-2c2.4-2.1,2.8-5.7,2.8-8.8v-3c0-4.5,0-5.2,0-6.1c0.1-1,0.2-1.6,1.2-1.7c0.3,0,0.4,0,0.6,0
		c0.2,0,0.3-0.1,0.3-0.2C738.9,553.1,738.8,553.1,738.4,553.1z"/>
	<path class="st1" d="M757,570.6c-0.2,0-0.2,0.1-0.3,0.4c-0.1,0.5-0.3,1.2-0.6,1.7c-0.7,1-2.1,1-3.6,1c-2.3,0-3-0.2-3.6-0.7
		c-0.6-0.5-0.7-2.5-0.7-6.4v-5.2c0-4.5,0-5.2,0-6.1c0.1-1,0.3-1.5,1.2-1.7c0.3,0,0.7-0.1,0.9-0.1c0.2,0,0.4-0.1,0.4-0.2
		c0-0.1-0.1-0.2-0.4-0.2c-1,0-3,0.1-3.5,0.1c-0.1,0-2.1-0.1-3.5-0.1c-0.3,0-0.5,0.1-0.5,0.2c0,0.1,0.1,0.2,0.4,0.2
		c0.3,0,0.6,0,0.8,0c1.2,0.1,1.3,0.7,1.4,1.7c0.1,0.9,0.1,1.7,0.1,6.1v5.1c0,2.6,0.1,5-0.1,6.3c-0.1,0.8-0.3,1.5-0.9,1.6
		c-0.3,0.1-0.5,0.1-0.8,0.1s-0.4,0.1-0.4,0.2c0,0.2,0.2,0.3,0.5,0.3c1.2,0,1.9-0.1,3-0.1c3.4,0,5.9,0.2,8.3,0.2
		c1.6,0,1.6-0.2,1.8-0.8c0.2-0.8,0.4-2.7,0.4-3.1C757.2,570.7,757.2,570.6,757,570.6z"/>
	<path class="st1" d="M771.6,554.4c3.4,0,3.9,0.4,4,1.7c0,0.3,0,0.4,0,0.5c0,0.3,0.1,0.4,0.2,0.4c0.1,0,0.2-0.1,0.2-0.4
		c0-0.3,0.1-2.5,0.1-3.5c0-0.1-0.1-0.3-0.2-0.3c-0.1,0-0.2,0-0.6,0.1c-0.5,0.1-1.5,0.2-2.4,0.2h-11.1c0,0-1,0-2.2-0.2
		c-0.6-0.1-1.3-0.4-1.5-0.4c-0.1,0-0.2,0.1-0.3,0.5c-0.2,0.9-0.7,3.2-0.7,3.4c0,0.2,0,0.3,0.2,0.3c0.1,0,0.2,0,0.3-0.3
		c0.1-0.2,0.2-0.6,0.5-1.1c0.5-0.7,1-1.1,3.1-1.1c1.4,0,3.2,0,4.3,0v12.1c0,2.5,0,5-0.1,6.2c-0.1,1.2-0.2,1.6-0.9,1.7
		c-0.3,0-0.5,0-0.7,0s-0.4,0.1-0.4,0.2c0,0.2,0.1,0.2,0.5,0.2c0.9,0,2.9-0.1,3-0.1c0.1,0,2.1,0.1,3.9,0.1c0.3,0,0.4-0.1,0.4-0.3
		c0-0.1-0.1-0.2-0.4-0.2s-0.9,0-1.3-0.1c-0.8-0.2-0.9-0.7-1-1.5c-0.1-1.3-0.2-3.7-0.2-6.3v-12.1
		C769.2,554.4,770.3,554.4,771.6,554.4z"/>
	<path class="st1" d="M797,574.4c-0.2,0-0.7,0-1.2-0.2c-0.5-0.2-1.5-0.6-2.6-3.3c-1.8-4.2-6.4-16.1-6.9-17.2c-0.4-1-0.5-1.1-0.7-1.1
		c-0.2,0-0.3,0.2-0.7,1.2l-6.8,17.9c-0.6,1.4-1.2,2.5-2.6,2.7c-0.2,0-0.5,0-0.7,0c-0.3,0-0.4,0.1-0.4,0.2c0,0.2,0.2,0.2,0.5,0.2
		c1.4,0,2.9-0.1,3.3-0.1c0.4,0,1.9,0.1,2.7,0.1c0.2,0,0.5-0.1,0.5-0.2c0-0.1-0.1-0.2-0.4-0.2c-0.1,0-0.1,0-0.2,0
		c-0.7,0-1.1-0.3-1.1-0.9c0-0.5,0.2-1.5,0.6-2.4l1.5-4.2c0.1-0.2,0.2-0.3,0.3-0.3h6.2c0.1,0,0.2,0.1,0.3,0.2l2.7,6.8
		c0.2,0.5,0,0.7-0.1,0.7c-0.1,0-0.2,0.1-0.2,0.2c0,0.2,0.2,0.2,0.8,0.2c2.3,0.1,4.8,0.1,5.2,0.1c0.4,0,0.5-0.1,0.5-0.2
		C797.4,574.5,797.3,574.4,797,574.4z M787.9,565.4h-5.4c-0.1,0-0.1-0.1-0.1-0.2l2.5-7.5c0.2-0.5,0.2-0.5,0.4,0l2.7,7.5
		C788,565.3,788,565.4,787.9,565.4z"/>
	<path class="st1" d="M822.1,553.1c-1.3,0-2.4,0.1-2.7,0.1c-0.3,0-1.7-0.1-3.2-0.1c-0.3,0-0.6,0-0.6,0.2c0,0.1,0.1,0.3,0.4,0.3
		c0.2,0,0.7,0,1.3,0.1c0.9,0.2,1.1,0.8,1.2,2.7l0.4,14.1c-0.9-0.8-4.3-4.3-6.9-6.9c-4.8-4.9-9.5-9.7-9.8-10
		c-0.2-0.2-0.8-0.9-1.1-0.9c-0.3,0-0.4,0.3-0.4,1.4c0,5.6,0,0.4,0,16.6c0,2.5-0.2,3.4-0.9,3.6c-0.4,0.1-0.8,0.1-1.1,0.1
		c-0.3,0-0.5,0.1-0.5,0.2c0,0.2,0.2,0.2,0.5,0.2c1.5,0,2.7-0.1,3-0.1s1.5,0.1,3.3,0.1c0.4,0,0.5-0.1,0.5-0.2c0-0.1-0.1-0.2-0.4-0.2
		s-0.8,0-1.4-0.1c-0.8-0.2-1.1-1.1-1.1-3.4l-0.4-13.3c0.8,0.9,4.2,4.4,7.8,8.1c3,2.9,7.7,7.6,7.8,7.6c1.7,1.6,2,1.8,2.2,1.8
		c0.2,0,0.3-0.2,0.3-1.9l0.1-17.1c0-2,0.2-2.4,1-2.5c0.4-0.1,0.6-0.1,0.8-0.1c0.2,0,0.3-0.1,0.3-0.3
		C822.5,553.1,822.4,553.1,822.1,553.1z"/>
	<path class="st1" d="M844.4,552.9c-0.1,0-0.2,0-0.6,0.1c-0.5,0.1-1.5,0.2-2.4,0.2h-11.1c0,0-1,0-2.2-0.2c-0.6-0.1-1.3-0.4-1.5-0.4
		c-0.1,0-0.2,0.1-0.3,0.5c-0.2,0.9-0.7,3.2-0.7,3.4c0,0.2,0,0.3,0.2,0.3c0.1,0,0.2,0,0.3-0.3c0.1-0.2,0.2-0.6,0.5-1.1
		c0.5-0.7,1-1.1,3.1-1.1c1.4,0,3.2,0,4.3,0v12.1c0,2.5,0,5-0.1,6.2c-0.1,1.2-0.2,1.6-0.9,1.7c-0.3,0-0.5,0-0.7,0s-0.4,0.1-0.4,0.2
		c0,0.2,0.1,0.2,0.5,0.2c0.9,0,2.9-0.1,3-0.1c0.1,0,2.1,0.1,3.9,0.1c0.3,0,0.4-0.1,0.4-0.3c0-0.1-0.1-0.2-0.4-0.2s-0.9,0-1.3-0.1
		c-0.8-0.2-0.9-0.7-1-1.5c-0.1-1.3-0.2-3.7-0.2-6.3v-12.1c1,0,2,0,3.3,0c3.4,0,3.9,0.4,4,1.7c0,0.3,0,0.4,0,0.5
		c0,0.3,0.1,0.4,0.2,0.4c0.1,0,0.2-0.1,0.2-0.4c0-0.3,0.1-2.5,0.1-3.5C844.6,553,844.5,552.9,844.4,552.9z"/>
	<path class="st1" d="M855.7,562.3l-0.8-0.6c-2.8-2.1-3.6-3.1-3.6-4.7c0-2,1.5-3.3,3.6-3.3c2.9,0,3.6,1.3,3.8,1.6
		c0.3,0.6,0.4,1.3,0.4,1.6c0,0.2,0.1,0.4,0.2,0.4c0.2,0,0.2-0.2,0.2-0.7c0-2,0.1-3.2,0.1-3.3c0-0.1-0.1-0.2-0.3-0.2
		c-0.2,0-0.5,0-1.2-0.2c-0.7-0.2-1.6-0.3-2.8-0.3c-3.8,0-6.3,2.1-6.3,5.2c0,2,0.7,3.8,3.9,6.4l1.4,1.1c2.5,2,3.4,3.2,3.4,5.1
		c0,1.7-1.4,3.6-4.2,3.6c-2,0-4-0.8-4.4-3.1c-0.1-0.4-0.1-0.8-0.1-1c0-0.2-0.1-0.3-0.2-0.3s-0.2,0.2-0.3,0.5c0,0.5-0.1,1.6-0.1,3.2
		c0,0.8,0,1,0.4,1.2c1.3,0.6,2.6,0.7,4,0.7c1.6,0,3.3-0.3,4.6-1.2c2.1-1.4,2.6-3.6,2.6-4.8C860.1,566.9,859.2,565.1,855.7,562.3z"/>
	<path class="st1" d="M114.4,598.7L114.4,598.7c-2.1,0-3.7-1.7-3.7-3.7l0,0v-46.4h21.9v-14.1h-21.9V488l0,0c0-2.1,1.7-3.7,3.7-3.7h0
		v-8.4h2.8v-13.2h-50v13.2H70v8.4h0c2.1,0,3.7,1.7,3.7,3.7l0,0v107.3c-0.2,1.9-1.8,3.4-3.7,3.4h0v8.4h-2.8v13.2h50v-13.2h-2.8V598.7
		z M86.7,593.9c0,1.3-1.1,2.4-2.4,2.4s-2.4-1.1-2.4-2.4V491.2c0-1.3,1.1-2.4,2.4-2.4s2.4,1.1,2.4,2.4V593.9z M100.7,593.9
		c0,1.3-1.1,2.4-2.4,2.4c-1.3,0-2.4-1.1-2.4-2.4V491.2c0-1.3,1.1-2.4,2.4-2.4c1.3,0,2.4,1.1,2.4,2.4V593.9z"/>
	<path class="st1" d="M67.2,457.9h70.3v138.4c-0.2,1.9-1.8,3.4-3.7,3.4h0v8.4h-2.8v13.2h50v-13.2h-2.8v-8.4c-2.1,0-3.7-1.7-3.7-3.7
		l0,0V457.9h70.3v-5.3H67.2V457.9z M160.5,460.3c0-1.3,1.1-2.4,2.4-2.4c1.3,0,2.4,1.1,2.4,2.4v132.6c0,1.3-1.1,2.4-2.4,2.4
		c-1.3,0-2.4-1.1-2.4-2.4V460.3z M146.6,460.3c0-1.3,1.1-2.4,2.4-2.4c1.3,0,2.4,1.1,2.4,2.4v132.6c0,1.3-1.1,2.4-2.4,2.4
		c-1.3,0-2.4-1.1-2.4-2.4V460.3z"/>
	<path class="st1" d="M194.6,476.9h2.8v8.4c2.1,0,3.7,1.7,3.7,3.7l0,0v45.4h-21.6v14.1h21.6v47.8c-0.2,1.9-1.8,3.4-3.7,3.4h0v8.4
		h-2.8v13.2h50v-13.2h-2.8v-8.4c-2.1,0-3.7-1.7-3.7-3.7l0,0v-107l0,0c0-2.1,1.7-3.7,3.7-3.7v-8.4h2.8v-13.2h-50V476.9z M224.2,491.2
		c0-1.3,1.1-2.4,2.4-2.4c1.3,0,2.4,1.1,2.4,2.4v102.8c0,1.3-1.1,2.4-2.4,2.4c-1.3,0-2.4-1.1-2.4-2.4V491.2z M210.3,491.2
		c0-1.3,1.1-2.4,2.4-2.4c1.3,0,2.4,1.1,2.4,2.4v102.8c0,1.3-1.1,2.4-2.4,2.4c-1.3,0-2.4-1.1-2.4-2.4V491.2z"/>
	<polygon class="st1" points="211.9,441.3 209.2,441.3 205,441.3 202.4,441.3 110.3,441.3 107.7,441.3 103.5,441.3 100.9,441.3 
		95,441.3 67.2,441.3 67.2,441.3 67.2,450 96.5,450 96.6,450.2 96.9,450 244.6,450 244.6,441.3 216.8,441.3 	"/>
	<polygon class="st1" points="107.7,435.5 110.3,435.5 155.9,405.7 202.4,435.5 205,435.5 156.3,404.3 155.9,404.1 	"/>
	<polygon class="st1" points="211.9,435.5 156.3,399.9 155.9,399.6 100.9,435.5 103.5,435.5 155.9,401.3 209.2,435.5 	"/>
	<polygon class="st1" points="67.2,435.5 95,435.5 156,396.5 216.8,435.5 244.6,435.5 156.1,378.6 	"/>
</g>
</svg>
