<?xml version="1.0" encoding="utf-8"?>
<!-- Generator: Adobe Illustrator 21.0.2, SVG Export Plug-In . SVG Version: 6.00 Build 0)  -->
<svg version="1.1" id="Layer_1" xmlns="http://www.w3.org/2000/svg" xmlns:xlink="http://www.w3.org/1999/xlink" x="0px" y="0px"
	 viewBox="0 0 1000 1000" style="enable-background:new 0 0 1000 1000;" xml:space="preserve">
<style type="text/css">
	.st0{fill:#232323;}
	.st1{fill:#FFFFFF;}
	.st2{opacity:0.5;}
	.st3{opacity:0.5;fill:#232323;}
</style>
<g>
	<g>
		<path class="st0" d="M211.4,631.1h7.7v-0.1h0.1V631h0.1V631h0.1v-0.1h0.1v-0.1h0.1v-0.1h0.1v-0.1h0.1v-0.1h0.1v-0.1h0.1v-0.1h0.1
			v-0.1h0.1v-0.1h0.1v-0.1h0.1v-0.1h0.1v-0.1h0.1v-0.1h0.1v-0.1h0.1v-0.1h0.1v-0.1h0.1v-0.1h0.1v-0.1h0.1V630h0.1V630h0.1v-0.1h0.1
			v-0.1h0.1v-0.1h0.1v-0.1h0.1v-0.1h0.1v-0.1h0.1v-0.1h0.1v-0.1h0.1v-0.1h0.1v-0.1h0.1v-0.1h0.1v-0.1h0.1v-0.1h0.1v-0.1h0.1v-0.1
			h0.1v-0.1h0.1v-0.1h0.1v-0.1h0.1V629h0.1V629h0.1v-0.1h0.1v-0.1h0.1v-0.1h0.1v-0.1h0.1v-0.1h0.1v-0.1h0.1v-0.1h0.1v-0.1h0.1v-0.1
			h0.1v-0.1h0.1v-0.1h0.1v-0.1h0.1v-0.1h0.1v-0.1h0.1v-0.1h0.1v-0.1h0.1v-0.1h0.1v-0.1h0.1V628h0.1V628h0.1v-0.1h0.1v-0.1h0.1v-0.1
			h0.1v-0.1h0.1v-0.1h0.1v-0.1h0.1v-0.1h0.1v-0.1h0.1v-0.1h0.1v-0.1h0.1v-0.1h0.1v-0.1h0.1v-0.1h0.1v-0.1h0.1v-0.1h0.1v-0.1h0.1
			v-0.1h0.1v-0.1h0.1V627h0.1V627h0.1v-0.1h0.1v-0.1h0.1v-0.1h0.1v-0.1h0.1v-0.1h0.1v-0.1h0.1v-0.1h0.1v-0.1h0.1v-0.1h0.1v-0.1h0.1
			v-0.1h0.1v-0.1h0.1v-0.1h0.1v-0.1h0.1v-0.1h0.1v-0.1h0.1v-0.1h0.1v-0.1h0.1v-15.4H219c-1.2,0-2.2-1-2.2-2.2v-56.6h-15.4v0.1h-0.1
			v0.1h-0.1v0.1h-0.1v0.1h-0.1v0.1H201v0.1H201v0.1h-0.1v0.1h-0.1v0.1h-0.1v0.1h-0.1v0.1h-0.1v0.1h-0.1v0.1h-0.1v0.1h-0.1v0.1h-0.1
			v0.1h-0.1v0.1h-0.1v0.1h-0.1v0.1H200v0.1h-0.1v0.1h-0.1v0.1h-0.1v0.1h-0.1v0.1h-0.1v0.1h-0.1v0.1h-0.1v0.1h-0.1v0.1h-0.1v0.1h-0.1
			v0.1h-0.1v0.1h-0.1v0.1H199v0.1h-0.1v0.1h-0.1v0.1h-0.1v0.1h-0.1v0.1h-0.1v0.1h-0.1v0.1h-0.1v0.1h-0.1v0.1h-0.1v0.1h-0.1v0.1h-0.1
			v0.1h-0.1v0.1H198v0.1H198v0.1h-0.1v0.1h-0.1v0.1h-0.1v0.1h-0.1v0.1h-0.1v0.1h-0.1v0.1h-0.1v0.1h-0.1v0.1h-0.1v0.1h-0.1v0.1h-0.1
			v0.1h-0.1v0.1H197v0.1h-0.1v0.1h-0.1v0.1h-0.1v0.1h-0.1v0.1h-0.1v0.1h-0.1v0.1h-0.1v0.1h-0.1v0.1h-0.1v0.1h-0.1v0.1h-0.1v0.1h-0.1
			v0.1H196v0.1h-0.1v0.1h-0.1v0.1h-0.1v0.1h-0.1v0.1h-0.1v0.1h-0.1v0.1h-0.1v0.1h-0.1v0.1h-0.1v0.1h-0.1v0.1h-0.1v0.1h-0.1v0.1H195
			v0.1H195v0.1h-0.1v0.1h-0.1v0.1h-0.1v0.1h-0.1v0.1h-0.1v0.1h-0.1v0.1h-0.1v0.1h-0.1v0.1h-0.1v0.1h-0.1v0.1h-0.1v0.1h-0.1v0.1H194
			v0.1h-0.1v0.1h-0.1v56.6C193.8,623.3,201.7,631.1,211.4,631.1z"/>
	</g>
	<g>
		<path class="st0" d="M128.3,631.1c4,0,7.8-1.2,10.9-3.3c0,0,0.1,0,0.1-0.1c0,0,0.1,0,0.1-0.1c0,0,0.1,0,0.1-0.1c0,0,0.1,0,0.1-0.1
			c0,0,0.1,0,0.1-0.1c0,0,0.1,0,0.1-0.1c0,0,0.1,0,0.1-0.1c0,0,0,0,0.1,0c0,0,0.1,0,0.1-0.1c0,0,0.1,0,0.1-0.1c0,0,0.1,0,0.1-0.1
			c0,0,0.1,0,0.1-0.1c0,0,0.1,0,0.1-0.1c0,0,0.1,0,0.1-0.1c0,0,0,0,0.1,0c0,0,0.1,0,0.1-0.1c0,0,0.1,0,0.1-0.1c0,0,0.1,0,0.1-0.1
			c0,0,0.1,0,0.1-0.1c0,0,0.1,0,0.1-0.1c0,0,0.1,0,0.1-0.1c0,0,0.1,0,0.1-0.1c0,0,0,0,0.1,0c0,0,0.1,0,0.1-0.1c0,0,0.1,0,0.1-0.1
			c0,0,0.1,0,0.1-0.1c0,0,0.1,0,0.1-0.1c0,0,0.1,0,0.1-0.1c0,0,0.1,0,0.1-0.1c0,0,0.1,0,0.1-0.1c0,0,0,0,0.1,0c0,0,0.1,0,0.1-0.1
			c0,0,0.1,0,0.1-0.1c0,0,0.1,0,0.1-0.1c0,0,0.1,0,0.1-0.1c0,0,0.1,0,0.1-0.1c0,0,0.1,0,0.1-0.1c0,0,0,0,0.1,0c0,0,0.1,0,0.1-0.1
			c0,0,0.1,0,0.1-0.1c0,0,0.1,0,0.1-0.1c0,0,0.1,0,0.1-0.1c0,0,0.1,0,0.1-0.1c0,0,0.1,0,0.1-0.1c0,0,0.1,0,0.1-0.1c0,0,0,0,0.1,0
			c0,0,0.1,0,0.1-0.1c0,0,0.1,0,0.1-0.1c0,0,0.1,0,0.1-0.1c0,0,0.1,0,0.1-0.1c0,0,0.1,0,0.1-0.1c0,0,0.1,0,0.1-0.1c0,0,0,0,0.1,0
			c0,0,0.1,0,0.1-0.1c0,0,0.1,0,0.1-0.1c0,0,0.1,0,0.1-0.1c0,0,0.1,0,0.1-0.1c0,0,0.1,0,0.1-0.1c0,0,0.1,0,0.1-0.1
			c0,0,0.1,0,0.1-0.1c0,0,0,0,0.1,0c0,0,0.1,0,0.1-0.1c0,0,0.1,0,0.1-0.1c0,0,0.1,0,0.1-0.1c0,0,0.1,0,0.1-0.1c0,0,0.1,0,0.1-0.1
			c0,0,0.1,0,0.1-0.1c0,0,0,0,0.1,0c0,0,0.1,0,0.1-0.1c0,0,0.1,0,0.1-0.1c0,0,0.1,0,0.1-0.1c0,0,0.1,0,0.1-0.1c0,0,0.1,0,0.1-0.1
			c0,0,0.1,0,0.1-0.1c0,0,0.1,0,0.1-0.1c0,0,0,0,0.1,0c0,0,0.1,0,0.1-0.1c0,0,0.1,0,0.1-0.1c0,0,0.1,0,0.1-0.1c0,0,0.1,0,0.1-0.1
			c0,0,0.1,0,0.1-0.1c0,0,0.1,0,0.1-0.1c0,0,0,0,0.1,0c0,0,0.1,0,0.1-0.1c0,0,0.1,0,0.1-0.1c0,0,0.1,0,0.1-0.1c0,0,0.1,0,0.1-0.1
			c0,0,0.1,0,0.1-0.1c0,0,0.1,0,0.1-0.1c0,0,0.1,0,0.1-0.1c0,0,0,0,0.1,0c0,0,0.1,0,0.1-0.1c0,0,0.1,0,0.1-0.1c0,0,0.1,0,0.1-0.1
			c0,0,0.1,0,0.1-0.1c0,0,0.1,0,0.1-0.1c0,0,0.1,0,0.1-0.1c0,0,0.1,0,0.1-0.1c0,0,0,0,0.1,0c0,0,0.1,0,0.1-0.1
			c5.2-3.5,8.6-9.4,8.6-16.2v-23.3h-27.7v0.1h-0.1v0.1h-0.1v0.1h-0.1v0.1h-0.1v0.1h-0.1v0.1h-0.1v0.1h-0.1v0.1h-0.1v0.1H127v0.1
			h-0.1v0.1h-0.1v0.1h-0.1v0.1h-0.1v0.1h-0.1v0.1h-0.1v0.1h-0.1v0.1h-0.1v0.1h-0.1v0.1h-0.1v0.1h-0.1v0.1h-0.1v0.1H126v0.1h-0.1v0.1
			h-0.1v0.1h-0.1v0.1h-0.1v0.1h-0.1v0.1h-0.1v0.1h-0.1v0.1h-0.1v0.1h-0.1v0.1h-0.1v0.1h-0.1v0.1h-0.1v0.1H125v0.1H125v0.1h-0.1v0.1
			h-0.1v0.1h-0.1v0.1h-0.1v0.1h-0.1v0.1h-0.1v0.1h-0.1v0.1h-0.1v0.1h-0.1v0.1h-0.1v0.1h-0.1v0.1h-0.1v0.1H124v0.1h-0.1v0.1h-0.1v0.1
			h-0.1v0.1h-0.1v0.1h-0.1v0.1h-0.1v0.1h-0.1v0.1h-0.1v0.1h-0.1v0.1h-0.1v0.1h-0.1v0.1h-0.1v0.1H123v0.1h-0.1v0.1h-0.1v0.1h-0.1v0.1
			h-0.1v0.1h-0.1v0.1h-0.1v0.1h-0.1v0.1h-0.1v0.1h-0.1v0.1h-0.1v0.1h-0.1v0.1h-0.1v0.1H122v0.1h-0.1v0.1h-0.1v0.1h-0.1v0.1h-0.1v0.1
			h-0.1v0.1h-0.1v0.1h-0.1v0.1h-0.1v0.1h-0.1v0.1h-0.1v0.1h-0.1v0.1h-0.1v0.1H121v0.1H121v0.1h-0.1v0.1h-0.1v0.1h-0.1v0.1h-0.1v0.1
			h-0.1v0.1h-0.1v0.1h-0.1v0.1h-0.1v0.1h-0.1v0.1h-0.1v0.1h-0.1v0.1h-0.1v15.4h12.4v7h-13c-2.2,0-4.1-1.9-4.1-4.1v-34.2h13
			c2.2,0,4.1,1.9,4.1,4.1v4.9h15.4v-0.1h0.1v-0.1h0.1v-0.1h0.1v-0.1h0.1v-0.1h0.1v-0.1h0.1V581h0.1V581h0.1v-0.1h0.1v-0.1h0.1v-0.1
			h0.1v-0.1h0.1v-0.1h0.1v-0.1h0.1v-0.1h0.1v-0.1h0.1v-0.1h0.1v-0.1h0.1v-0.1h0.1v-0.1h0.1v-0.1h0.1v-0.1h0.1v-0.1h0.1v-0.1h0.1
			v-0.1h0.1v-0.1h0.1V580h0.1V580h0.1v-0.1h0.1v-0.1h0.1v-0.1h0.1v-0.1h0.1v-0.1h0.1v-0.1h0.1v-0.1h0.1v-0.1h0.1v-0.1h0.1v-0.1h0.1
			v-0.1h0.1v-0.1h0.1v-0.1h0.1v-0.1h0.1v-0.1h0.1v-0.1h0.1v-0.1h0.1v-0.1h0.1V579h0.1V579h0.1v-0.1h0.1v-0.1h0.1v-0.1h0.1v-0.1h0.1
			v-0.1h0.1v-0.1h0.1v-0.1h0.1v-0.1h0.1v-0.1h0.1v-0.1h0.1v-0.1h0.1v-0.1h0.1v-0.1h0.1v-0.1h0.1v-0.1h0.1v-0.1h0.1v-0.1h0.1v-0.1
			h0.1V578h0.1V578h0.1v-0.1h0.1v-0.1h0.1v-0.1h0.1v-0.1h0.1v-0.1h0.1v-0.1h0.1v-0.1h0.1v-0.1h0.1v-0.1h0.1v-0.1h0.1v-0.1h0.1v-0.1
			h0.1v-0.1h0.1v-0.1h0.1v-0.1h0.1v-0.1h0.1v-0.1h0.1v-0.1h0.1V577h0.1V577h0.1v-0.1h0.1v-0.1h0.1v-0.1h0.1v-0.1h0.1v-0.1h0.1v-0.1
			h0.1v-0.1h0.1v-0.1h0.1v-0.1h0.1v-0.1h0.1v-0.1h0.1v-0.1h0.1v-0.1h0.1v-4.9c0-10.7-8.7-19.5-19.5-19.5h-16.5
			c-4,0-7.8,1.2-10.9,3.3c0,0,0,0-0.1,0c0,0-0.1,0-0.1,0.1c0,0-0.1,0-0.1,0.1c0,0-0.1,0-0.1,0.1c0,0-0.1,0-0.1,0.1
			c0,0-0.1,0-0.1,0.1c0,0-0.1,0-0.1,0.1c0,0-0.1,0-0.1,0.1c0,0,0,0-0.1,0c0,0-0.1,0-0.1,0.1c0,0-0.1,0-0.1,0.1c0,0-0.1,0-0.1,0.1
			c0,0-0.1,0-0.1,0.1c0,0-0.1,0-0.1,0.1c0,0-0.1,0-0.1,0.1c0,0-0.1,0-0.1,0.1c0,0,0,0-0.1,0c0,0-0.1,0-0.1,0.1c0,0-0.1,0-0.1,0.1
			c0,0-0.1,0-0.1,0.1c0,0-0.1,0-0.1,0.1c0,0-0.1,0-0.1,0.1c0,0-0.1,0-0.1,0.1c0,0,0,0-0.1,0c0,0-0.1,0-0.1,0.1c0,0-0.1,0-0.1,0.1
			c0,0-0.1,0-0.1,0.1c0,0-0.1,0-0.1,0.1c0,0-0.1,0-0.1,0.1c0,0-0.1,0-0.1,0.1c0,0-0.1,0-0.1,0.1c0,0,0,0-0.1,0c0,0-0.1,0-0.1,0.1
			c0,0-0.1,0-0.1,0.1c0,0-0.1,0-0.1,0.1c0,0-0.1,0-0.1,0.1c0,0-0.1,0-0.1,0.1c0,0-0.1,0-0.1,0.1c0,0,0,0-0.1,0c0,0-0.1,0-0.1,0.1
			c0,0-0.1,0-0.1,0.1c0,0-0.1,0-0.1,0.1c0,0-0.1,0-0.1,0.1c0,0-0.1,0-0.1,0.1c0,0-0.1,0-0.1,0.1c0,0-0.1,0-0.1,0.1c0,0,0,0-0.1,0
			c0,0-0.1,0-0.1,0.1c0,0-0.1,0-0.1,0.1c0,0-0.1,0-0.1,0.1c0,0-0.1,0-0.1,0.1c0,0-0.1,0-0.1,0.1c0,0-0.1,0-0.1,0.1c0,0,0,0-0.1,0
			c0,0-0.1,0-0.1,0.1c0,0-0.1,0-0.1,0.1c0,0-0.1,0-0.1,0.1c0,0-0.1,0-0.1,0.1c0,0-0.1,0-0.1,0.1c0,0-0.1,0-0.1,0.1
			c0,0-0.1,0-0.1,0.1c0,0,0,0-0.1,0c0,0-0.1,0-0.1,0.1c0,0-0.1,0-0.1,0.1c0,0-0.1,0-0.1,0.1c0,0-0.1,0-0.1,0.1c0,0-0.1,0-0.1,0.1
			c0,0-0.1,0-0.1,0.1c0,0,0,0-0.1,0c0,0-0.1,0-0.1,0.1c0,0-0.1,0-0.1,0.1c0,0-0.1,0-0.1,0.1c0,0-0.1,0-0.1,0.1c0,0-0.1,0-0.1,0.1
			c0,0-0.1,0-0.1,0.1c0,0-0.1,0-0.1,0.1c0,0,0,0-0.1,0c0,0-0.1,0-0.1,0.1c0,0-0.1,0-0.1,0.1c0,0-0.1,0-0.1,0.1c0,0-0.1,0-0.1,0.1
			c0,0-0.1,0-0.1,0.1c0,0-0.1,0-0.1,0.1c0,0-0.1,0-0.1,0.1c0,0,0,0-0.1,0c0,0-0.1,0-0.1,0.1c0,0-0.1,0-0.1,0.1c0,0-0.1,0-0.1,0.1
			c0,0-0.1,0-0.1,0.1c0,0-0.1,0-0.1,0.1c0,0-0.1,0-0.1,0.1c0,0,0,0-0.1,0c0,0-0.1,0-0.1,0.1c0,0-0.1,0-0.1,0.1c0,0-0.1,0-0.1,0.1
			c0,0-0.1,0-0.1,0.1c0,0-0.1,0-0.1,0.1c0,0-0.1,0-0.1,0.1c0,0-0.1,0-0.1,0.1c0,0,0,0-0.1,0c-5.2,3.5-8.6,9.4-8.6,16.2v35.2
			c0,10.7,8.7,19.5,19.5,19.5H128.3z"/>
	</g>
	<g>
		<polygon class="st0" points="178.5,631.1 178.6,631.1 178.6,631 178.7,631 178.7,631 178.7,631 178.7,630.9 178.8,630.9 
			178.8,630.9 178.9,630.9 178.9,630.8 179,630.8 179,630.8 179,630.8 179,630.7 179.1,630.7 179.1,630.7 179.2,630.7 179.2,630.6 
			179.3,630.6 179.3,630.6 179.3,630.6 179.3,630.5 179.4,630.5 179.4,630.5 179.5,630.5 179.5,630.4 179.6,630.4 179.6,630.4 
			179.6,630.4 179.6,630.3 179.7,630.3 179.7,630.3 179.8,630.3 179.8,630.2 179.9,630.2 179.9,630.2 179.9,630.2 179.9,630.1 
			180,630.1 180,630.1 180.1,630.1 180.1,630 180.2,630 180.2,630 180.2,630 180.2,629.9 180.3,629.9 180.3,629.9 180.4,629.9 
			180.4,629.8 180.5,629.8 180.5,629.8 180.5,629.8 180.5,629.7 180.6,629.7 180.6,629.7 180.7,629.7 180.7,629.6 180.8,629.6 
			180.8,629.6 180.8,629.6 180.8,629.5 180.9,629.5 180.9,629.5 181,629.5 181,629.4 181.1,629.4 181.1,629.4 181.1,629.4 
			181.1,629.3 181.2,629.3 181.2,629.3 181.3,629.3 181.3,629.2 181.4,629.2 181.4,629.2 181.4,629.2 181.4,629.1 181.5,629.1 
			181.5,629.1 181.6,629.1 181.6,629 181.7,629 181.7,629 181.7,629 181.7,628.9 181.8,628.9 181.8,628.9 181.9,628.9 181.9,628.8 
			182,628.8 182,628.8 182,628.8 182,628.7 182.1,628.7 182.1,628.7 182.2,628.7 182.2,628.6 182.3,628.6 182.3,628.6 182.3,628.6 
			182.3,628.5 182.4,628.5 182.4,628.5 182.5,628.5 182.5,628.4 182.6,628.4 182.6,628.4 182.6,628.4 182.6,628.3 182.7,628.3 
			182.7,628.3 182.8,628.3 182.8,628.2 182.9,628.2 182.9,628.2 182.9,628.2 182.9,628.1 183,628.1 183,628.1 183.1,628.1 
			183.1,628 183.2,628 183.2,628 183.2,628 183.2,627.9 183.3,627.9 183.3,627.9 183.4,627.9 183.4,627.8 183.5,627.8 183.5,627.8 
			183.5,627.8 183.5,627.7 183.6,627.7 183.6,627.7 183.7,627.7 183.7,627.6 183.8,627.6 183.8,627.6 183.8,627.6 183.8,627.5 
			183.9,627.5 183.9,627.5 184,627.5 184,627.4 184.1,627.4 184.1,627.4 184.1,627.4 184.1,627.3 184.2,627.3 184.2,627.3 
			184.3,627.3 184.3,627.2 184.4,627.2 184.4,627.2 184.4,627.2 184.4,627.1 184.5,627.1 184.5,627.1 184.6,627.1 184.6,627 
			184.7,627 184.7,627 184.7,627 184.7,626.9 184.8,626.9 184.8,626.9 184.9,626.9 184.9,626.8 185,626.8 185,626.8 185,626.8 
			185,626.7 185.1,626.7 185.1,626.7 185.2,626.7 185.2,626.6 185.3,626.6 185.3,626.6 185.3,626.6 185.3,626.5 185.4,626.5 
			185.4,626.5 185.5,626.5 185.5,626.4 185.6,626.4 185.6,626.4 185.6,626.4 185.6,626.3 185.7,626.3 185.7,626.3 185.8,626.3 
			185.8,626.2 185.9,626.2 185.9,626.2 185.9,626.2 185.9,626.1 186,626.1 186,626.1 186.1,626.1 186.1,551.9 170.7,551.9 
			170.7,552 170.7,552 170.7,552 170.6,552 170.6,552.1 170.5,552.1 170.5,552.1 170.4,552.1 170.4,552.2 170.4,552.2 170.4,552.2 
			170.3,552.2 170.3,552.3 170.2,552.3 170.2,552.3 170.1,552.3 170.1,552.4 170.1,552.4 170.1,552.4 170,552.4 170,552.5 
			169.9,552.5 169.9,552.5 169.8,552.5 169.8,552.6 169.8,552.6 169.8,552.6 169.7,552.6 169.7,552.7 169.6,552.7 169.6,552.7 
			169.5,552.7 169.5,552.8 169.5,552.8 169.5,552.8 169.4,552.8 169.4,552.9 169.3,552.9 169.3,552.9 169.2,552.9 169.2,553 
			169.2,553 169.2,553 169.1,553 169.1,553.1 169,553.1 169,553.1 168.9,553.1 168.9,553.2 168.9,553.2 168.9,553.2 168.8,553.2 
			168.8,553.3 168.7,553.3 168.7,553.3 168.6,553.3 168.6,553.4 168.6,553.4 168.6,553.4 168.5,553.4 168.5,553.5 168.4,553.5 
			168.4,553.5 168.3,553.5 168.3,553.6 168.3,553.6 168.3,553.6 168.2,553.6 168.2,553.7 168.1,553.7 168.1,553.7 168,553.7 
			168,553.8 168,553.8 168,553.8 167.9,553.8 167.9,553.9 167.8,553.9 167.8,553.9 167.7,553.9 167.7,554 167.7,554 167.7,554 
			167.6,554 167.6,554.1 167.5,554.1 167.5,554.1 167.4,554.1 167.4,554.2 167.4,554.2 167.4,554.2 167.3,554.2 167.3,554.3 
			167.2,554.3 167.2,554.4 167.1,554.4 167.1,554.4 167.1,554.4 167.1,554.5 167,554.5 167,554.5 166.9,554.5 166.9,554.6 
			166.8,554.6 166.8,554.6 166.8,554.6 166.8,554.7 166.7,554.7 166.7,554.7 166.6,554.7 166.6,554.8 166.5,554.8 166.5,554.8 
			166.5,554.8 166.5,554.9 166.4,554.9 166.4,554.9 166.3,554.9 166.3,555 166.2,555 166.2,555 166.2,555 166.2,555.1 166.1,555.1 
			166.1,555.1 166,555.1 166,555.2 165.9,555.2 165.9,555.2 165.8,555.2 165.8,555.3 165.8,555.3 165.8,555.3 165.7,555.3 
			165.7,555.4 165.6,555.4 165.6,555.4 165.5,555.4 165.5,555.5 165.5,555.5 165.5,555.5 165.4,555.5 165.4,555.6 165.3,555.6 
			165.3,555.6 165.2,555.6 165.2,555.7 165.2,555.7 165.2,555.7 165.1,555.7 165.1,555.8 165,555.8 165,555.8 164.9,555.8 
			164.9,555.9 164.9,555.9 164.9,555.9 164.8,555.9 164.8,556 164.7,556 164.7,556 164.6,556 164.6,556.1 164.6,556.1 164.6,556.1 
			164.5,556.1 164.5,556.2 164.4,556.2 164.4,556.2 164.3,556.2 164.3,556.3 164.3,556.3 164.3,556.3 164.2,556.3 164.2,556.4 
			164.1,556.4 164.1,556.4 164,556.4 164,556.5 164,556.5 164,556.5 163.9,556.5 163.9,556.6 163.8,556.6 163.8,556.6 163.7,556.6 
			163.7,556.7 163.7,556.7 163.7,556.7 163.6,556.7 163.6,556.8 163.5,556.8 163.5,556.8 163.4,556.8 163.4,556.9 163.4,556.9 
			163.4,556.9 163.3,556.9 163.3,557 163.2,557 163.2,557 163.1,557 163.1,631.1 178.5,631.1 		"/>
	</g>
	<g>
		<g>
			<g>
				<path class="st0" d="M309.9,707.8c-4.2-0.8-8.4-1.6-12.6-2.4c-6.4-1.2-12.6,2.8-13.9,9.1c-1.8,8.9-3.7,17.7-5.5,26.6
					c-1.3,6.3,3,12.5,9.7,13.9c4.4,0.9,8.8,1.7,13.2,2.5c6.7,1.2,13-3,14.1-9.3c0.8-4.8,1.6-9.6,2.5-14.4c-6.1-1-12.2-2.1-18.3-3.3
					c-0.3,1.7-0.6,3.4-1,5.1c4.4,0.8,8.8,1.6,13.1,2.4c-0.5,3.1-1.1,6.2-1.6,9.3c-0.6,3.5-4.2,5.9-7.9,5.2
					c-4.4-0.8-8.8-1.6-13.2-2.5c-3.7-0.7-6.2-4.2-5.4-7.7c1.8-8.9,3.6-17.8,5.4-26.6c0.7-3.5,4.2-5.8,7.8-5.1
					c4.2,0.8,8.5,1.6,12.7,2.4c3.6,0.7,6,4,5.4,7.6c-0.2,1.2-0.4,2.5-0.7,3.7c1.7,0.3,3.5,0.6,5.2,0.9c0.2-1.2,0.4-2.5,0.6-3.7
					C320.6,715,316.3,709,309.9,707.8z"/>
			</g>
			<g>
				<path class="st0" d="M653.6,712.8c-4.2,0.6-8.5,1.3-12.7,1.9c-6.4,0.9-11,6.8-10.2,13.1c1.2,9,2.3,18,3.5,26.9
					c0.8,6.4,7,10.9,13.7,9.9c4.4-0.6,8.9-1.3,13.3-2c6.7-1,11.3-7.1,10.3-13.4c-0.8-4.8-1.6-9.6-2.4-14.4c-6.1,1-12.2,2-18.4,2.9
					c0.2,1.7,0.5,3.4,0.7,5.1c4.4-0.6,8.8-1.3,13.2-2c0.5,3.1,1,6.2,1.5,9.4c0.6,3.5-2,6.9-5.7,7.5c-4.4,0.7-8.8,1.3-13.3,1.9
					c-3.7,0.5-7.2-2-7.6-5.5c-1.2-9-2.4-18-3.6-26.9c-0.5-3.6,2.1-6.8,5.7-7.3c4.3-0.6,8.5-1.2,12.8-1.9c3.6-0.5,7,1.9,7.5,5.4
					c0.2,1.3,0.4,2.5,0.6,3.8c1.7-0.3,3.5-0.6,5.2-0.8c-0.2-1.2-0.4-2.5-0.6-3.7C666.1,716.1,660,711.8,653.6,712.8z"/>
			</g>
			<g>
				<path class="st0" d="M357.6,715.4c-4.2-0.6-8.5-1.2-12.7-1.8c-6.4-0.9-12.4,3.4-13.5,9.7c-0.7,4.1-1.3,8.2-2,12.4
					c-0.3,1.7-0.5,3.4-0.8,5.1c-1.1,7-2.2,13.9-3.3,20.9c1.8,0.3,3.6,0.6,5.4,0.8c1.1-7,2.1-13.9,3.2-20.9
					c8.8,1.4,17.6,2.6,26.4,3.7c-0.9,7-1.8,14-2.7,21c1.8,0.2,3.6,0.5,5.4,0.7c0.9-7,1.7-14,2.6-21c0.2-1.7,0.4-3.4,0.6-5.1
					c0.5-4.1,1-8.3,1.5-12.4C368.6,722.1,364,716.2,357.6,715.4z M361,740.2c-8.8-1.1-17.5-2.4-26.3-3.7c0.6-4.1,1.3-8.3,1.9-12.4
					c0.6-3.5,3.9-6,7.5-5.5c4.3,0.6,8.5,1.2,12.8,1.8c3.6,0.5,6.2,3.8,5.7,7.3C362.1,731.9,361.5,736.1,361,740.2z"/>
			</g>
			<g>
				<path class="st0" d="M617.9,768.4c1.8-0.2,3.6-0.4,5.4-0.6c-2-16.7-3.9-33.4-5.9-50.1c-1.7,0.2-3.4,0.4-5.2,0.6
					C614.2,735,616,751.7,617.9,768.4z"/>
			</g>
			<g>
				<path class="st0" d="M422.8,733.9c-0.3,3.8-0.5,7.6-0.8,11.4c0,0.2,0,0.5,0,0.7c-0.1,1.4-0.2,2.9-0.3,4.3c0,0.3,0,0.6-0.1,0.9
					c-0.2,3.2-0.4,6.4-0.7,9.6c-0.5,6.5,4.7,12.2,11.4,12.6c5.4,0.3,10.7,0.6,16.1,0.8c0.1-1.7,0.2-3.5,0.2-5.2
					c-5.3-0.2-10.7-0.5-16-0.8c-3.8-0.2-6.6-3.4-6.4-7c0.2-3.2,0.4-6.4,0.6-9.6c7.5,0.5,15,0.9,22.5,1.2c0.1-1.7,0.2-3.5,0.2-5.2
					c-7.5-0.3-14.9-0.7-22.4-1.2c0-0.2,0-0.5,0-0.7c0.2-3.8,0.5-7.6,0.7-11.4c0.2-3.6,3.4-6.4,7-6.2c5.1,0.3,10.3,0.6,15.5,0.8
					c0.1-1.7,0.2-3.5,0.2-5.2c-5.1-0.2-10.3-0.5-15.4-0.8C428.8,722.5,423.2,727.4,422.8,733.9z"/>
			</g>
			<g>
				<path class="st0" d="M525.6,736.1c0.1,3.8,0.2,7.6,0.3,11.4c0,0.2,0,0.5,0,0.7c0,1.4,0.1,2.9,0.1,4.3c0,0.3,0,0.6,0,0.9
					c0.1,3.2,0.2,6.4,0.3,9.6c0.2,6.5,5.8,11.7,12.6,11.4c5.4-0.2,10.8-0.5,16.1-0.7c-0.1-1.7-0.2-3.5-0.3-5.2
					c-5.3,0.3-10.7,0.5-16,0.7c-3.8,0.1-6.9-2.7-7-6.3c-0.1-3.2-0.2-6.4-0.3-9.6c7.5-0.2,15-0.6,22.5-1c-0.1-1.7-0.2-3.5-0.3-5.2
					c-7.5,0.4-14.9,0.7-22.4,1c0-0.2,0-0.5,0-0.7c-0.1-3.8-0.2-7.6-0.4-11.4c-0.1-3.6,2.7-6.7,6.4-6.8c5.2-0.2,10.3-0.4,15.5-0.7
					c-0.1-1.7-0.2-3.5-0.3-5.2c-5.1,0.3-10.2,0.5-15.4,0.7C530.6,724.2,525.5,729.6,525.6,736.1z"/>
			</g>
			<g>
				<path class="st0" d="M501.7,724.7c-5.1,0-10.3,0-15.4,0c-0.2,16.8-0.3,33.7-0.5,50.5c5.4,0.1,10.8,0.1,16.1,0
					c6.8,0,12.2-5.4,12.1-11.9c-0.1-9-0.3-17.9-0.4-26.9C513.5,729.9,508.1,724.7,501.7,724.7z M508.7,763.3c0,3.6-3,6.6-6.8,6.6
					c-3.6,0-7.1,0-10.7,0c0.1-13.4,0.1-26.7,0.2-40.1c3.4,0,6.8,0,10.3,0c3.6,0,6.6,2.9,6.6,6.5
					C508.5,745.4,508.6,754.4,508.7,763.3z"/>
			</g>
			<g>
				<path class="st0" d="M702.2,704.1c2.5,12.4,5,24.9,7.5,37.3c-9.8-11-19.4-22-28.7-33.3c-1.4,0.2-2.7,0.5-4.1,0.7
					c2.9,16.6,5.8,33.1,8.8,49.7c1.8-0.3,3.6-0.6,5.4-1c-2.3-12.5-4.5-25-6.8-37.4c9.4,11.2,19.1,22.2,29,33.2
					c1.4-0.3,2.8-0.6,4.2-0.9c-3.4-16.5-6.8-33-10.2-49.4C705.6,703.5,703.9,703.8,702.2,704.1z"/>
			</g>
			<g>
				<path class="st0" d="M394.5,739.7c-3.2-7-6.3-14-9.3-21c-1.4-0.1-2.7-0.3-4.1-0.4c-1.9,16.7-3.7,33.4-5.6,50.2
					c1.8,0.2,3.6,0.4,5.4,0.6c1.3-12.6,2.7-25.2,4-37.8c2.8,6.4,5.6,12.7,8.5,19c4.1-5.7,8.1-11.3,12-17
					c-1.1,12.6-2.2,25.3-3.3,37.9c1.8,0.2,3.6,0.3,5.4,0.5c1.4-16.8,2.7-33.5,4.1-50.3c-1.4-0.1-2.7-0.2-4.1-0.3
					C403.3,727.2,398.9,733.5,394.5,739.7z"/>
			</g>
			<g>
				<path class="st0" d="M588.8,720.6c-4.3,0.4-8.5,0.7-12.8,1.1c-6.4,0.5-11.3,6-10.9,12.5c0.3,4.2,2.9,8,6.9,9.8c0,0,0,0,0,0
					c0.1,0,0.1,0.1,0.2,0.1c0,0,0,0,0,0c7.5,3.2,15.1,6.3,22.8,9.4c2.2,1,3.8,3,4,5.3c0.3,3.6-2.4,6.8-6.2,7.1
					c-4.4,0.4-8.9,0.8-13.4,1.1c-3.8,0.3-7-2.4-7.3-6c-0.1-0.9-0.1-1.7-0.2-2.6c-1.8,0.1-3.6,0.2-5.3,0.4c0.1,0.9,0.1,1.7,0.2,2.6
					c0.4,6.4,6.2,11.3,13,10.8c4.5-0.3,8.9-0.7,13.4-1.1c6.8-0.6,11.7-6.4,11.1-12.7c-0.4-4.4-3.4-8.1-7.6-9.7
					c-7.6-3-15.1-6.1-22.6-9.3c-2.2-1-3.7-3.1-3.8-5.4c-0.2-3.6,2.5-6.7,6.1-7c4.3-0.3,8.6-0.7,12.9-1.1c3.6-0.3,6.8,2.3,7.2,5.9
					c0.1,0.9,0.2,1.7,0.2,2.6c1.7-0.2,3.5-0.3,5.2-0.5c-0.1-0.9-0.2-1.7-0.3-2.6C600.9,724.7,595.2,720,588.8,720.6z"/>
			</g>
		</g>
		<g>
			<path class="st0" d="M566.3,551.9h-16.5c-4,0-7.8,1.2-10.9,3.3c0,0,0,0-0.1,0c0,0-0.1,0-0.1,0.1c0,0-0.1,0-0.1,0.1
				s-0.1,0-0.1,0.1c0,0-0.1,0-0.1,0.1c0,0-0.1,0-0.1,0.1c0,0-0.1,0-0.1,0.1s-0.1,0-0.1,0.1c0,0,0,0-0.1,0c0,0-0.1,0-0.1,0.1
				c0,0-0.1,0-0.1,0.1c0,0-0.1,0-0.1,0.1c0,0-0.1,0-0.1,0.1c0,0-0.1,0-0.1,0.1c0,0-0.1,0-0.1,0.1c0,0-0.1,0-0.1,0.1c0,0,0,0-0.1,0
				c0,0-0.1,0-0.1,0.1c0,0-0.1,0-0.1,0.1c0,0-0.1,0-0.1,0.1s-0.1,0-0.1,0.1c0,0-0.1,0-0.1,0.1s-0.1,0-0.1,0.1c0,0,0,0-0.1,0
				c0,0-0.1,0-0.1,0.1c0,0-0.1,0-0.1,0.1c0,0-0.1,0-0.1,0.1c0,0-0.1,0-0.1,0.1c0,0-0.1,0-0.1,0.1c0,0-0.1,0-0.1,0.1
				c0,0-0.1,0-0.1,0.1c0,0,0,0-0.1,0c0,0-0.1,0-0.1,0.1c0,0-0.1,0-0.1,0.1c0,0-0.1,0-0.1,0.1s-0.1,0-0.1,0.1c0,0-0.1,0-0.1,0.1
				s-0.1,0-0.1,0.1c0,0,0,0-0.1,0c0,0-0.1,0-0.1,0.1c0,0-0.1,0-0.1,0.1c0,0-0.1,0-0.1,0.1c0,0-0.1,0-0.1,0.1c0,0-0.1,0-0.1,0.1
				c0,0-0.1,0-0.1,0.1c0,0-0.1,0-0.1,0.1c0,0,0,0-0.1,0c0,0-0.1,0-0.1,0.1c0,0-0.1,0-0.1,0.1c0,0-0.1,0-0.1,0.1c0,0-0.1,0-0.1,0.1
				c0,0-0.1,0-0.1,0.1c0,0-0.1,0-0.1,0.1c0,0,0,0-0.1,0c0,0-0.1,0-0.1,0.1c0,0-0.1,0-0.1,0.1c0,0-0.1,0-0.1,0.1c0,0-0.1,0-0.1,0.1
				c0,0-0.1,0-0.1,0.1c0,0-0.1,0-0.1,0.1c0,0-0.1,0-0.1,0.1c0,0,0,0-0.1,0c0,0-0.1,0-0.1,0.1c0,0-0.1,0-0.1,0.1c0,0-0.1,0-0.1,0.1
				c0,0-0.1,0-0.1,0.1c0,0-0.1,0-0.1,0.1c0,0-0.1,0-0.1,0.1c0,0,0,0-0.1,0c0,0-0.1,0-0.1,0.1c0,0-0.1,0-0.1,0.1c0,0-0.1,0-0.1,0.1
				c0,0-0.1,0-0.1,0.1c0,0-0.1,0-0.1,0.1c0,0-0.1,0-0.1,0.1c0,0-0.1,0-0.1,0.1c0,0,0,0-0.1,0c0,0-0.1,0-0.1,0.1c0,0-0.1,0-0.1,0.1
				c0,0-0.1,0-0.1,0.1c0,0-0.1,0-0.1,0.1c0,0-0.1,0-0.1,0.1c0,0-0.1,0-0.1,0.1c0,0-0.1,0-0.1,0.1c0,0,0,0-0.1,0c0,0-0.1,0-0.1,0.1
				c0,0-0.1,0-0.1,0.1c0,0-0.1,0-0.1,0.1c0,0-0.1,0-0.1,0.1c0,0-0.1,0-0.1,0.1c0,0-0.1,0-0.1,0.1c0,0,0,0-0.1,0c0,0-0.1,0-0.1,0.1
				c0,0-0.1,0-0.1,0.1c0,0-0.1,0-0.1,0.1c0,0-0.1,0-0.1,0.1c0,0-0.1,0-0.1,0.1c0,0-0.1,0-0.1,0.1c0,0-0.1,0-0.1,0.1c0,0,0,0-0.1,0
				c-5.2,3.5-8.6,9.4-8.6,16.2v35.2c0,10.7,8.7,19.5,19.5,19.5h16.5c4,0,7.8-1.2,10.9-3.3c0,0,0.1,0,0.1-0.1c0,0,0.1,0,0.1-0.1
				c0,0,0.1,0,0.1-0.1c0,0,0.1,0,0.1-0.1c0,0,0.1,0,0.1-0.1c0,0,0.1,0,0.1-0.1c0,0,0.1,0,0.1-0.1c0,0,0,0,0.1,0c0,0,0.1,0,0.1-0.1
				c0,0,0.1,0,0.1-0.1c0,0,0.1,0,0.1-0.1c0,0,0.1,0,0.1-0.1c0,0,0.1,0,0.1-0.1c0,0,0.1,0,0.1-0.1c0,0,0,0,0.1,0c0,0,0.1,0,0.1-0.1
				c0,0,0.1,0,0.1-0.1c0,0,0.1,0,0.1-0.1c0,0,0.1,0,0.1-0.1c0,0,0.1,0,0.1-0.1c0,0,0.1,0,0.1-0.1c0,0,0.1,0,0.1-0.1c0,0,0,0,0.1,0
				c0,0,0.1,0,0.1-0.1c0,0,0.1,0,0.1-0.1c0,0,0.1,0,0.1-0.1c0,0,0.1,0,0.1-0.1c0,0,0.1,0,0.1-0.1c0,0,0.1,0,0.1-0.1
				c0,0,0.1,0,0.1-0.1c0,0,0,0,0.1,0c0,0,0.1,0,0.1-0.1c0,0,0.1,0,0.1-0.1c0,0,0.1,0,0.1-0.1c0,0,0.1,0,0.1-0.1c0,0,0.1,0,0.1-0.1
				c0,0,0.1,0,0.1-0.1c0,0,0,0,0.1,0c0,0,0.1,0,0.1-0.1c0,0,0.1,0,0.1-0.1c0,0,0.1,0,0.1-0.1c0,0,0.1,0,0.1-0.1c0,0,0.1,0,0.1-0.1
				c0,0,0.1,0,0.1-0.1c0,0,0.1,0,0.1-0.1c0,0,0,0,0.1,0c0,0,0.1,0,0.1-0.1c0,0,0.1,0,0.1-0.1c0,0,0.1,0,0.1-0.1c0,0,0.1,0,0.1-0.1
				s0.1,0,0.1-0.1c0,0,0.1,0,0.1-0.1c0,0,0,0,0.1,0c0,0,0.1,0,0.1-0.1c0,0,0.1,0,0.1-0.1c0,0,0.1,0,0.1-0.1c0,0,0.1,0,0.1-0.1
				c0,0,0.1,0,0.1-0.1c0,0,0.1,0,0.1-0.1c0,0,0.1,0,0.1-0.1c0,0,0,0,0.1,0c0,0,0.1,0,0.1-0.1c0,0,0.1,0,0.1-0.1c0,0,0.1,0,0.1-0.1
				c0,0,0.1,0,0.1-0.1c0,0,0.1,0,0.1-0.1c0,0,0.1,0,0.1-0.1c0,0,0,0,0.1,0c0,0,0.1,0,0.1-0.1c0,0,0.1,0,0.1-0.1c0,0,0.1,0,0.1-0.1
				c0,0,0.1,0,0.1-0.1c0,0,0.1,0,0.1-0.1c0,0,0.1,0,0.1-0.1c0,0,0.1,0,0.1-0.1c0,0,0,0,0.1,0c0,0,0.1,0,0.1-0.1c0,0,0.1,0,0.1-0.1
				c0,0,0.1,0,0.1-0.1c0,0,0.1,0,0.1-0.1s0.1,0,0.1-0.1c0,0,0.1,0,0.1-0.1c0,0,0,0,0.1,0c0,0,0.1,0,0.1-0.1c0,0,0.1,0,0.1-0.1
				c0,0,0.1,0,0.1-0.1c0,0,0.1,0,0.1-0.1c0,0,0.1,0,0.1-0.1c0,0,0.1,0,0.1-0.1c0,0,0.1,0,0.1-0.1c0,0,0,0,0.1,0c0,0,0.1,0,0.1-0.1
				c0,0,0.1,0,0.1-0.1s0.1,0,0.1-0.1c0,0,0.1,0,0.1-0.1c0,0,0.1,0,0.1-0.1c0,0,0.1,0,0.1-0.1s0.1,0,0.1-0.1c0,0,0,0,0.1,0
				c0,0,0.1,0,0.1-0.1c5.2-3.5,8.6-9.4,8.6-16.2v-23.3h-27.7v0.1H558v0.1h-0.1v0.1h-0.1v0.1h-0.1v0.1h-0.1v0.1h-0.1v0.1h-0.1v0.1
				h-0.1v0.1h-0.1v0.1h-0.1v0.1h-0.1v0.1h-0.1v0.1h-0.1v0.1H557v0.1H557v0.1h-0.1v0.1h-0.1v0.1h-0.1v0.1h-0.1v0.1h-0.1v0.1h-0.1v0.1
				h-0.1v0.1h-0.1v0.1h-0.1v0.1h-0.1v0.1h-0.1v0.1h-0.1v0.1H556v0.1h-0.1v0.1h-0.1v0.1h-0.1v0.1h-0.1v0.1h-0.1v0.1h-0.1v0.1h-0.1
				v0.1h-0.1v0.1h-0.1v0.1h-0.1v0.1h-0.1v0.1h-0.1v0.1H555v0.1h-0.1v0.1h-0.1v0.1h-0.1v0.1h-0.1v0.1h-0.1v0.1h-0.1v0.1h-0.1v0.1
				h-0.1v0.1h-0.1v0.1h-0.1v0.1h-0.1v0.1h-0.1v0.1H554v0.1H554v0.1h-0.1v0.1h-0.1v0.1h-0.1v0.1h-0.1v0.1h-0.1v0.1h-0.1v0.1h-0.1v0.1
				h-0.1v0.1h-0.1v0.1h-0.1v0.1h-0.1v0.1h-0.1v0.1H553v0.1h-0.1v0.1h-0.1v0.1h-0.1v0.1h-0.1v0.1h-0.1v0.1h-0.1v0.1h-0.1v0.1h-0.1
				v0.1h-0.1v0.1h-0.1v0.1h-0.1v0.1h-0.1v0.1H552v0.1h-0.1v0.1h-0.1v0.1h-0.1v0.1h-0.1v0.1h-0.1v0.1h-0.1v0.1h-0.1v0.1h-0.1v0.1
				h-0.1v0.1h-0.1v0.1h-0.1v0.1h-0.1v0.1H551v0.1h-0.1v0.1h-0.1v0.1h-0.1v0.1h-0.1v0.1h-0.1v0.1h-0.1v0.1h-0.1v15.4h12.4v7h-13
				c-2.2,0-4.1-1.9-4.1-4.1v-34.2h13c2.2,0,4.1,1.9,4.1,4.1v4.9h15.4v-0.1h0.1v-0.1h0.1v-0.1h0.1v-0.1h0.1v-0.1h0.1v-0.1h0.1V581
				h0.1V581h0.1v-0.1h0.1v-0.1h0.1v-0.1h0.1v-0.1h0.1v-0.1h0.1v-0.1h0.1v-0.1h0.1v-0.1h0.1v-0.1h0.1v-0.1h0.1v-0.1h0.1v-0.1h0.1
				v-0.1h0.1v-0.1h0.1v-0.1h0.1v-0.1h0.1v-0.1h0.1v-0.1h0.1V580h0.1V580h0.1v-0.1h0.1v-0.1h0.1v-0.1h0.1v-0.1h0.1v-0.1h0.1v-0.1h0.1
				v-0.1h0.1v-0.1h0.1v-0.1h0.1v-0.1h0.1v-0.1h0.1v-0.1h0.1v-0.1h0.1v-0.1h0.1v-0.1h0.1v-0.1h0.1v-0.1h0.1v-0.1h0.1V579h0.1V579h0.1
				v-0.1h0.1v-0.1h0.1v-0.1h0.1v-0.1h0.1v-0.1h0.1v-0.1h0.1v-0.1h0.1v-0.1h0.1v-0.1h0.1v-0.1h0.1v-0.1h0.1v-0.1h0.1v-0.1h0.1v-0.1
				h0.1v-0.1h0.1v-0.1h0.1v-0.1h0.1v-0.1h0.1V578h0.1V578h0.1v-0.1h0.1v-0.1h0.1v-0.1h0.1v-0.1h0.1v-0.1h0.1v-0.1h0.1v-0.1h0.1v-0.1
				h0.1v-0.1h0.1v-0.1h0.1v-0.1h0.1v-0.1h0.1v-0.1h0.1v-0.1h0.1v-0.1h0.1v-0.1h0.1v-0.1h0.1v-0.1h0.1V577h0.1V577h0.1v-0.1h0.1v-0.1
				h0.1v-0.1h0.1v-0.1h0.1v-0.1h0.1v-0.1h0.1v-0.1h0.1v-0.1h0.1v-0.1h0.1v-0.1h0.1v-0.1h0.1v-0.1h0.1v-0.1h0.1v-4.9
				C585.8,560.7,577.1,551.9,566.3,551.9z"/>
		</g>
		<g>
			<path class="st0" d="M667.6,551.9H651c-4,0-7.8,1.2-10.9,3.3c0,0,0,0-0.1,0c0,0-0.1,0-0.1,0.1c0,0-0.1,0-0.1,0.1
				c0,0-0.1,0-0.1,0.1c0,0-0.1,0-0.1,0.1c0,0-0.1,0-0.1,0.1c0,0-0.1,0-0.1,0.1c0,0-0.1,0-0.1,0.1c0,0,0,0-0.1,0c0,0-0.1,0-0.1,0.1
				c0,0-0.1,0-0.1,0.1c0,0-0.1,0-0.1,0.1c0,0-0.1,0-0.1,0.1c0,0-0.1,0-0.1,0.1c0,0-0.1,0-0.1,0.1c0,0-0.1,0-0.1,0.1c0,0,0,0-0.1,0
				c0,0-0.1,0-0.1,0.1c0,0-0.1,0-0.1,0.1c0,0-0.1,0-0.1,0.1c0,0-0.1,0-0.1,0.1c0,0-0.1,0-0.1,0.1c0,0-0.1,0-0.1,0.1c0,0,0,0-0.1,0
				c0,0-0.1,0-0.1,0.1c0,0-0.1,0-0.1,0.1c0,0-0.1,0-0.1,0.1c0,0-0.1,0-0.1,0.1c0,0-0.1,0-0.1,0.1c0,0-0.1,0-0.1,0.1
				c0,0-0.1,0-0.1,0.1c0,0,0,0-0.1,0c0,0-0.1,0-0.1,0.1c0,0-0.1,0-0.1,0.1c0,0-0.1,0-0.1,0.1c0,0-0.1,0-0.1,0.1c0,0-0.1,0-0.1,0.1
				c0,0-0.1,0-0.1,0.1c0,0,0,0-0.1,0c0,0-0.1,0-0.1,0.1c0,0-0.1,0-0.1,0.1c0,0-0.1,0-0.1,0.1c0,0-0.1,0-0.1,0.1c0,0-0.1,0-0.1,0.1
				c0,0-0.1,0-0.1,0.1c0,0-0.1,0-0.1,0.1c0,0,0,0-0.1,0c0,0-0.1,0-0.1,0.1c0,0-0.1,0-0.1,0.1c0,0-0.1,0-0.1,0.1c0,0-0.1,0-0.1,0.1
				c0,0-0.1,0-0.1,0.1c0,0-0.1,0-0.1,0.1c0,0,0,0-0.1,0c0,0-0.1,0-0.1,0.1c0,0-0.1,0-0.1,0.1c0,0-0.1,0-0.1,0.1c0,0-0.1,0-0.1,0.1
				c0,0-0.1,0-0.1,0.1c0,0-0.1,0-0.1,0.1c0,0-0.1,0-0.1,0.1c0,0,0,0-0.1,0c0,0-0.1,0-0.1,0.1c0,0-0.1,0-0.1,0.1c0,0-0.1,0-0.1,0.1
				c0,0-0.1,0-0.1,0.1c0,0-0.1,0-0.1,0.1c0,0-0.1,0-0.1,0.1c0,0,0,0-0.1,0c0,0-0.1,0-0.1,0.1c0,0-0.1,0-0.1,0.1c0,0-0.1,0-0.1,0.1
				c0,0-0.1,0-0.1,0.1c0,0-0.1,0-0.1,0.1c0,0-0.1,0-0.1,0.1c0,0-0.1,0-0.1,0.1c0,0,0,0-0.1,0c0,0-0.1,0-0.1,0.1c0,0-0.1,0-0.1,0.1
				c0,0-0.1,0-0.1,0.1c0,0-0.1,0-0.1,0.1c0,0-0.1,0-0.1,0.1c0,0-0.1,0-0.1,0.1c0,0-0.1,0-0.1,0.1c0,0,0,0-0.1,0c0,0-0.1,0-0.1,0.1
				c0,0-0.1,0-0.1,0.1c0,0-0.1,0-0.1,0.1c0,0-0.1,0-0.1,0.1c0,0-0.1,0-0.1,0.1c0,0-0.1,0-0.1,0.1c0,0,0,0-0.1,0c0,0-0.1,0-0.1,0.1
				c0,0-0.1,0-0.1,0.1c0,0-0.1,0-0.1,0.1c0,0-0.1,0-0.1,0.1c0,0-0.1,0-0.1,0.1c0,0-0.1,0-0.1,0.1c0,0-0.1,0-0.1,0.1c0,0,0,0-0.1,0
				c-5.2,3.5-8.6,9.4-8.6,16.2v35.2c0,10.7,8.7,19.5,19.5,19.5H660c4,0,7.8-1.2,10.9-3.3c0,0,0.1,0,0.1-0.1c0,0,0.1,0,0.1-0.1
				c0,0,0.1,0,0.1-0.1c0,0,0.1,0,0.1-0.1c0,0,0.1,0,0.1-0.1c0,0,0.1,0,0.1-0.1c0,0,0.1,0,0.1-0.1c0,0,0,0,0.1,0c0,0,0.1,0,0.1-0.1
				c0,0,0.1,0,0.1-0.1c0,0,0.1,0,0.1-0.1s0.1,0,0.1-0.1c0,0,0.1,0,0.1-0.1c0,0,0.1,0,0.1-0.1c0,0,0,0,0.1,0c0,0,0.1,0,0.1-0.1
				c0,0,0.1,0,0.1-0.1c0,0,0.1,0,0.1-0.1c0,0,0.1,0,0.1-0.1c0,0,0.1,0,0.1-0.1c0,0,0.1,0,0.1-0.1c0,0,0.1,0,0.1-0.1c0,0,0,0,0.1,0
				c0,0,0.1,0,0.1-0.1c0,0,0.1,0,0.1-0.1c0,0,0.1,0,0.1-0.1c0,0,0.1,0,0.1-0.1c0,0,0.1,0,0.1-0.1s0.1,0,0.1-0.1c0,0,0.1,0,0.1-0.1
				c0,0,0,0,0.1,0c0,0,0.1,0,0.1-0.1c0,0,0.1,0,0.1-0.1c0,0,0.1,0,0.1-0.1c0,0,0.1,0,0.1-0.1c0,0,0.1,0,0.1-0.1c0,0,0.1,0,0.1-0.1
				c0,0,0,0,0.1,0c0,0,0.1,0,0.1-0.1c0,0,0.1,0,0.1-0.1c0,0,0.1,0,0.1-0.1c0,0,0.1,0,0.1-0.1c0,0,0.1,0,0.1-0.1c0,0,0.1,0,0.1-0.1
				c0,0,0.1,0,0.1-0.1c0,0,0,0,0.1,0c0,0,0.1,0,0.1-0.1c0,0,0.1,0,0.1-0.1c0,0,0.1,0,0.1-0.1c0,0,0.1,0,0.1-0.1c0,0,0.1,0,0.1-0.1
				c0,0,0.1,0,0.1-0.1c0,0,0,0,0.1,0c0,0,0.1,0,0.1-0.1c0,0,0.1,0,0.1-0.1c0,0,0.1,0,0.1-0.1c0,0,0.1,0,0.1-0.1c0,0,0.1,0,0.1-0.1
				c0,0,0.1,0,0.1-0.1c0,0,0.1,0,0.1-0.1c0,0,0,0,0.1,0c0,0,0.1,0,0.1-0.1c0,0,0.1,0,0.1-0.1c0,0,0.1,0,0.1-0.1c0,0,0.1,0,0.1-0.1
				c0,0,0.1,0,0.1-0.1c0,0,0.1,0,0.1-0.1c0,0,0,0,0.1,0c0,0,0.1,0,0.1-0.1c0,0,0.1,0,0.1-0.1c0,0,0.1,0,0.1-0.1c0,0,0.1,0,0.1-0.1
				c0,0,0.1,0,0.1-0.1c0,0,0.1,0,0.1-0.1c0,0,0.1,0,0.1-0.1c0,0,0,0,0.1,0c0,0,0.1,0,0.1-0.1c0,0,0.1,0,0.1-0.1c0,0,0.1,0,0.1-0.1
				c0,0,0.1,0,0.1-0.1s0.1,0,0.1-0.1c0,0,0.1,0,0.1-0.1c0,0,0,0,0.1,0c0,0,0.1,0,0.1-0.1c0,0,0.1,0,0.1-0.1c0,0,0.1,0,0.1-0.1
				c0,0,0.1,0,0.1-0.1c0,0,0.1,0,0.1-0.1c0,0,0.1,0,0.1-0.1c0,0,0.1,0,0.1-0.1c0,0,0,0,0.1,0c0,0,0.1,0,0.1-0.1c0,0,0.1,0,0.1-0.1
				s0.1,0,0.1-0.1c0,0,0.1,0,0.1-0.1c0,0,0.1,0,0.1-0.1c0,0,0.1,0,0.1-0.1s0.1,0,0.1-0.1c0,0,0,0,0.1,0c0,0,0.1,0,0.1-0.1
				c5.2-3.5,8.6-9.4,8.6-16.2v-23.3h-27.7v0.1h-0.1v0.1h-0.1v0.1h-0.1v0.1H659v0.1h-0.1v0.1h-0.1v0.1h-0.1v0.1h-0.1v0.1h-0.1v0.1
				h-0.1v0.1h-0.1v0.1h-0.1v0.1h-0.1v0.1h-0.1v0.1h-0.1v0.1h-0.1v0.1H658v0.1h-0.1v0.1h-0.1v0.1h-0.1v0.1h-0.1v0.1h-0.1v0.1h-0.1
				v0.1h-0.1v0.1h-0.1v0.1h-0.1v0.1h-0.1v0.1h-0.1v0.1h-0.1v0.1H657v0.1H657v0.1h-0.1v0.1h-0.1v0.1h-0.1v0.1h-0.1v0.1h-0.1v0.1h-0.1
				v0.1h-0.1v0.1h-0.1v0.1h-0.1v0.1h-0.1v0.1h-0.1v0.1h-0.1v0.1H656v0.1h-0.1v0.1h-0.1v0.1h-0.1v0.1h-0.1v0.1h-0.1v0.1h-0.1v0.1
				h-0.1v0.1h-0.1v0.1h-0.1v0.1h-0.1v0.1h-0.1v0.1h-0.1v0.1H655v0.1h-0.1v0.1h-0.1v0.1h-0.1v0.1h-0.1v0.1h-0.1v0.1h-0.1v0.1h-0.1
				v0.1h-0.1v0.1h-0.1v0.1h-0.1v0.1h-0.1v0.1h-0.1v0.1H654v0.1H654v0.1h-0.1v0.1h-0.1v0.1h-0.1v0.1h-0.1v0.1h-0.1v0.1h-0.1v0.1h-0.1
				v0.1h-0.1v0.1h-0.1v0.1h-0.1v0.1h-0.1v0.1h-0.1v0.1H653v0.1h-0.1v0.1h-0.1v0.1h-0.1v0.1h-0.1v0.1h-0.1v0.1h-0.1v0.1h-0.1v0.1
				h-0.1v0.1h-0.1v0.1h-0.1v0.1h-0.1v0.1h-0.1v0.1H652v0.1h-0.1v0.1h-0.1v0.1h-0.1v0.1h-0.1v15.4h12.4v7h-13c-2.2,0-4.1-1.9-4.1-4.1
				v-34.2h13c2.2,0,4.1,1.9,4.1,4.1v4.9h15.4v-0.1h0.1v-0.1h0.1v-0.1h0.1v-0.1h0.1v-0.1h0.1v-0.1h0.1V581h0.1V581h0.1v-0.1h0.1v-0.1
				h0.1v-0.1h0.1v-0.1h0.1v-0.1h0.1v-0.1h0.1v-0.1h0.1v-0.1h0.1v-0.1h0.1v-0.1h0.1v-0.1h0.1v-0.1h0.1v-0.1h0.1v-0.1h0.1v-0.1h0.1
				v-0.1h0.1v-0.1h0.1v-0.1h0.1V580h0.1V580h0.1v-0.1h0.1v-0.1h0.1v-0.1h0.1v-0.1h0.1v-0.1h0.1v-0.1h0.1v-0.1h0.1v-0.1h0.1v-0.1h0.1
				v-0.1h0.1v-0.1h0.1v-0.1h0.1v-0.1h0.1v-0.1h0.1v-0.1h0.1v-0.1h0.1v-0.1h0.1v-0.1h0.1V579h0.1V579h0.1v-0.1h0.1v-0.1h0.1v-0.1h0.1
				v-0.1h0.1v-0.1h0.1v-0.1h0.1v-0.1h0.1v-0.1h0.1v-0.1h0.1v-0.1h0.1v-0.1h0.1v-0.1h0.1v-0.1h0.1v-0.1h0.1v-0.1h0.1v-0.1h0.1v-0.1
				h0.1v-0.1h0.1V578h0.1V578h0.1v-0.1h0.1v-0.1h0.1v-0.1h0.1v-0.1h0.1v-0.1h0.1v-0.1h0.1v-0.1h0.1v-0.1h0.1v-0.1h0.1v-0.1h0.1v-0.1
				h0.1v-0.1h0.1v-0.1h0.1v-0.1h0.1v-0.1h0.1v-0.1h0.1v-0.1h0.1v-0.1h0.1V577h0.1V577h0.1v-0.1h0.1v-0.1h0.1v-0.1h0.1v-0.1h0.1v-0.1
				h0.1v-0.1h0.1v-0.1h0.1v-0.1h0.1v-0.1h0.1v-0.1h0.1v-0.1h0.1v-0.1h0.1v-0.1h0.1v-4.9C687,560.7,678.3,551.9,667.6,551.9z"/>
		</g>
		<g>
			<polygon class="st0" points="601,552 600.9,552 600.9,552 600.9,552 600.9,552.1 600.8,552.1 600.8,552.1 600.7,552.1 
				600.7,552.2 600.6,552.2 600.6,552.2 600.6,552.2 600.6,552.3 600.5,552.3 600.5,552.3 600.4,552.3 600.4,552.4 600.3,552.4 
				600.3,552.4 600.3,552.4 600.3,552.5 600.2,552.5 600.2,552.5 600.1,552.5 600.1,552.6 600,552.6 600,552.6 600,552.6 600,552.7 
				599.9,552.7 599.9,552.7 599.8,552.7 599.8,552.8 599.7,552.8 599.7,552.8 599.7,552.8 599.7,552.9 599.6,552.9 599.6,552.9 
				599.5,552.9 599.5,553 599.4,553 599.4,553 599.4,553 599.4,553.1 599.3,553.1 599.3,553.1 599.2,553.1 599.2,553.2 599.1,553.2 
				599.1,553.2 599.1,553.2 599.1,553.3 599,553.3 599,553.3 598.9,553.3 598.9,553.4 598.8,553.4 598.8,553.4 598.8,553.4 
				598.8,553.5 598.7,553.5 598.7,553.5 598.6,553.5 598.6,553.6 598.5,553.6 598.5,553.6 598.5,553.6 598.5,553.7 598.4,553.7 
				598.4,553.7 598.3,553.7 598.3,553.8 598.2,553.8 598.2,553.8 598.2,553.8 598.2,553.9 598.1,553.9 598.1,553.9 598,553.9 
				598,554 597.9,554 597.9,554 597.9,554 597.9,554.1 597.8,554.1 597.8,554.1 597.7,554.1 597.7,554.2 597.6,554.2 597.6,554.2 
				597.6,554.2 597.6,554.3 597.5,554.3 597.5,554.4 597.4,554.4 597.4,554.4 597.3,554.4 597.3,554.5 597.3,554.5 597.3,554.5 
				597.2,554.5 597.2,554.6 597.1,554.6 597.1,554.6 597,554.6 597,554.7 597,554.7 597,554.7 596.9,554.7 596.9,554.8 596.8,554.8 
				596.8,554.8 596.7,554.8 596.7,554.9 596.7,554.9 596.7,554.9 596.6,554.9 596.6,555 596.5,555 596.5,555 596.4,555 596.4,555.1 
				596.4,555.1 596.4,555.1 596.3,555.1 596.3,555.2 596.2,555.2 596.2,555.2 596.1,555.2 596.1,555.3 596.1,555.3 596.1,555.3 
				596,555.3 596,555.4 595.9,555.4 595.9,555.4 595.8,555.4 595.8,555.5 595.8,555.5 595.8,555.5 595.7,555.5 595.7,555.6 
				595.6,555.6 595.6,555.6 595.5,555.6 595.5,555.7 595.4,555.7 595.4,555.7 595.4,555.7 595.4,555.8 595.3,555.8 595.3,555.8 
				595.2,555.8 595.2,555.9 595.1,555.9 595.1,555.9 595.1,555.9 595.1,556 595,556 595,556 594.9,556 594.9,556.1 594.8,556.1 
				594.8,556.1 594.8,556.1 594.8,556.2 594.7,556.2 594.7,556.2 594.6,556.2 594.6,556.3 594.5,556.3 594.5,556.3 594.5,556.3 
				594.5,556.4 594.4,556.4 594.4,556.4 594.3,556.4 594.3,556.5 594.2,556.5 594.2,556.5 594.2,556.5 594.2,556.6 594.1,556.6 
				594.1,556.6 594,556.6 594,556.7 593.9,556.7 593.9,556.7 593.9,556.7 593.9,556.8 593.8,556.8 593.8,556.8 593.7,556.8 
				593.7,556.9 593.6,556.9 593.6,556.9 593.6,556.9 593.6,557 593.5,557 593.5,557 593.4,557 593.4,631.1 608.8,631.1 608.8,631.1 
				608.9,631.1 608.9,631 608.9,631 608.9,631 609,631 609,630.9 609.1,630.9 609.1,630.9 609.2,630.9 609.2,630.8 609.2,630.8 
				609.2,630.8 609.3,630.8 609.3,630.7 609.4,630.7 609.4,630.7 609.5,630.7 609.5,630.6 609.5,630.6 609.5,630.6 609.6,630.6 
				609.6,630.5 609.7,630.5 609.7,630.5 609.8,630.5 609.8,630.4 609.8,630.4 609.8,630.4 609.9,630.4 609.9,630.3 610,630.3 
				610,630.3 610.1,630.3 610.1,630.2 610.1,630.2 610.1,630.2 610.2,630.2 610.2,630.1 610.3,630.1 610.3,630.1 610.4,630.1 
				610.4,630 610.4,630 610.4,630 610.5,630 610.5,629.9 610.6,629.9 610.6,629.9 610.7,629.9 610.7,629.8 610.7,629.8 610.7,629.8 
				610.8,629.8 610.8,629.7 610.9,629.7 610.9,629.7 611,629.7 611,629.6 611,629.6 611,629.6 611.1,629.6 611.1,629.5 611.2,629.5 
				611.2,629.5 611.3,629.5 611.3,629.4 611.3,629.4 611.3,629.4 611.4,629.4 611.4,629.3 611.5,629.3 611.5,629.3 611.6,629.3 
				611.6,629.2 611.6,629.2 611.6,629.2 611.7,629.2 611.7,629.1 611.8,629.1 611.8,629.1 611.9,629.1 611.9,629 611.9,629 
				611.9,629 612,629 612,628.9 612.1,628.9 612.1,628.9 612.2,628.9 612.2,628.8 612.2,628.8 612.2,628.8 612.3,628.8 612.3,628.7 
				612.4,628.7 612.4,628.7 612.5,628.7 612.5,628.6 612.5,628.6 612.5,628.6 612.6,628.6 612.6,628.5 612.7,628.5 612.7,628.5 
				612.8,628.5 612.8,628.4 612.8,628.4 612.8,628.4 612.9,628.4 612.9,628.3 613,628.3 613,628.3 613.1,628.3 613.1,628.2 
				613.1,628.2 613.1,628.2 613.2,628.2 613.2,628.1 613.3,628.1 613.3,628.1 613.4,628.1 613.4,628 613.4,628 613.4,628 613.5,628 
				613.5,627.9 613.6,627.9 613.6,627.9 613.7,627.9 613.7,627.8 613.7,627.8 613.7,627.8 613.8,627.8 613.8,627.7 613.9,627.7 
				613.9,627.7 614,627.7 614,627.6 614,627.6 614,627.6 614.1,627.6 614.1,627.5 614.2,627.5 614.2,627.5 614.3,627.5 614.3,627.4 
				614.3,627.4 614.3,627.4 614.4,627.4 614.4,627.3 614.5,627.3 614.5,627.3 614.6,627.3 614.6,627.2 614.6,627.2 614.6,627.2 
				614.7,627.2 614.7,627.1 614.8,627.1 614.8,627.1 614.9,627.1 614.9,627 614.9,627 614.9,627 615,627 615,626.9 615.1,626.9 
				615.1,626.9 615.2,626.9 615.2,626.8 615.2,626.8 615.2,626.8 615.3,626.8 615.3,626.7 615.4,626.7 615.4,626.7 615.5,626.7 
				615.5,626.6 615.5,626.6 615.5,626.6 615.6,626.6 615.6,626.5 615.7,626.5 615.7,626.5 615.8,626.5 615.8,626.4 615.9,626.4 
				615.9,626.4 615.9,626.4 615.9,626.3 616,626.3 616,626.3 616.1,626.3 616.1,626.2 616.2,626.2 616.2,626.2 616.2,626.2 
				616.2,626.1 616.3,626.1 616.3,626.1 616.4,626.1 616.4,551.9 601,551.9 			"/>
		</g>
		<g>
			<path class="st0" d="M804,551.9h-16.5c-4,0-7.8,1.2-10.9,3.3c0,0,0,0-0.1,0c0,0-0.1,0-0.1,0.1c0,0-0.1,0-0.1,0.1
				c0,0-0.1,0-0.1,0.1c0,0-0.1,0-0.1,0.1c0,0-0.1,0-0.1,0.1c0,0-0.1,0-0.1,0.1c0,0-0.1,0-0.1,0.1c0,0,0,0-0.1,0c0,0-0.1,0-0.1,0.1
				c0,0-0.1,0-0.1,0.1c0,0-0.1,0-0.1,0.1c0,0-0.1,0-0.1,0.1c0,0-0.1,0-0.1,0.1c0,0-0.1,0-0.1,0.1c0,0-0.1,0-0.1,0.1c0,0,0,0-0.1,0
				c0,0-0.1,0-0.1,0.1c0,0-0.1,0-0.1,0.1c0,0-0.1,0-0.1,0.1c0,0-0.1,0-0.1,0.1c0,0-0.1,0-0.1,0.1c0,0-0.1,0-0.1,0.1c0,0,0,0-0.1,0
				c0,0-0.1,0-0.1,0.1c0,0-0.1,0-0.1,0.1c0,0-0.1,0-0.1,0.1c0,0-0.1,0-0.1,0.1c0,0-0.1,0-0.1,0.1c0,0-0.1,0-0.1,0.1
				c0,0-0.1,0-0.1,0.1c0,0,0,0-0.1,0c0,0-0.1,0-0.1,0.1c0,0-0.1,0-0.1,0.1c0,0-0.1,0-0.1,0.1c0,0-0.1,0-0.1,0.1c0,0-0.1,0-0.1,0.1
				c0,0-0.1,0-0.1,0.1c0,0,0,0-0.1,0c0,0-0.1,0-0.1,0.1c0,0-0.1,0-0.1,0.1c0,0-0.1,0-0.1,0.1c0,0-0.1,0-0.1,0.1c0,0-0.1,0-0.1,0.1
				c0,0-0.1,0-0.1,0.1c0,0-0.1,0-0.1,0.1c0,0,0,0-0.1,0c0,0-0.1,0-0.1,0.1c0,0-0.1,0-0.1,0.1c0,0-0.1,0-0.1,0.1c0,0-0.1,0-0.1,0.1
				c0,0-0.1,0-0.1,0.1c0,0-0.1,0-0.1,0.1c0,0,0,0-0.1,0c0,0-0.1,0-0.1,0.1c0,0-0.1,0-0.1,0.1c0,0-0.1,0-0.1,0.1c0,0-0.1,0-0.1,0.1
				c0,0-0.1,0-0.1,0.1c0,0-0.1,0-0.1,0.1c0,0-0.1,0-0.1,0.1c0,0,0,0-0.1,0c0,0-0.1,0-0.1,0.1c0,0-0.1,0-0.1,0.1c0,0-0.1,0-0.1,0.1
				c0,0-0.1,0-0.1,0.1c0,0-0.1,0-0.1,0.1c0,0-0.1,0-0.1,0.1c0,0,0,0-0.1,0c0,0-0.1,0-0.1,0.1s-0.1,0-0.1,0.1c0,0-0.1,0-0.1,0.1
				c0,0-0.1,0-0.1,0.1c0,0-0.1,0-0.1,0.1c0,0-0.1,0-0.1,0.1c0,0-0.1,0-0.1,0.1c0,0,0,0-0.1,0c0,0-0.1,0-0.1,0.1c0,0-0.1,0-0.1,0.1
				c0,0-0.1,0-0.1,0.1c0,0-0.1,0-0.1,0.1c0,0-0.1,0-0.1,0.1c0,0-0.1,0-0.1,0.1c0,0-0.1,0-0.1,0.1c0,0,0,0-0.1,0c0,0-0.1,0-0.1,0.1
				c0,0-0.1,0-0.1,0.1c0,0-0.1,0-0.1,0.1c0,0-0.1,0-0.1,0.1c0,0-0.1,0-0.1,0.1c0,0-0.1,0-0.1,0.1c0,0,0,0-0.1,0c0,0-0.1,0-0.1,0.1
				c0,0-0.1,0-0.1,0.1c0,0-0.1,0-0.1,0.1c0,0-0.1,0-0.1,0.1c0,0-0.1,0-0.1,0.1c0,0-0.1,0-0.1,0.1c0,0-0.1,0-0.1,0.1c0,0,0,0-0.1,0
				c-5.2,3.5-8.6,9.4-8.6,16.2v11.9v15.4v27.4h15.4v-0.1h0.1V631h0.1V631h0.1v-0.1h0.1v-0.1h0.1v-0.1h0.1v-0.1h0.1v-0.1h0.1v-0.1
				h0.1v-0.1h0.1v-0.1h0.1v-0.1h0.1v-0.1h0.1v-0.1h0.1v-0.1h0.1v-0.1h0.1v-0.1h0.1v-0.1h0.1v-0.1h0.1v-0.1h0.1v-0.1h0.1V630h0.1V630
				h0.1v-0.1h0.1v-0.1h0.1v-0.1h0.1v-0.1h0.1v-0.1h0.1v-0.1h0.1v-0.1h0.1v-0.1h0.1v-0.1h0.1v-0.1h0.1v-0.1h0.1v-0.1h0.1v-0.1h0.1
				v-0.1h0.1v-0.1h0.1v-0.1h0.1v-0.1h0.1v-0.1h0.1V629h0.1V629h0.1v-0.1h0.1v-0.1h0.1v-0.1h0.1v-0.1h0.1v-0.1h0.1v-0.1h0.1v-0.1h0.1
				v-0.1h0.1v-0.1h0.1v-0.1h0.1v-0.1h0.1v-0.1h0.1v-0.1h0.1v-0.1h0.1v-0.1h0.1v-0.1h0.1v-0.1h0.1v-0.1h0.1V628h0.1V628h0.1v-0.1h0.1
				v-0.1h0.1v-0.1h0.1v-0.1h0.1v-0.1h0.1v-0.1h0.1v-0.1h0.1v-0.1h0.1v-0.1h0.1v-0.1h0.1v-0.1h0.1v-0.1h0.1v-0.1h0.1v-0.1h0.1v-0.1
				h0.1v-0.1h0.1v-0.1h0.1v-0.1h0.1V627h0.1V627h0.1v-0.1h0.1v-0.1h0.1v-0.1h0.1v-0.1h0.1v-0.1h0.1v-0.1h0.1v-0.1h0.1v-0.1h0.1v-0.1
				h0.1v-0.1h0.1v-0.1h0.1v-0.1h0.1v-0.1h0.1v-0.1h0.1v-0.1h0.1v-0.1h0.1v-0.1h0.1v-0.1h0.1v-22.3h17.1v27.4h15.4v-0.1h0.1V631h0.1
				V631h0.1v-0.1h0.1v-0.1h0.1v-0.1h0.1v-0.1h0.1v-0.1h0.1v-0.1h0.1v-0.1h0.1v-0.1h0.1v-0.1h0.1v-0.1h0.1v-0.1h0.1v-0.1h0.1v-0.1
				h0.1v-0.1h0.1v-0.1h0.1v-0.1h0.1v-0.1h0.1v-0.1h0.1V630h0.1V630h0.1v-0.1h0.1v-0.1h0.1v-0.1h0.1v-0.1h0.1v-0.1h0.1v-0.1h0.1v-0.1
				h0.1v-0.1h0.1v-0.1h0.1v-0.1h0.1v-0.1h0.1v-0.1h0.1v-0.1h0.1v-0.1h0.1v-0.1h0.1v-0.1h0.1v-0.1h0.1v-0.1h0.1V629h0.1V629h0.1v-0.1
				h0.1v-0.1h0.1v-0.1h0.1v-0.1h0.1v-0.1h0.1v-0.1h0.1v-0.1h0.1v-0.1h0.1v-0.1h0.1v-0.1h0.1v-0.1h0.1v-0.1h0.1v-0.1h0.1v-0.1h0.1
				v-0.1h0.1v-0.1h0.1v-0.1h0.1v-0.1h0.1V628h0.1V628h0.1v-0.1h0.1v-0.1h0.1v-0.1h0.1v-0.1h0.1v-0.1h0.1v-0.1h0.1v-0.1h0.1v-0.1h0.1
				v-0.1h0.1v-0.1h0.1v-0.1h0.1v-0.1h0.1v-0.1h0.1v-0.1h0.1v-0.1h0.1v-0.1h0.1v-0.1h0.1v-0.1h0.1V627h0.1V627h0.1v-0.1h0.1v-0.1h0.1
				v-0.1h0.1v-0.1h0.1v-0.1h0.1v-0.1h0.1v-0.1h0.1v-0.1h0.1v-0.1h0.1v-0.1h0.1v-0.1h0.1v-0.1h0.1v-0.1h0.1v-0.1h0.1v-0.1h0.1v-0.1
				h0.1v-0.1h0.1v-0.1h0.1v-27.4v-15.4v-11.9C823.5,560.7,814.8,551.9,804,551.9z M796.4,572.4c2.2,0,4.1,1.9,4.1,4.1v6.8h-17.1
				v-10.9H796.4z"/>
		</g>
		<g>
			<path class="st0" d="M874.8,551.9h-16.5c-4,0-7.8,1.2-10.9,3.3c0,0,0,0-0.1,0c0,0-0.1,0-0.1,0.1c0,0-0.1,0-0.1,0.1
				s-0.1,0-0.1,0.1c0,0-0.1,0-0.1,0.1c0,0-0.1,0-0.1,0.1c0,0-0.1,0-0.1,0.1s-0.1,0-0.1,0.1c0,0,0,0-0.1,0c0,0-0.1,0-0.1,0.1
				c0,0-0.1,0-0.1,0.1c0,0-0.1,0-0.1,0.1c0,0-0.1,0-0.1,0.1c0,0-0.1,0-0.1,0.1c0,0-0.1,0-0.1,0.1c0,0-0.1,0-0.1,0.1c0,0,0,0-0.1,0
				c0,0-0.1,0-0.1,0.1c0,0-0.1,0-0.1,0.1c0,0-0.1,0-0.1,0.1s-0.1,0-0.1,0.1c0,0-0.1,0-0.1,0.1s-0.1,0-0.1,0.1c0,0,0,0-0.1,0
				c0,0-0.1,0-0.1,0.1c0,0-0.1,0-0.1,0.1c0,0-0.1,0-0.1,0.1c0,0-0.1,0-0.1,0.1c0,0-0.1,0-0.1,0.1c0,0-0.1,0-0.1,0.1
				c0,0-0.1,0-0.1,0.1c0,0,0,0-0.1,0c0,0-0.1,0-0.1,0.1c0,0-0.1,0-0.1,0.1c0,0-0.1,0-0.1,0.1s-0.1,0-0.1,0.1c0,0-0.1,0-0.1,0.1
				s-0.1,0-0.1,0.1c0,0,0,0-0.1,0c0,0-0.1,0-0.1,0.1c0,0-0.1,0-0.1,0.1c0,0-0.1,0-0.1,0.1c0,0-0.1,0-0.1,0.1c0,0-0.1,0-0.1,0.1
				c0,0-0.1,0-0.1,0.1c0,0-0.1,0-0.1,0.1c0,0,0,0-0.1,0c0,0-0.1,0-0.1,0.1c0,0-0.1,0-0.1,0.1c0,0-0.1,0-0.1,0.1c0,0-0.1,0-0.1,0.1
				c0,0-0.1,0-0.1,0.1c0,0-0.1,0-0.1,0.1c0,0,0,0-0.1,0c0,0-0.1,0-0.1,0.1c0,0-0.1,0-0.1,0.1c0,0-0.1,0-0.1,0.1c0,0-0.1,0-0.1,0.1
				c0,0-0.1,0-0.1,0.1c0,0-0.1,0-0.1,0.1c0,0-0.1,0-0.1,0.1c0,0,0,0-0.1,0c0,0-0.1,0-0.1,0.1c0,0-0.1,0-0.1,0.1c0,0-0.1,0-0.1,0.1
				c0,0-0.1,0-0.1,0.1c0,0-0.1,0-0.1,0.1c0,0-0.1,0-0.1,0.1c0,0,0,0-0.1,0c0,0-0.1,0-0.1,0.1c0,0-0.1,0-0.1,0.1c0,0-0.1,0-0.1,0.1
				c0,0-0.1,0-0.1,0.1c0,0-0.1,0-0.1,0.1c0,0-0.1,0-0.1,0.1c0,0-0.1,0-0.1,0.1c0,0,0,0-0.1,0c0,0-0.1,0-0.1,0.1c0,0-0.1,0-0.1,0.1
				c0,0-0.1,0-0.1,0.1c0,0-0.1,0-0.1,0.1c0,0-0.1,0-0.1,0.1c0,0-0.1,0-0.1,0.1c0,0-0.1,0-0.1,0.1c0,0,0,0-0.1,0c0,0-0.1,0-0.1,0.1
				c0,0-0.1,0-0.1,0.1c0,0-0.1,0-0.1,0.1c0,0-0.1,0-0.1,0.1c0,0-0.1,0-0.1,0.1c0,0-0.1,0-0.1,0.1c0,0,0,0-0.1,0c0,0-0.1,0-0.1,0.1
				c0,0-0.1,0-0.1,0.1c0,0-0.1,0-0.1,0.1c0,0-0.1,0-0.1,0.1c0,0-0.1,0-0.1,0.1c0,0-0.1,0-0.1,0.1c0,0-0.1,0-0.1,0.1c0,0,0,0-0.1,0
				c-5.2,3.5-8.6,9.4-8.6,16.2v35.2c0,10.7,8.7,19.5,19.5,19.5h16.5c4,0,7.8-1.2,10.9-3.3c0,0,0.1,0,0.1-0.1c0,0,0.1,0,0.1-0.1
				c0,0,0.1,0,0.1-0.1c0,0,0.1,0,0.1-0.1c0,0,0.1,0,0.1-0.1c0,0,0.1,0,0.1-0.1c0,0,0.1,0,0.1-0.1c0,0,0,0,0.1,0c0,0,0.1,0,0.1-0.1
				c0,0,0.1,0,0.1-0.1c0,0,0.1,0,0.1-0.1c0,0,0.1,0,0.1-0.1c0,0,0.1,0,0.1-0.1c0,0,0.1,0,0.1-0.1c0,0,0,0,0.1,0c0,0,0.1,0,0.1-0.1
				c0,0,0.1,0,0.1-0.1c0,0,0.1,0,0.1-0.1c0,0,0.1,0,0.1-0.1c0,0,0.1,0,0.1-0.1c0,0,0.1,0,0.1-0.1c0,0,0.1,0,0.1-0.1c0,0,0,0,0.1,0
				c0,0,0.1,0,0.1-0.1c0,0,0.1,0,0.1-0.1c0,0,0.1,0,0.1-0.1c0,0,0.1,0,0.1-0.1c0,0,0.1,0,0.1-0.1c0,0,0.1,0,0.1-0.1
				c0,0,0.1,0,0.1-0.1c0,0,0,0,0.1,0c0,0,0.1,0,0.1-0.1c0,0,0.1,0,0.1-0.1c0,0,0.1,0,0.1-0.1c0,0,0.1,0,0.1-0.1c0,0,0.1,0,0.1-0.1
				c0,0,0.1,0,0.1-0.1c0,0,0,0,0.1,0c0,0,0.1,0,0.1-0.1c0,0,0.1,0,0.1-0.1c0,0,0.1,0,0.1-0.1c0,0,0.1,0,0.1-0.1c0,0,0.1,0,0.1-0.1
				c0,0,0.1,0,0.1-0.1c0,0,0.1,0,0.1-0.1c0,0,0,0,0.1,0c0,0,0.1,0,0.1-0.1c0,0,0.1,0,0.1-0.1c0,0,0.1,0,0.1-0.1c0,0,0.1,0,0.1-0.1
				c0,0,0.1,0,0.1-0.1c0,0,0.1,0,0.1-0.1c0,0,0,0,0.1,0c0,0,0.1,0,0.1-0.1c0,0,0.1,0,0.1-0.1c0,0,0.1,0,0.1-0.1c0,0,0.1,0,0.1-0.1
				c0,0,0.1,0,0.1-0.1c0,0,0.1,0,0.1-0.1c0,0,0.1,0,0.1-0.1c0,0,0,0,0.1,0c0,0,0.1,0,0.1-0.1c0,0,0.1,0,0.1-0.1c0,0,0.1,0,0.1-0.1
				c0,0,0.1,0,0.1-0.1c0,0,0.1,0,0.1-0.1c0,0,0.1,0,0.1-0.1c0,0,0,0,0.1,0c0,0,0.1,0,0.1-0.1c0,0,0.1,0,0.1-0.1c0,0,0.1,0,0.1-0.1
				c0,0,0.1,0,0.1-0.1c0,0,0.1,0,0.1-0.1c0,0,0.1,0,0.1-0.1c0,0,0.1,0,0.1-0.1c0,0,0,0,0.1,0c0,0,0.1,0,0.1-0.1c0,0,0.1,0,0.1-0.1
				c0,0,0.1,0,0.1-0.1c0,0,0.1,0,0.1-0.1s0.1,0,0.1-0.1c0,0,0.1,0,0.1-0.1c0,0,0,0,0.1,0c0,0,0.1,0,0.1-0.1c0,0,0.1,0,0.1-0.1
				c0,0,0.1,0,0.1-0.1c0,0,0.1,0,0.1-0.1c0,0,0.1,0,0.1-0.1c0,0,0.1,0,0.1-0.1c0,0,0.1,0,0.1-0.1c0,0,0,0,0.1,0c0,0,0.1,0,0.1-0.1
				c0,0,0.1,0,0.1-0.1s0.1,0,0.1-0.1c0,0,0.1,0,0.1-0.1c0,0,0.1,0,0.1-0.1c0,0,0.1,0,0.1-0.1s0.1,0,0.1-0.1c0,0,0,0,0.1,0
				c0,0,0.1,0,0.1-0.1c5.2-3.5,8.6-9.4,8.6-16.2v-5.5h-15.4v0.1h-0.1v0.1h-0.1v0.1h-0.1v0.1h-0.1v0.1h-0.1v0.1h-0.1v0.1h-0.1v0.1
				h-0.1v0.1h-0.1v0.1h-0.1v0.1h-0.1v0.1H878v0.1H878v0.1h-0.1v0.1h-0.1v0.1h-0.1v0.1h-0.1v0.1h-0.1v0.1h-0.1v0.1h-0.1v0.1h-0.1v0.1
				h-0.1v0.1h-0.1v0.1h-0.1v0.1H877v0.1H877v0.1h-0.1v0.1h-0.1v0.1h-0.1v0.1h-0.1v0.1h-0.1v0.1h-0.1v0.1h-0.1v0.1h-0.1v0.1h-0.1v0.1
				h-0.1v0.1h-0.1v0.1h-0.1v0.1H876v0.1h-0.1v0.1h-0.1v0.1h-0.1v0.1h-0.1v0.1h-0.1v0.1h-0.1v0.1h-0.1v0.1h-0.1v0.1h-0.1v0.1h-0.1
				v0.1h-0.1v0.1h-0.1v0.1H875v0.1h-0.1v0.1h-0.1v0.1h-0.1v0.1h-0.1v0.1h-0.1v0.1h-0.1v0.1h-0.1v0.1h-0.1v0.1h-0.1v0.1h-0.1v0.1
				h-0.1v0.1h-0.1v0.1H874v0.1H874v0.1h-0.1v0.1h-0.1v0.1h-0.1v0.1h-0.1v0.1h-0.1v0.1h-0.1v0.1h-0.1v0.1h-0.1v0.1h-0.1v0.1h-0.1v0.1
				h-0.1v0.1h-0.1v0.1H873v0.1h-0.1v0.1h-0.1v0.1h-0.1v0.1h-0.1v0.1h-0.1v0.1h-0.1v0.1h-0.1v0.1h-0.1v0.1h-0.1v0.1h-0.1v0.1h-0.1
				v0.1h-0.1v0.1H872v0.1h-0.1v0.1h-0.1v0.1h-0.1v0.1h-0.1v0.1h-0.1v0.1h-0.1v0.1h-0.1v0.1h-0.1v0.1h-0.1v4.5h-13
				c-2.2,0-4.1-1.9-4.1-4.1v-34.2h13c2.2,0,4.1,1.9,4.1,4.1v4.9h15.4v-0.1h0.1v-0.1h0.1v-0.1h0.1v-0.1h0.1v-0.1h0.1v-0.1h0.1V581
				h0.1V581h0.1v-0.1h0.1v-0.1h0.1v-0.1h0.1v-0.1h0.1v-0.1h0.1v-0.1h0.1v-0.1h0.1v-0.1h0.1v-0.1h0.1v-0.1h0.1v-0.1h0.1v-0.1h0.1
				v-0.1h0.1v-0.1h0.1v-0.1h0.1v-0.1h0.1v-0.1h0.1v-0.1h0.1V580h0.1V580h0.1v-0.1h0.1v-0.1h0.1v-0.1h0.1v-0.1h0.1v-0.1h0.1v-0.1h0.1
				v-0.1h0.1v-0.1h0.1v-0.1h0.1v-0.1h0.1v-0.1h0.1v-0.1h0.1v-0.1h0.1v-0.1h0.1v-0.1h0.1v-0.1h0.1v-0.1h0.1v-0.1h0.1V579h0.1V579h0.1
				v-0.1h0.1v-0.1h0.1v-0.1h0.1v-0.1h0.1v-0.1h0.1v-0.1h0.1v-0.1h0.1v-0.1h0.1v-0.1h0.1v-0.1h0.1v-0.1h0.1v-0.1h0.1v-0.1h0.1v-0.1
				h0.1v-0.1h0.1v-0.1h0.1v-0.1h0.1v-0.1h0.1V578h0.1V578h0.1v-0.1h0.1v-0.1h0.1v-0.1h0.1v-0.1h0.1v-0.1h0.1v-0.1h0.1v-0.1h0.1v-0.1
				h0.1v-0.1h0.1v-0.1h0.1v-0.1h0.1v-0.1h0.1v-0.1h0.1v-0.1h0.1v-0.1h0.1v-0.1h0.1v-0.1h0.1v-0.1h0.1V577h0.1V577h0.1v-0.1h0.1v-0.1
				h0.1v-0.1h0.1v-0.1h0.1v-0.1h0.1v-0.1h0.1v-0.1h0.1v-0.1h0.1v-0.1h0.1v-0.1h0.1v-0.1h0.1v-0.1h0.1v-0.1h0.1v-4.9
				C894.3,560.7,885.6,551.9,874.8,551.9z"/>
		</g>
		<g>
			<polygon class="st0" points="737.4,552.1 737.3,552.1 737.3,552.2 737.2,552.2 737.2,552.2 737.1,552.2 737.1,552.3 737.1,552.3 
				737.1,552.3 737,552.3 737,552.4 736.9,552.4 736.9,552.4 736.8,552.4 736.8,552.5 736.8,552.5 736.8,552.5 736.7,552.5 
				736.7,552.6 736.6,552.6 736.6,552.6 736.5,552.6 736.5,552.7 736.5,552.7 736.5,552.7 736.4,552.7 736.4,552.8 736.3,552.8 
				736.3,552.8 736.2,552.8 736.2,552.9 736.2,552.9 736.2,552.9 736.1,552.9 736.1,553 736,553 736,553 735.9,553 735.9,553.1 
				735.9,553.1 735.9,553.1 735.8,553.1 735.8,553.2 735.7,553.2 735.7,553.2 735.6,553.2 735.6,553.3 735.6,553.3 735.6,553.3 
				735.5,553.3 735.5,553.4 735.4,553.4 735.4,553.4 735.3,553.4 735.3,553.5 735.3,553.5 735.3,553.5 735.2,553.5 735.2,553.6 
				735.1,553.6 735.1,553.6 735,553.6 735,553.7 735,553.7 735,553.7 734.9,553.7 734.9,553.8 734.8,553.8 734.8,553.8 734.7,553.8 
				734.7,553.9 734.7,553.9 734.7,553.9 734.6,553.9 734.6,554 734.5,554 734.5,554 734.4,554 734.4,554.1 734.4,554.1 734.4,554.1 
				734.3,554.1 734.3,554.2 734.2,554.2 734.2,554.2 734.1,554.2 734.1,554.3 734,554.3 734,554.3 734,554.3 734,554.4 733.9,554.4 
				733.9,554.4 733.8,554.4 733.8,554.5 733.7,554.5 733.7,554.5 733.7,554.5 733.7,554.6 733.6,554.6 733.6,554.6 733.5,554.6 
				733.5,554.7 733.4,554.7 733.4,554.7 733.4,554.7 733.4,554.8 733.3,554.8 733.3,554.8 733.2,554.8 733.2,554.9 733.1,554.9 
				733.1,554.9 733.1,554.9 733.1,555 733,555 733,555 732.9,555 732.9,555.1 732.8,555.1 732.8,555.1 732.8,555.1 732.8,555.2 
				732.7,555.2 732.7,555.2 732.6,555.2 732.6,555.3 732.5,555.3 732.5,555.3 732.5,555.3 732.5,555.4 732.4,555.4 732.4,555.4 
				732.3,555.4 732.3,555.5 732.2,555.5 732.2,555.5 732.2,555.5 732.2,555.6 732.1,555.6 732.1,555.6 732,555.6 732,555.7 
				731.9,555.7 731.9,555.8 731.9,555.8 731.9,555.8 731.8,555.8 731.8,555.9 731.7,555.9 731.7,555.9 731.6,555.9 731.6,556 
				731.6,556 731.6,556 731.5,556 731.5,556.1 731.4,556.1 731.4,556.1 731.3,556.1 731.3,556.2 731.3,556.2 731.3,556.2 
				731.2,556.2 731.2,556.3 731.1,556.3 731.1,556.3 731,556.3 731,556.4 731,556.4 731,556.4 730.9,556.4 730.9,556.5 730.8,556.5 
				730.8,556.5 730.7,556.5 730.7,556.6 730.7,556.6 730.7,556.6 730.6,556.6 730.6,556.7 730.5,556.7 730.5,556.7 730.4,556.7 
				730.4,556.8 730.4,556.8 730.4,556.8 730.3,556.8 730.3,556.9 730.2,556.9 730.2,556.9 730.1,556.9 730.1,557 730.1,557 
				730.1,557 730,557 730,557.1 729.9,557.1 729.9,557.1 729.8,557.1 729.8,557.2 729.8,557.2 729.8,577.9 714.3,551.9 702.4,551.9 
				702.4,552 702.3,552 702.3,552 702.2,552 702.2,552.1 702.1,552.1 702.1,552.1 702.1,552.1 702.1,552.2 702,552.2 702,552.2 
				701.9,552.2 701.9,552.3 701.8,552.3 701.8,552.3 701.8,552.3 701.8,552.4 701.7,552.4 701.7,552.4 701.6,552.4 701.6,552.5 
				701.5,552.5 701.5,552.5 701.5,552.5 701.5,552.6 701.4,552.6 701.4,552.6 701.3,552.6 701.3,552.7 701.2,552.7 701.2,552.7 
				701.2,552.7 701.2,552.8 701.1,552.8 701.1,552.8 701,552.8 701,552.9 700.9,552.9 700.9,552.9 700.9,552.9 700.9,553 700.8,553 
				700.8,553 700.7,553 700.7,553.1 700.6,553.1 700.6,553.1 700.6,553.1 700.6,553.2 700.5,553.2 700.5,553.2 700.4,553.2 
				700.4,553.3 700.3,553.3 700.3,553.3 700.3,553.3 700.3,553.4 700.2,553.4 700.2,553.4 700.1,553.4 700.1,553.5 700,553.5 
				700,553.5 700,553.5 700,553.6 699.9,553.6 699.9,553.6 699.8,553.6 699.8,553.7 699.7,553.7 699.7,553.7 699.7,553.7 
				699.7,553.8 699.6,553.8 699.6,553.8 699.5,553.8 699.5,553.9 699.4,553.9 699.4,553.9 699.4,553.9 699.4,554 699.3,554 
				699.3,554 699.2,554 699.2,554.1 699.1,554.1 699.1,554.1 699.1,554.1 699.1,554.2 699,554.2 699,554.2 698.9,554.2 698.9,554.3 
				698.8,554.3 698.8,554.4 698.8,554.4 698.8,554.4 698.7,554.4 698.7,554.5 698.6,554.5 698.6,554.5 698.5,554.5 698.5,554.6 
				698.5,554.6 698.5,554.6 698.4,554.6 698.4,554.7 698.3,554.7 698.3,554.7 698.2,554.7 698.2,554.8 698.2,554.8 698.2,554.8 
				698.1,554.8 698.1,554.9 698,554.9 698,554.9 697.9,554.9 697.9,555 697.9,555 697.9,555 697.8,555 697.8,555.1 697.7,555.1 
				697.7,555.1 697.6,555.1 697.6,555.2 697.6,555.2 697.6,555.2 697.5,555.2 697.5,555.3 697.4,555.3 697.4,555.3 697.3,555.3 
				697.3,555.4 697.3,555.4 697.3,555.4 697.2,555.4 697.2,555.5 697.1,555.5 697.1,555.5 697,555.5 697,555.6 697,555.6 697,555.6 
				696.9,555.6 696.9,555.7 696.8,555.7 696.8,555.7 696.7,555.7 696.7,555.8 696.7,555.8 696.7,555.8 696.6,555.8 696.6,555.9 
				696.5,555.9 696.5,555.9 696.4,555.9 696.4,556 696.4,556 696.4,556 696.3,556 696.3,556.1 696.2,556.1 696.2,556.1 696.1,556.1 
				696.1,556.2 696.1,556.2 696.1,556.2 696,556.2 696,556.3 695.9,556.3 695.9,556.3 695.8,556.3 695.8,556.4 695.8,556.4 
				695.8,556.4 695.7,556.4 695.7,556.5 695.6,556.5 695.6,556.5 695.5,556.5 695.5,556.6 695.5,556.6 695.5,556.6 695.4,556.6 
				695.4,556.7 695.3,556.7 695.3,556.7 695.2,556.7 695.2,556.8 695.1,556.8 695.1,556.8 695.1,556.8 695.1,556.9 695,556.9 
				695,556.9 694.9,556.9 694.9,557 694.8,557 694.8,557 694.8,557 694.8,631.1 710.1,631.1 710.1,631.1 710.2,631.1 710.2,631 
				710.3,631 710.3,631 710.4,631 710.4,630.9 710.4,630.9 710.4,630.9 710.5,630.9 710.5,630.8 710.6,630.8 710.6,630.8 
				710.7,630.8 710.7,630.7 710.7,630.7 710.7,630.7 710.8,630.7 710.8,630.6 710.9,630.6 710.9,630.6 711,630.6 711,630.5 
				711,630.5 711,630.5 711.1,630.5 711.1,630.4 711.2,630.4 711.2,630.4 711.3,630.4 711.3,630.3 711.3,630.3 711.3,630.3 
				711.4,630.3 711.4,630.2 711.5,630.2 711.5,630.2 711.6,630.2 711.6,630.1 711.6,630.1 711.6,630.1 711.7,630.1 711.7,630 
				711.8,630 711.8,630 711.9,630 711.9,629.9 711.9,629.9 711.9,629.9 712,629.9 712,629.8 712.1,629.8 712.1,629.8 712.2,629.8 
				712.2,629.7 712.2,629.7 712.2,629.7 712.3,629.7 712.3,629.6 712.4,629.6 712.4,629.6 712.5,629.6 712.5,629.5 712.5,629.5 
				712.5,629.5 712.6,629.5 712.6,629.4 712.7,629.4 712.7,629.4 712.8,629.4 712.8,629.3 712.8,629.3 712.8,629.3 712.9,629.3 
				712.9,629.2 713,629.2 713,629.2 713.1,629.2 713.1,629.1 713.1,629.1 713.1,629.1 713.2,629.1 713.2,629 713.3,629 713.3,629 
				713.4,629 713.4,628.9 713.4,628.9 713.4,628.9 713.5,628.9 713.5,628.8 713.6,628.8 713.6,628.8 713.7,628.8 713.7,628.7 
				713.7,628.7 713.7,628.7 713.8,628.7 713.8,628.6 713.9,628.6 713.9,628.6 714,628.6 714,628.5 714,628.5 714,628.5 714.1,628.5 
				714.1,628.4 714.2,628.4 714.2,628.4 714.3,628.4 714.3,628.3 714.3,628.3 714.3,628.3 714.4,628.3 714.4,628.2 714.5,628.2 
				714.5,628.2 714.6,628.2 714.6,628.1 714.6,628.1 714.6,628.1 714.7,628.1 714.7,628 714.8,628 714.8,628 714.9,628 714.9,627.9 
				714.9,627.9 714.9,627.9 715,627.9 715,627.8 715.1,627.8 715.1,627.8 715.2,627.8 715.2,627.7 715.2,627.7 715.2,627.7 
				715.3,627.7 715.3,627.6 715.4,627.6 715.4,627.6 715.5,627.6 715.5,627.5 715.6,627.5 715.6,627.5 715.6,627.5 715.6,627.4 
				715.7,627.4 715.7,627.4 715.8,627.4 715.8,627.3 715.9,627.3 715.9,627.3 715.9,627.3 715.9,627.2 716,627.2 716,627.2 
				716.1,627.2 716.1,627.1 716.2,627.1 716.2,627.1 716.2,627.1 716.2,627 716.3,627 716.3,627 716.4,627 716.4,626.9 716.5,626.9 
				716.5,626.9 716.5,626.9 716.5,626.8 716.6,626.8 716.6,626.8 716.7,626.8 716.7,626.7 716.8,626.7 716.8,626.7 716.8,626.7 
				716.8,626.6 716.9,626.6 716.9,626.6 717,626.6 717,626.5 717.1,626.5 717.1,626.5 717.1,626.5 717.1,626.4 717.2,626.4 
				717.2,626.4 717.3,626.4 717.3,626.3 717.4,626.3 717.4,626.3 717.4,626.3 717.4,626.2 717.5,626.2 717.5,626.2 717.6,626.2 
				717.6,626.1 717.7,626.1 717.7,626.1 717.7,626.1 717.7,605.7 732.8,631.1 745.1,631.1 745.1,631.1 745.2,631.1 745.2,631 
				745.3,631 745.3,631 745.3,631 745.3,630.9 745.4,630.9 745.4,630.9 745.5,630.9 745.5,630.8 745.6,630.8 745.6,630.8 
				745.6,630.8 745.6,630.7 745.7,630.7 745.7,630.7 745.8,630.7 745.8,630.6 745.9,630.6 745.9,630.6 746,630.6 746,630.5 
				746,630.5 746,630.5 746.1,630.5 746.1,630.4 746.2,630.4 746.2,630.4 746.3,630.4 746.3,630.3 746.3,630.3 746.3,630.3 
				746.4,630.3 746.4,630.2 746.5,630.2 746.5,630.2 746.6,630.2 746.6,630.1 746.6,630.1 746.6,630.1 746.7,630.1 746.7,630 
				746.8,630 746.8,630 746.9,630 746.9,629.9 746.9,629.9 746.9,629.9 747,629.9 747,629.8 747.1,629.8 747.1,629.8 747.2,629.8 
				747.2,629.7 747.2,629.7 747.2,629.7 747.3,629.7 747.3,629.6 747.4,629.6 747.4,629.6 747.5,629.6 747.5,629.5 747.5,629.5 
				747.5,629.5 747.6,629.5 747.6,629.4 747.7,629.4 747.7,629.4 747.8,629.4 747.8,629.3 747.8,629.3 747.8,629.3 747.9,629.3 
				747.9,629.2 748,629.2 748,629.2 748.1,629.2 748.1,629.1 748.1,629.1 748.1,629.1 748.2,629.1 748.2,629 748.3,629 748.3,629 
				748.4,629 748.4,628.9 748.4,628.9 748.4,628.9 748.5,628.9 748.5,628.8 748.6,628.8 748.6,628.8 748.7,628.8 748.7,628.7 
				748.7,628.7 748.7,628.7 748.8,628.7 748.8,628.6 748.9,628.6 748.9,628.6 749,628.6 749,628.5 749,628.5 749,628.5 749.1,628.5 
				749.1,628.4 749.2,628.4 749.2,628.4 749.3,628.4 749.3,628.3 749.3,628.3 749.3,628.3 749.4,628.3 749.4,628.2 749.5,628.2 
				749.5,628.2 749.6,628.2 749.6,628.1 749.6,628.1 749.6,628.1 749.7,628.1 749.7,628 749.8,628 749.8,628 749.9,628 749.9,627.9 
				749.9,627.9 749.9,627.9 750,627.9 750,627.8 750.1,627.8 750.1,627.8 750.2,627.8 750.2,627.7 750.2,627.7 750.2,627.7 
				750.3,627.7 750.3,627.6 750.4,627.6 750.4,627.6 750.5,627.6 750.5,627.5 750.5,627.5 750.5,627.5 750.6,627.5 750.6,627.4 
				750.7,627.4 750.7,627.4 750.8,627.4 750.8,627.3 750.8,627.3 750.8,627.3 750.9,627.3 750.9,627.2 751,627.2 751,627.2 
				751.1,627.2 751.1,627.1 751.1,627.1 751.1,627.1 751.2,627.1 751.2,627 751.3,627 751.3,627 751.4,627 751.4,626.9 751.4,626.9 
				751.4,626.9 751.5,626.9 751.5,626.8 751.6,626.8 751.6,626.8 751.7,626.8 751.7,626.7 751.7,626.7 751.7,626.7 751.8,626.7 
				751.8,626.6 751.9,626.6 751.9,626.6 752,626.6 752,626.5 752,626.5 752,626.5 752.1,626.5 752.1,626.4 752.2,626.4 752.2,626.4 
				752.3,626.4 752.3,626.3 752.3,626.3 752.3,626.3 752.4,626.3 752.4,626.2 752.5,626.2 752.5,626.2 752.6,626.2 752.6,626.1 
				752.6,626.1 752.6,626.1 752.7,626.1 752.7,552.1 737.4,552.1 			"/>
		</g>
		<g>
			<g>
				<g>
					<g>
						<path class="st1" d="M549.9,623.9c-9.5,0-17.3-7.8-17.3-17.3v-35.2c0-9.5,7.8-17.3,17.3-17.3h16.5c9.5,0,17.3,7.8,17.3,17.3
							v2.8h-11.1v-2.8c0-3.4-2.9-6.2-6.2-6.2h-16.5c-3.4,0-6.2,2.9-6.2,6.2v35.2c0,3.4,2.9,6.2,6.2,6.2h16.5c3.4,0,6.2-2.9,6.2-6.2
							v-10.1h-12.3v-11.1h23.4v21.2c0,9.5-7.8,17.3-17.3,17.3H549.9z"/>
					</g>
					<g>
						<path class="st0" d="M566.4,556.2c8.4,0,15.2,6.8,15.2,15.2v0.6h-6.8v-0.6c0-4.6-3.8-8.4-8.4-8.4h-16.5
							c-4.6,0-8.4,3.8-8.4,8.4v35.2c0,4.6,3.8,8.4,8.4,8.4h16.5c4.6,0,8.4-3.8,8.4-8.4v-8v-4.3h-4.3h-8.1v-6.8h19.1v19
							c0,8.4-6.8,15.2-15.2,15.2h-16.5c-8.4,0-15.2-6.8-15.2-15.2v-35.2c0-8.4,6.8-15.2,15.2-15.2H566.4 M566.4,551.9h-16.5
							c-10.7,0-19.5,8.7-19.5,19.5v35.2c0,10.7,8.7,19.5,19.5,19.5h16.5c10.7,0,19.5-8.7,19.5-19.5v-23.3h-27.7v15.4h12.4v8
							c0,2.2-1.9,4.1-4.1,4.1h-16.5c-2.2,0-4.1-1.9-4.1-4.1v-35.2c0-2.2,1.9-4.1,4.1-4.1h16.5c2.2,0,4.1,1.9,4.1,4.1v4.9h15.4v-4.9
							C585.8,560.7,577.1,551.9,566.4,551.9L566.4,551.9z"/>
					</g>
				</g>
			</g>
			<g>
				<g>
					<g>
						<path class="st1" d="M651.1,623.9c-9.5,0-17.3-7.8-17.3-17.3v-35.2c0-9.5,7.8-17.3,17.3-17.3h16.5c9.5,0,17.3,7.8,17.3,17.3
							v2.8h-11.1v-2.8c0-3.4-2.9-6.2-6.2-6.2h-16.5c-3.4,0-6.2,2.9-6.2,6.2v35.2c0,3.4,2.9,6.2,6.2,6.2h16.5c3.4,0,6.2-2.9,6.2-6.2
							v-10.1h-12.3v-11.1h23.4v21.2c0,9.5-7.8,17.3-17.3,17.3H651.1z"/>
					</g>
					<g>
						<path class="st0" d="M667.6,556.2c8.4,0,15.2,6.8,15.2,15.2v0.6H676v-0.6c0-4.6-3.8-8.4-8.4-8.4h-16.5c-4.6,0-8.4,3.8-8.4,8.4
							v35.2c0,4.6,3.8,8.4,8.4,8.4h16.5c4.6,0,8.4-3.8,8.4-8.4v-8v-4.3h-4.3h-8.1v-6.8h19.1v19c0,8.4-6.8,15.2-15.2,15.2h-16.5
							c-8.4,0-15.2-6.8-15.2-15.2v-35.2c0-8.4,6.8-15.2,15.2-15.2H667.6 M667.6,551.9h-16.5c-10.7,0-19.5,8.7-19.5,19.5v35.2
							c0,10.7,8.7,19.5,19.5,19.5h16.5c10.7,0,19.5-8.7,19.5-19.5v-23.3h-27.7v15.4h12.3v8c0,2.2-1.9,4.1-4.1,4.1h-16.5
							c-2.2,0-4.1-1.9-4.1-4.1v-35.2c0-2.2,1.9-4.1,4.1-4.1h16.5c2.2,0,4.1,1.9,4.1,4.1v4.9H687v-4.9
							C687,560.7,678.3,551.9,667.6,551.9L667.6,551.9z"/>
					</g>
				</g>
			</g>
			<g>
				<g>
					<g>
						<path class="st1" d="M858.3,623.9c-9.5,0-17.3-7.8-17.3-17.3v-35.2c0-9.5,7.8-17.3,17.3-17.3h16.5c9.5,0,17.3,7.8,17.3,17.3
							v2.8h-11.1v-2.8c0-3.4-2.9-6.2-6.2-6.2h-16.5c-3.4,0-6.2,2.9-6.2,6.2v35.2c0,3.4,2.9,6.2,6.2,6.2h16.5c3.4,0,6.2-2.9,6.2-6.2
							v-3.3h11.1v3.3c0,9.5-7.8,17.3-17.3,17.3H858.3z"/>
					</g>
					<g>
						<path class="st0" d="M874.8,556.2c8.4,0,15.2,6.8,15.2,15.2v0.6h-6.8v-0.6c0-4.6-3.8-8.4-8.4-8.4h-16.5
							c-4.6,0-8.4,3.8-8.4,8.4v35.2c0,4.6,3.8,8.4,8.4,8.4h16.5c4.6,0,8.4-3.8,8.4-8.4v-1.2h6.8v1.2c0,8.4-6.8,15.2-15.2,15.2h-16.5
							c-8.4,0-15.2-6.8-15.2-15.2v-35.2c0-8.4,6.8-15.2,15.2-15.2H874.8 M874.8,551.9h-16.5c-10.7,0-19.5,8.7-19.5,19.5v35.2
							c0,10.7,8.7,19.5,19.5,19.5h16.5c10.7,0,19.5-8.7,19.5-19.5v-5.5h-15.4v5.5c0,2.2-1.9,4.1-4.1,4.1h-16.5
							c-2.2,0-4.1-1.9-4.1-4.1v-35.2c0-2.2,1.9-4.1,4.1-4.1h16.5c2.2,0,4.1,1.9,4.1,4.1v4.9h15.4v-4.9
							C894.3,560.7,885.6,551.9,874.8,551.9L874.8,551.9z"/>
					</g>
				</g>
			</g>
			<g>
				<g>
					<path class="st1" d="M810.3,623.9v-27.4h-29v27.4h-11.1v-52.5c0-9.5,7.8-17.3,17.3-17.3h16.5c9.5,0,17.3,7.8,17.3,17.3v52.5
						H810.3z M787.6,565.1c-3.4,0-6.2,2.9-6.2,6.2v14h29v-14c0-3.4-2.9-6.2-6.2-6.2H787.6z"/>
				</g>
				<g>
					<path class="st0" d="M804.1,556.2c8.4,0,15.2,6.8,15.2,15.2v11.9v15.4v23.1h-6.8v-23.1v-4.3h-4.3h-24.7h-4.3v4.3v23.1h-6.8
						v-23.1v-15.4v-11.9c0-8.4,6.8-15.2,15.2-15.2H804.1 M779.2,587.6h4.3h24.7h4.3v-4.3v-11.9c0-4.6-3.8-8.4-8.4-8.4h-16.5
						c-4.6,0-8.4,3.8-8.4,8.4v11.9V587.6 M804.1,551.9h-16.5c-10.7,0-19.5,8.7-19.5,19.5v11.9v15.4v27.4h15.4v-27.4h24.7v27.4h15.4
						v-27.4v-15.4v-11.9C823.5,560.7,814.8,551.9,804.1,551.9L804.1,551.9z M783.5,583.3v-11.9c0-2.2,1.9-4.1,4.1-4.1h16.5
						c2.2,0,4.1,1.9,4.1,4.1v11.9H783.5L783.5,583.3z"/>
				</g>
			</g>
			<g>
				<g>
					<g>
						<rect x="603.2" y="554.1" class="st1" width="11.1" height="69.8"/>
					</g>
					<g>
						<path class="st0" d="M612.1,556.2v65.5h-6.8v-65.5H612.1 M616.4,551.9h-15.4v74.1h15.4V551.9L616.4,551.9z"/>
					</g>
				</g>
			</g>
			<g>
				<g>
					<g>
						<polygon class="st1" points="741.7,623.9 715.6,580 715.6,623.9 704.5,623.9 704.5,554.1 713.1,554.1 739.5,598.6 
							739.5,554.2 750.6,554.2 750.6,623.9 						"/>
					</g>
					<g>
						<path class="st0" d="M711.9,556.2l21.8,36.7l8,13.5v-15.6v-34.4h6.8v65.4h-5.5l-21.5-36.2l-8-13.5v15.6v34h-6.8v-65.5H711.9
							 M714.4,551.9h-12v74.1h15.4v-38.3l22.7,38.3h12.3v-74h-15.4v38.7L714.4,551.9L714.4,551.9z"/>
					</g>
				</g>
			</g>
		</g>
		<g>
			<path class="st0" d="M465.1,572.4h20.7v-0.1h0.1v-0.1h0.1v-0.1h0.1v-0.1h0.1v-0.1h0.1v-0.1h0.1V572h0.1V572h0.1v-0.1h0.1v-0.1
				h0.1v-0.1h0.1v-0.1h0.1v-0.1h0.1v-0.1h0.1v-0.1h0.1v-0.1h0.1v-0.1h0.1v-0.1h0.1v-0.1h0.1v-0.1h0.1v-0.1h0.1v-0.1h0.1v-0.1h0.1
				v-0.1h0.1v-0.1h0.1v-0.1h0.1V571h0.1V571h0.1v-0.1h0.1v-0.1h0.1v-0.1h0.1v-0.1h0.1v-0.1h0.1v-0.1h0.1v-0.1h0.1v-0.1h0.1v-0.1h0.1
				v-0.1h0.1v-0.1h0.1v-0.1h0.1v-0.1h0.1v-0.1h0.1v-0.1h0.1v-0.1h0.1v-0.1h0.1v-0.1h0.1V570h0.1V570h0.1v-0.1h0.1v-0.1h0.1v-0.1h0.1
				v-0.1h0.1v-0.1h0.1v-0.1h0.1v-0.1h0.1v-0.1h0.1v-0.1h0.1v-0.1h0.1v-0.1h0.1v-0.1h0.1v-0.1h0.1v-0.1h0.1v-0.1h0.1v-0.1h0.1v-0.1
				h0.1v-0.1h0.1V569h0.1V569h0.1v-0.1h0.1v-0.1h0.1v-0.1h0.1v-0.1h0.1v-0.1h0.1v-0.1h0.1v-0.1h0.1v-0.1h0.1v-0.1h0.1v-0.1h0.1v-0.1
				h0.1v-0.1h0.1v-0.1h0.1v-0.1h0.1v-0.1h0.1v-0.1h0.1v-0.1h0.1V568h0.1V568h0.1v-0.1h0.1v-0.1h0.1v-0.1h0.1v-0.1h0.1v-0.1h0.1v-0.1
				h0.1v-0.1h0.1v-0.1h0.1v-0.1h0.1v-0.1h0.1v-0.1h0.1v-0.1h0.1v-0.1h0.1v-0.1h0.1v-15.4h-24.2c-4,0-7.8,1.2-10.9,3.3c0,0,0,0-0.1,0
				c0,0-0.1,0-0.1,0.1c0,0-0.1,0-0.1,0.1c0,0-0.1,0-0.1,0.1c0,0-0.1,0-0.1,0.1c0,0-0.1,0-0.1,0.1c0,0-0.1,0-0.1,0.1
				c0,0-0.1,0-0.1,0.1c0,0,0,0-0.1,0c0,0-0.1,0-0.1,0.1c0,0-0.1,0-0.1,0.1c0,0-0.1,0-0.1,0.1c0,0-0.1,0-0.1,0.1c0,0-0.1,0-0.1,0.1
				c0,0-0.1,0-0.1,0.1c0,0-0.1,0-0.1,0.1c0,0,0,0-0.1,0c0,0-0.1,0-0.1,0.1c0,0-0.1,0-0.1,0.1c0,0-0.1,0-0.1,0.1c0,0-0.1,0-0.1,0.1
				c0,0-0.1,0-0.1,0.1c0,0-0.1,0-0.1,0.1c0,0,0,0-0.1,0c0,0-0.1,0-0.1,0.1c0,0-0.1,0-0.1,0.1c0,0-0.1,0-0.1,0.1c0,0-0.1,0-0.1,0.1
				c0,0-0.1,0-0.1,0.1c0,0-0.1,0-0.1,0.1c0,0-0.1,0-0.1,0.1c0,0,0,0-0.1,0c0,0-0.1,0-0.1,0.1c0,0-0.1,0-0.1,0.1c0,0-0.1,0-0.1,0.1
				c0,0-0.1,0-0.1,0.1c0,0-0.1,0-0.1,0.1c0,0-0.1,0-0.1,0.1c0,0,0,0-0.1,0c0,0-0.1,0-0.1,0.1c0,0-0.1,0-0.1,0.1c0,0-0.1,0-0.1,0.1
				c0,0-0.1,0-0.1,0.1c0,0-0.1,0-0.1,0.1c0,0-0.1,0-0.1,0.1c0,0-0.1,0-0.1,0.1c0,0,0,0-0.1,0c0,0-0.1,0-0.1,0.1c0,0-0.1,0-0.1,0.1
				c0,0-0.1,0-0.1,0.1c0,0-0.1,0-0.1,0.1c0,0-0.1,0-0.1,0.1c0,0-0.1,0-0.1,0.1c0,0,0,0-0.1,0c0,0-0.1,0-0.1,0.1c0,0-0.1,0-0.1,0.1
				c0,0-0.1,0-0.1,0.1c0,0-0.1,0-0.1,0.1c0,0-0.1,0-0.1,0.1c0,0-0.1,0-0.1,0.1c0,0-0.1,0-0.1,0.1c0,0,0,0-0.1,0c0,0-0.1,0-0.1,0.1
				c0,0-0.1,0-0.1,0.1c0,0-0.1,0-0.1,0.1c0,0-0.1,0-0.1,0.1c0,0-0.1,0-0.1,0.1c0,0-0.1,0-0.1,0.1c0,0,0,0-0.1,0c0,0-0.1,0-0.1,0.1
				c0,0-0.1,0-0.1,0.1c0,0-0.1,0-0.1,0.1c0,0-0.1,0-0.1,0.1c0,0-0.1,0-0.1,0.1c0,0-0.1,0-0.1,0.1c0,0-0.1,0-0.1,0.1c0,0,0,0-0.1,0
				c0,0-0.1,0-0.1,0.1c0,0-0.1,0-0.1,0.1c0,0-0.1,0-0.1,0.1c0,0-0.1,0-0.1,0.1c0,0-0.1,0-0.1,0.1c0,0-0.1,0-0.1,0.1
				c0,0-0.1,0-0.1,0.1c0,0,0,0-0.1,0c0,0-0.1,0-0.1,0.1c0,0-0.1,0-0.1,0.1c0,0-0.1,0-0.1,0.1c0,0-0.1,0-0.1,0.1c0,0-0.1,0-0.1,0.1
				c0,0-0.1,0-0.1,0.1c0,0,0,0-0.1,0c0,0-0.1,0-0.1,0.1c0,0-0.1,0-0.1,0.1c0,0-0.1,0-0.1,0.1c0,0-0.1,0-0.1,0.1c0,0-0.1,0-0.1,0.1
				c0,0-0.1,0-0.1,0.1c0,0-0.1,0-0.1,0.1c0,0,0,0-0.1,0c-5.2,3.5-8.6,9.4-8.6,16.2v9.9v2v13.4v2v8c0,10.7,8.7,19.5,19.5,19.5h24.2
				v-0.1h0.1V631h0.1V631h0.1v-0.1h0.1v-0.1h0.1v-0.1h0.1v-0.1h0.1v-0.1h0.1v-0.1h0.1v-0.1h0.1v-0.1h0.1v-0.1h0.1v-0.1h0.1v-0.1h0.1
				v-0.1h0.1v-0.1h0.1v-0.1h0.1v-0.1h0.1v-0.1h0.1v-0.1h0.1v-0.1h0.1V630h0.1V630h0.1v-0.1h0.1v-0.1h0.1v-0.1h0.1v-0.1h0.1v-0.1h0.1
				v-0.1h0.1v-0.1h0.1v-0.1h0.1v-0.1h0.1v-0.1h0.1v-0.1h0.1v-0.1h0.1v-0.1h0.1v-0.1h0.1v-0.1h0.1v-0.1h0.1v-0.1h0.1v-0.1h0.1V629
				h0.1V629h0.1v-0.1h0.1v-0.1h0.1v-0.1h0.1v-0.1h0.1v-0.1h0.1v-0.1h0.1v-0.1h0.1v-0.1h0.1v-0.1h0.1v-0.1h0.1v-0.1h0.1v-0.1h0.1
				v-0.1h0.1v-0.1h0.1v-0.1h0.1v-0.1h0.1v-0.1h0.1v-0.1h0.1V628h0.1V628h0.1v-0.1h0.1v-0.1h0.1v-0.1h0.1v-0.1h0.1v-0.1h0.1v-0.1h0.1
				v-0.1h0.1v-0.1h0.1v-0.1h0.1v-0.1h0.1v-0.1h0.1v-0.1h0.1v-0.1h0.1v-0.1h0.1v-0.1h0.1v-0.1h0.1v-0.1h0.1v-0.1h0.1V627h0.1V627h0.1
				v-0.1h0.1v-0.1h0.1v-0.1h0.1v-0.1h0.1v-0.1h0.1v-0.1h0.1v-0.1h0.1v-0.1h0.1v-0.1h0.1v-0.1h0.1v-0.1h0.1v-0.1h0.1v-0.1h0.1v-0.1
				h0.1v-0.1h0.1v-0.1h0.1v-0.1h0.1v-0.1h0.1v-15.4h-24.2c-2.2,0-4.1-1.9-4.1-4.1v-2.9h14.1v-0.1h0.1v-0.1h0.1v-0.1h0.1v-0.1h0.1
				v-0.1h0.1v-0.1h0.1v-0.1h0.1v-0.1h0.1v-0.1h0.1v-0.1h0.1v-0.1h0.1v-0.1h0.1v-0.1h0.1V603h0.1V603h0.1v-0.1h0.1v-0.1h0.1v-0.1h0.1
				v-0.1h0.1v-0.1h0.1v-0.1h0.1v-0.1h0.1v-0.1h0.1v-0.1h0.1v-0.1h0.1v-0.1h0.1v-0.1h0.1v-0.1h0.1v-0.1h0.1v-0.1h0.1v-0.1h0.1v-0.1
				h0.1v-0.1h0.1V602h0.1V602h0.1v-0.1h0.1v-0.1h0.1v-0.1h0.1v-0.1h0.1v-0.1h0.1v-0.1h0.1v-0.1h0.1v-0.1h0.1v-0.1h0.1v-0.1h0.1v-0.1
				h0.1v-0.1h0.1v-0.1h0.1v-0.1h0.1v-0.1h0.1v-0.1h0.1v-0.1h0.1v-0.1h0.1V601h0.1V601h0.1v-0.1h0.1v-0.1h0.1v-0.1h0.1v-0.1h0.1v-0.1
				h0.1v-0.1h0.1v-0.1h0.1v-0.1h0.1v-0.1h0.1v-0.1h0.1v-0.1h0.1v-0.1h0.1v-0.1h0.1v-0.1h0.1v-0.1h0.1v-0.1h0.1v-0.1h0.1v-0.1h0.1
				V600h0.1V600h0.1v-0.1h0.1v-0.1h0.1v-0.1h0.1v-0.1h0.1v-0.1h0.1v-0.1h0.1v-0.1h0.1v-0.1h0.1v-0.1h0.1v-0.1h0.1v-0.1h0.1v-0.1h0.1
				v-0.1h0.1v-0.1h0.1v-0.1h0.1v-0.1h0.1v-0.1h0.1v-0.1h0.1V599h0.1V599h0.1v-0.1h0.1v-0.1h0.1v-0.1h0.1v-0.1h0.1v-0.1h0.1v-0.1h0.1
				v-15.4h-21.7v-2V572.4z"/>
		</g>
		<g>
			<path class="st0" d="M251.9,631.1h7.7v-0.1h0.1V631h0.1V631h0.1v-0.1h0.1v-0.1h0.1v-0.1h0.1v-0.1h0.1v-0.1h0.1v-0.1h0.1v-0.1h0.1
				v-0.1h0.1v-0.1h0.1v-0.1h0.1v-0.1h0.1v-0.1h0.1v-0.1h0.1v-0.1h0.1v-0.1h0.1v-0.1h0.1v-0.1h0.1v-0.1h0.1V630h0.1V630h0.1v-0.1h0.1
				v-0.1h0.1v-0.1h0.1v-0.1h0.1v-0.1h0.1v-0.1h0.1v-0.1h0.1v-0.1h0.1v-0.1h0.1v-0.1h0.1v-0.1h0.1v-0.1h0.1v-0.1h0.1v-0.1h0.1v-0.1
				h0.1v-0.1h0.1v-0.1h0.1v-0.1h0.1V629h0.1V629h0.1v-0.1h0.1v-0.1h0.1v-0.1h0.1v-0.1h0.1v-0.1h0.1v-0.1h0.1v-0.1h0.1v-0.1h0.1v-0.1
				h0.1v-0.1h0.1v-0.1h0.1v-0.1h0.1v-0.1h0.1v-0.1h0.1v-0.1h0.1v-0.1h0.1v-0.1h0.1v-0.1h0.1V628h0.1V628h0.1v-0.1h0.1v-0.1h0.1v-0.1
				h0.1v-0.1h0.1v-0.1h0.1v-0.1h0.1v-0.1h0.1v-0.1h0.1v-0.1h0.1v-0.1h0.1v-0.1h0.1v-0.1h0.1v-0.1h0.1v-0.1h0.1v-0.1h0.1v-0.1h0.1
				v-0.1h0.1v-0.1h0.1V627h0.1V627h0.1v-0.1h0.1v-0.1h0.1v-0.1h0.1v-0.1h0.1v-0.1h0.1v-0.1h0.1v-0.1h0.1v-0.1h0.1v-0.1h0.1v-0.1h0.1
				v-0.1h0.1v-0.1h0.1v-0.1h0.1v-0.1h0.1v-0.1h0.1v-0.1h0.1v-0.1h0.1v-0.1h0.1v-15.4h-7.7c-1.2,0-2.2-1-2.2-2.2v-56.6H242v0.1h-0.1
				v0.1h-0.1v0.1h-0.1v0.1h-0.1v0.1h-0.1v0.1h-0.1v0.1h-0.1v0.1h-0.1v0.1h-0.1v0.1h-0.1v0.1h-0.1v0.1h-0.1v0.1H241v0.1h-0.1v0.1
				h-0.1v0.1h-0.1v0.1h-0.1v0.1h-0.1v0.1h-0.1v0.1h-0.1v0.1h-0.1v0.1h-0.1v0.1h-0.1v0.1h-0.1v0.1h-0.1v0.1H240v0.1h-0.1v0.1h-0.1
				v0.1h-0.1v0.1h-0.1v0.1h-0.1v0.1h-0.1v0.1h-0.1v0.1h-0.1v0.1h-0.1v0.1h-0.1v0.1h-0.1v0.1h-0.1v0.1H239v0.1H239v0.1h-0.1v0.1h-0.1
				v0.1h-0.1v0.1h-0.1v0.1h-0.1v0.1h-0.1v0.1h-0.1v0.1h-0.1v0.1h-0.1v0.1h-0.1v0.1h-0.1v0.1H238v0.1H238v0.1h-0.1v0.1h-0.1v0.1h-0.1
				v0.1h-0.1v0.1h-0.1v0.1h-0.1v0.1h-0.1v0.1h-0.1v0.1h-0.1v0.1h-0.1v0.1h-0.1v0.1h-0.1v0.1H237v0.1h-0.1v0.1h-0.1v0.1h-0.1v0.1
				h-0.1v0.1h-0.1v0.1h-0.1v0.1h-0.1v0.1h-0.1v0.1h-0.1v0.1h-0.1v0.1h-0.1v0.1h-0.1v0.1H236v0.1h-0.1v0.1h-0.1v0.1h-0.1v0.1h-0.1
				v0.1h-0.1v0.1h-0.1v0.1h-0.1v0.1h-0.1v0.1h-0.1v0.1h-0.1v0.1h-0.1v0.1h-0.1v0.1H235v0.1H235v0.1h-0.1v0.1h-0.1v0.1h-0.1v0.1h-0.1
				v0.1h-0.1v0.1h-0.1v0.1h-0.1v0.1h-0.1v56.6C234.4,623.3,242.2,631.1,251.9,631.1z"/>
		</g>
		<g>
			<polygon class="st0" points="391.8,631.1 391.8,631.1 391.8,631 391.9,631 391.9,631 392,631 392,630.9 392.1,630.9 392.1,630.9 
				392.1,630.9 392.1,630.8 392.2,630.8 392.2,630.8 392.3,630.8 392.3,630.7 392.4,630.7 392.4,630.7 392.4,630.7 392.4,630.6 
				392.5,630.6 392.5,630.6 392.6,630.6 392.6,630.5 392.7,630.5 392.7,630.5 392.7,630.5 392.7,630.4 392.8,630.4 392.8,630.4 
				392.9,630.4 392.9,630.3 393,630.3 393,630.3 393,630.3 393,630.2 393.1,630.2 393.1,630.2 393.2,630.2 393.2,630.1 393.3,630.1 
				393.3,630.1 393.3,630.1 393.3,630 393.4,630 393.4,630 393.5,630 393.5,629.9 393.6,629.9 393.6,629.9 393.6,629.9 393.6,629.8 
				393.7,629.8 393.7,629.8 393.8,629.8 393.8,629.7 393.9,629.7 393.9,629.7 393.9,629.7 393.9,629.6 394,629.6 394,629.6 
				394.1,629.6 394.1,629.5 394.2,629.5 394.2,629.5 394.2,629.5 394.2,629.4 394.3,629.4 394.3,629.4 394.4,629.4 394.4,629.3 
				394.5,629.3 394.5,629.3 394.5,629.3 394.5,629.2 394.6,629.2 394.6,629.2 394.7,629.2 394.7,629.1 394.8,629.1 394.8,629.1 
				394.8,629.1 394.8,629 394.9,629 394.9,629 395,629 395,628.9 395.1,628.9 395.1,628.9 395.1,628.9 395.1,628.8 395.2,628.8 
				395.2,628.8 395.3,628.8 395.3,628.7 395.4,628.7 395.4,628.7 395.4,628.7 395.4,628.6 395.5,628.6 395.5,628.6 395.6,628.6 
				395.6,628.5 395.7,628.5 395.7,628.5 395.7,628.5 395.7,628.4 395.8,628.4 395.8,628.4 395.9,628.4 395.9,628.3 396,628.3 
				396,628.3 396,628.3 396,628.2 396.1,628.2 396.1,628.2 396.2,628.2 396.2,628.1 396.3,628.1 396.3,628.1 396.3,628.1 396.3,628 
				396.4,628 396.4,628 396.5,628 396.5,627.9 396.6,627.9 396.6,627.9 396.6,627.9 396.6,627.8 396.7,627.8 396.7,627.8 
				396.8,627.8 396.8,627.7 396.9,627.7 396.9,627.7 397,627.7 397,627.6 397,627.6 397,627.6 397.1,627.6 397.1,627.5 397.2,627.5 
				397.2,627.5 397.3,627.5 397.3,627.4 397.3,627.4 397.3,627.4 397.4,627.4 397.4,627.3 397.5,627.3 397.5,627.3 397.6,627.3 
				397.6,627.2 397.6,627.2 397.6,627.2 397.7,627.2 397.7,627.1 397.8,627.1 397.8,627.1 397.9,627.1 397.9,627 397.9,627 
				397.9,627 398,627 398,626.9 398.1,626.9 398.1,626.9 398.2,626.9 398.2,626.8 398.2,626.8 398.2,626.8 398.3,626.8 398.3,626.7 
				398.4,626.7 398.4,626.7 398.5,626.7 398.5,626.6 398.5,626.6 398.5,626.6 398.6,626.6 398.6,626.5 398.7,626.5 398.7,626.5 
				398.8,626.5 398.8,626.4 398.8,626.4 398.8,626.4 398.9,626.4 398.9,626.3 399,626.3 399,626.3 399.1,626.3 399.1,626.2 
				399.1,626.2 399.1,626.2 399.2,626.2 399.2,626.1 399.3,626.1 399.3,626.1 399.4,626.1 399.4,605.7 414.5,631.1 426.7,631.1 
				426.7,631.1 426.8,631.1 426.8,631 426.9,631 426.9,631 427,631 427,630.9 427,630.9 427,630.9 427.1,630.9 427.1,630.8 
				427.2,630.8 427.2,630.8 427.3,630.8 427.3,630.7 427.4,630.7 427.4,630.7 427.4,630.7 427.4,630.6 427.5,630.6 427.5,630.6 
				427.6,630.6 427.6,630.5 427.7,630.5 427.7,630.5 427.7,630.5 427.7,630.4 427.8,630.4 427.8,630.4 427.9,630.4 427.9,630.3 
				428,630.3 428,630.3 428,630.3 428,630.2 428.1,630.2 428.1,630.2 428.2,630.2 428.2,630.1 428.3,630.1 428.3,630.1 428.3,630.1 
				428.3,630 428.4,630 428.4,630 428.5,630 428.5,629.9 428.6,629.9 428.6,629.9 428.6,629.9 428.6,629.8 428.7,629.8 428.7,629.8 
				428.8,629.8 428.8,629.7 428.9,629.7 428.9,629.7 428.9,629.7 428.9,629.6 429,629.6 429,629.6 429.1,629.6 429.1,629.5 
				429.2,629.5 429.2,629.5 429.2,629.5 429.2,629.4 429.3,629.4 429.3,629.4 429.4,629.4 429.4,629.3 429.5,629.3 429.5,629.3 
				429.5,629.3 429.5,629.2 429.6,629.2 429.6,629.2 429.7,629.2 429.7,629.1 429.8,629.1 429.8,629.1 429.8,629.1 429.8,629 
				429.9,629 429.9,629 430,629 430,628.9 430.1,628.9 430.1,628.9 430.1,628.9 430.1,628.8 430.2,628.8 430.2,628.8 430.3,628.8 
				430.3,628.7 430.4,628.7 430.4,628.7 430.4,628.7 430.4,628.6 430.5,628.6 430.5,628.6 430.6,628.6 430.6,628.5 430.7,628.5 
				430.7,628.5 430.7,628.5 430.7,628.4 430.8,628.4 430.8,628.4 430.9,628.4 430.9,628.3 431,628.3 431,628.3 431,628.3 431,628.2 
				431.1,628.2 431.1,628.2 431.2,628.2 431.2,628.1 431.3,628.1 431.3,628.1 431.3,628.1 431.3,628 431.4,628 431.4,628 431.5,628 
				431.5,627.9 431.6,627.9 431.6,627.9 431.6,627.9 431.6,627.8 431.7,627.8 431.7,627.8 431.8,627.8 431.8,627.7 431.9,627.7 
				431.9,627.7 431.9,627.7 431.9,627.6 432,627.6 432,627.6 432.1,627.6 432.1,627.5 432.2,627.5 432.2,627.5 432.2,627.5 
				432.2,627.4 432.3,627.4 432.3,627.4 432.4,627.4 432.4,627.3 432.5,627.3 432.5,627.3 432.5,627.3 432.5,627.2 432.6,627.2 
				432.6,627.2 432.7,627.2 432.7,627.1 432.8,627.1 432.8,627.1 432.8,627.1 432.8,627 432.9,627 432.9,627 433,627 433,626.9 
				433.1,626.9 433.1,626.9 433.1,626.9 433.1,626.8 433.2,626.8 433.2,626.8 433.3,626.8 433.3,626.7 433.4,626.7 433.4,626.7 
				433.4,626.7 433.4,626.6 433.5,626.6 433.5,626.6 433.6,626.6 433.6,626.5 433.7,626.5 433.7,626.5 433.7,626.5 433.7,626.4 
				433.8,626.4 433.8,626.4 433.9,626.4 433.9,626.3 434,626.3 434,626.3 434,626.3 434,626.2 434.1,626.2 434.1,626.2 434.2,626.2 
				434.2,626.1 434.3,626.1 434.3,626.1 434.3,626.1 434.3,552.1 419,552.1 419,552.1 418.9,552.1 418.9,552.2 418.8,552.2 
				418.8,552.2 418.8,552.2 418.8,552.3 418.7,552.3 418.7,552.3 418.6,552.3 418.6,552.4 418.5,552.4 418.5,552.4 418.5,552.4 
				418.5,552.5 418.4,552.5 418.4,552.5 418.3,552.5 418.3,552.6 418.2,552.6 418.2,552.6 418.2,552.6 418.2,552.7 418.1,552.7 
				418.1,552.7 418,552.7 418,552.8 417.9,552.8 417.9,552.8 417.9,552.8 417.9,552.9 417.8,552.9 417.8,552.9 417.7,552.9 
				417.7,553 417.6,553 417.6,553 417.6,553 417.6,553.1 417.5,553.1 417.5,553.1 417.4,553.1 417.4,553.2 417.3,553.2 417.3,553.2 
				417.3,553.2 417.3,553.3 417.2,553.3 417.2,553.3 417.1,553.3 417.1,553.4 417,553.4 417,553.4 417,553.4 417,553.5 416.9,553.5 
				416.9,553.5 416.8,553.5 416.8,553.6 416.7,553.6 416.7,553.6 416.7,553.6 416.7,553.7 416.6,553.7 416.6,553.7 416.5,553.7 
				416.5,553.8 416.4,553.8 416.4,553.8 416.4,553.8 416.4,553.9 416.3,553.9 416.3,553.9 416.2,553.9 416.2,554 416.1,554 
				416.1,554 416.1,554 416.1,554.1 416,554.1 416,554.1 415.9,554.1 415.9,554.2 415.8,554.2 415.8,554.2 415.8,554.2 415.8,554.3 
				415.7,554.3 415.7,554.3 415.6,554.3 415.6,554.4 415.5,554.4 415.5,554.4 415.5,554.4 415.5,554.5 415.4,554.5 415.4,554.5 
				415.3,554.5 415.3,554.6 415.2,554.6 415.2,554.6 415.1,554.6 415.1,554.7 415.1,554.7 415.1,554.7 415,554.7 415,554.8 
				414.9,554.8 414.9,554.8 414.8,554.8 414.8,554.9 414.8,554.9 414.8,554.9 414.7,554.9 414.7,555 414.6,555 414.6,555 414.5,555 
				414.5,555.1 414.5,555.1 414.5,555.1 414.4,555.1 414.4,555.2 414.3,555.2 414.3,555.2 414.2,555.2 414.2,555.3 414.2,555.3 
				414.2,555.3 414.1,555.3 414.1,555.4 414,555.4 414,555.4 413.9,555.4 413.9,555.5 413.9,555.5 413.9,555.5 413.8,555.5 
				413.8,555.6 413.7,555.6 413.7,555.6 413.6,555.6 413.6,555.7 413.6,555.7 413.6,555.8 413.5,555.8 413.5,555.8 413.4,555.8 
				413.4,555.9 413.3,555.9 413.3,555.9 413.3,555.9 413.3,556 413.2,556 413.2,556 413.1,556 413.1,556.1 413,556.1 413,556.1 
				413,556.1 413,556.2 412.9,556.2 412.9,556.2 412.8,556.2 412.8,556.3 412.7,556.3 412.7,556.3 412.7,556.3 412.7,556.4 
				412.6,556.4 412.6,556.4 412.5,556.4 412.5,556.5 412.4,556.5 412.4,556.5 412.4,556.5 412.4,556.6 412.3,556.6 412.3,556.6 
				412.2,556.6 412.2,556.7 412.1,556.7 412.1,556.7 412.1,556.7 412.1,556.8 412,556.8 412,556.8 411.9,556.8 411.9,556.9 
				411.8,556.9 411.8,556.9 411.8,556.9 411.8,557 411.7,557 411.7,557 411.6,557 411.6,557.1 411.5,557.1 411.5,557.1 411.5,557.1 
				411.5,557.2 411.4,557.2 411.4,577.9 396,551.9 384,551.9 384,552 383.9,552 383.9,552 383.8,552 383.8,552.1 383.8,552.1 
				383.8,552.1 383.7,552.1 383.7,552.2 383.6,552.2 383.6,552.2 383.5,552.2 383.5,552.3 383.5,552.3 383.5,552.3 383.4,552.3 
				383.4,552.4 383.3,552.4 383.3,552.4 383.2,552.4 383.2,552.5 383.2,552.5 383.2,552.5 383.1,552.5 383.1,552.6 383,552.6 
				383,552.6 382.9,552.6 382.9,552.7 382.9,552.7 382.9,552.7 382.8,552.7 382.8,552.8 382.7,552.8 382.7,552.8 382.6,552.8 
				382.6,552.9 382.6,552.9 382.6,552.9 382.5,552.9 382.5,553 382.4,553 382.4,553 382.3,553 382.3,553.1 382.3,553.1 382.3,553.1 
				382.2,553.1 382.2,553.2 382.1,553.2 382.1,553.2 382,553.2 382,553.3 382,553.3 382,553.3 381.9,553.3 381.9,553.4 381.8,553.4 
				381.8,553.4 381.7,553.4 381.7,553.5 381.7,553.5 381.7,553.5 381.6,553.5 381.6,553.6 381.5,553.6 381.5,553.6 381.4,553.6 
				381.4,553.7 381.4,553.7 381.4,553.7 381.3,553.7 381.3,553.8 381.2,553.8 381.2,553.8 381.1,553.8 381.1,553.9 381.1,553.9 
				381.1,553.9 381,553.9 381,554 380.9,554 380.9,554 380.8,554 380.8,554.1 380.8,554.1 380.8,554.1 380.7,554.1 380.7,554.2 
				380.6,554.2 380.6,554.2 380.5,554.2 380.5,554.3 380.5,554.3 380.5,554.4 380.4,554.4 380.4,554.4 380.3,554.4 380.3,554.5 
				380.2,554.5 380.2,554.5 380.2,554.5 380.2,554.6 380.1,554.6 380.1,554.6 380,554.6 380,554.7 379.9,554.7 379.9,554.7 
				379.9,554.7 379.9,554.8 379.8,554.8 379.8,554.8 379.7,554.8 379.7,554.9 379.6,554.9 379.6,554.9 379.6,554.9 379.6,555 
				379.5,555 379.5,555 379.4,555 379.4,555.1 379.3,555.1 379.3,555.1 379.3,555.1 379.3,555.2 379.2,555.2 379.2,555.2 
				379.1,555.2 379.1,555.3 379,555.3 379,555.3 379,555.3 379,555.4 378.9,555.4 378.9,555.4 378.8,555.4 378.8,555.5 378.7,555.5 
				378.7,555.5 378.7,555.5 378.7,555.6 378.6,555.6 378.6,555.6 378.5,555.6 378.5,555.7 378.4,555.7 378.4,555.7 378.4,555.7 
				378.4,555.8 378.3,555.8 378.3,555.8 378.2,555.8 378.2,555.9 378.1,555.9 378.1,555.9 378.1,555.9 378.1,556 378,556 378,556 
				377.9,556 377.9,556.1 377.8,556.1 377.8,556.1 377.8,556.1 377.8,556.2 377.7,556.2 377.7,556.2 377.6,556.2 377.6,556.3 
				377.5,556.3 377.5,556.3 377.5,556.3 377.5,556.4 377.4,556.4 377.4,556.4 377.3,556.4 377.3,556.5 377.2,556.5 377.2,556.5 
				377.2,556.5 377.2,556.6 377.1,556.6 377.1,556.6 377,556.6 377,556.7 376.9,556.7 376.9,556.7 376.9,556.7 376.9,556.8 
				376.8,556.8 376.8,556.8 376.7,556.8 376.7,556.9 376.6,556.9 376.6,556.9 376.5,556.9 376.5,557 376.5,557 376.5,557 376.4,557 
				376.4,631.1 391.8,631.1 			"/>
		</g>
		<g>
			<path class="st0" d="M321,631.1L321,631.1L321,631.1l0.2-0.1V631h0.1v-0.1h0.1v-0.1h0.1v-0.1h0.1v-0.1h0.1v-0.1h0.1v-0.1h0.1
				v-0.1h0.1v-0.1h0.1v-0.1h0.1v-0.1h0.1v-0.1h0.1v-0.1h0.1v-0.1h0.1v-0.1h0.1v-0.1h0.1v-0.1h0.1v-0.1h0.1v-0.1h0.1V630h0.1V630h0.1
				v-0.1h0.1v-0.1h0.1v-0.1h0.1v-0.1h0.1v-0.1h0.1v-0.1h0.1v-0.1h0.1v-0.1h0.1v-0.1h0.1v-0.1h0.1v-0.1h0.1v-0.1h0.1v-0.1h0.1v-0.1
				h0.1v-0.1h0.1v-0.1h0.1v-0.1h0.1v-0.1h0.1V629h0.1V629h0.1v-0.1h0.1v-0.1h0.1v-0.1h0.1v-0.1h0.1v-0.1h0.1v-0.1h0.1v-0.1h0.1v-0.1
				h0.1v-0.1h0.1v-0.1h0.1v-0.1h0.1v-0.1h0.1v-0.1h0.1v-0.1h0.1v-0.1h0.1v-0.1h0.1v-0.1h0.1v-0.1h0.1V628h0.1V628h0.1v-0.1h0.1v-0.1
				h0.1v-0.1h0.1v-0.1h0.1v-0.1h0.1v-0.1h0.1v-0.1h0.1v-0.1h0.1v-0.1h0.1v-0.1h0.1v-0.1h0.1v-0.1h0.1v-0.1h0.1v-0.1h0.1v-0.1h0.1
				v-0.1h0.1v-0.1h0.1v-0.1h0.1V627h0.1V627h0.1v-0.1h0.1v-0.1h0.1v-0.1h0.1v-0.1h0.1v-0.1h0.1v-0.1h0.1v-0.1h0.1v-0.1h0.1v-0.1h0.1
				v-0.1h0.1v-0.1h0.1v-0.1h0.1v-0.1h0.1v-0.1h0.1v-0.1h0.1v-0.1h0.1v-0.1h0.1v-0.1h0.1v-22.3h17.1v27.4H361v-0.1h0.1V631h0.1V631
				h0.1v-0.1h0.1v-0.1h0.1v-0.1h0.1v-0.1h0.1v-0.1h0.1v-0.1h0.1v-0.1h0.1v-0.1h0.1v-0.1h0.1v-0.1h0.1v-0.1h0.1v-0.1h0.1v-0.1h0.1
				v-0.1h0.1v-0.1h0.1v-0.1h0.1v-0.1h0.1v-0.1h0.1V630h0.1V630h0.1v-0.1h0.1v-0.1h0.1v-0.1h0.1v-0.1h0.1v-0.1h0.1v-0.1h0.1v-0.1h0.1
				v-0.1h0.1v-0.1h0.1v-0.1h0.1v-0.1h0.1v-0.1h0.1v-0.1h0.1v-0.1h0.1v-0.1h0.1v-0.1h0.1v-0.1h0.1v-0.1h0.1V629h0.1V629h0.1v-0.1h0.1
				v-0.1h0.1v-0.1h0.1v-0.1h0.1v-0.1h0.1v-0.1h0.1v-0.1h0.1v-0.1h0.1v-0.1h0.1v-0.1h0.1v-0.1h0.1v-0.1h0.1v-0.1h0.1v-0.1h0.1v-0.1
				h0.1v-0.1h0.1v-0.1h0.1v-0.1h0.1V628h0.1V628h0.1v-0.1h0.1v-0.1h0.1v-0.1h0.1v-0.1h0.1v-0.1h0.1v-0.1h0.1v-0.1h0.1v-0.1h0.1v-0.1
				h0.1v-0.1h0.1v-0.1h0.1v-0.1h0.1v-0.1h0.1v-0.1h0.1v-0.1h0.1v-0.1h0.1v-0.1h0.1v-0.1h0.1V627h0.1V627h0.1v-0.1h0.1v-0.1h0.1v-0.1
				h0.1v-0.1h0.1v-0.1h0.1v-0.1h0.1v-0.1h0.1v-0.1h0.1v-0.1h0.1v-0.1h0.1v-0.1h0.1v-0.1h0.1v-0.1h0.1v-0.1h0.1v-0.1h0.1v-0.1h0.1
				v-0.1h0.1v-0.1h0.1v-27.4v-15.4v-11.9c0-10.7-8.7-19.5-19.5-19.5h-16.5c-4,0-7.8,1.2-10.9,3.3c0,0,0,0-0.1,0c0,0-0.1,0-0.1,0.1
				c0,0-0.1,0-0.1,0.1c0,0-0.1,0-0.1,0.1c0,0-0.1,0-0.1,0.1c0,0-0.1,0-0.1,0.1c0,0-0.1,0-0.1,0.1c0,0-0.1,0-0.1,0.1c0,0,0,0-0.1,0
				c0,0-0.1,0-0.1,0.1c0,0-0.1,0-0.1,0.1c0,0-0.1,0-0.1,0.1c0,0-0.1,0-0.1,0.1c0,0-0.1,0-0.1,0.1c0,0-0.1,0-0.1,0.1
				c0,0-0.1,0-0.1,0.1c0,0,0,0-0.1,0c0,0-0.1,0-0.1,0.1c0,0-0.1,0-0.1,0.1c0,0-0.1,0-0.1,0.1c0,0-0.1,0-0.1,0.1c0,0-0.1,0-0.1,0.1
				c0,0-0.1,0-0.1,0.1c0,0,0,0-0.1,0c0,0-0.1,0-0.1,0.1c0,0-0.1,0-0.1,0.1c0,0-0.1,0-0.1,0.1c0,0-0.1,0-0.1,0.1c0,0-0.1,0-0.1,0.1
				c0,0-0.1,0-0.1,0.1c0,0-0.1,0-0.1,0.1c0,0,0,0-0.1,0c0,0-0.1,0-0.1,0.1c0,0-0.1,0-0.1,0.1c0,0-0.1,0-0.1,0.1c0,0-0.1,0-0.1,0.1
				c0,0-0.1,0-0.1,0.1c0,0-0.1,0-0.1,0.1c0,0,0,0-0.1,0c0,0-0.1,0-0.1,0.1c0,0-0.1,0-0.1,0.1c0,0-0.1,0-0.1,0.1c0,0-0.1,0-0.1,0.1
				c0,0-0.1,0-0.1,0.1c0,0-0.1,0-0.1,0.1c0,0-0.1,0-0.1,0.1c0,0,0,0-0.1,0c0,0-0.1,0-0.1,0.1c0,0-0.1,0-0.1,0.1c0,0-0.1,0-0.1,0.1
				c0,0-0.1,0-0.1,0.1c0,0-0.1,0-0.1,0.1c0,0-0.1,0-0.1,0.1c0,0,0,0-0.1,0c0,0-0.1,0-0.1,0.1c0,0-0.1,0-0.1,0.1c0,0-0.1,0-0.1,0.1
				c0,0-0.1,0-0.1,0.1c0,0-0.1,0-0.1,0.1c0,0-0.1,0-0.1,0.1c0,0-0.1,0-0.1,0.1c0,0,0,0-0.1,0c0,0-0.1,0-0.1,0.1c0,0-0.1,0-0.1,0.1
				c0,0-0.1,0-0.1,0.1c0,0-0.1,0-0.1,0.1c0,0-0.1,0-0.1,0.1c0,0-0.1,0-0.1,0.1c0,0,0,0-0.1,0c0,0-0.1,0-0.1,0.1c0,0-0.1,0-0.1,0.1
				c0,0-0.1,0-0.1,0.1c0,0-0.1,0-0.1,0.1c0,0-0.1,0-0.1,0.1c0,0-0.1,0-0.1,0.1c0,0-0.1,0-0.1,0.1c0,0,0,0-0.1,0c0,0-0.1,0-0.1,0.1
				c0,0-0.1,0-0.1,0.1c0,0-0.1,0-0.1,0.1c0,0-0.1,0-0.1,0.1c0,0-0.1,0-0.1,0.1c0,0-0.1,0-0.1,0.1c0,0-0.1,0-0.1,0.1c0,0,0,0-0.1,0
				c0,0-0.1,0-0.1,0.1c0,0-0.1,0-0.1,0.1c0,0-0.1,0-0.1,0.1c0,0-0.1,0-0.1,0.1c0,0-0.1,0-0.1,0.1c0,0-0.1,0-0.1,0.1c0,0,0,0-0.1,0
				c0,0-0.1,0-0.1,0.1c0,0-0.1,0-0.1,0.1c0,0-0.1,0-0.1,0.1c0,0-0.1,0-0.1,0.1c0,0-0.1,0-0.1,0.1c0,0-0.1,0-0.1,0.1
				c0,0-0.1,0-0.1,0.1c0,0,0,0-0.1,0c-5.2,3.5-8.6,9.4-8.6,16.2v11.9v15.4v27.4L321,631.1L321,631.1z M341.6,572.4
				c2.2,0,4.1,1.9,4.1,4.1v6.8h-17.1v-10.9H341.6z"/>
		</g>
		<g>
			<polygon class="st0" points="290.3,631.1 290.3,631.1 290.3,631 290.4,631 290.4,631 290.5,631 290.5,630.9 290.6,630.9 
				290.6,630.9 290.6,630.9 290.6,630.8 290.7,630.8 290.7,630.8 290.8,630.8 290.8,630.7 290.9,630.7 290.9,630.7 290.9,630.7 
				290.9,630.6 291,630.6 291,630.6 291.1,630.6 291.1,630.5 291.2,630.5 291.2,630.5 291.2,630.5 291.2,630.4 291.3,630.4 
				291.3,630.4 291.4,630.4 291.4,630.3 291.5,630.3 291.5,630.3 291.5,630.3 291.5,630.2 291.6,630.2 291.6,630.2 291.7,630.2 
				291.7,630.1 291.8,630.1 291.8,630.1 291.8,630.1 291.8,630 291.9,630 291.9,630 292,630 292,629.9 292.1,629.9 292.1,629.9 
				292.1,629.9 292.1,629.8 292.2,629.8 292.2,629.8 292.3,629.8 292.3,629.7 292.4,629.7 292.4,629.7 292.4,629.7 292.4,629.6 
				292.5,629.6 292.5,629.6 292.6,629.6 292.6,629.5 292.7,629.5 292.7,629.5 292.7,629.5 292.7,629.4 292.8,629.4 292.8,629.4 
				292.9,629.4 292.9,629.3 293,629.3 293,629.3 293,629.3 293,629.2 293.1,629.2 293.1,629.2 293.2,629.2 293.2,629.1 293.3,629.1 
				293.3,629.1 293.3,629.1 293.3,629 293.4,629 293.4,629 293.5,629 293.5,628.9 293.6,628.9 293.6,628.9 293.6,628.9 293.6,628.8 
				293.7,628.8 293.7,628.8 293.8,628.8 293.8,628.7 293.9,628.7 293.9,628.7 293.9,628.7 293.9,628.6 294,628.6 294,628.6 
				294.1,628.6 294.1,628.5 294.2,628.5 294.2,628.5 294.2,628.5 294.2,628.4 294.3,628.4 294.3,628.4 294.4,628.4 294.4,628.3 
				294.5,628.3 294.5,628.3 294.5,628.3 294.5,628.2 294.6,628.2 294.6,628.2 294.7,628.2 294.7,628.1 294.8,628.1 294.8,628.1 
				294.8,628.1 294.8,628 294.9,628 294.9,628 295,628 295,627.9 295.1,627.9 295.1,627.9 295.1,627.9 295.1,627.8 295.2,627.8 
				295.2,627.8 295.3,627.8 295.3,627.7 295.4,627.7 295.4,627.7 295.4,627.7 295.4,627.6 295.5,627.6 295.5,627.6 295.6,627.6 
				295.6,627.5 295.7,627.5 295.7,627.5 295.7,627.5 295.7,627.4 295.8,627.4 295.8,627.4 295.9,627.4 295.9,627.3 296,627.3 
				296,627.3 296,627.3 296,627.2 296.1,627.2 296.1,627.2 296.2,627.2 296.2,627.1 296.3,627.1 296.3,627.1 296.3,627.1 296.3,627 
				296.4,627 296.4,627 296.5,627 296.5,626.9 296.6,626.9 296.6,626.9 296.6,626.9 296.6,626.8 296.7,626.8 296.7,626.8 
				296.8,626.8 296.8,626.7 296.9,626.7 296.9,626.7 296.9,626.7 296.9,626.6 297,626.6 297,626.6 297.1,626.6 297.1,626.5 
				297.2,626.5 297.2,626.5 297.3,626.5 297.3,626.4 297.3,626.4 297.3,626.4 297.4,626.4 297.4,626.3 297.5,626.3 297.5,626.3 
				297.6,626.3 297.6,626.2 297.6,626.2 297.6,626.2 297.7,626.2 297.7,626.1 297.8,626.1 297.8,626.1 297.9,626.1 297.9,551.9 
				282.5,551.9 282.5,552 282.4,552 282.4,552 282.3,552 282.3,552.1 282.3,552.1 282.3,552.1 282.2,552.1 282.2,552.2 282.1,552.2 
				282.1,552.2 282,552.2 282,552.3 282,552.3 282,552.3 281.9,552.3 281.9,552.4 281.8,552.4 281.8,552.4 281.7,552.4 281.7,552.5 
				281.7,552.5 281.7,552.5 281.6,552.5 281.6,552.6 281.5,552.6 281.5,552.6 281.4,552.6 281.4,552.7 281.4,552.7 281.4,552.7 
				281.3,552.7 281.3,552.8 281.2,552.8 281.2,552.8 281.1,552.8 281.1,552.9 281.1,552.9 281.1,552.9 281,552.9 281,553 280.9,553 
				280.9,553 280.8,553 280.8,553.1 280.8,553.1 280.8,553.1 280.7,553.1 280.7,553.2 280.6,553.2 280.6,553.2 280.5,553.2 
				280.5,553.3 280.5,553.3 280.5,553.3 280.4,553.3 280.4,553.4 280.3,553.4 280.3,553.4 280.2,553.4 280.2,553.5 280.2,553.5 
				280.2,553.5 280.1,553.5 280.1,553.6 280,553.6 280,553.6 279.9,553.6 279.9,553.7 279.9,553.7 279.9,553.7 279.8,553.7 
				279.8,553.8 279.7,553.8 279.7,553.8 279.6,553.8 279.6,553.9 279.6,553.9 279.6,553.9 279.5,553.9 279.5,554 279.4,554 
				279.4,554 279.3,554 279.3,554.1 279.3,554.1 279.3,554.1 279.2,554.1 279.2,554.2 279.1,554.2 279.1,554.2 279,554.2 279,554.3 
				279,554.3 279,554.4 278.9,554.4 278.9,554.4 278.8,554.4 278.8,554.5 278.7,554.5 278.7,554.5 278.7,554.5 278.7,554.6 
				278.6,554.6 278.6,554.6 278.5,554.6 278.5,554.7 278.4,554.7 278.4,554.7 278.4,554.7 278.4,554.8 278.3,554.8 278.3,554.8 
				278.2,554.8 278.2,554.9 278.1,554.9 278.1,554.9 278.1,554.9 278.1,555 278,555 278,555 277.9,555 277.9,555.1 277.8,555.1 
				277.8,555.1 277.8,555.1 277.8,555.2 277.7,555.2 277.7,555.2 277.6,555.2 277.6,555.3 277.5,555.3 277.5,555.3 277.5,555.3 
				277.5,555.4 277.4,555.4 277.4,555.4 277.3,555.4 277.3,555.5 277.2,555.5 277.2,555.5 277.2,555.5 277.2,555.6 277.1,555.6 
				277.1,555.6 277,555.6 277,555.7 276.9,555.7 276.9,555.7 276.8,555.7 276.8,555.8 276.8,555.8 276.8,555.8 276.7,555.8 
				276.7,555.9 276.6,555.9 276.6,555.9 276.5,555.9 276.5,556 276.5,556 276.5,556 276.4,556 276.4,556.1 276.3,556.1 276.3,556.1 
				276.2,556.1 276.2,556.2 276.2,556.2 276.2,556.2 276.1,556.2 276.1,556.3 276,556.3 276,556.3 275.9,556.3 275.9,556.4 
				275.9,556.4 275.9,556.4 275.8,556.4 275.8,556.5 275.7,556.5 275.7,556.5 275.6,556.5 275.6,556.6 275.6,556.6 275.6,556.6 
				275.5,556.6 275.5,556.7 275.4,556.7 275.4,556.7 275.3,556.7 275.3,556.8 275.3,556.8 275.3,556.8 275.2,556.8 275.2,556.9 
				275.1,556.9 275.1,556.9 275,556.9 275,557 275,557 275,557 274.9,557 274.9,631.1 290.3,631.1 			"/>
		</g>
		<g>
			<g>
				<g>
					<g>
						<path class="st1" d="M119.5,623.9c-9.5,0-17.3-7.8-17.3-17.3v-35.2c0-9.5,7.8-17.3,17.3-17.3H136c9.5,0,17.3,7.8,17.3,17.3
							v2.8h-11.1v-2.8c0-3.4-2.9-6.2-6.2-6.2h-16.5c-3.4,0-6.2,2.9-6.2,6.2v35.2c0,3.4,2.9,6.2,6.2,6.2H136c3.4,0,6.2-2.9,6.2-6.2
							v-10.1h-12.4v-11.1h23.4v21.2c0,9.5-7.8,17.3-17.3,17.3H119.5z"/>
					</g>
					<g>
						<path class="st0" d="M136,556.2c8.4,0,15.2,6.8,15.2,15.2v0.6h-6.8v-0.6c0-4.6-3.8-8.4-8.4-8.4h-16.5c-4.6,0-8.4,3.8-8.4,8.4
							v35.2c0,4.6,3.8,8.4,8.4,8.4H136c4.6,0,8.4-3.8,8.4-8.4v-8v-4.3h-4.3H132v-6.8h19.1v19c0,8.4-6.8,15.2-15.2,15.2h-16.5
							c-8.4,0-15.2-6.8-15.2-15.2v-35.2c0-8.4,6.8-15.2,15.2-15.2H136 M136,551.9h-16.5c-10.7,0-19.5,8.7-19.5,19.5v35.2
							c0,10.7,8.7,19.5,19.5,19.5H136c10.7,0,19.5-8.7,19.5-19.5v-23.3h-27.7v15.4h12.4v8c0,2.2-1.9,4.1-4.1,4.1h-16.5
							c-2.2,0-4.1-1.9-4.1-4.1v-35.2c0-2.2,1.9-4.1,4.1-4.1H136c2.2,0,4.1,1.9,4.1,4.1v4.9h15.4v-4.9
							C155.4,560.7,146.7,551.9,136,551.9L136,551.9z"/>
					</g>
				</g>
			</g>
			<g>
				<g>
					<path class="st1" d="M355.4,623.9v-27.4h-29v27.4h-11.1v-52.5c0-9.5,7.8-17.3,17.3-17.3h16.5c9.5,0,17.3,7.8,17.3,17.3v52.5
						H355.4z M332.7,565.1c-3.4,0-6.2,2.9-6.2,6.2v14h29v-14c0-3.4-2.9-6.2-6.2-6.2H332.7z"/>
				</g>
				<g>
					<path class="st0" d="M349.2,556.2c8.4,0,15.2,6.8,15.2,15.2v11.9v15.4v23.1h-6.8v-23.1v-4.3h-4.3h-24.7h-4.3v4.3v23.1h-6.8
						v-23.1v-15.4v-11.9c0-8.4,6.8-15.2,15.2-15.2H349.2 M324.3,587.6h4.3h24.7h4.3v-4.3v-11.9c0-4.6-3.8-8.4-8.4-8.4h-16.5
						c-4.6,0-8.4,3.8-8.4,8.4v11.9V587.6 M349.2,551.9h-16.5c-10.7,0-19.5,8.7-19.5,19.5v11.9v15.4v27.4h15.4v-27.4h24.7v27.4h15.4
						v-27.4v-15.4v-11.9C368.7,560.7,359.9,551.9,349.2,551.9L349.2,551.9z M328.6,583.3v-11.9c0-2.2,1.9-4.1,4.1-4.1h16.5
						c2.2,0,4.1,1.9,4.1,4.1v11.9H328.6L328.6,583.3z"/>
				</g>
			</g>
			<g>
				<g>
					<g>
						<rect x="284.7" y="554.1" class="st1" width="11.1" height="69.8"/>
					</g>
					<g>
						<path class="st0" d="M293.6,556.2v65.5h-6.8v-65.5H293.6 M297.9,551.9h-15.4v74.1h15.4V551.9L297.9,551.9z"/>
					</g>
				</g>
			</g>
			<g>
				<g>
					<g>
						<rect x="172.9" y="554.1" class="st1" width="11.1" height="69.8"/>
					</g>
					<g>
						<path class="st0" d="M181.8,556.2v65.5h-6.8v-65.5H181.8 M186.1,551.9h-15.4v74.1h15.4V551.9L186.1,551.9z"/>
					</g>
				</g>
			</g>
			<g>
				<g>
					<g>
						<path class="st1" d="M219,623.9c-8.5,0-15.4-6.9-15.4-15.4v-54.5h11.1v54.5c0,2.4,1.9,4.3,4.3,4.3h5.5v11.1H219z"/>
					</g>
					<g>
						<path class="st0" d="M212.5,556.2v52.3c0,3.6,2.9,6.5,6.5,6.5h3.4v6.8H219c-7.3,0-13.2-5.9-13.2-13.2v-52.3H212.5
							 M216.8,551.9h-15.4v56.6c0,9.7,7.9,17.5,17.5,17.5h7.7v-15.4H219c-1.2,0-2.2-1-2.2-2.2V551.9L216.8,551.9z"/>
					</g>
				</g>
			</g>
			<g>
				<g>
					<g>
						<path class="st1" d="M259.5,623.9c-8.5,0-15.4-6.9-15.4-15.4v-54.5h11.1v54.5c0,2.4,1.9,4.3,4.3,4.3h5.5v11.1H259.5z"/>
					</g>
					<g>
						<path class="st0" d="M253.1,556.2v52.3c0,3.6,2.9,6.5,6.5,6.5h3.4v6.8h-3.4c-7.3,0-13.2-5.9-13.2-13.2v-52.3H253.1
							 M257.3,551.9H242v56.6c0,9.7,7.9,17.5,17.5,17.5h7.7v-15.4h-7.7c-1.2,0-2.2-1-2.2-2.2V551.9L257.3,551.9z"/>
					</g>
				</g>
			</g>
			<g>
				<g>
					<g>
						<polygon class="st1" points="423.3,623.9 397.2,580 397.2,623.9 386.2,623.9 386.2,554.1 394.7,554.1 421.1,598.6 
							421.1,554.2 432.2,554.2 432.2,623.9 						"/>
					</g>
					<g>
						<path class="st0" d="M393.5,556.2l21.8,36.7l8,13.5v-15.6v-34.4h6.8v65.4h-5.5l-21.5-36.2l-8-13.5v15.6v34h-6.8v-65.5H393.5
							 M396,551.9h-12v74.1h15.4v-38.3l22.7,38.3h12.3v-74H419v38.7L396,551.9L396,551.9z"/>
					</g>
				</g>
			</g>
			<g>
				<g>
					<path class="st1" d="M469.2,623.9c-9.5,0-17.3-7.8-17.3-17.3v-35.2c0-9.5,7.8-17.3,17.3-17.3h22v11.1h-22
						c-3.4,0-6.2,2.9-6.2,6.2v14h21.7v11.1h-21.7v10.1c0,3.4,2.9,6.2,6.2,6.2h22v11.1H469.2z"/>
				</g>
				<g>
					<path class="st0" d="M489.1,556.2v6.8h-19.9c-4.6,0-8.4,3.8-8.4,8.4v9.9v2v4.3h4.3h17.4v6.8h-17.4h-4.3v4.3v8
						c0,4.6,3.8,8.4,8.4,8.4h19.9v6.8h-19.9c-8.4,0-15.2-6.8-15.2-15.2v-8v-2v-13.4v-2v-9.9c0-8.4,6.8-15.2,15.2-15.2H489.1
						 M493.4,551.9h-24.2c-10.7,0-19.5,8.7-19.5,19.5v9.9v2v13.4v2v8c0,10.7,8.7,19.5,19.5,19.5h24.2v-15.4h-24.2
						c-2.2,0-4.1-1.9-4.1-4.1v-8h21.7v-15.4h-21.7v-2v-9.9c0-2.2,1.9-4.1,4.1-4.1h24.2V551.9L493.4,551.9z"/>
				</g>
			</g>
		</g>
		<g>
			<rect x="337.1" y="676.2" class="st0" width="319.7" height="3.1"/>
		</g>
		<g>
			<path class="st0" d="M383.8,384.5c-52.2,0-94.6-42.5-94.6-94.6s42.5-94.6,94.6-94.6c10.2,0,20.2,1.6,29.8,4.8
				c7.6,2.5,11.6,10.7,9.1,18.2c-2.5,7.6-10.7,11.6-18.2,9.1c-6.7-2.2-13.6-3.3-20.7-3.3c-36.3,0-65.8,29.5-65.8,65.8
				s29.5,65.8,65.8,65.8c31.4,0,57.7-22,64.2-51.4h-55.1c-8,0-14.4-6.5-14.4-14.4c0-8,6.5-14.4,14.4-14.4H464
				c8,0,14.4,6.5,14.4,14.4C478.4,342.1,436,384.5,383.8,384.5z"/>
		</g>
		<g>
			<path class="st0" d="M610.4,384.5c-52.2,0-94.7-42.5-94.7-94.6c0-8,6.5-14.4,14.4-14.4h63.6c8,0,14.4,6.5,14.4,14.4
				c0,8-6.5,14.4-14.4,14.4h-47.6c6.6,29.4,32.9,51.4,64.2,51.4c36.3,0,65.8-29.5,65.8-65.8s-29.5-65.8-65.8-65.8
				c-6.6,0-13.2,1-19.5,2.9c-7.6,2.3-15.7-1.9-18-9.5c-2.3-7.6,1.9-15.7,9.5-18c9-2.8,18.4-4.2,27.9-4.2c52.2,0,94.6,42.5,94.6,94.6
				S662.6,384.5,610.4,384.5z"/>
		</g>
		<g>
			<path class="st0" d="M303.5,459.7c-8,0-14.4-6.5-14.4-14.4V289.9c0-8,6.5-14.4,14.4-14.4s14.4,6.5,14.4,14.4v155.4
				C317.9,453.3,311.5,459.7,303.5,459.7z"/>
		</g>
		<g>
			<path class="st0" d="M343.6,499.9c-30.1,0-54.5-24.5-54.5-54.5c0-8,6.5-14.4,14.4-14.4s14.4,6.5,14.4,14.4
				c0,14.2,11.5,25.7,25.7,25.7c9.5,0,18.2-5.2,22.7-13.6c3.8-7,12.5-9.7,19.5-5.9c7,3.8,9.7,12.5,5.9,19.5
				C382.2,488.8,363.8,499.9,343.6,499.9z"/>
		</g>
		<g>
			<path class="st0" d="M379,478.7c-2.4,0-4.7-0.6-7-1.8c-7-3.9-9.5-12.6-5.6-19.6l76-137.4c3.9-7,12.6-9.5,19.6-5.6
				c7,3.9,9.5,12.6,5.6,19.6l-76,137.4C389,476,384.1,478.7,379,478.7z"/>
		</g>
		<g>
			<path class="st0" d="M690.7,459.7c-8,0-14.4-6.5-14.4-14.4V289.9c0-8,6.5-14.4,14.4-14.4s14.4,6.5,14.4,14.4v155.4
				C705.1,453.3,698.6,459.7,690.7,459.7z"/>
		</g>
		<g>
			<path class="st0" d="M650.5,499.9c-20.1,0-38.6-11-48.1-28.8c-3.8-7-1.1-15.7,5.9-19.5c7-3.8,15.7-1.1,19.5,5.9
				c4.5,8.4,13.2,13.6,22.7,13.6c14.2,0,25.7-11.5,25.7-25.7c0-8,6.5-14.4,14.4-14.4s14.4,6.5,14.4,14.4
				C705.1,475.4,680.6,499.9,650.5,499.9z"/>
		</g>
		<g>
			<path class="st0" d="M615.2,478.7c-5.1,0-10-2.7-12.6-7.4l-74.1-133.9c-3.9-7-1.3-15.7,5.6-19.6c7-3.9,15.7-1.3,19.6,5.6
				l74.1,133.9c3.9,7,1.3,15.7-5.6,19.6C619.9,478.1,617.5,478.7,615.2,478.7z"/>
		</g>
		<g>
			<path class="st0" d="M497.1,241.2c-32.4,0-64.3-4.9-94.9-14.5c-7.6-2.4-11.8-10.5-9.4-18.1c2.4-7.6,10.5-11.8,18.1-9.4
				c27.8,8.7,56.8,13.2,86.3,13.2c29.1,0,57.8-4.3,85.4-12.9c7.6-2.4,15.7,1.9,18,9.5c2.4,7.6-1.9,15.7-9.5,18
				C560.7,236.4,529.1,241.2,497.1,241.2z"/>
		</g>
		<g>
			<path class="st0" d="M397.3,445.6c-2.3,0-4.7-0.6-6.9-1.7c-7-3.8-9.6-12.5-5.8-19.5c22.5-41.4,65.4-67.1,112-67.1
				c46.7,0,89.9,25.5,112.6,66.5c3.9,7,1.3,15.7-5.6,19.6c-7,3.9-15.7,1.3-19.6-5.6c-17.6-31.9-51.1-51.6-87.4-51.6
				c-36,0-69.2,19.9-86.7,52C407.3,442.9,402.4,445.6,397.3,445.6z"/>
		</g>
		<g class="st2">
			<path class="st0" d="M692.4,295.4c0-44.3-35.9-80.2-80.2-80.2c-6.3,0-12.5,0.7-18.4,2.1c35.5,8.3,61.9,40.1,61.9,78.1l-1,195.5
				c21.1-1.2,37.8-18.7,37.8-40.1V295.4z"/>
		</g>
		<g class="st2">
			<path class="st0" d="M416,363.4l-22.2,8.3c-0.9,1.6-1.8,3.3-2.8,5l-7.2-1.2l-36.5-14.2l-38.4-24.8l8.5,21.6
				c25.1,24.4,48.7,37.8,63.5,38.3c-20.6,42.8-39.7,94.5-39.7,94.5l32.7-29.6l23.3-20.6l27.3-60.9l28-25L416,363.4z"/>
		</g>
		<g class="st2">
			<path class="st0" d="M516.1,287c0,0-6.1,25.1,15.7,85.6l27.8,16v-21.1l-27.8-73L516.1,287z"/>
		</g>
		<path class="st3" d="M447.7,287l-19.4,16.8l0-1.1l-38,1.4l36.9,7.8c-4.7,37.7-43.5,43.8-43.5,43.8l5.1,14.2l38.9-2.3l27.4-24.6
			l2.5-35.9L447.7,287z"/>
	</g>
</g>
</svg>
