<?xml version="1.0" encoding="utf-8"?>
<!-- Generator: Adobe Illustrator 21.0.2, SVG Export Plug-In . SVG Version: 6.00 Build 0)  -->
<svg version="1.1" id="Layer_1" xmlns="http://www.w3.org/2000/svg" xmlns:xlink="http://www.w3.org/1999/xlink" x="0px" y="0px"
	 viewBox="0 0 1000 1000" style="enable-background:new 0 0 1000 1000;" xml:space="preserve">
<style type="text/css">
	.st0{display:none;fill:none;stroke:#2B3990;stroke-miterlimit:10;}
	.st1{display:none;opacity:0.7;fill:#44518E;stroke:#44518E;stroke-miterlimit:10;enable-background:new    ;}
	.st2{filter:url(#Adobe_OpacityMaskFilter);}
	.st3{mask:url(#SVGID_2_);}
	.st4{fill:#181B29;}
	.st5{fill:#FFFFFF;}
	.st6{opacity:0.6;enable-background:new    ;}
	.st7{fill:none;}
</style>
<g id="Layer_1_1_">
	<polygon class="st0" points="243.6,146.6 238.4,176.1 240.3,176.1 235.5,197.2 249.9,171.9 245.5,171.9 253.9,146.6 	"/>
	<line class="st0" x1="239.4" y1="176.1" x2="244.7" y2="146.6"/>
	<line class="st0" x1="248.4" y1="171.9" x2="236.1" y2="194.6"/>
	<polyline class="st0" points="252.4,146.6 244.4,171.9 245.9,171.9 	"/>
	<polyline class="st0" points="240.3,176.1 241.2,176.1 237.3,192.4 	"/>
	<ellipse class="st1" cx="485.6" cy="180.7" rx="64.7" ry="65.8"/>
	<defs>
		<filter id="Adobe_OpacityMaskFilter" filterUnits="userSpaceOnUse" x="61.9" y="86.4" width="876.1" height="1026.2">
			<feColorMatrix  type="matrix" values="1 0 0 0 0  0 1 0 0 0  0 0 1 0 0  0 0 0 1 0"/>
		</filter>
	</defs>
	<mask maskUnits="userSpaceOnUse" x="61.9" y="86.4" width="876.1" height="1026.2" id="SVGID_2_">
		<g class="st2">
			
				<image style="overflow:visible;enable-background:new    ;" width="5000" height="4947" xlink:href="../../../../../../../../Volumes/Camden/Creative cloud copy/Graphic Design/UMEI/UMEI T-shirts/Wheel tshirt- distressed vector/2F24706A.jpg"  transform="matrix(0.1598 -8.273778e-02 8.216371e-02 0.1587 -85.4234 297.607)">
			</image>
		</g>
	</mask>
	<g class="st3">
		<g>
			<path class="st4" d="M865.2,446.6c0,198.7-161.1,359.8-359.8,359.8c-198.7,0-359.8-161.1-359.8-359.8
				c0-198.7,161.1-359.7,359.8-359.7C704.1,86.8,865.2,247.9,865.2,446.6z"/>
			<path class="st4" d="M505.4,806.8c-48.6,0-95.8-9.5-140.2-28.3c-21.3-9-41.9-20.2-61.2-33.2c-19.1-12.9-37-27.7-53.3-44
				c-16.3-16.3-31.1-34.2-44-53.3c-13-19.3-24.2-39.8-33.2-61.2c-18.8-44.4-28.3-91.6-28.3-140.2c0-48.6,9.5-95.8,28.3-140.2
				c9-21.3,20.2-41.9,33.2-61.2c12.9-19.1,27.7-37,44-53.3c16.3-16.3,34.2-31.1,53.3-44c19.3-13,39.8-24.2,61.2-33.2
				c44.4-18.8,91.6-28.3,140.2-28.3c48.6,0,95.8,9.5,140.2,28.3c21.3,9,41.9,20.2,61.2,33.2c19.1,12.9,37,27.7,53.3,44
				c16.3,16.3,31.1,34.2,44,53.3c13,19.3,24.2,39.8,33.2,61.2c18.8,44.4,28.3,91.6,28.3,140.2c0,48.6-9.5,95.8-28.3,140.2
				c-9,21.3-20.2,41.9-33.2,61.2c-12.9,19.1-27.7,37-44,53.3c-16.3,16.3-34.2,31.1-53.3,44c-19.3,13-39.8,24.2-61.2,33.2
				C601.2,797.3,554.1,806.8,505.4,806.8z M505.4,87.3c-198.1,0-359.3,161.2-359.3,359.3c0,198.1,161.2,359.3,359.3,359.3
				s359.3-161.2,359.3-359.3c0-96-37.4-186.2-105.2-254C691.6,124.7,601.4,87.3,505.4,87.3z"/>
		</g>
		<g>
			<path class="st5" d="M756.2,448c0,141.6-114.8,256.4-256.4,256.4c-141.6,0-256.4-114.8-256.4-256.4
				c0-141.6,114.8-256.4,256.4-256.4C641.4,191.6,756.2,306.4,756.2,448z"/>
		</g>
		<g>
			<path class="st5" d="M836.6,446.6c0,186-150.8,336.9-336.9,336.9c-186,0-336.9-150.8-336.9-336.9c0-186,150.8-336.9,336.9-336.9
				C685.8,109.7,836.6,260.5,836.6,446.6z"/>
		</g>
		<g class="st6">
			<ellipse class="st4" cx="501.9" cy="446.6" rx="259" ry="263.3"/>
			<path class="st4" d="M501.9,710.4c-35,0-69-7-101-20.7c-15.4-6.6-30.2-14.8-44.1-24.3c-13.7-9.4-26.7-20.3-38.4-32.2
				c-11.7-11.9-22.4-25.1-31.7-39c-9.4-14.1-17.4-29.2-23.9-44.8c-13.5-32.5-20.4-67.1-20.4-102.7s6.9-70.2,20.4-102.7
				c6.5-15.6,14.6-30.7,23.9-44.8c9.3-14,19.9-27.1,31.7-39c11.7-11.9,24.7-22.8,38.4-32.2c13.9-9.5,28.7-17.7,44.1-24.3
				c32-13.8,66-20.7,101-20.7c35,0,69,7,101,20.7c15.4,6.6,30.2,14.8,44.1,24.3c13.7,9.4,26.7,20.3,38.4,32.2
				c11.7,11.9,22.4,25.1,31.7,39c9.4,14.1,17.4,29.2,23.9,44.8c13.5,32.5,20.4,67.1,20.4,102.7s-6.9,70.2-20.4,102.7
				c-6.5,15.6-14.6,30.7-23.9,44.8c-9.3,14-19.9,27.1-31.7,39c-11.7,11.9-24.7,22.8-38.4,32.2c-13.9,9.5-28.7,17.7-44.1,24.3
				C570.9,703.4,536.9,710.4,501.9,710.4z M501.9,183.8c-142.5,0-258.5,117.9-258.5,262.8s116,262.8,258.5,262.8
				s258.5-117.9,258.5-262.8S644.4,183.8,501.9,183.8z"/>
		</g>
		<g>
			<g>
				<g>
					<g>
						<g>
							<g>
								<path class="st4" d="M285.4,556.9l4.7-1.9c0,0-1.3-3.2-2.3-6.4c-0.5-1.6-1.1-3.2-1.4-4.4c-0.2-0.6-0.3-1.1-0.4-1.4
									c-0.1-0.3-0.1-0.5-0.1-0.5l-4.9,1.3c0,0,0.1,0.2,0.2,0.6c0.1,0.4,0.3,0.9,0.4,1.6c0.4,1.3,0.9,2.9,1.5,4.6
									C284.1,553.6,285.4,556.9,285.4,556.9z"/>
							</g>
							<g>
								<path class="st4" d="M294,575.8l4.5-2.3c0,0-0.1-0.2-0.3-0.5c-0.2-0.3-0.4-0.8-0.7-1.4c-0.6-1.1-1.3-2.7-2.1-4.2
									c-1.5-3.1-2.8-6.2-2.8-6.2l-4.7,2c0,0,1.4,3.2,2.9,6.3c0.8,1.6,1.5,3.1,2.1,4.3c0.3,0.6,0.5,1.1,0.7,1.4
									C293.9,575.6,294,575.8,294,575.8z"/>
							</g>
							<g>
								<path class="st4" d="M304.5,593.7l4.3-2.8c0,0-0.5-0.7-1.1-1.8c-0.7-1.1-1.6-2.5-2.5-4c-0.4-0.7-0.9-1.5-1.3-2.1
									c-0.4-0.7-0.8-1.3-1.1-1.9c-0.6-1.1-1-1.8-1-1.8l-4.5,2.5c0,0,0.4,0.8,1.1,1.9c0.3,0.6,0.7,1.2,1.1,1.9
									c0.4,0.7,0.9,1.5,1.3,2.2c0.9,1.5,1.8,3,2.5,4.1C304,593,304.5,593.7,304.5,593.7z"/>
							</g>
							<g>
								<path class="st4" d="M316.6,610.5l4-3.2c0,0-0.5-0.7-1.3-1.7c-0.8-1-1.8-2.4-2.8-3.7c-0.5-0.7-1-1.4-1.5-2
									c-0.5-0.6-0.9-1.3-1.3-1.8c-0.4-0.5-0.7-1-0.9-1.3c-0.2-0.3-0.3-0.5-0.3-0.5l-4.2,2.9c0,0,0.1,0.2,0.3,0.5
									c0.2,0.3,0.5,0.8,0.9,1.3c0.4,0.5,0.8,1.1,1.3,1.8c0.5,0.7,1,1.4,1.5,2.1c1,1.4,2.1,2.8,2.9,3.8
									C316,609.9,316.6,610.5,316.6,610.5z"/>
							</g>
							<g>
								<path class="st4" d="M330.2,626.2l3.7-3.5c0,0-0.1-0.2-0.4-0.4c-0.1-0.1-0.3-0.3-0.5-0.5c-0.2-0.2-0.4-0.4-0.6-0.6
									c-0.4-0.5-0.9-1-1.5-1.6c-0.5-0.6-1.1-1.2-1.7-1.8c-0.6-0.6-1.1-1.3-1.7-1.9c-0.3-0.3-0.5-0.6-0.8-0.9
									c-0.2-0.3-0.5-0.5-0.7-0.8c-0.8-1-1.4-1.6-1.4-1.6l-3.9,3.3c0,0,0.6,0.7,1.4,1.7c0.2,0.2,0.4,0.5,0.7,0.8
									c0.2,0.3,0.5,0.6,0.8,0.9c0.5,0.6,1.1,1.3,1.7,1.9c0.6,0.7,1.2,1.3,1.7,1.9c0.6,0.6,1.1,1.2,1.5,1.6
									c0.2,0.2,0.4,0.5,0.6,0.7c0.2,0.2,0.3,0.4,0.5,0.5C330.1,626,330.2,626.2,330.2,626.2z"/>
							</g>
							<g>
								<path class="st4" d="M345.4,640.3l3.3-3.9c0,0-0.6-0.5-1.6-1.4c-1-0.8-2.2-2-3.5-3.1c-1.2-1.2-2.5-2.3-3.4-3.2
									c-0.5-0.4-0.8-0.8-1.1-1.1c-0.3-0.3-0.4-0.4-0.4-0.4L335,631c0,0,0.2,0.2,0.4,0.4c0.3,0.3,0.7,0.7,1.1,1.1
									c1,0.9,2.2,2.1,3.5,3.3c1.3,1.2,2.6,2.3,3.6,3.2C344.7,639.8,345.4,640.3,345.4,640.3z"/>
							</g>
							<g>
								<path class="st4" d="M361.8,653l2.9-4.2c0,0-0.2-0.1-0.5-0.3c-0.2-0.1-0.3-0.2-0.6-0.4c-0.2-0.2-0.4-0.3-0.7-0.5
									c-1-0.7-2.4-1.7-3.8-2.7c-1.4-1-2.7-2.1-3.7-2.8c-0.5-0.4-0.9-0.7-1.2-1c-0.3-0.2-0.5-0.4-0.5-0.4l-3.2,4
									c0,0,0.2,0.1,0.5,0.4c0.3,0.2,0.7,0.6,1.2,1c1,0.8,2.4,1.8,3.8,2.9c1.4,1,2.8,2,3.9,2.8c0.3,0.2,0.5,0.4,0.7,0.5
									c0.2,0.1,0.4,0.3,0.6,0.4C361.6,652.9,361.8,653,361.8,653z"/>
							</g>
						</g>
					</g>
					<g>
						<g>
							<g>
								<path class="st4" d="M379.4,663.9l2.5-4.5c0,0-0.7-0.4-1.8-1.1c-0.6-0.3-1.2-0.7-1.9-1.1c-0.3-0.2-0.7-0.4-1.1-0.6
									c-0.4-0.2-0.7-0.4-1.1-0.7c-0.7-0.4-1.5-0.9-2.1-1.3c-0.3-0.2-0.7-0.4-1-0.6c-0.3-0.2-0.6-0.4-0.9-0.6
									c-1.1-0.7-1.8-1.1-1.8-1.1l-2.8,4.3c0,0,0.7,0.5,1.8,1.2c0.3,0.2,0.6,0.4,0.9,0.6c0.3,0.2,0.7,0.4,1,0.6
									c0.7,0.4,1.4,0.9,2.2,1.3c0.4,0.2,0.7,0.5,1.1,0.7c0.4,0.2,0.7,0.4,1.1,0.6c0.7,0.4,1.4,0.8,1.9,1.1
									C378.7,663.5,379.4,663.9,379.4,663.9z"/>
							</g>
							<g>
								<path class="st4" d="M398,673.1l2-4.7c0,0-0.2-0.1-0.5-0.2c-0.3-0.1-0.8-0.4-1.4-0.6c-1.2-0.5-2.7-1.2-4.2-2
									c-0.8-0.3-1.5-0.7-2.2-1.1c-0.7-0.4-1.4-0.7-2-1c-0.6-0.3-1-0.5-1.4-0.7c-0.3-0.2-0.5-0.3-0.5-0.3l-2.3,4.5
									c0,0,0.2,0.1,0.5,0.3c0.3,0.2,0.8,0.4,1.4,0.7c0.6,0.3,1.3,0.6,2,1c0.7,0.4,1.5,0.8,2.3,1.1c1.6,0.7,3.2,1.5,4.3,2
									c0.6,0.3,1.1,0.5,1.4,0.6C397.8,673,398,673.1,398,673.1z"/>
							</g>
							<g>
								<path class="st4" d="M417.4,680.5l1.6-4.8c0,0-0.8-0.3-2-0.7c-0.6-0.2-1.3-0.5-2.1-0.7c-0.8-0.3-1.5-0.6-2.3-0.9
									c-0.8-0.3-1.6-0.6-2.3-0.9c-0.7-0.3-1.4-0.6-2-0.8c-1.2-0.5-2-0.8-2-0.8l-1.9,4.7c0,0,0.8,0.3,2,0.8
									c0.6,0.2,1.3,0.5,2.1,0.8c0.8,0.3,1.6,0.6,2.4,0.9c0.8,0.3,1.6,0.6,2.4,0.9c0.8,0.3,1.5,0.5,2.1,0.7
									C416.5,680.3,417.4,680.5,417.4,680.5z"/>
							</g>
							<g>
								<path class="st4" d="M437.3,686.3l1.2-5c0,0-0.8-0.2-2.1-0.5c-0.3-0.1-0.6-0.2-1-0.2c-0.4-0.1-0.7-0.2-1.1-0.3
									c-0.8-0.2-1.6-0.4-2.4-0.7c-0.8-0.2-1.6-0.4-2.4-0.7c-0.4-0.1-0.8-0.2-1.1-0.3c-0.3-0.1-0.7-0.2-1-0.3c-1.2-0.4-2-0.6-2-0.6
									l-1.5,4.9c0,0,0.8,0.3,2.1,0.6c0.3,0.1,0.7,0.2,1,0.3c0.4,0.1,0.7,0.2,1.1,0.3c0.8,0.2,1.6,0.4,2.5,0.7
									c0.8,0.2,1.7,0.5,2.5,0.7c0.4,0.1,0.8,0.2,1.1,0.3c0.4,0.1,0.7,0.2,1,0.3C436.4,686.1,437.3,686.3,437.3,686.3z"/>
							</g>
							<g>
								<path class="st4" d="M457.5,690.4l0.8-5c0,0-0.2,0-0.6-0.1c-0.4-0.1-0.9-0.1-1.5-0.2c-1.3-0.2-2.9-0.5-4.6-0.8
									c-0.8-0.2-1.7-0.3-2.5-0.5c-0.8-0.2-1.5-0.3-2.1-0.5c-1.3-0.3-2.1-0.4-2.1-0.4l-1.1,5c0,0,0.9,0.2,2.1,0.5
									c0.6,0.1,1.4,0.3,2.2,0.5c0.8,0.2,1.7,0.3,2.5,0.5c1.7,0.3,3.4,0.6,4.7,0.9c0.6,0.1,1.2,0.2,1.6,0.2
									C457.3,690.3,457.5,690.4,457.5,690.4z"/>
							</g>
							<g>
								<path class="st4" d="M478.1,693l0.5-5.1c0,0-3.4-0.3-6.8-0.7c-3.4-0.4-6.8-0.9-6.8-0.9l-0.7,5.1c0,0,3.4,0.4,6.9,0.9
									C474.6,692.6,478.1,693,478.1,693z"/>
							</g>
							<g>
								<path class="st4" d="M498.7,694.1l0.1-5.1c0,0-0.9,0-2.1-0.1c-0.3,0-0.7,0-1,0c-0.4,0-0.8,0-1.2-0.1c-0.8,0-1.7-0.1-2.5-0.1
									c-1.7-0.1-3.4-0.2-4.7-0.2c-1.3-0.1-2.1-0.2-2.1-0.2l-0.4,5.1c0,0,0.9,0.1,2.2,0.2c1.3,0.1,3,0.1,4.8,0.2
									c0.9,0,1.7,0.1,2.5,0.1c0.4,0,0.8,0,1.2,0.1c0.4,0,0.7,0,1,0C497.8,694.1,498.7,694.1,498.7,694.1z"/>
							</g>
						</g>
					</g>
					<g>
						<g>
							<g>
								<path class="st4" d="M519.4,694.1l-0.3-5.1c0,0-0.8,0-2.1,0.1c-0.6,0-1.4,0-2.2,0.1c-0.8,0-1.6,0-2.5,0.1
									c-1.7,0-3.4,0-4.7,0c-1.3,0-2.1,0-2.1,0l-0.2,5.1c0,0,0.9,0,2.2,0c1.3,0,3.1,0,4.8,0c0.9,0,1.7,0,2.6-0.1
									c0.8,0,1.6-0.1,2.2-0.1C518.5,694.2,519.4,694.1,519.4,694.1z"/>
							</g>
							<g>
								<path class="st4" d="M540,692.2l-0.7-5.1c0,0-0.8,0.1-2.1,0.3c-0.6,0.1-1.4,0.2-2.2,0.3c-0.8,0.1-1.6,0.2-2.5,0.3
									c-3.4,0.4-6.8,0.6-6.8,0.6l0.4,5.1c0,0,3.5-0.3,6.9-0.7c0.9-0.1,1.7-0.2,2.5-0.3c0.8-0.1,1.6-0.2,2.2-0.3
									C539.1,692.3,540,692.2,540,692.2z"/>
							</g>
							<g>
								<path class="st4" d="M560.4,688.6l-1.1-5c0,0-0.2,0-0.6,0.1c-0.4,0.1-0.9,0.2-1.5,0.3c-1.3,0.3-2.9,0.6-4.6,0.9
									c-0.8,0.2-1.7,0.3-2.5,0.5c-0.8,0.1-1.5,0.3-2.2,0.4c-0.6,0.1-1.2,0.2-1.5,0.3c-0.4,0.1-0.6,0.1-0.6,0.1l0.8,5
									c0,0,0.2,0,0.6-0.1c0.4-0.1,0.9-0.2,1.6-0.3c0.6-0.1,1.4-0.2,2.2-0.4c0.8-0.2,1.7-0.3,2.5-0.5c1.7-0.3,3.4-0.7,4.7-0.9
									c0.6-0.1,1.2-0.2,1.5-0.3C560.2,688.6,560.4,688.6,560.4,688.6z"/>
							</g>
							<g>
								<path class="st4" d="M580.4,683.4l-1.5-4.9c0,0-0.2,0.1-0.6,0.2c-0.4,0.1-0.9,0.3-1.5,0.4c-0.6,0.2-1.3,0.4-2.1,0.6
									c-0.8,0.2-1.6,0.4-2.4,0.7c-0.8,0.2-1.6,0.4-2.4,0.7c-0.8,0.2-1.5,0.4-2.1,0.5c-0.6,0.2-1.1,0.3-1.5,0.4
									c-0.4,0.1-0.6,0.1-0.6,0.1l1.2,5c0,0,0.2,0,0.6-0.1c0.4-0.1,0.9-0.2,1.5-0.4c0.6-0.2,1.4-0.4,2.2-0.6
									c0.8-0.2,1.6-0.4,2.5-0.7c0.8-0.2,1.7-0.5,2.5-0.7c0.8-0.2,1.5-0.4,2.1-0.6c0.6-0.2,1.1-0.3,1.5-0.4
									C580.2,683.4,580.4,683.4,580.4,683.4z"/>
							</g>
							<g>
								<path class="st4" d="M599.9,676.5l-1.9-4.7c0,0-0.8,0.3-2,0.8c-1.2,0.5-2.8,1.1-4.4,1.7c-1.6,0.6-3.2,1.1-4.4,1.6
									c-1.2,0.4-2,0.7-2,0.7l1.6,4.8c0,0,0.8-0.3,2.1-0.7c1.2-0.4,2.9-1,4.5-1.6c1.6-0.6,3.3-1.2,4.5-1.7
									C599.1,676.8,599.9,676.5,599.9,676.5z"/>
							</g>
							<g>
								<path class="st4" d="M618.8,668l-2.3-4.6c0,0-0.8,0.4-1.9,1c-1.2,0.6-2.7,1.3-4.2,2c-1.5,0.7-3.1,1.4-4.3,1.9
									c-0.3,0.1-0.6,0.3-0.8,0.4c-0.2,0.1-0.4,0.2-0.6,0.3c-0.3,0.1-0.5,0.2-0.5,0.2l2,4.7c0,0,0.2-0.1,0.5-0.2
									c0.2-0.1,0.4-0.2,0.6-0.3c0.2-0.1,0.5-0.2,0.8-0.4c1.2-0.5,2.8-1.2,4.4-2c1.6-0.8,3.1-1.5,4.3-2.1
									C618.1,668.4,618.8,668,618.8,668z"/>
							</g>
							<g>
								<path class="st4" d="M636.9,657.8l-2.7-4.3c0,0-0.2,0.1-0.5,0.3c-0.2,0.1-0.3,0.2-0.6,0.4c-0.2,0.1-0.5,0.3-0.7,0.4
									c-1.1,0.7-2.6,1.5-4,2.4c-1.5,0.8-3,1.7-4.1,2.3c-0.6,0.3-1,0.6-1.4,0.7c-0.3,0.2-0.5,0.3-0.5,0.3l2.4,4.5
									c0,0,0.2-0.1,0.5-0.3c0.3-0.2,0.8-0.4,1.4-0.8c1.1-0.6,2.6-1.5,4.2-2.4c1.5-0.9,3-1.8,4.1-2.5c0.3-0.2,0.5-0.3,0.8-0.5
									c0.2-0.1,0.4-0.3,0.6-0.4C636.7,657.9,636.9,657.8,636.9,657.8z"/>
							</g>
						</g>
					</g>
					<g>
						<g>
							<g>
								<path class="st4" d="M653.9,646l-3.1-4.1c0,0-0.7,0.5-1.7,1.3c-0.5,0.4-1.1,0.8-1.7,1.3c-0.2,0.1-0.3,0.2-0.5,0.4
									c-0.2,0.1-0.3,0.2-0.5,0.4c-0.3,0.2-0.7,0.5-1,0.7c-0.7,0.5-1.4,1-2,1.4c-0.3,0.2-0.6,0.5-0.9,0.7c-0.3,0.2-0.6,0.4-0.9,0.6
									c-1.1,0.7-1.8,1.2-1.8,1.2l2.8,4.2c0,0,0.7-0.5,1.8-1.2c0.3-0.2,0.6-0.4,0.9-0.6c0.3-0.2,0.6-0.4,1-0.7
									c0.7-0.5,1.4-1,2.1-1.5c0.4-0.3,0.7-0.5,1.1-0.8c0.2-0.1,0.3-0.2,0.5-0.4c0.2-0.1,0.3-0.3,0.5-0.4c0.7-0.5,1.3-0.9,1.8-1.3
									C653.2,646.5,653.9,646,653.9,646z"/>
							</g>
							<g>
								<path class="st4" d="M669.8,632.6l-3.5-3.7c0,0-0.6,0.6-1.6,1.5c-1,0.8-2.2,2-3.5,3.1c-0.3,0.3-0.6,0.6-1,0.8
									c-0.3,0.3-0.6,0.5-0.9,0.8c-0.6,0.5-1.2,1-1.7,1.4c-1,0.8-1.6,1.4-1.6,1.4l3.2,4c0,0,0.7-0.6,1.7-1.4
									c0.5-0.4,1.1-0.9,1.7-1.4c0.3-0.3,0.6-0.5,1-0.8c0.3-0.3,0.6-0.6,1-0.9c1.3-1.2,2.6-2.3,3.6-3.2c0.5-0.4,0.9-0.8,1.2-1.1
									C669.6,632.7,669.8,632.6,669.8,632.6z"/>
							</g>
							<g>
								<path class="st4" d="M684.2,617.8l-3.8-3.4c0,0-0.6,0.6-1.4,1.6c-0.4,0.5-0.9,1-1.5,1.6c-0.5,0.6-1.1,1.2-1.7,1.8
									c-1.2,1.2-2.3,2.5-3.2,3.4c-0.9,0.9-1.5,1.5-1.5,1.5l3.6,3.6c0,0,0.6-0.6,1.5-1.5c0.9-0.9,2.1-2.2,3.3-3.4
									c0.6-0.6,1.2-1.3,1.8-1.9c0.6-0.6,1.1-1.2,1.5-1.7C683.7,618.4,684.2,617.8,684.2,617.8z"/>
							</g>
							<g>
								<path class="st4" d="M697.3,601.6l-4.1-3c0,0-0.5,0.7-1.3,1.7c-0.4,0.5-0.8,1.1-1.3,1.7c-0.2,0.3-0.5,0.6-0.8,1
									c-0.3,0.3-0.5,0.7-0.8,1c-1.1,1.3-2.1,2.7-2.9,3.7c-0.8,1-1.4,1.6-1.4,1.6l3.9,3.3c0,0,0.6-0.7,1.4-1.7c0.8-1,1.9-2.4,3-3.7
									c0.3-0.3,0.5-0.7,0.8-1c0.3-0.3,0.5-0.7,0.8-1c0.5-0.7,0.9-1.3,1.3-1.8C696.8,602.3,697.3,601.6,697.3,601.6z"/>
							</g>
							<g>
								<path class="st4" d="M708.8,584.4l-4.4-2.6c0,0-0.4,0.7-1.1,1.8c-0.3,0.5-0.7,1.2-1.1,1.9c-0.1,0.2-0.2,0.3-0.3,0.5
									c-0.1,0.2-0.2,0.3-0.3,0.5c-0.2,0.3-0.5,0.7-0.7,1.1c-0.9,1.4-1.9,2.8-2.6,3.9c-0.4,0.5-0.7,1-0.9,1.3
									c-0.2,0.3-0.3,0.5-0.3,0.5l4.2,2.9c0,0,0.1-0.2,0.3-0.5c0.2-0.3,0.5-0.8,0.9-1.3c0.7-1.1,1.7-2.5,2.6-4
									c0.2-0.4,0.5-0.7,0.7-1.1c0.1-0.2,0.2-0.4,0.3-0.5c0.1-0.2,0.2-0.4,0.3-0.5c0.4-0.7,0.8-1.3,1.2-1.9
									C708.3,585.2,708.8,584.4,708.8,584.4z"/>
							</g>
							<g>
								<path class="st4" d="M718.8,566.3l-4.6-2.3c0,0-0.4,0.8-1,1.9c-0.1,0.3-0.3,0.6-0.5,0.9c-0.2,0.3-0.3,0.7-0.5,1
									c-0.4,0.7-0.8,1.5-1.2,2.2c-0.8,1.5-1.6,3-2.2,4.1c-0.6,1.1-1.1,1.8-1.1,1.8l4.4,2.5c0,0,0.4-0.8,1.1-1.9
									c0.6-1.1,1.4-2.7,2.3-4.2c0.4-0.8,0.8-1.5,1.2-2.2c0.2-0.4,0.4-0.7,0.5-1c0.2-0.3,0.3-0.6,0.5-0.9
									C718.4,567.1,718.8,566.3,718.8,566.3z"/>
							</g>
							<g>
								<path class="st4" d="M727.3,547.4l-4.7-1.9c0,0-0.1,0.2-0.2,0.5c-0.1,0.2-0.2,0.4-0.2,0.6c-0.1,0.2-0.2,0.5-0.3,0.8
									c-0.5,1.2-1.2,2.7-1.9,4.3c-0.3,0.8-0.7,1.6-1,2.3c-0.3,0.7-0.7,1.4-0.9,2c-0.5,1.2-0.9,1.9-0.9,1.9l4.6,2.2
									c0,0,0.4-0.8,0.9-2c0.3-0.6,0.6-1.3,0.9-2c0.3-0.7,0.7-1.5,1-2.3c0.7-1.6,1.4-3.2,1.9-4.4c0.1-0.3,0.2-0.6,0.4-0.8
									c0.1-0.2,0.2-0.5,0.3-0.6C727.3,547.6,727.3,547.4,727.3,547.4z"/>
							</g>
						</g>
					</g>
				</g>
			</g>
		</g>
		<g>
			<g>
				<g>
					<g>
						<g>
							<g>
								<path class="st4" d="M275.5,373.6l-4.9-1.3c0,0-0.1,0.2-0.1,0.5c-0.1,0.3-0.2,0.8-0.4,1.4c-0.3,1.1-0.7,2.6-1,4.2
									c-0.4,1.5-0.7,3.1-0.9,4.2c-0.1,0.6-0.2,1.1-0.3,1.4c-0.1,0.3-0.1,0.5-0.1,0.5l5,0.9c0,0,0-0.2,0.1-0.5
									c0.1-0.3,0.1-0.8,0.3-1.3c0.2-1.1,0.5-2.6,0.9-4.1c0.3-1.5,0.7-2.9,1-4c0.1-0.6,0.3-1,0.3-1.3
									C275.4,373.8,275.5,373.6,275.5,373.6z"/>
							</g>
							<g>
								<path class="st4" d="M281,356.3l-4.8-1.7c0,0-0.1,0.2-0.2,0.5c-0.1,0.3-0.3,0.8-0.5,1.3c-0.2,0.6-0.4,1.2-0.7,1.9
									c-0.2,0.7-0.5,1.4-0.7,2.2c-1,3-1.9,5.9-1.9,5.9l4.9,1.5c0,0,0.9-2.9,1.8-5.8c0.2-0.7,0.5-1.4,0.7-2.1
									c0.2-0.7,0.5-1.3,0.6-1.8c0.2-0.5,0.3-1,0.5-1.3C280.9,356.5,281,356.3,281,356.3z"/>
							</g>
							<g>
								<path class="st4" d="M287.8,339.5l-4.6-2.1c0,0-0.3,0.7-0.8,1.8c-0.5,1.1-1.1,2.5-1.7,3.9c-0.6,1.4-1.2,2.9-1.6,4
									c-0.4,1.1-0.7,1.8-0.7,1.8l4.7,1.9c0,0,0.3-0.7,0.7-1.8c0.4-1.1,1-2.5,1.6-3.9c0.6-1.4,1.2-2.8,1.7-3.8
									C287.5,340.2,287.8,339.5,287.8,339.5z"/>
							</g>
							<g>
								<path class="st4" d="M295.9,323.3l-4.5-2.4c0,0-0.4,0.7-0.9,1.7c-0.5,1-1.3,2.4-2,3.8c-0.7,1.4-1.4,2.8-1.9,3.8
									c-0.5,1-0.8,1.7-0.8,1.7l4.6,2.2c0,0,0.3-0.7,0.8-1.7c0.5-1,1.2-2.4,1.9-3.7c0.7-1.4,1.4-2.7,1.9-3.7
									C295.5,323.9,295.9,323.3,295.9,323.3z"/>
							</g>
							<g>
								<path class="st4" d="M305.2,307.7l-4.3-2.8c0,0-0.4,0.7-1.1,1.6c-0.3,0.5-0.7,1.1-1.1,1.7c-0.4,0.6-0.8,1.3-1.2,1.9
									c-0.4,0.7-0.8,1.3-1.2,2c-0.4,0.6-0.7,1.2-1,1.7c-0.6,1-1,1.7-1,1.7l4.4,2.6c0,0,0.4-0.7,1-1.6c0.3-0.5,0.6-1.1,1-1.7
									c0.4-0.6,0.8-1.3,1.2-1.9c0.4-0.6,0.8-1.3,1.2-1.9c0.4-0.6,0.7-1.2,1-1.7C304.8,308.3,305.2,307.7,305.2,307.7z"/>
							</g>
							<g>
								<path class="st4" d="M315.6,292.9l-4.1-3.1c0,0-0.5,0.6-1.2,1.5c-0.7,0.9-1.6,2.2-2.5,3.4c-0.2,0.3-0.5,0.6-0.7,0.9
									c-0.2,0.3-0.4,0.6-0.6,0.9c-0.4,0.6-0.8,1.2-1.1,1.6c-0.3,0.5-0.6,0.9-0.8,1.2c-0.2,0.3-0.3,0.4-0.3,0.4l4.2,2.9
									c0,0,0.1-0.2,0.3-0.4c0.2-0.3,0.5-0.7,0.8-1.1c0.3-0.5,0.7-1,1.1-1.6c0.2-0.3,0.4-0.6,0.6-0.9c0.2-0.3,0.4-0.6,0.7-0.9
									c0.9-1.2,1.8-2.5,2.5-3.4C315.2,293.5,315.6,292.9,315.6,292.9z"/>
							</g>
							<g>
								<path class="st4" d="M327.2,278.9l-3.8-3.4c0,0-0.1,0.1-0.4,0.4c-0.2,0.2-0.6,0.6-0.9,1.1c-0.8,0.9-1.8,2.1-2.8,3.2
									c-1,1.2-2,2.4-2.7,3.3c-0.4,0.4-0.7,0.8-0.9,1.1c-0.2,0.3-0.3,0.4-0.3,0.4l4,3.2c0,0,0.1-0.1,0.3-0.4
									c0.2-0.3,0.5-0.6,0.9-1.1c0.7-0.9,1.7-2,2.7-3.2c1-1.1,2-2.3,2.8-3.2c0.4-0.4,0.7-0.8,0.9-1
									C327.1,279.1,327.2,278.9,327.2,278.9z"/>
							</g>
						</g>
					</g>
					<g>
						<g>
							<g>
								<path class="st4" d="M339.9,266l-3.5-3.7c0,0-0.6,0.5-1.4,1.3c-0.4,0.4-0.9,0.9-1.4,1.4c-0.5,0.5-1.1,1.1-1.6,1.6
									c-1.1,1.1-2.2,2.2-3,3c-0.8,0.8-1.3,1.4-1.3,1.4l3.7,3.5c0,0,0.5-0.5,1.3-1.4c0.8-0.8,1.9-1.9,2.9-3
									c0.5-0.5,1.1-1.1,1.6-1.6c0.5-0.5,1-1,1.4-1.3C339.3,266.5,339.9,266,339.9,266z"/>
							</g>
							<g>
								<path class="st4" d="M353.6,254.1l-3.2-4c0,0-0.6,0.5-1.5,1.2c-0.9,0.7-2.1,1.7-3.3,2.7c-1.2,1-2.4,2-3.2,2.8
									c-0.2,0.2-0.4,0.4-0.6,0.5c-0.2,0.2-0.3,0.3-0.5,0.4c-0.3,0.2-0.4,0.4-0.4,0.4l3.4,3.8c0,0,0.1-0.1,0.4-0.4
									c0.1-0.1,0.3-0.2,0.4-0.4c0.2-0.2,0.4-0.3,0.6-0.5c0.9-0.7,2-1.7,3.2-2.7c1.2-1,2.4-1.9,3.2-2.7
									C353,254.6,353.6,254.1,353.6,254.1z"/>
							</g>
							<g>
								<path class="st4" d="M368.2,243.4l-2.8-4.2c0,0-0.2,0.1-0.4,0.3c-0.3,0.2-0.7,0.5-1.2,0.8c-1,0.7-2.2,1.6-3.5,2.4
									c-0.6,0.4-1.3,0.9-1.9,1.3c-0.6,0.4-1.1,0.8-1.6,1.2c-0.9,0.7-1.6,1.2-1.6,1.2l3.1,4.1c0,0,0.6-0.5,1.5-1.1
									c0.5-0.3,1-0.7,1.6-1.2c0.6-0.4,1.2-0.9,1.8-1.3c1.2-0.9,2.5-1.7,3.4-2.4c0.5-0.3,0.9-0.6,1.1-0.8
									C368,243.5,368.2,243.4,368.2,243.4z"/>
							</g>
							<g>
								<path class="st4" d="M383.7,233.9l-2.5-4.4c0,0-0.2,0.1-0.5,0.3c-0.3,0.2-0.7,0.4-1.2,0.7c-1,0.6-2.3,1.4-3.7,2.2
									c-0.3,0.2-0.7,0.4-1,0.6c-0.3,0.2-0.6,0.4-1,0.6c-0.6,0.4-1.2,0.7-1.7,1.1c-1,0.6-1.7,1-1.7,1l2.7,4.3c0,0,0.6-0.4,1.6-1
									c0.5-0.3,1.1-0.7,1.7-1c0.3-0.2,0.6-0.4,0.9-0.6c0.3-0.2,0.7-0.4,1-0.6c1.3-0.8,2.6-1.5,3.6-2.1c0.5-0.3,0.9-0.5,1.2-0.7
									C383.5,234,383.7,233.9,383.7,233.9z"/>
							</g>
							<g>
								<path class="st4" d="M399.8,225.6l-2.1-4.6c0,0-0.2,0.1-0.5,0.2c-0.3,0.1-0.7,0.4-1.3,0.6c-1.1,0.5-2.5,1.2-3.9,1.9
									c-0.7,0.3-1.4,0.7-2,1c-0.6,0.3-1.3,0.6-1.8,0.9c-1,0.5-1.7,0.9-1.7,0.9l2.4,4.5c0,0,0.7-0.3,1.7-0.9
									c0.5-0.3,1.1-0.6,1.7-0.9c0.6-0.3,1.3-0.7,2-1c1.4-0.7,2.7-1.3,3.8-1.8c0.5-0.2,0.9-0.5,1.2-0.6
									C399.6,225.7,399.8,225.6,399.8,225.6z"/>
							</g>
							<g>
								<path class="st4" d="M416.6,218.6l-1.8-4.8c0,0-0.7,0.3-1.8,0.7c-0.5,0.2-1.2,0.5-1.9,0.7c-0.7,0.3-1.4,0.5-2.1,0.8
									c-2.9,1.2-5.7,2.4-5.7,2.4l2,4.7c0,0,2.8-1.2,5.6-2.3c0.7-0.3,1.4-0.6,2.1-0.8c0.7-0.3,1.3-0.5,1.8-0.7
									C415.9,218.9,416.6,218.6,416.6,218.6z"/>
							</g>
							<g>
								<path class="st4" d="M433.8,212.9l-1.5-4.9c0,0-0.7,0.2-1.9,0.6c-1.1,0.3-2.6,0.8-4.1,1.3c-1.5,0.5-3,1-4.1,1.3
									c-1.1,0.4-1.8,0.6-1.8,0.6l1.7,4.8c0,0,0.7-0.3,1.8-0.6c1.1-0.4,2.5-0.8,4-1.3c1.5-0.5,2.9-1,4-1.3
									C433,213.1,433.8,212.9,433.8,212.9z"/>
							</g>
						</g>
					</g>
					<g>
						<g>
							<g>
								<path class="st4" d="M451.4,208.3l-1.1-5c0,0-3,0.7-6,1.4c-0.8,0.2-1.5,0.4-2.2,0.6c-0.7,0.2-1.4,0.4-1.9,0.5
									c-1.1,0.3-1.9,0.5-1.9,0.5l1.3,4.9c0,0,0.7-0.2,1.8-0.5c0.6-0.1,1.2-0.3,1.9-0.5c0.7-0.2,1.4-0.4,2.2-0.6
									C448.4,209,451.4,208.3,451.4,208.3z"/>
							</g>
							<g>
								<path class="st4" d="M469.2,205l-0.7-5.1c0,0-0.2,0-0.5,0.1c-0.3,0-0.8,0.1-1.4,0.2c-1.2,0.2-2.7,0.4-4.2,0.6
									c-0.8,0.1-1.5,0.3-2.3,0.4c-0.7,0.1-1.4,0.2-2,0.4c-1.2,0.2-1.9,0.4-1.9,0.4l1,5c0,0,0.7-0.1,1.9-0.4
									c0.6-0.1,1.2-0.2,1.9-0.3c0.7-0.1,1.5-0.2,2.2-0.4c1.5-0.2,3-0.5,4.1-0.6c0.6-0.1,1-0.1,1.4-0.2
									C469,205.1,469.2,205,469.2,205z"/>
							</g>
							<g>
								<path class="st4" d="M487.2,203.3l-0.3-5.1c0,0-0.8,0-1.9,0.1c-1.2,0.1-2.7,0.2-4.3,0.3c-1.5,0.1-3.1,0.3-4.3,0.4
									c-1.2,0.1-1.9,0.2-1.9,0.2l0.5,5.1c0,0,0.8-0.1,1.9-0.2c1.1-0.1,2.7-0.2,4.2-0.4c1.5-0.1,3-0.2,4.2-0.3
									C486.5,203.3,487.2,203.3,487.2,203.3z"/>
							</g>
							<g>
								<path class="st4" d="M505.4,202.8l0-5.1c0,0-0.8,0-1.9,0c-1.2,0-2.7,0-4.3,0c-1.6,0-3.1,0.1-4.3,0.1c-0.6,0-1.1,0-1.4,0
									c-0.3,0-0.5,0-0.5,0l0.2,5.1c0,0,0.2,0,0.5,0c0.3,0,0.8,0,1.4,0c1.1,0,2.7-0.1,4.2-0.1c1.5,0,3,0,4.2,0
									C504.6,202.8,505.4,202.8,505.4,202.8z"/>
							</g>
							<g>
								<path class="st4" d="M523.5,203.6l0.4-5.1c0,0-0.8-0.1-1.9-0.2c-1.2-0.1-2.7-0.2-4.3-0.3c-0.4,0-0.8,0-1.2-0.1
									c-0.4,0-0.8,0-1.1,0c-0.7,0-1.4-0.1-2-0.1c-0.6,0-1.1,0-1.4-0.1c-0.3,0-0.5,0-0.5,0l-0.2,5.1c0,0,0.2,0,0.5,0
									c0.3,0,0.8,0,1.4,0.1c0.6,0,1.2,0.1,2,0.1c0.4,0,0.7,0,1.1,0c0.4,0,0.8,0,1.1,0.1c1.5,0.1,3,0.2,4.2,0.3
									C522.8,203.6,523.5,203.6,523.5,203.6z"/>
							</g>
							<g>
								<path class="st4" d="M541.6,205.7l0.8-5c0,0-0.8-0.1-1.9-0.3c-1.2-0.2-2.7-0.4-4.2-0.6c-1.5-0.2-3.1-0.4-4.2-0.5
									c-1.2-0.1-1.9-0.2-1.9-0.2l-0.5,5.1c0,0,0.8,0.1,1.9,0.2c1.1,0.1,2.6,0.3,4.2,0.5c1.5,0.2,3,0.4,4.2,0.6
									C540.8,205.6,541.6,205.7,541.6,205.7z"/>
							</g>
							<g>
								<path class="st4" d="M559.4,209.1l1.1-5c0,0-0.2,0-0.5-0.1c-0.3-0.1-0.8-0.2-1.4-0.3c-1.1-0.2-2.7-0.6-4.2-0.9
									c-1.5-0.3-3.1-0.6-4.2-0.8c-0.6-0.1-1.1-0.2-1.4-0.3c-0.2,0-0.3-0.1-0.4-0.1c-0.1,0-0.1,0-0.1,0l-0.9,5c0,0,0,0,0.1,0
									c0.1,0,0.2,0,0.4,0.1c0.3,0.1,0.8,0.2,1.4,0.3c1.1,0.2,2.6,0.5,4.1,0.8c1.5,0.3,3,0.6,4.1,0.9c0.6,0.1,1,0.2,1.3,0.3
									C559.2,209.1,559.4,209.1,559.4,209.1z"/>
							</g>
						</g>
					</g>
					<g>
						<g>
							<g>
								<path class="st4" d="M576.9,213.9l1.5-4.9c0,0-0.7-0.3-1.9-0.6c-1.1-0.3-2.6-0.8-4.1-1.2c-0.7-0.2-1.5-0.4-2.2-0.6
									c-0.7-0.2-1.4-0.4-1.9-0.5c-1.1-0.3-1.9-0.5-1.9-0.5l-1.3,4.9c0,0,0.7,0.2,1.8,0.5c0.6,0.1,1.2,0.3,1.9,0.5
									c0.7,0.2,1.4,0.4,2.2,0.6c1.5,0.4,2.9,0.9,4,1.2C576.2,213.7,576.9,213.9,576.9,213.9z"/>
							</g>
							<g>
								<path class="st4" d="M593.9,220l1.9-4.7c0,0-0.2-0.1-0.5-0.2c-0.3-0.1-0.8-0.3-1.3-0.5c-1.1-0.4-2.5-1-4-1.6
									c-1.5-0.6-2.9-1.1-4-1.5c-1.1-0.4-1.8-0.7-1.8-0.7l-1.7,4.8c0,0,0.7,0.3,1.8,0.6c1.1,0.4,2.5,0.9,3.9,1.4
									c1.4,0.6,2.8,1.1,3.9,1.5c0.5,0.2,1,0.4,1.3,0.5C593.8,220,593.9,220,593.9,220z"/>
							</g>
							<g>
								<path class="st4" d="M610.4,227.6l2.3-4.5c0,0-0.7-0.3-1.7-0.9c-0.5-0.3-1.1-0.6-1.8-0.9c-0.3-0.2-0.7-0.3-1-0.5
									c-0.2-0.1-0.3-0.2-0.5-0.3c-0.2-0.1-0.4-0.2-0.5-0.2c-1.4-0.7-2.8-1.3-3.9-1.8c-0.5-0.2-1-0.4-1.3-0.6
									c-0.3-0.1-0.5-0.2-0.5-0.2l-2.1,4.7c0,0,0.2,0.1,0.5,0.2c0.3,0.1,0.7,0.3,1.3,0.6c1,0.5,2.4,1.1,3.8,1.7
									c0.2,0.1,0.3,0.2,0.5,0.2c0.2,0.1,0.3,0.2,0.5,0.3c0.3,0.2,0.7,0.3,1,0.5c0.6,0.3,1.2,0.6,1.7,0.9
									C609.7,227.3,610.4,227.6,610.4,227.6z"/>
							</g>
							<g>
								<path class="st4" d="M626.2,236.5l2.7-4.3c0,0-0.7-0.4-1.7-1c-0.5-0.3-1.1-0.7-1.7-1c-0.6-0.4-1.3-0.8-2-1.1
									c-1.3-0.8-2.7-1.6-3.7-2.1c-1-0.6-1.7-0.9-1.7-0.9l-2.4,4.5c0,0,0.7,0.4,1.7,0.9c1,0.6,2.3,1.3,3.6,2.1
									c0.7,0.4,1.3,0.8,1.9,1.1c0.6,0.4,1.2,0.7,1.7,1C625.5,236.1,626.2,236.5,626.2,236.5z"/>
							</g>
							<g>
								<path class="st4" d="M641.1,246.8l3.1-4.1c0,0-0.2-0.1-0.4-0.3c-0.3-0.2-0.7-0.5-1.1-0.8c-0.9-0.7-2.2-1.6-3.5-2.5
									c-1.3-0.9-2.6-1.8-3.5-2.4c-1-0.7-1.6-1.1-1.6-1.1l-2.8,4.3c0,0,0.6,0.4,1.6,1.1c0.9,0.6,2.2,1.5,3.4,2.4
									c1.2,0.9,2.5,1.8,3.4,2.4c0.5,0.3,0.8,0.6,1.1,0.8C641,246.6,641.1,246.8,641.1,246.8z"/>
							</g>
							<g>
								<path class="st4" d="M655.2,258.2l3.4-3.8c0,0-0.6-0.5-1.5-1.3c-0.4-0.4-0.9-0.8-1.5-1.3c-0.6-0.5-1.2-1-1.8-1.5
									c-1.2-1-2.4-2-3.3-2.7c-0.5-0.4-0.8-0.7-1.1-0.9c-0.3-0.2-0.4-0.3-0.4-0.3l-3.2,4c0,0,0.2,0.1,0.4,0.3
									c0.3,0.2,0.6,0.5,1.1,0.9c0.9,0.7,2.1,1.7,3.2,2.7c0.6,0.5,1.2,1,1.7,1.4c0.5,0.5,1,0.9,1.5,1.3
									C654.6,257.7,655.2,258.2,655.2,258.2z"/>
							</g>
							<g>
								<path class="st4" d="M668.2,270.8l3.7-3.5c0,0-2.2-2.2-4.4-4.4c-0.3-0.3-0.5-0.6-0.8-0.8c-0.3-0.3-0.6-0.5-0.8-0.8
									c-0.5-0.5-1-1-1.4-1.4c-0.8-0.8-1.4-1.3-1.4-1.3l-3.5,3.7c0,0,0.6,0.5,1.4,1.3c0.4,0.4,0.9,0.9,1.4,1.3
									c0.3,0.2,0.5,0.5,0.8,0.8c0.3,0.3,0.5,0.5,0.8,0.8C666.1,268.6,668.2,270.8,668.2,270.8z"/>
							</g>
						</g>
					</g>
					<g>
						<g>
							<g>
								<path class="st4" d="M680.2,284.4l3.9-3.2c0,0-0.1-0.2-0.3-0.4c-0.1-0.1-0.2-0.3-0.4-0.5c-0.2-0.2-0.3-0.4-0.5-0.6
									c-0.8-0.9-1.8-2.1-2.8-3.3c-0.5-0.6-1-1.2-1.5-1.7c-0.2-0.3-0.5-0.5-0.7-0.8c-0.2-0.2-0.4-0.5-0.6-0.7
									c-0.8-0.9-1.3-1.4-1.3-1.4l-3.8,3.4c0,0,0.5,0.6,1.3,1.4c0.2,0.2,0.4,0.4,0.6,0.7c0.2,0.2,0.4,0.5,0.7,0.8
									c0.5,0.5,1,1.1,1.5,1.7c1,1.2,2,2.3,2.7,3.2c0.2,0.2,0.4,0.4,0.5,0.6c0.1,0.2,0.3,0.3,0.4,0.5
									C680.1,284.3,680.2,284.4,680.2,284.4z"/>
							</g>
							<g>
								<path class="st4" d="M691.2,298.9l4.2-2.9c0,0-0.4-0.6-1.1-1.6c-0.3-0.5-0.7-1-1.2-1.6c-0.4-0.6-0.9-1.2-1.4-1.8
									c-0.9-1.2-1.9-2.5-2.6-3.4c-0.3-0.5-0.6-0.8-0.9-1.1c-0.2-0.3-0.3-0.4-0.3-0.4l-4,3.1c0,0,0.1,0.1,0.3,0.4
									c0.2,0.3,0.5,0.6,0.8,1.1c0.7,0.9,1.6,2.1,2.5,3.4c0.5,0.6,0.9,1.2,1.3,1.8c0.4,0.6,0.8,1.1,1.2,1.6
									C690.8,298.2,691.2,298.9,691.2,298.9z"/>
							</g>
							<g>
								<path class="st4" d="M701.2,314.1l4.4-2.7c0,0-0.4-0.7-1-1.7c-0.2-0.2-0.3-0.5-0.5-0.8c-0.2-0.3-0.4-0.6-0.6-0.9
									c-0.4-0.6-0.8-1.3-1.2-1.9c-0.8-1.3-1.7-2.6-2.3-3.6c-0.3-0.5-0.6-0.9-0.8-1.2c-0.2-0.3-0.3-0.4-0.3-0.4l-4.2,2.8
									c0,0,0.1,0.2,0.3,0.4c0.2,0.3,0.4,0.7,0.7,1.2c0.6,1,1.4,2.2,2.3,3.5c0.4,0.6,0.8,1.3,1.2,1.9c0.2,0.3,0.4,0.6,0.6,0.9
									c0.2,0.3,0.3,0.5,0.5,0.8C700.8,313.4,701.2,314.1,701.2,314.1z"/>
							</g>
							<g>
								<path class="st4" d="M710.1,329.9l4.5-2.4c0,0-0.4-0.7-0.9-1.7c-0.5-1-1.3-2.4-2.1-3.7c-0.8-1.4-1.5-2.7-2.1-3.7
									c-0.3-0.5-0.5-0.9-0.7-1.2c-0.2-0.3-0.3-0.5-0.3-0.5l-4.4,2.6c0,0,0.1,0.2,0.3,0.4c0.2,0.3,0.4,0.7,0.7,1.2
									c0.6,1,1.3,2.3,2,3.7c0.7,1.3,1.5,2.7,2,3.7C709.8,329.2,710.1,329.9,710.1,329.9z"/>
							</g>
							<g>
								<path class="st4" d="M718.2,346.2l4.6-2.1c0,0-0.1-0.2-0.2-0.5c-0.1-0.3-0.4-0.7-0.6-1.3c-0.5-1.1-1.2-2.4-1.8-3.9
									c-0.7-1.4-1.3-2.8-1.8-3.8c-0.2-0.5-0.5-1-0.6-1.3c-0.2-0.3-0.2-0.5-0.2-0.5l-4.6,2.3c0,0,0.1,0.2,0.2,0.5
									c0.1,0.3,0.4,0.7,0.6,1.2c0.5,1,1.2,2.4,1.8,3.8c0.7,1.4,1.3,2.8,1.8,3.8c0.2,0.5,0.5,0.9,0.6,1.3
									C718.1,346,718.2,346.2,718.2,346.2z"/>
							</g>
							<g>
								<path class="st4" d="M725.3,363l4.7-1.9c0,0-1.2-2.9-2.3-5.7c-0.3-0.7-0.6-1.4-0.9-2.1c-0.3-0.7-0.6-1.3-0.8-1.8
									c-0.5-1.1-0.8-1.8-0.8-1.8l-4.7,2c0,0,0.3,0.7,0.8,1.7c0.2,0.5,0.5,1.1,0.8,1.8c0.3,0.7,0.6,1.4,0.8,2.1
									C724.1,360.1,725.3,363,725.3,363z"/>
							</g>
							<g>
								<path class="st4" d="M731.6,380.1l4.8-1.7c0,0-0.2-0.7-0.6-1.8c-0.2-0.5-0.4-1.2-0.6-1.9c-0.2-0.7-0.5-1.4-0.8-2.1
									c-1.1-2.9-2.2-5.8-2.2-5.8l-4.8,1.8c0,0,1.1,2.9,2.1,5.7c0.3,0.7,0.5,1.4,0.7,2.1c0.2,0.7,0.4,1.3,0.6,1.9
									C731.3,379.3,731.6,380.1,731.6,380.1z"/>
							</g>
						</g>
					</g>
				</g>
			</g>
		</g>
		<g>
			<path class="st4" d="M506.7,730c-3.8,0-6.1-0.1-6.7-0.2c-49-0.6-93.2-10.6-131.2-29.6c-30.5-15.3-57.1-36.5-79.2-62.9
				c-19.6-23.5-31.8-46.9-38.6-62.4c-7.4-16.9-10.2-28.1-10.3-28.6l9.3-2.2c0,0,0,0,0,0l0,0c0.1,0.2,2.8,11.2,9.9,27.3
				c6.6,14.9,18.4,37.5,37.3,60.1c33.3,39.8,95.5,87.6,203,88.8l0.3,0c0.1,0,11.7,0.7,29.9-1.2c16.7-1.7,42.6-6.1,70.9-17
				C651,683,717.9,639.3,753.8,540.3l9,3.3c-16.4,45.3-40.5,83.2-71.5,112.9c-24.8,23.7-54.1,42.2-87,54.8
				c-29.2,11.2-56,15.7-73.3,17.5C520.5,729.8,512.1,730,506.7,730z"/>
		</g>
		<g>
			<path class="st4" d="M506.6,743.4c-4.2,0-6.7-0.1-7-0.2c-52.3-0.6-99.3-11.2-139.8-31.5c-32.4-16.3-60.7-38.8-84.1-66.9
				c-20.8-25-33.8-49.9-41.1-66.3c-7.9-17.9-10.8-30-10.9-30.2l2.8-0.7c0,0.1,3,12.1,10.7,29.8c7.2,16.3,20.1,40.9,40.7,65.7
				c36.4,43.6,104.4,95.9,221.7,97.3l0.1,0c0.1,0,12.8,0.8,32.6-1.2c18.3-1.9,46.5-6.6,77.3-18.5c54.4-20.9,127.5-68.5,166.8-176.7
				l2.7,1c-17.5,48.2-43.1,88.6-76.1,120.2c-26.4,25.2-57.5,44.8-92.5,58.3c-31.1,12-59.6,16.7-78.1,18.6
				C521.3,743.1,512.3,743.4,506.6,743.4z"/>
		</g>
		<g id="XMLID_3_">
			<g>
				<g>
					<polygon class="st5" points="627.1,179.8 502.7,554 486.8,554 605.4,179.8 					"/>
				</g>
				<g>
					<polygon class="st5" points="605.4,179.8 486.8,554 502.7,554 509.9,554 546.7,554 382.1,857.3 439.9,615.6 427.6,615.6 
						412.9,615.6 491.5,179.8 					"/>
				</g>
				<g>
					<polygon class="st5" points="568.4,554 356,928.1 364.9,888.9 382.1,857.3 546.7,554 					"/>
				</g>
				<g>
					<polygon class="st5" points="491.5,179.8 412.9,615.6 398.2,615.6 475.7,179.8 					"/>
				</g>
				<g>
					<polygon class="st5" points="439.9,615.6 382.1,857.3 364.9,888.9 427.6,615.6 					"/>
				</g>
			</g>
			<g>
				<g>
					<path class="st5" d="M284.2,1112.6L337,882.5l54.6-238.2H364l87.7-493.2h215.3L542.5,525.3h75.2L284.2,1112.6z M432.5,586.9
						h31.1l-35.9,156.8l91.4-161h-9.3v-26.3l-34.4-11.4l111.9-336.4h-87.6L432.5,586.9z"/>
				</g>
				<g>
					
						<rect x="230.8" y="369" transform="matrix(0.1777 -0.9841 0.9841 0.1777 -19.5696 772.0581)" class="st5" width="442.8" height="57.4"/>
				</g>
				<g>
					<polygon class="st5" points="390.2,902.6 339.7,875.2 356.9,843.6 521.5,540.3 571.9,567.6 407.4,870.9 					"/>
				</g>
				<g>
					<polygon class="st5" points="509.9,582.7 447.6,582.7 578,171.2 632.8,188.5 514.2,562.6 509.9,561.3 					"/>
				</g>
				<g>
					<polygon class="st5" points="410.1,863.9 354.2,850.6 412,608.9 427.6,612.6 427.6,586.9 476.3,586.9 					"/>
				</g>
			</g>
		</g>
		<g id="XMLID_1_">
			<g>
				<g>
					<g>
						<polygon class="st4" points="628.5,187.8 505.6,555.4 486.8,555.4 607,187.8 						"/>
					</g>
					<g>
						<polygon class="st4" points="607,187.8 486.8,555.4 505.6,555.4 509.8,555.4 549.1,555.4 386.6,853.5 443.6,616 431.5,616 
							417,616 494.6,187.8 						"/>
					</g>
					<g>
						<polygon class="st4" points="570.5,555.4 360.8,923.1 369.6,884.6 386.6,853.5 549.1,555.4 						"/>
					</g>
					<g>
						<polygon class="st4" points="494.6,187.8 417,616 402.5,616 479,187.8 						"/>
					</g>
					<g>
						<polygon class="st4" points="443.6,616 386.6,853.5 369.6,884.6 431.5,616 						"/>
					</g>
				</g>
				<g>
					<g>
						<polyline class="st4" points="505.6,555.4 628.5,187.8 607,187.8 494.6,187.8 479,187.8 402.5,616 417,616 431.5,616 
							369.6,884.6 360.8,923.1 570.5,555.4 549.1,555.4 509.8,555.4 						"/>
					</g>
					<g>
						<line class="st7" x1="417" y1="616" x2="494.6" y2="187.8"/>
					</g>
					<g>
						<polyline class="st4" points="549.1,555.4 386.6,853.5 369.6,884.6 						"/>
					</g>
					<g>
						<polyline class="st4" points="607,187.8 486.8,555.4 505.6,555.4 509.8,555.4 						"/>
					</g>
					<g>
						<polyline class="st4" points="431.5,616 443.6,616 386.6,853.5 						"/>
					</g>
				</g>
			</g>
			<g>
				<g>
					<g>
						<polygon class="st4" points="628.5,187.8 505.6,555.4 486.8,555.4 607,187.8 						"/>
					</g>
					<g>
						<polygon class="st5" points="607,187.8 486.8,555.4 505.6,555.4 509.8,555.4 549.1,555.4 386.6,853.5 443.6,616 431.5,616 
							417,616 494.6,187.8 						"/>
					</g>
					<g>
						<polygon class="st4" points="570.5,555.4 360.8,923.1 369.6,884.6 386.6,853.5 549.1,555.4 						"/>
					</g>
					<g>
						<polygon class="st5" points="494.6,187.8 417,616 402.5,616 479,187.8 						"/>
					</g>
					<g>
						<polygon class="st5" points="443.6,616 386.6,853.5 369.6,884.6 431.5,616 						"/>
					</g>
				</g>
				<g>
					<g>
						<polygon class="st4" points="354.8,938.4 367.3,884 428.4,618.4 399.6,618.4 400.1,615.6 477,185.4 631.8,185.4 507.9,556.2 
							503.4,554.7 625.1,190.2 481,190.2 405.4,613.6 434.5,613.6 366.8,907.7 566.4,557.8 509.8,557.8 509.8,553 574.6,553 						
							"/>
					</g>
					<g>
						
							<rect x="238.2" y="399.5" transform="matrix(0.1785 -0.9839 0.9839 0.1785 -20.9789 778.5761)" class="st4" width="435.2" height="4.8"/>
					</g>
					<g>
						<polygon class="st4" points="371.7,885.7 367.5,883.4 384.5,852.3 547,554.3 551.2,556.6 388.7,854.6 						"/>
					</g>
					<g>
						<polygon class="st4" points="509.8,557.8 483.5,557.8 604.7,187 609.3,188.5 490.1,553 509.8,553 						"/>
					</g>
					<g>
						<polygon class="st4" points="388.9,854 384.3,852.9 440.6,618.4 431.5,618.4 431.5,613.6 446.7,613.6 						"/>
					</g>
				</g>
			</g>
			<g>
				<g>
					<g>
						<path class="st4" d="M507,557.3h-22.8l121.4-371.5h25.5L507,557.3z M489.5,553.5h14.8l121.5-363.8h-17.4L489.5,553.5z"/>
					</g>
					<g>
						<path class="st4" d="M381.4,867.1l59.8-249.2h-26.5l78.4-432h116.6l-0.8,2.5L489.5,553.5h62.8l-1.5,2.8l-162.5,298
							L381.4,867.1z M419.2,614.1H446l-54.2,225.8l154-282.5h-61.6l120.2-367.6H496.2L419.2,614.1z"/>
					</g>
					<g>
						<path class="st4" d="M356,935.3l11.8-51.4l0.1-0.2l17-31.1l163-299h25.9l-1.6,2.9L356,935.3z M371.4,885.3l-5.9,25.5
							l201.7-353.5h-17l-161.9,297L371.4,885.3z"/>
					</g>
					<g>
						<path class="st4" d="M418.6,617.9h-18.3l77.2-432h19.5L418.6,617.9z M404.8,614.1h10.6l77-424.4h-11.8L404.8,614.1z"/>
					</g>
					<g>
						<path class="st4" d="M364.7,897.7l65.3-283.7H446l-57.6,240.1l-0.1,0.2L364.7,897.7z M433,617.9l-58.3,253.5l10.2-18.7
							l56.4-234.9L433,617.9L433,617.9z"/>
					</g>
				</g>
				<g>
					<g>
						<polygon class="st4" points="356,935.3 367.8,884.1 429.1,617.9 400.2,617.9 477.4,185.9 631.1,185.9 507.5,556 503.8,554.8 
							625.8,189.7 480.6,189.7 404.8,614.1 433.9,614.1 433.3,616.4 371.5,885 365.6,910.8 567.2,557.3 509.8,557.3 509.8,553.5 
							573.8,553.5 						"/>
					</g>
					<g>
						
							<rect x="238.2" y="400" transform="matrix(0.1785 -0.9839 0.9839 0.1785 -21.0256 778.5637)" class="st4" width="435.2" height="3.8"/>
					</g>
					<g>
						<polygon class="st4" points="371.3,885.5 368,883.7 384.9,852.5 547.4,554.5 550.7,556.3 388.3,854.4 						"/>
					</g>
					<g>
						<polygon class="st4" points="509.8,557.3 484.2,557.3 605.2,187.2 608.8,188.4 489.5,553.5 509.8,553.5 						"/>
					</g>
					<g>
						<polygon class="st4" points="388.5,853.9 384.7,853 441.2,617.9 431.5,617.9 431.5,614.1 446,614.1 						"/>
					</g>
				</g>
			</g>
		</g>
		<g>
			<rect x="62.4" y="388" class="st5" width="858.2" height="156.5"/>
			<path class="st5" d="M921.1,544.9H61.9V387.5h859.2V544.9z M62.9,544h857.3V388.5H62.9L62.9,544L62.9,544z"/>
		</g>
		<g>
			<path class="st4" d="M915.9,523.8H90.7v-130h825.1V523.8z M104.1,510.4h798.3V407.2H104.1V510.4z"/>
		</g>
		<g>
			<rect x="99.6" y="495.5" class="st4" width="811.7" height="4.8"/>
		</g>
		<g>
			<path class="st4" d="M789.3,385.3c-37-151-130.7-204.2-202.7-222.3c-40.8-10.2-79.2-10.5-104.3-8.9c-27.1,1.7-44.8,5.9-45,5.9
				c-101.2,23.1-156.8,83.1-185.6,129.3c-16.3,26.2-26,50.9-31.2,66.9c-5.7,17.4-7.5,28.7-7.5,28.8l-2.8-0.4
				c0-0.1,1.9-11.7,7.6-29.3c5.3-16.2,15-41.1,31.5-67.6c18.5-29.7,41.6-55.3,68.6-76.1c33.7-25.9,73.7-44.3,118.8-54.6
				c0.2,0,18-4.3,45.4-6c16-1,32.2-1,48,0.1c19.7,1.3,39,4.3,57.2,8.9c46.4,11.6,86.4,33.2,118.9,64.4c19.3,18.5,36.1,40.5,50,65.6
				c15.3,27.5,27.4,59.3,36,94.4L789.3,385.3z"/>
		</g>
		<g>
			<rect x="81.6" y="383.7" class="st4" width="3.8" height="75.8"/>
		</g>
		<g>
			<rect x="84.8" y="383.7" class="st4" width="152.1" height="3.8"/>
		</g>
		<g>
			<rect x="68" y="374.4" class="st4" width="3.8" height="90.3"/>
		</g>
		<g>
			<rect x="69.9" y="374.4" class="st4" width="70.1" height="3.8"/>
		</g>
		<g>
			<rect x="921.6" y="383.8" class="st4" width="3.8" height="75.8"/>
		</g>
		<g>
			<rect x="934.2" y="374" class="st4" width="3.8" height="90.3"/>
		</g>
		<g>
			<rect x="866" y="374" class="st4" width="70.1" height="3.8"/>
		</g>
		<g>
			<polygon class="st4" points="252,552.1 75.1,552.1 75.1,539.9 248.6,540.2 			"/>
			<path class="st4" d="M252.6,552.5h-178v-13.1l174.3,0.3L252.6,552.5z M75.6,551.6h175.7l-3.1-10.9l-172.7-0.3L75.6,551.6
				L75.6,551.6z"/>
		</g>
		<g>
			<rect x="769.5" y="383.8" class="st4" width="152.1" height="3.8"/>
		</g>
		<g>
			<g>
				<path class="st4" d="M766.2,387.6c-27.1-110.7-89.5-179.8-184.9-203.7c-71.5-18-136-3-136.6-2.8
					c-92.3,21.1-143,75.7-169.3,117.7c-28.6,45.8-35.7,88.3-35.8,88.7l-9.4-0.1c0.3-1.8,7.3-46,36.8-93.4
					c17.4-27.8,39-51.8,64.3-71.3c31.6-24.3,69-41.5,111.2-51.1c2.7-0.6,67.1-15.7,140.8,2.8c43.5,10.9,81,31.2,111.5,60.4
					c38,36.4,66,89.9,81.4,152.7L766.2,387.6L766.2,387.6z"/>
			</g>
		</g>
		<g>
			<g>
				<line class="st7" x1="374.3" y1="695" x2="356.5" y2="773"/>
			</g>
			<g>
				<polygon class="st4" points="361.2,776.7 351.2,771.8 369,693.8 379.6,696.2 				"/>
			</g>
		</g>
		<g>
			<g>
				<line class="st7" x1="512.1" y1="723.6" x2="468.5" y2="800.3"/>
			</g>
			<g>
				<polygon class="st4" points="473.8,803.3 460.1,802.9 506.8,720.6 517.4,726.5 				"/>
			</g>
		</g>
		<g>
			<rect x="69.1" y="481.9" class="st4" width="12.1" height="70.2"/>
			<path class="st4" d="M81.7,552.5H68.6v-71.1h13.1V552.5z M69.5,551.6h11.2v-69.2H69.5V551.6z"/>
		</g>
		<g>
			<polygon class="st4" points="415.5,554 265.3,555.4 259.7,539.9 418.3,540.2 			"/>
			<path class="st4" d="M265,555.9l-6-16.4l0.7,0l159.2,0.3l-3,14.7L265,555.9z M260.4,540.4l5.3,14.5l149.4-1.5l2.6-12.8
				L260.4,540.4z"/>
		</g>
		<g>
			<g>
				<rect x="498" y="511.4" class="st4" width="174.6" height="11.1"/>
			</g>
			<g>
				<path class="st4" d="M673.1,522.9H497.5v-12h175.6V522.9z M498.5,522h173.7v-10.1H498.5V522z"/>
			</g>
		</g>
		<g>
			<polygon class="st4" points="750.3,551.3 927,551.3 927,539.1 754.1,539.1 			"/>
			<path class="st4" d="M927.5,551.7H749.7l4.1-13.1h173.7V551.7z M751,550.8h175.6v-11.2h-172L751,550.8z"/>
		</g>
		<g>
			<rect x="923.8" y="481.1" class="st4" width="12.1" height="70.2"/>
			<path class="st4" d="M936.4,551.7h-13.1v-71.1h13.1V551.7z M924.3,550.8h11.2v-69.2h-11.2V550.8z"/>
		</g>
		<g>
			<polygon class="st4" points="574.8,552.2 739,554 744.6,538.2 582.9,538.2 			"/>
			<path class="st4" d="M739.3,554.4l-0.3,0l-165-1.8l8.6-15h162.6L739.3,554.4z M575.6,551.7l163,1.7l5.2-14.8H583.2L575.6,551.7z"
				/>
		</g>
		<g>
			<path class="st5" d="M607,181.4c0,0,21.6,8,38,17.1c16.4,9.1,4.3-7.8,4.3-7.8l-23.9-14.4l-18.4,4.5"/>
		</g>
		<g>
			<path class="st4" d="M661.5,151c0,0,3,1.6,5.5,3.1l0.9-3.6L661.5,151z"/>
		</g>
		<g>
			<g>
				<path class="st4" d="M140.3,416.7v55c0,8.6-3.7,12.8-11,12.8h-7.7c-7.2,0-10.9-4.3-10.9-12.9v-54.9h9.1v55.2c0,3,1.3,4.4,4,4.4
					h3.7c2.5,0,3.7-1.5,3.7-4.4v-55.2L140.3,416.7L140.3,416.7z"/>
				<path class="st4" d="M129.3,485h-7.7c-7.5,0-11.3-4.5-11.3-13.4v-55.4h10v55.7c0,2.7,1.1,4,3.5,4h3.7c1.4,0,3.2-0.4,3.2-4v-55.7
					h10v55.5C140.8,480.5,136.9,485,129.3,485z M111.3,417.2v54.4c0,8.4,3.4,12.5,10.4,12.5h7.7c7.1,0,10.5-4,10.5-12.4v-54.5h-8.1
					v54.7c0,4.1-2.3,4.9-4.2,4.9h-3.7c-2,0-4.4-0.9-4.4-4.9v-54.7L111.3,417.2L111.3,417.2z"/>
			</g>
			<g>
				<path class="st4" d="M167.2,456.6l8.4-39.9h10v67.8h-9.1l0.9-44.4l-6.8,32.1h-7l-6.8-32.1l0.9,44.4h-9.1v-67.8h10L167.2,456.6z"
					/>
				<path class="st4" d="M186.1,485h-10l0.8-39.8l-5.8,27.5h-7.8l-5.8-27.5l0.8,39.8h-10v-68.8h10.9l8,38l8-38h10.9L186.1,485
					L186.1,485z M177,484.1h8.1v-66.9H176l-8.8,41.7l-8.8-41.7h-9.1v66.9h8.1l-0.9-43.9l0.9-0.1l6.7,31.7h6.2L177,440l0.9,0.1
					L177,484.1z"/>
			</g>
			<g>
				<path class="st4" d="M194.1,484.5v-67.8h22.5v8.2h-13.4v20.6h11.9v8.2h-11.9v22.6h13.4v8.2L194.1,484.5L194.1,484.5z"/>
				<path class="st4" d="M217.1,485h-23.4v-68.8h23.4v9.2h-13.4V445h11.9v9.2h-11.9v21.6h13.4V485z M194.6,484.1h21.5v-7.3h-13.4
					v-23.5h11.9V446h-11.9v-21.6h13.4v-7.3h-21.5V484.1z"/>
			</g>
			<g>
				<path class="st4" d="M223.1,484.5v-67.8h9.1v67.8H223.1z"/>
				<path class="st4" d="M232.7,485h-10v-68.8h10V485z M223.6,484.1h8.1v-66.9h-8.1V484.1z"/>
			</g>
			<g>
				<path class="st4" d="M282.9,468.7v4.3c0,7.7-3.6,11.5-10.9,11.5h-5.9c-7.2,0-10.9-3.8-10.9-11.5v-44.8c0-7.7,3.6-11.5,10.9-11.5
					h5.9c7.2,0,10.9,3.8,10.9,11.5v7.7h-9.1v-7c0-2.6-1.4-4-4.1-4H268c-2.4,0-3.6,1.3-3.6,4v43.5c0,2.6,1.2,4,3.6,4h2.3
					c2.4,0,3.6-1.3,3.6-4v-3.7L282.9,468.7L282.9,468.7z"/>
				<path class="st4" d="M272.1,485h-5.9c-7.5,0-11.3-4-11.3-12v-44.8c0-8,3.8-12,11.3-12h5.9c7.5,0,11.3,4,11.3,12v8.1h-10v-7.5
					c0-2.4-1.1-3.5-3.6-3.5H268c-2.1,0-3.1,1.1-3.1,3.5v43.5c0,2.4,1,3.5,3.1,3.5h2.3c2.1,0,3.1-1.1,3.1-3.5v-4.2h10v4.8
					C283.4,481,279.6,485,272.1,485z M266.2,417.2c-7,0-10.4,3.6-10.4,11V473c0,7.4,3.4,11,10.4,11h5.9c7,0,10.4-3.6,10.4-11v-3.9
					h-8.1v3.2c0,3.7-2.2,4.4-4.1,4.4H268c-1.9,0-4.1-0.8-4.1-4.4v-43.5c0-3.7,2.2-4.4,4.1-4.4h1.8c3,0,4.5,1.5,4.5,4.4v6.5h8.1v-7.2
					c0-7.4-3.4-11-10.4-11L266.2,417.2L266.2,417.2z"/>
			</g>
			<g>
				<path class="st4" d="M310.2,484.5v-30.8h-11.1v30.8H290v-67.8h9.1v28.8h11.1v-28.8h9.1v67.8H310.2z"/>
				<path class="st4" d="M319.8,485h-10v-30.8h-10.2V485h-10v-68.8h10V445h10.2v-28.8h10V485z M310.7,484.1h8.1v-66.9h-8.1V446
					h-12.1v-28.8h-8.1v66.9h8.1v-30.8h12.1V484.1z"/>
			</g>
			<g>
				<path class="st4" d="M327.8,416.7h17.8c6.9,0,10.4,3.9,10.4,11.6v16.7c0,5.9-1.8,9.7-5.4,11.2l6.3,28.3h-8.6l-6-27.4h-5.5v27.4
					h-9.1L327.8,416.7L327.8,416.7z M336.9,449.4h6c2.7,0,4.1-1.6,4.1-4.9v-14.6c0-3.3-1.4-4.9-4.1-4.9h-6V449.4z"/>
				<path class="st4" d="M357.5,485h-9.6l-6-27.4h-4.6V485h-10v-68.8h18.2c7.2,0,10.9,4.1,10.9,12.1v16.7c0,5.9-1.8,9.8-5.3,11.5
					L357.5,485z M348.7,484.1h7.6L350,456l0.4-0.2c3.4-1.5,5.1-5.1,5.1-10.8v-16.7c0-7.5-3.2-11.1-9.9-11.1h-17.3v66.9h8.1v-27.4
					h6.3L348.7,484.1z M342.8,449.9h-6.4v-25.4h6.4c2.1,0,4.5,0.9,4.5,5.4v14.6C347.4,448.9,344.9,449.9,342.8,449.9z M337.4,448.9
					h5.5c2.4,0,3.6-1.4,3.6-4.4v-14.6c0-3-1.1-4.4-3.6-4.4h-5.5V448.9z"/>
			</g>
			<g>
				<path class="st4" d="M363.5,484.5v-67.8h9.1v67.8H363.5z"/>
				<path class="st4" d="M373.1,485h-10v-68.8h10V485z M364,484.1h8.1v-66.9H364V484.1z"/>
			</g>
			<g>
				<path class="st4" d="M398.5,434.9v-6c0-2.7-1.3-4.1-4-4.1h-1.4c-2.6,0-3.9,1.4-3.9,4.1v11.2c0,1.3,0.3,2.1,0.8,2.6
					c0.5,0.4,1.3,1,2.5,1.7l8.6,4.6c1.9,1.1,3.2,1.9,4,2.5c0.8,0.6,1.4,1.3,1.8,2.2c0.4,0.9,0.7,2.5,0.7,4.9v14.5
					c0,7.6-3.7,11.4-11,11.4H391c-7.2,0-10.9-4.2-10.9-12.5v-3.4h9.1v3.7c0,2.6,1.4,4,4.1,4h1.6c2.4,0,3.6-1.3,3.6-4v-11.5
					c0-1.3-0.3-2.1-0.8-2.6c-0.5-0.4-1.3-1-2.5-1.7l-8.6-4.8c-1.9-1-3.3-1.9-4.1-2.6c-0.9-0.7-1.5-1.6-1.8-2.7
					c-0.4-1.1-0.6-2.5-0.6-4.3v-13.9c0-7.7,3.6-11.6,10.9-11.6h5.7c7.2,0,10.9,3.9,10.9,11.6v6.6L398.5,434.9L398.5,434.9z"/>
				<path class="st4" d="M396.6,485H391c-7.5,0-11.3-4.4-11.3-13v-3.9h10v4.2c0,2.4,1.1,3.5,3.6,3.5h1.6c2.1,0,3.1-1.1,3.1-3.5
					v-11.5c0-1.1-0.2-1.9-0.6-2.2c-0.5-0.4-1.3-1-2.4-1.7l-8.6-4.8c-1.9-1-3.3-1.9-4.2-2.6c-0.9-0.7-1.6-1.7-2-2.9
					c-0.4-1.1-0.6-2.6-0.6-4.5v-13.9c0-8,3.8-12.1,11.3-12.1h5.7c7.5,0,11.3,4.1,11.3,12.1v7.1h-10V429c0-2.4-1.1-3.6-3.5-3.6h-1.4
					c-2.3,0-3.4,1.1-3.4,3.6v11.2c0,1.1,0.2,1.9,0.6,2.2c0.5,0.4,1.3,1,2.4,1.6l8.6,4.6c1.9,1.1,3.3,1.9,4.1,2.5
					c0.8,0.6,1.5,1.4,2,2.3c0.5,0.9,0.7,2.6,0.7,5.1v14.5C408,481,404.2,485,396.6,485z M380.6,469.2v2.9c0,8.1,3.4,12,10.4,12h5.6
					c7.1,0,10.5-3.6,10.5-11v-14.5c0-2.9-0.3-4.1-0.6-4.6c-0.4-0.8-1-1.5-1.7-2c-0.8-0.6-2.1-1.4-4-2.5l-8.6-4.6
					c-1.2-0.7-2-1.3-2.5-1.7c-0.6-0.5-0.9-1.5-0.9-2.9V429c0-3,1.5-4.5,4.4-4.5h1.4c2.9,0,4.4,1.6,4.4,4.5v5.5h8.1v-6.1
					c0-7.5-3.4-11.1-10.4-11.1H391c-7,0-10.4,3.6-10.4,11.1v13.9c0,1.7,0.2,3.1,0.5,4.1c0.3,1,0.9,1.8,1.7,2.5
					c0.8,0.7,2.2,1.5,4,2.5l8.6,4.8c1.2,0.7,2,1.3,2.5,1.8c0.6,0.5,0.9,1.5,0.9,2.9v11.5c0,3.7-2.2,4.4-4.1,4.4h-1.6
					c-3,0-4.5-1.5-4.5-4.4v-3.2L380.6,469.2L380.6,469.2z"/>
			</g>
			<g>
				<path class="st4" d="M429.6,424.9v59.6h-9.1v-59.6h-8.7v-8.2h26.5v8.2H429.6z"/>
				<path class="st4" d="M430.1,485h-10v-59.6h-8.7v-9.2h27.4v9.2h-8.7V485z M421,484.1h8.1v-59.6h8.7v-7.3h-25.5v7.3h8.7V484.1z"/>
			</g>
			<g>
				<path class="st4" d="M443.5,484.5v-67.8h9.1v67.8H443.5z"/>
				<path class="st4" d="M453,485h-10v-68.8h10V485z M443.9,484.1h8.1v-66.9h-8.1V484.1z"/>
			</g>
			<g>
				<path class="st4" d="M469.6,484.5h-9.1v-56.2c0-7.7,3.6-11.6,10.9-11.6h6.8c7.2,0,10.9,3.9,10.9,11.6v56.2H480v-24.8h-10.4
					L469.6,484.5L469.6,484.5z M480,451.5v-22.6c0-2.6-1.3-4-4-4h-2.5c-2.6,0-4,1.3-4,4v22.6H480z"/>
				<path class="st4" d="M489.6,485h-10v-24.8h-9.4V485h-10v-56.7c0-8,3.8-12.1,11.3-12.1h6.8c7.5,0,11.3,4.1,11.3,12.1L489.6,485
					L489.6,485z M480.5,484.1h8.1v-55.7c0-7.5-3.4-11.1-10.4-11.1h-6.8c-7,0-10.4,3.6-10.4,11.1v55.7h8.1v-24.8h11.3L480.5,484.1
					L480.5,484.1z M480.5,452h-11.4v-23.1c0-2.9,1.5-4.4,4.4-4.4h2.5c2.9,0,4.4,1.5,4.4,4.4L480.5,452L480.5,452z M470.1,451h9.4
					v-22.1c0-2.4-1.1-3.5-3.5-3.5h-2.5c-2.4,0-3.5,1.1-3.5,3.5L470.1,451L470.1,451z"/>
			</g>
			<g>
				<path class="st4" d="M515.9,449.5v-32.8h9.1v67.8h-9.1V471l-9.7-30.9v44.4h-9.1v-67.8h9.1L515.9,449.5z"/>
				<path class="st4" d="M525.5,485h-10v-13.9l-8.8-27.9V485h-10v-68.8h9.9l8.9,30v-30h10L525.5,485L525.5,485z M516.4,484.1h8.1
					v-66.9h-8.1v35.6l-10.6-35.6h-8.2v66.9h8.1v-47l10.7,33.9L516.4,484.1L516.4,484.1z"/>
			</g>
			<g>
				<path class="st4" d="M568.8,484.5v-30.8h-11.1v30.8h-9.1v-67.8h9.1v28.8h11.1v-28.8h9.1v67.8H568.8z"/>
				<path class="st4" d="M578.4,485h-10v-30.8h-10.2V485h-10v-68.8h10V445h10.2v-28.8h10V485z M569.3,484.1h8.1v-66.9h-8.1V446
					h-12.1v-28.8h-8.1v66.9h8.1v-30.8h12.1V484.1z"/>
			</g>
			<g>
				<path class="st4" d="M586.4,484.5v-67.8h9.1v67.8H586.4z"/>
				<path class="st4" d="M596,485h-10v-68.8h10V485z M586.9,484.1h8.1v-66.9h-8.1V484.1z"/>
			</g>
			<g>
				<path class="st4" d="M618,459.7v-8.2h13.8v33.1H614c-7,0-10.5-3.8-10.5-11.4v-44.8c0-7.7,3.5-11.6,10.5-11.6h6.2
					c7.7,0,11.5,3.9,11.5,11.8v7.4h-9.1v-6c0-3.3-1.3-4.9-3.9-4.9h-2.3c-2.6,0-4,1.6-4,4.9v41.6c0,3.3,1.3,4.9,4,4.9h6.1v-16.6
					L618,459.7L618,459.7z"/>
				<path class="st4" d="M632.2,485H614c-7.3,0-11-4-11-11.9v-44.8c0-8,3.7-12.1,11-12.1h6.2c8,0,12,4.1,12,12.3v7.8h-10v-6.5
					c0-4-1.9-4.4-3.4-4.4h-2.3c-1.5,0-3.5,0.5-3.5,4.4v41.6c0,4,2,4.4,3.5,4.4h5.7v-15.7h-4.7V451h14.8V485z M614,417.2
					c-6.7,0-10,3.6-10,11.1v44.8c0,7.4,3.3,11,10,11h17.3V452h-12.8v7.3h4.7v17.6h-6.6c-2,0-4.4-0.9-4.4-5.4v-41.6
					c0-4.5,2.4-5.4,4.4-5.4h2.3c2,0,4.4,0.9,4.4,5.4v5.6h8.1v-6.9c0-7.6-3.6-11.3-11-11.3L614,417.2L614,417.2z"/>
			</g>
			<g>
				<path class="st4" d="M659.3,484.5v-30.8h-11.1v30.8h-9.1v-67.8h9.1v28.8h11.1v-28.8h9.1v67.8H659.3z"/>
				<path class="st4" d="M668.9,485h-10v-30.8h-10.2V485h-10v-68.8h10V445h10.2v-28.8h10V485z M659.8,484.1h8.1v-66.9h-8.1V446
					h-12.1v-28.8h-8.1v66.9h8.1v-30.8h12.1V484.1z"/>
			</g>
			<g>
				<path class="st4" d="M709.4,434.9v-6c0-2.7-1.3-4.1-4-4.1H704c-2.6,0-3.9,1.4-3.9,4.1v11.2c0,1.3,0.3,2.1,0.8,2.6
					c0.5,0.4,1.3,1,2.5,1.7l8.6,4.6c1.9,1.1,3.2,1.9,4,2.5c0.8,0.6,1.4,1.3,1.8,2.2c0.4,0.9,0.7,2.5,0.7,4.9v14.5
					c0,7.6-3.7,11.4-11,11.4H702c-7.2,0-10.9-4.2-10.9-12.5v-3.4h9.1v3.7c0,2.6,1.4,4,4.1,4h1.6c2.4,0,3.6-1.3,3.6-4v-11.5
					c0-1.3-0.3-2.1-0.8-2.6c-0.5-0.4-1.3-1-2.5-1.7l-8.6-4.8c-1.9-1-3.3-1.9-4.1-2.6c-0.9-0.7-1.5-1.6-1.8-2.7
					c-0.4-1.1-0.6-2.5-0.6-4.3v-13.9c0-7.7,3.6-11.6,10.9-11.6h5.7c7.2,0,10.9,3.9,10.9,11.6v6.6L709.4,434.9L709.4,434.9z"/>
				<path class="st4" d="M707.5,485H702c-7.5,0-11.3-4.4-11.3-13v-3.9h10v4.2c0,2.4,1.1,3.5,3.6,3.5h1.6c2.1,0,3.1-1.1,3.1-3.5
					v-11.5c0-1.1-0.2-1.9-0.6-2.2c-0.5-0.4-1.3-1-2.4-1.7l-8.6-4.8c-1.9-1-3.3-1.9-4.2-2.6c-0.9-0.7-1.6-1.7-2-2.9
					c-0.4-1.1-0.6-2.6-0.6-4.5v-13.9c0-8,3.8-12.1,11.3-12.1h5.7c7.5,0,11.3,4.1,11.3,12.1v7.1h-10V429c0-2.4-1.1-3.6-3.5-3.6H704
					c-2.3,0-3.4,1.1-3.4,3.6v11.2c0,1.1,0.2,1.9,0.6,2.2c0.5,0.4,1.3,1,2.4,1.6l8.6,4.6c1.9,1.1,3.3,1.9,4.1,2.5
					c0.8,0.6,1.5,1.4,2,2.3c0.5,0.9,0.7,2.6,0.7,5.1v14.5C719,481,715.1,485,707.5,485z M691.6,469.2v2.9c0,8.1,3.4,12,10.4,12h5.6
					c7.1,0,10.5-3.6,10.5-11v-14.5c0-2.9-0.3-4.1-0.6-4.6c-0.4-0.8-1-1.5-1.7-2c-0.8-0.6-2.1-1.4-4-2.5l-8.6-4.6
					c-1.2-0.7-2-1.3-2.5-1.7c-0.6-0.5-0.9-1.5-0.9-2.9V429c0-3,1.5-4.5,4.4-4.5h1.4c2.9,0,4.4,1.6,4.4,4.5v5.5h8.1v-6.1
					c0-7.5-3.4-11.1-10.4-11.1H702c-7,0-10.4,3.6-10.4,11.1v13.9c0,1.7,0.2,3.1,0.5,4.1c0.3,1,0.9,1.8,1.7,2.5
					c0.8,0.7,2.2,1.5,4,2.5l8.6,4.8c1.2,0.7,2,1.3,2.5,1.8c0.6,0.5,0.9,1.5,0.9,2.9v11.5c0,3.7-2.2,4.4-4.1,4.4h-1.6
					c-3,0-4.5-1.5-4.5-4.4v-3.2L691.6,469.2L691.6,469.2z"/>
			</g>
			<g>
				<path class="st4" d="M753.2,468.7v4.3c0,7.7-3.6,11.5-10.9,11.5h-5.9c-7.2,0-10.9-3.8-10.9-11.5v-44.8c0-7.7,3.6-11.5,10.9-11.5
					h5.9c7.2,0,10.9,3.8,10.9,11.5v7.7h-9.1v-7c0-2.6-1.4-4-4.1-4h-1.8c-2.4,0-3.6,1.3-3.6,4v43.5c0,2.6,1.2,4,3.6,4h2.3
					c2.4,0,3.6-1.3,3.6-4v-3.7L753.2,468.7L753.2,468.7z"/>
				<path class="st4" d="M742.3,485h-5.9c-7.5,0-11.3-4-11.3-12v-44.8c0-8,3.8-12,11.3-12h5.9c7.5,0,11.3,4,11.3,12v8.1h-10v-7.5
					c0-2.4-1.1-3.5-3.6-3.5h-1.8c-2.1,0-3.1,1.1-3.1,3.5v43.5c0,2.4,1,3.5,3.1,3.5h2.3c2.1,0,3.1-1.1,3.1-3.5v-4.2h10v4.8
					C753.6,481,749.8,485,742.3,485z M736.4,417.2c-7,0-10.4,3.6-10.4,11V473c0,7.4,3.4,11,10.4,11h5.9c7,0,10.4-3.6,10.4-11v-3.9
					h-8.1v3.2c0,3.7-2.2,4.4-4.1,4.4h-2.3c-1.9,0-4.1-0.8-4.1-4.4v-43.5c0-3.7,2.2-4.4,4.1-4.4h1.8c3,0,4.5,1.5,4.5,4.4v6.5h8.1
					v-7.2c0-7.4-3.4-11-10.4-11L736.4,417.2L736.4,417.2z"/>
			</g>
			<g>
				<path class="st4" d="M780.5,484.5v-30.8h-11.1v30.8h-9.1v-67.8h9.1v28.8h11.1v-28.8h9.1v67.8H780.5z"/>
				<path class="st4" d="M790,485h-10v-30.8h-10.2V485h-10v-68.8h10V445H780v-28.8h10V485z M780.9,484.1h8.1v-66.9h-8.1V446h-12.1
					v-28.8h-8.1v66.9h8.1v-30.8h12.1V484.1z"/>
			</g>
			<g>
				<path class="st4" d="M808.5,484.5c-7.3,0-11-3.8-11-11.5v-44.7c0-7.7,3.6-11.6,10.9-11.6h8.7c7.2,0,10.9,3.9,10.9,11.6V473
					c0,7.7-3.7,11.5-11,11.5H808.5z M810.7,476.3h4.6c2.4,0,3.6-1.3,3.6-4v-43.5c0-2.6-1.4-4-4.1-4h-4.3c-2.6,0-4,1.3-4,4v43.5
					C806.6,475,808,476.3,810.7,476.3z"/>
				<path class="st4" d="M817,485h-8.5c-7.6,0-11.4-4-11.4-12v-44.7c0-8,3.8-12.1,11.3-12.1h8.7c7.5,0,11.3,4.1,11.3,12.1V473
					C828.5,481,824.6,485,817,485z M808.4,417.2c-7,0-10.4,3.6-10.4,11.1V473c0,7.4,3.4,11,10.5,11h8.5c7.1,0,10.5-3.6,10.5-11
					v-44.7c0-7.5-3.4-11.1-10.4-11.1H808.4z M815.3,476.8h-4.6c-3,0-4.5-1.5-4.5-4.4v-43.5c0-2.9,1.5-4.4,4.4-4.4h4.3
					c3,0,4.5,1.5,4.5,4.4v43.5C819.4,476,817.2,476.8,815.3,476.8z M810.6,425.4c-2.4,0-3.5,1.1-3.5,3.5v43.5c0,2.4,1.1,3.5,3.6,3.5
					h4.6c2.1,0,3.1-1.1,3.1-3.5v-43.5c0-2.4-1.1-3.5-3.6-3.5H810.6z"/>
			</g>
			<g>
				<path class="st4" d="M846.5,484.5c-7.3,0-11-3.8-11-11.5v-44.7c0-7.7,3.6-11.6,10.9-11.6h8.7c7.2,0,10.9,3.9,10.9,11.6V473
					c0,7.7-3.7,11.5-11,11.5H846.5z M848.7,476.3h4.6c2.4,0,3.6-1.3,3.6-4v-43.5c0-2.6-1.4-4-4.1-4h-4.3c-2.6,0-4,1.3-4,4v43.5
					C844.6,475,846,476.3,848.7,476.3z"/>
				<path class="st4" d="M855,485h-8.5c-7.6,0-11.4-4-11.4-12v-44.7c0-8,3.8-12.1,11.3-12.1h8.7c7.5,0,11.3,4.1,11.3,12.1V473
					C866.5,481,862.6,485,855,485z M846.4,417.2c-7,0-10.4,3.6-10.4,11.1V473c0,7.4,3.4,11,10.5,11h8.5c7.1,0,10.5-3.6,10.5-11
					v-44.7c0-7.5-3.4-11.1-10.4-11.1H846.4z M853.3,476.8h-4.6c-1.5,0-2.6-0.4-3.4-1.1c-0.8-0.8-1.2-1.9-1.2-3.3v-43.5
					c0-2.9,1.5-4.4,4.4-4.4h4.3c3,0,4.5,1.5,4.5,4.4v43.5C857.4,476,855.2,476.8,853.3,476.8z M848.6,425.4c-2.4,0-3.5,1.1-3.5,3.5
					v43.5c0,1.2,0.3,2.1,0.9,2.6c0.6,0.6,1.5,0.9,2.7,0.9h4.6c2.1,0,3.1-1.1,3.1-3.5v-43.5c0-2.4-1.1-3.5-3.6-3.5L848.6,425.4
					L848.6,425.4z"/>
			</g>
			<g>
				<path class="st4" d="M895.5,484.5H874v-67.8h9.1v59.6h12.5L895.5,484.5L895.5,484.5z"/>
				<path class="st4" d="M896,485h-22.5v-68.8h10v59.6H896L896,485L896,485z M874.5,484.1h20.6v-7.3h-12.5v-59.6h-8.1L874.5,484.1
					L874.5,484.1z"/>
			</g>
		</g>
	</g>
</g>
</svg>
