<?xml version="1.0" encoding="utf-8"?>
<!-- Generator: Adobe Illustrator 21.0.2, SVG Export Plug-In . SVG Version: 6.00 Build 0)  -->
<svg version="1.1" id="Layer_1" xmlns="http://www.w3.org/2000/svg" xmlns:xlink="http://www.w3.org/1999/xlink" x="0px" y="0px"
	 viewBox="0 0 1000 1000" style="enable-background:new 0 0 1000 1000;" xml:space="preserve">
<style type="text/css">
	.st0{fill:#777777;}
	.st1{fill:#305891;}
</style>
<g>
	<path class="st0" d="M914,536.7c-0.4-1.4-1.9-3-3.2-3.6c-15.9-7.2-32.1-14-48.8-18.8c-37.2-10.7-75-18.9-112.8-27
		c-23.2-5-42.8-15.9-60-31.7c-2.2-2-4.7-3.4-7.6-3.2c-5.3,0.3-8-2-10.1-6.9c-3.8-8.7-9-10.8-18.5-8.5c-8,1.9-21.7-3-25.9-10
		c-4.5-7.5-11-10.1-19.3-9.4c-8.4,0.7-21.2-6.9-24.4-14.6c-4-9.4-10-13.6-19.7-12.2c-6,0.8-9.3-0.9-12.3-6.1
		c-6.1-10.3-14.6-15.6-27.7-16c-9.5-0.3-19.3-5.9-24.4-15.3c-4.1-7.7-9.5-11.8-18.2-10.4c-3.8,0.6-6.5-0.5-9.1-3.1
		c-16.3-15.8-33.6-29.8-55.6-37.2c-7.3-2.5-18.7-3.2-21.5,1.4c-2.3,3.9-4.7,7.8-7.1,11.7c27.4,34.9,65.1,118.2,65.1,118.2
		c4.1-5.2,26.7-9.3,26.7-9.3c12.4,12.4,56.6,97.3,56.6,97.3c12.4-5.2,20.6-4.1,20.6-4.1c13.8,63.8,90.6,130.5,148.9,173.1
		c5-2.1,9.3-4.5,10.7-6.6c3.1-4.7,6.6-6.2,10.7-1.1c1.2,1.6,2.2,3.7,4.5,3.4c8.1-1.1,16.3-2,24-4.8c5.6-2,6.4-7.5,8.4-12.1
		c1.6-3.7,4.8-5.5,6.6-1.6c4.6,9.9,11.9,6.2,18.5,4.4c6.7-1.9,13.6-3.8,18.8-9.1c2.1-2.1,5.3-4.9,7.7-4.6
		c11.5,1.5,19.2-6.7,28.7-10.2c2.7-1,5-2.9,5.4-6c1.1-8,6.1-7.6,11.8-5.6c3.1,1,5.8,3.3,9.5,0.8c5.4-3.8,11.4-6.7,16.8-10.6
		c10.7-7.6,21.9-14.7,27.3-27.7c4.2-10,2-20.7,4.4-30.9C922,557.3,916.7,547.2,914,536.7z"/>
	<g>
		<path class="st1" d="M239.1,478.6c0,0.3,0,0.5,0,0.8c0,0.2,0.2,0.3,0.4,0.3c0.2,0,0.4-0.2,0.4-0.5c0-0.9,0-1.9,0-2.8
			c0-0.1,0-0.2,0-0.2c0-0.2-0.2-0.3-0.4-0.2c-0.2,0-0.4,0.2-0.5,0.5c0,0.5,0,1-0.1,1.5c0,0,0,0,0,0
			C239.1,478.1,239.1,478.4,239.1,478.6z"/>
		<path class="st1" d="M225.7,555.1c-2.1,0-3.9,0.7-5.4,2.2c-1.5,1.5-2.2,3.3-2.2,5.3v48c0,2.1,0.7,3.9,2.2,5.4
			c1.5,1.5,3.3,2.2,5.4,2.2c2.1,0,3.9-0.7,5.4-2.2c1.5-1.5,2.2-3.3,2.2-5.4v-48c0-2.1-0.7-3.9-2.2-5.3
			C229.6,555.8,227.8,555.1,225.7,555.1z"/>
		<path class="st1" d="M225.4,452.9c0.1,0,0.2-0.1,0.2-0.1c0-0.1,0-0.2,0-0.3c0,0,0,0,0,0c0-0.1,0-0.1,0-0.2c0-0.1-0.1-0.2-0.1-0.2
			c-0.1,0.1-0.2,0.1-0.2,0.2c0,0.2,0,0.3,0,0.5C225.3,452.8,225.4,452.9,225.4,452.9z"/>
		<path class="st1" d="M217,480.9C217,480.9,217,480.9,217,480.9c-0.1,0.8-0.3,1.5-0.4,2.3c0.3-0.1,0.5-0.1,0.7-0.1
			C217.2,482.3,217.1,481.6,217,480.9z"/>
		<path class="st1" d="M178.9,572.8c0.5-1.5,0.8-3.3,0.8-5.5c0-3.6-0.9-6.4-2.7-8.3c-1.6-1.7-3.8-2.6-6.4-2.6h-5.5v22.4h5.5
			C174.8,578.8,177.5,576.8,178.9,572.8z"/>
		<path class="st1" d="M170.7,591.5h-5.5v26.2h5.5c4.5,0,7.6-2.3,9.3-6.9c0.6-1.6,0.9-3.4,0.9-5.5c0-4.9-0.9-8.5-2.8-10.7
			C176.4,592.5,173.9,591.5,170.7,591.5z"/>
		<path class="st1" d="M203.9,480.3c0.6-0.1,1.1-0.2,1.7-0.3c2.8-0.6,5.6-1.1,8.3-1.7c2.6-0.5,5.2-1,7.7-1.5c2.4-0.5,4.9-1,7.3-1.5
			c2.4-0.5,4.9-1,7.3-1.5c2.5-0.5,5-1,7.5-1.5c0.4-0.1,0.5-0.2,0.5-0.6c0-3.2,0-6.5,0-9.7c0-3.2,0-6.5,0-9.7c0-0.3,0-0.3-0.3-0.3
			c-0.5,0.1-1,0.2-1.5,0.3c-4.2,0.8-8.5,1.7-12.7,2.5c-4.7,0.9-9.4,1.9-14,2.8c-3.9,0.8-7.8,1.5-11.6,2.3c-0.4,0.1-0.5,0.2-0.5,0.6
			c0,3.6,0,7.2,0,10.7c0,2.9,0,5.8,0,8.6C203.6,480.4,203.6,480.4,203.9,480.3z M238.6,455c0.7-0.1,1.5-0.3,2.2-0.4c0,0,0.1,0,0.1,0
			c0,0.1,0,0.2,0,0.2c0,5.4,0,10.8,0,16.2c0,0.2,0,0.2-0.2,0.3c-0.8,0.1-1.5,0.3-2.3,0.5c0-0.1,0-0.2,0-0.3c0-5.4,0-10.8,0-16.1
			C238.4,455.1,238.4,455,238.6,455z M229.4,456.8c2.3-0.5,4.6-0.9,7-1.4c0,0.2,0,0.3,0,0.5c0,0.6,0,1.2,0,1.7c0,0.2,0,0.2-0.2,0.2
			c-1.4,0.3-2.8,0.5-4.1,0.8c0,0,0,0-0.1,0c0,1.5,0,3.1,0,4.6c1.2-0.2,2.3-0.5,3.5-0.7c0,0.8,0,1.6,0,2.4c-0.7,0.1-1.5,0.3-2.2,0.4
			c-0.4,0.1-0.7,0.1-1.1,0.2c-0.1,0-0.1,0.1-0.1,0.1c0,1.6,0,3.1,0,4.8c1.5-0.3,2.9-0.6,4.4-0.9c0,0.1,0,0.1,0,0.2c0,0.7,0,1.3,0,2
			c0,0.2,0,0.2-0.2,0.2c-2.2,0.4-4.4,0.9-6.6,1.3c0,0-0.1,0-0.1,0C229.4,467.9,229.4,462.4,229.4,456.8z M216.4,459.4
			c1.2-0.2,2.3-0.5,3.5-0.7c0.6,3.8,1.2,7.5,1.8,11.3c0,0,0,0,0,0c0.1-0.4,0.1-0.9,0.2-1.3c0.2-1.3,0.4-2.6,0.5-3.8
			c0.2-1.3,0.4-2.5,0.5-3.8c0.1-1,0.3-1.9,0.4-2.9c0-0.1,0.1-0.2,0.2-0.2c1-0.2,2.1-0.4,3.1-0.6c0.1,0,0.1,0,0.2,0
			c0,5.6,0,11.1,0,16.7c-0.8,0.2-1.6,0.3-2.4,0.5c0-3.9,0-7.7,0-11.6c0,0,0,0,0,0c-0.1,0.4-0.1,0.9-0.2,1.3
			c-0.2,1.3-0.4,2.6-0.5,3.8c-0.2,1.3-0.4,2.5-0.5,3.8c-0.1,0.9-0.3,1.9-0.4,2.8c0,0.2-0.1,0.2-0.2,0.2c-0.7,0.1-1.4,0.3-2.1,0.4
			c0,0-0.1,0-0.1,0c-0.6-3.7-1.2-7.4-1.8-11c0,0,0,0,0,0c0,3.8,0,7.6,0,11.4c-0.7,0.2-1.5,0.3-2.2,0.4
			C216.4,470.5,216.4,465,216.4,459.4z M206.8,461.3c0.7-0.1,1.5-0.3,2.2-0.4c0,0,0.1,0,0.1,0c0,0.1,0,0.2,0,0.3c0,4.1,0,8.3,0,12.4
			c0,0.2,0,0.5,0.1,0.7c0.1,0.7,0.5,0.9,1.2,0.8c0.9-0.2,1.3-0.7,1.4-1.6c0-0.2,0-0.3,0-0.5c0-4.1,0-8.2,0-12.4c0-0.2,0-0.3,0.3-0.4
			c0.7-0.1,1.4-0.3,2.2-0.4c0,0.1,0,0.2,0,0.2c0,4.2,0,8.4,0,12.6c0,1.1-0.2,2.2-0.9,3.1c-0.7,0.9-1.6,1.5-2.7,1.7
			c-0.7,0.2-1.3,0.2-2,0c-1-0.3-1.5-1-1.8-2c-0.1-0.5-0.2-1-0.2-1.5c0-4.1,0-8.3,0-12.4C206.6,461.4,206.6,461.4,206.8,461.3z"/>
		<path class="st1" d="M208.6,482.1c-0.2,0-0.3,0.1-0.5,0.1c0,0.5,0,1.1,0,1.6c0.2,0,0.3-0.1,0.4-0.1c0.2,0,0.4-0.2,0.4-0.4
			c0-0.3,0-0.6,0-0.9C209,482.2,208.8,482.1,208.6,482.1z"/>
		<path class="st1" d="M226.4,452.1C226.4,452.1,226.4,452.1,226.4,452.1c-0.1,0.3-0.2,0.6-0.3,0.9c0.3,0,0.3,0,0.3-0.2
			C226.4,452.6,226.4,452.4,226.4,452.1z"/>
		<path class="st1" d="M545.3,568.6c-9.3,0-13.6,8.2-13.6,8.2c-39.2-55.6-101.2-71.3-101.2-71.3c-15.9,8.9-11.4,14.3-11,14.7
			c-43.5-47-108.8-85.6-146-105.4c-21.4,1.1-32.2-4.9-41-25.5c-3.3-7.5-6.4-15.1-10.8-22c-9.8-15.1-36.4-22.9-53-15.5
			c-14,6.2-24.6,16.3-31.5,29.7c-13,25.1-24.6,50.8-29.7,78.9c-2.2,11.9-4,24-6.4,35.8c-3.9,19.1-4,38-0.2,57.2
			c2.2,10.9,1.5,21.7-5.7,31.3c-3,4-4.1,8.9-3.2,13.7c0.9,4.8-0.8,7.9-3.8,11.3c-10,11.7-11.3,33.1-2.9,45.9
			c10.1,15.4,24.8,22.3,43,22.8c4.7,0.1,11-1.6,10.1,7.1c-0.2,1.9,2.1,2.7,3.8,2.7c13.6-0.7,26.6,4.1,40.3,3.9
			c13.9-0.2,27.7,2.9,41.8,3c11.2,0.1,22.8,5.4,32.3-4.9c5.3,10.1,27.6,10,36-1c1.6,6.8,5.9,7.5,11,8.2c8.1,1.2,15.7-1.6,23.3-1.7
			c17.7-0.2,35.5,3.7,52.8-3.1c0.8-0.3,2.2,0.1,3,0.6c4.5,2.8,9.7,2.6,14,1.1c8.8-3.1,17.5-3.2,26.5-2.3c1.9,0.2,4-0.1,5.9-0.5
			c14.9-3,29.8-1.4,44.7-0.8c6.8,0.3,13.4,1.7,19.6-2.7c2.9-2.1,4.9-0.2,7.4,1.6c6.8,4.9,20.4,4.6,24.1,0.1
			c5.2-6.4,12.8-5.5,15.9,2.2c1.3,3.2,3.1,4.4,6.2,4.8c3.9,0.5,7.8,1.1,11.7,1.6c8.4,1.1,15.2-0.2,16.3-10.6
			c0.3-2.5,0.9-6.2,4.6-6.1c3,0,3.8,3.1,4.7,5.4c1,2.3,1.6,4.8,2.3,7.2c0.5,2,1.4,4.2,3.6,4.2c9.3-0.1,19.2,3.4,26.9-5.3
			c4.5-5.1,9.8-4.2,13.2,1.5c0.9,1.5,1.7,3.1,3.6,3.2c9,0.7,18.1,1.3,27-1c5.5-1.4,5-7.1,7.2-10.8c5.1-8.5,8-8.6,13.1-0.1
			c1,1.7,1.5,3.6,2.3,5.4c0.7,1.5,1.3,3.1,3.2,3.7c2.4,0.7,7.4-0.1,12.6-1.8C594.8,620,545.3,568.6,545.3,568.6z M288.3,493.9h6.6
			l7.8,26.1v-26.1h5.8v38.8h-6.3l-8-24.8v24.8h-5.8V493.9z M277.3,493.9h5.8v38.8h-5.8V493.9z M245.3,478.4c0,0.2,0,0.3,0,0.5
			c-0.5,0.1-1.1,0.2-1.6,0.3c0-1.6,0-3.1,0-4.6c0.2,0,0.3-0.1,0.5-0.1c0,1.4,0,2.7,0,4.1C244.6,478.6,244.9,478.5,245.3,478.4z
			 M227.3,452.4c-0.1,0-0.1,0.1-0.2,0.1c-0.1,0.1-0.1,0.1-0.1,0.2c0,0,0,0,0,0c0-0.3,0-0.7,0-1c0,0,0.1-0.1,0.1-0.1
			c0.2,0,0.4-0.1,0.6-0.1c0,0.4-0.3,0.2-0.5,0.4c0,0.1,0,0.3,0,0.4c0.4-0.1,0.5-0.1,0.5,0.4c0,0.2,0,0.4,0,0.5
			c0,0.3-0.2,0.5-0.4,0.5c-0.1,0-0.3,0-0.3-0.1c-0.1-0.1-0.1-0.3-0.1-0.4c0,0,0.1,0,0.2-0.1c0,0.1,0,0.1,0,0.2
			c0,0.1,0.1,0.1,0.1,0.2c0.1-0.1,0.2-0.1,0.2-0.2c0-0.2,0-0.4,0-0.6C227.4,452.5,227.4,452.4,227.3,452.4z M226,453
			c0.1-0.4,0.2-0.7,0.3-1c0.1-0.3,0.1-0.3,0.4-0.3c0,0.4,0,0.8,0,1.2c0,0.1,0.1,0.1,0.1,0.2c0,0.1,0,0.2,0,0.2
			c-0.2,0.1-0.1,0.2-0.1,0.4c0,0.1-0.1,0.2-0.2,0.2c0-0.1,0-0.3,0-0.4c-0.1,0-0.3,0-0.4,0.1C226,453.2,226,453.1,226,453z
			 M225.1,452.2c0-0.2,0.2-0.3,0.4-0.4c0.2,0,0.4,0.1,0.4,0.3c0,0.5,0,0.9,0,1.4c0,0.3-0.2,0.5-0.5,0.4c-0.2,0-0.3-0.1-0.2-0.5
			c0,0,0.1,0,0.1,0c0,0,0.1,0,0,0c0.1,0.1,0.2,0.3,0.2,0.3c0.2,0,0.2-0.2,0.2-0.3c0-0.1,0-0.2,0-0.3c-0.4,0.2-0.5,0.1-0.5-0.3
			C225.1,452.6,225.1,452.4,225.1,452.2z M224.5,452.3c0.1,0,0.1-0.1,0.2-0.2c0.1-0.1,0.1-0.1,0.2-0.2c0,0.7,0,1.4,0,2.1
			c-0.1,0-0.1,0-0.2,0c0-0.5,0-1.1,0-1.6c-0.1,0-0.2,0-0.3,0C224.4,452.4,224.4,452.3,224.5,452.3z M223.6,453.2
			C223.6,453.2,223.7,453.2,223.6,453.2c0.1,0.1,0.2,0.1,0.2,0.2c0,0.1-0.1,0.2-0.2,0.2c0-0.1-0.1-0.1-0.1-0.2
			C223.5,453.3,223.6,453.2,223.6,453.2z M222.9,452.3c0,0.1,0,0.1,0,0.2c-0.1,0-0.2,0.1-0.3,0.1c0,0.5,0,1.1,0,1.6
			c0,0.1,0,0.2-0.2,0.2c0-0.6,0-1.2,0-1.8c-0.1,0-0.2,0-0.3,0c0-0.1,0-0.1,0-0.2C222.3,452.5,222.6,452.4,222.9,452.3z M221.2,454.1
			c0,0,0.1,0,0.2-0.1c0,0.1,0,0.2,0,0.3c0,0.1,0.1,0.2,0.1,0.2c0.1,0,0.2-0.1,0.2-0.1c0-0.1,0-0.3,0-0.4c-0.1-0.1-0.2-0.2-0.3-0.3
			c-0.2-0.2-0.2-0.4-0.2-0.7c0-0.2,0.3-0.4,0.5-0.4c0.2,0,0.3,0.1,0.3,0.4c0,0.2,0,0.2-0.2,0.2c0-0.1,0-0.1,0-0.2
			c0-0.1-0.1-0.2-0.1-0.2c-0.1,0-0.2,0.1-0.2,0.2c0,0.1,0,0.3,0.1,0.4c0.1,0.1,0.2,0.2,0.3,0.3c0.2,0.2,0.2,0.4,0.1,0.7
			c0,0.2-0.3,0.4-0.5,0.4c-0.1,0-0.3-0.1-0.3-0.2C221.2,454.4,221.2,454.2,221.2,454.1z M220.3,452.9c0.2,0,0.5-0.1,0.7-0.1
			c0,0.1,0,0.2,0,0.2c0,0,0,0,0,0c-0.5,0.1-0.5,0.1-0.5,0.7c0.1,0,0.3,0,0.5-0.1c0,0.4-0.3,0.2-0.5,0.4c0,0.2,0,0.4,0,0.7
			c0.2,0,0.4-0.1,0.5-0.1c0.1,0.2,0,0.2-0.1,0.3c-0.2,0-0.4,0.1-0.6,0.1C220.3,454.2,220.3,453.6,220.3,452.9z M184.8,455.4h12.1
			v4.3h-7.8v7.7h5.7v4.3h-5.7v7.7h7.8v4.3h-12.1V455.4z M167.5,455.5h4.2v11.9h5.1v-11.9h4.2v28.1h-4.2v-11.9h-5.1v11.9h-4.2V455.5z
			 M176.7,493.9v38.8h-5.8v-38.8H176.7z M166.8,526.8v5.8h-15.9v-38.8h5.8v32.9H166.8z M150.8,455.5H164v4.3h-4.5v23.8h-4.2v-23.8
			h-4.5V455.5z M192.3,620.4c-1.6,3-3.9,5.5-6.9,7.3c-3.4,2.1-6.7,3.1-10,3.1h-24.5V543h19.8c5.2,0,9.9,1.4,14.1,4.1
			c3.6,2.3,6.2,5.9,7.7,10.8c0.8,2.6,1.3,5.7,1.3,9.3c0,5.9-1.6,10.6-4.7,14.1c-1.3,1.5-2.8,2.6-4.6,3.4c2.9,1.1,5.4,3.3,7.5,6.6
			c1.4,2.2,2.4,5.1,3,8.7c0.3,1.8,0.5,3.8,0.5,6.1C195.4,611.8,194.4,616.5,192.3,620.4z M200.4,507.2h-6.1v-4.5
			c0-0.9-0.3-1.7-1-2.4c-0.7-0.7-1.5-1-2.4-1c-0.9,0-1.7,0.3-2.4,1c-0.7,0.7-1,1.5-1,2.4v21.2c0,0.9,0.3,1.7,1,2.4
			c0.6,0.7,1.4,1,2.4,1c0.9,0,1.7-0.3,2.4-1c0.7-0.6,1-1.4,1-2.4v-7.6h-3.2v-5.9h9.3v13.5c0,2.6-0.9,4.8-2.7,6.6
			c-1.8,1.8-4,2.7-6.5,2.7c-2.6,0-4.8-0.9-6.6-2.7c-1.8-1.8-2.7-4-2.7-6.5v-21.2c0-2.6,0.9-4.8,2.7-6.6c1.8-1.8,4-2.7,6.6-2.7
			c2.6,0,4.8,0.9,6.6,2.7c1.8,1.8,2.7,4,2.7,6.6V507.2z M202.6,460.5c0-0.6,0.4-1.1,1-1.2c1.1-0.2,2.3-0.5,3.5-0.7
			c2.4-0.5,4.8-1,7.3-1.4c2.6-0.5,5.3-1.1,7.9-1.6c2.4-0.5,4.8-1,7.3-1.4c2.4-0.5,4.9-1,7.3-1.5c2.4-0.5,4.7-0.9,7.1-1.4
			c0.7-0.1,1.2,0.3,1.3,1c0,0.1,0,0.2,0,0.3c0,3.2,0,6.4,0,9.7c0,3.2,0,6.5,0,9.7c0,0.7-0.4,1.2-0.9,1.4c-0.1,0-0.3,0.1-0.4,0.1
			c-3.5,0.7-7,1.4-10.6,2.1c-4,0.8-8,1.6-12.1,2.4c-3.4,0.7-6.9,1.4-10.3,2.1c-2.3,0.5-4.7,0.9-7,1.4c-0.6,0.1-1.2-0.3-1.2-1
			C202.6,473.7,202.6,467.1,202.6,460.5z M243,478.7c0,0.6-0.5,1-1.1,1c-0.4,0-0.7-0.2-0.7-0.6c-0.1-0.5-0.1-1.1-0.1-1.6
			c0-0.6,0-1.1,0.1-1.7c0.1-0.6,0.5-1,1.1-1c0.4,0,0.8,0.2,0.8,0.7C243,476.6,243,477.6,243,478.7z M238.6,477.5c0-0.3,0-0.7,0-1
			c0-0.6,0.5-1.1,1.1-1.1c0.4,0,0.7,0.2,0.7,0.7c0,0.8,0,1.6,0,2.4c0,0.3,0,0.7-0.1,1c-0.1,0.6-0.7,0.9-1.2,0.8
			c-0.3,0-0.5-0.3-0.5-0.7c0-0.4,0-0.9,0-1.3c0-0.1,0-0.2,0-0.2v0c0,0,0-0.1,0-0.1C238.6,477.7,238.6,477.6,238.6,477.5z
			 M236.6,478.5c0,0.7,0,1.4,0,2.2c-0.2,0-0.3,0.1-0.5,0.1c0-0.1,0-0.2,0-0.3c0-1.3,0-2.7,0-4c0-0.3,0-0.3,0.3-0.4c0,0,0.1,0,0.2,0
			c0,0.6,0,1.3,0,1.9c0.3-0.1,0.6-0.1,0.9-0.2c0-0.6,0-1.1,0-1.7c0-0.4-0.1-0.3,0.3-0.4c0,0,0.1,0,0.2,0c0,0.1,0,0.2,0,0.3
			c0,1.3,0,2.7,0,4c0,0.4,0.1,0.3-0.3,0.4c0,0-0.1,0-0.1,0c0-0.7,0-1.4,0-2.1C237.1,478.4,236.8,478.5,236.6,478.5z M234.5,480.6
			c0.2,0,0.5-0.1,0.5-0.3c0-0.1,0.1-0.3,0.1-0.4c0-0.2,0-0.3,0-0.5c0,0,0,0,0-0.1c0.1,0,0.3-0.1,0.5-0.1c0,0.4,0,0.8-0.1,1.2
			c-0.1,0.5-0.7,0.8-1.2,0.7c-0.3-0.1-0.5-0.3-0.5-0.6c-0.1-1.1-0.1-2.2,0-3.3c0.1-0.5,0.5-0.9,1.1-0.9c0.3,0,0.6,0.2,0.6,0.5
			c0,0.3,0,0.6,0.1,0.9c-0.2,0-0.3,0.1-0.5,0.1c0-0.2,0-0.4,0-0.5c0-0.2,0-0.4-0.2-0.4c-0.2,0-0.4,0.1-0.5,0.3
			c-0.1,0.1-0.1,0.3-0.1,0.4c0,0.9,0,1.7,0,2.6C234.2,480.4,234.3,480.6,234.5,480.6z M232.6,479.8c-0.2-0.2-0.4-0.5-0.7-0.7
			c-0.5-0.5-0.4-1.2-0.3-1.7c0.2-0.4,0.7-0.7,1.1-0.6c0.3,0,0.5,0.2,0.5,0.5c0,0.2,0,0.3,0,0.5c0,0.4,0,0.4-0.5,0.4
			c0-0.1,0-0.3,0-0.4c0-0.2,0-0.4-0.3-0.4c-0.2,0-0.4,0.1-0.5,0.3c-0.1,0.3-0.1,0.6,0.2,0.9c0.2,0.3,0.5,0.5,0.7,0.8
			c0.5,0.5,0.5,1,0.3,1.6c-0.2,0.5-0.7,0.8-1.2,0.7c-0.3,0-0.5-0.2-0.6-0.6c0-0.3,0-0.6-0.1-0.9c0.2,0,0.3-0.1,0.5-0.1
			c0,0.2,0,0.4,0,0.6c0,0.4,0.1,0.5,0.4,0.5c0.3,0,0.5-0.2,0.6-0.6C232.9,480.2,232.8,480,232.6,479.8z M228.6,480.1
			c0,0.7,0,1.4,0,2.1c-0.2,0-0.3,0.1-0.5,0.1c0-1.6,0-3.1,0-4.6c0.1,0,0.3-0.1,0.5-0.1c0,0.7,0,1.3,0,2c0.3-0.1,0.5-0.1,0.8-0.1
			c0.1,0,0.1-0.1,0.1-0.2c0-0.5,0-1,0-1.5c0-0.1,0-0.2,0-0.2c0.2,0,0.3-0.1,0.5-0.1c0,1.6,0,3.1,0,4.6c-0.2,0-0.3,0.1-0.5,0.1
			c0-0.7,0-1.4,0-2.2C229.2,480,228.9,480,228.6,480.1z M226.3,482.3c0.2,0,0.6-0.2,0.6-0.5c0-0.2,0-0.4,0.1-0.5c0-0.2,0-0.4,0-0.6
			c-0.2,0-0.4,0.1-0.6,0.1c0-0.2,0-0.3,0-0.5c0.3-0.1,0.7-0.1,1-0.2c0,0.8,0,1.6,0,2.4c-0.1,0-0.3,0.1-0.4,0.1c0-0.1,0-0.2,0-0.3
			c-0.1,0.1-0.2,0.2-0.3,0.3c-0.2,0.2-0.5,0.3-0.8,0.2c-0.3-0.1-0.4-0.4-0.4-0.6c0-1,0-2.1,0-3.1c0-0.7,0.6-1.1,1.3-1.1
			c0.3,0,0.5,0.3,0.5,0.6c0,0.2,0,0.5,0,0.7c-0.1,0-0.3,0.1-0.5,0.1c0-0.2,0-0.3,0-0.5c0-0.2,0-0.4-0.2-0.5
			c-0.2-0.1-0.5,0.1-0.6,0.3c-0.1,0.1-0.1,0.3-0.1,0.5c0,0.8,0,1.7,0,2.5C226,482.1,226.1,482.2,226.3,482.3z M224.9,478.4
			c0,1.6,0,3.1,0,4.6c-0.2,0-0.3,0.1-0.5,0.1c0-1.5,0-3.1,0-4.6C224.6,478.4,224.7,478.4,224.9,478.4z M211.3,516.2v16.4h-5.8v-38.8
			h5.8v16.5h7.1v-16.5h5.8v38.8h-5.8v-16.4H211.3z M209.1,484.2c0.2,0.6,0.4,1.1,0.6,1.7c0,0,0,0.1,0,0.1c-0.2,0-0.3,0.1-0.5,0.1
			c-0.1-0.4-0.3-0.8-0.4-1.1c-0.1-0.2-0.1-0.4-0.2-0.6c0-0.2-0.1-0.2-0.3-0.2c0,0-0.1,0-0.1,0c0,0.7,0,1.3,0,2
			c-0.2,0-0.3,0.1-0.5,0.1c0-1.5,0-3.1,0-4.6c0.4-0.1,0.8-0.2,1.2-0.2c0.3,0,0.5,0.2,0.6,0.5c0.1,0.5,0.1,1-0.1,1.5
			c0,0.1-0.2,0.3-0.3,0.4C209,484,209,484.1,209.1,484.2z M210.1,485.9c0-1.5,0-3.1,0-4.6c0.1,0,0.3-0.1,0.5-0.1c0,1.5,0,3.1,0,4.6
			C210.4,485.8,210.2,485.9,210.1,485.9z M212.2,483.9c-0.2-0.3-0.5-0.5-0.7-0.7c-0.5-0.5-0.5-1-0.4-1.6c0.1-0.5,0.6-0.8,1.1-0.8
			c0.3,0,0.5,0.2,0.5,0.5c0,0.2,0,0.3,0,0.5c0,0.4,0,0.4-0.4,0.4c0-0.1,0-0.3,0-0.4c0-0.2,0-0.4-0.3-0.4c-0.2,0-0.4,0.1-0.5,0.3
			c-0.1,0.3-0.1,0.7,0.2,0.9c0.2,0.2,0.5,0.5,0.7,0.7c0.4,0.4,0.5,1,0.3,1.5c-0.1,0.5-0.6,0.8-1.1,0.8c-0.4,0-0.7-0.2-0.7-0.6
			c0-0.2,0-0.5,0-0.7c0-0.1,0-0.2,0.2-0.2c0.1,0,0.2,0,0.3-0.1c0,0.3,0,0.5,0,0.7c0,0.3,0.3,0.5,0.6,0.3
			C212.4,484.9,212.5,484.3,212.2,483.9z M213,481.2c0-0.2,0-0.3,0-0.5c0.6-0.1,1.3-0.3,1.9-0.4c0,0,0,0,0,0.1c0,0.5,0,0.5-0.4,0.5
			c-0.3,0.1-0.3,0.1-0.3,0.4c0,1.1,0,2.3,0,3.4c0,0.4,0,0.4-0.4,0.4c0,0-0.1,0-0.1,0c0-1.4,0-2.7,0-4.1
			C213.4,481.1,213.2,481.2,213,481.2z M215.2,484.9c0-1.5,0-3.1,0-4.6c0.1,0,0.3-0.1,0.5-0.1c0,1.6,0,3.1,0,4.6c-0.1,0-0.1,0-0.2,0
			C215.4,484.9,215.3,484.9,215.2,484.9z M215.9,484.7c0.1-0.3,0.1-0.7,0.2-1c0.2-1.2,0.4-2.4,0.6-3.6c0-0.2,0.1-0.2,0.2-0.3
			c0.1,0,0.2,0,0.3,0c0.3,1.5,0.6,3,0.9,4.5c-0.2,0-0.3,0.1-0.5,0.1c-0.1-0.3-0.1-0.6-0.2-0.9c-0.3,0.1-0.6,0.1-0.9,0.2
			c0,0.2-0.1,0.4-0.1,0.6c0,0.2-0.1,0.3-0.3,0.3C216.1,484.7,216,484.7,215.9,484.7z M219.8,482.8c0-1,0-2-0.1-3.1
			c0-0.4,0-0.4,0.5-0.4c0,1.5,0,3.1,0,4.6c-0.2,0-0.4,0.1-0.7,0.1c-0.2-1.2-0.5-2.4-0.7-3.6c0,1.3,0,2.5,0,3.8
			c-0.1,0-0.3,0.1-0.4,0.1c0-1.6,0-3.1,0-4.6c0.2,0,0.4-0.1,0.7-0.1c0.2,1.2,0.5,2.4,0.7,3.7c0,0,0,0,0,0
			C219.8,483,219.8,482.9,219.8,482.8z M223.2,480.6c0-0.7,0-1.3,0-2c0.2,0,0.3-0.1,0.5-0.1c0,1.5,0,3.1,0,4.6
			c-0.1,0-0.3,0.1-0.5,0.1c0-0.7,0-1.4,0-2.2c-0.3,0.1-0.6,0.1-0.8,0.2c0,0-0.1,0.1-0.1,0.2c0,0.6,0,1.1,0,1.7c0,0.3,0,0.3-0.3,0.4
			c-0.1,0-0.1,0-0.2,0c0-0.1,0-0.2,0-0.3c0-1.3,0-2.7,0-4c0-0.3,0-0.3,0.3-0.4c0.1,0,0.1,0,0.2,0c0,0.6,0,1.3,0,1.9
			C222.6,480.8,222.9,480.7,223.2,480.6z M204.5,486.6c-0.2,0.4-0.8,0.7-1.2,0.6c-0.3-0.1-0.5-0.3-0.5-0.6c0-0.5-0.1-1-0.1-1.6
			c0-0.6,0-1.1,0.1-1.7c0.1-0.6,0.5-1,1-1c0.4,0,0.7,0.2,0.7,0.6c0,0.2,0,0.5,0,0.8c-0.1,0-0.3,0.1-0.4,0.1c0-0.2,0-0.4,0-0.6
			c0-0.1-0.1-0.3-0.2-0.3c-0.1,0-0.3,0-0.4,0.1c-0.1,0.1-0.2,0.3-0.2,0.5c0,0.9,0,1.9,0,2.8c0,0.2,0.1,0.3,0.3,0.4
			c0.2,0,0.4,0,0.5-0.2c0.1-0.1,0.1-0.3,0.1-0.5c0-0.2,0-0.4,0-0.6c0.1,0,0.3-0.1,0.5-0.1C204.6,485.8,204.7,486.2,204.5,486.6z
			 M205.1,486.6c0-1.3,0-2.7,0-4c0-0.4,0-0.4,0.5-0.4c0,0.6,0,1.3,0,1.9c0.3-0.1,0.6-0.1,0.9-0.2c0-0.7,0-1.3,0-2
			c0.2,0,0.3-0.1,0.5-0.1c0,1.5,0,3.1,0,4.6c-0.1,0-0.3,0.1-0.5,0.1c0-0.7,0-1.4,0-2.2c-0.3,0.1-0.5,0.1-0.8,0.2
			c0,0-0.1,0.1-0.1,0.2c0,0.6,0,1.1,0,1.7c0,0.1,0,0.2,0,0.3c-0.2,0-0.3,0.1-0.5,0.1C205.1,486.8,205.1,486.7,205.1,486.6z
			 M247.1,610.8c0,5.8-2.1,10.8-6.2,14.9c-4.1,4.1-9.1,6.1-14.8,6.1c-5.8,0-10.8-2.1-14.8-6.2c-4.1-4.1-6.1-9.1-6.1-14.8v-47.9
			c0-5.8,2-10.8,6.2-14.9c4.1-4.1,9-6.1,14.8-6.1c5.8,0,10.8,2.1,14.9,6.2c4.1,4.1,6.1,9.1,6.1,14.8V610.8z M247.2,499.8H241v32.9
			h-5.8v-32.9h-6.2v-5.9h18.3V499.8z M257.7,507.8v24.8h-5.8v-38.8h6.6l7.8,26.1v-26.1h5.8v38.8h-6.3L257.7,507.8z M294.8,630.7h-36
			v-87.7H272v74.5h22.8V630.7z M332.2,556.3h-14v74.4h-13.2v-74.4h-14.1v-13.3h41.3V556.3z M332.2,507.3h-6.1v-4.4
			c0-0.9-0.3-1.7-1-2.3c-0.7-0.6-1.5-1-2.4-1c-0.9,0-1.7,0.3-2.4,1c-0.7,0.6-1,1.4-1,2.3v20.7c0,0.9,0.3,1.7,1,2.3
			c0.6,0.6,1.4,1,2.4,1c0.9,0,1.7-0.3,2.4-0.9c0.7-0.6,1-1.4,1-2.3v-7.4h-3.2v-5.7h9.3v13.2c0,2.5-0.9,4.7-2.7,6.4
			c-1.8,1.8-4,2.6-6.5,2.6c-2.6,0-4.8-0.9-6.6-2.7c-1.8-1.8-2.7-3.9-2.7-6.4v-20.7c0-2.5,0.9-4.7,2.7-6.4c1.8-1.8,4-2.6,6.6-2.6
			c2.6,0,4.8,0.9,6.6,2.7c1.8,1.8,2.7,3.9,2.7,6.4V507.3z"/>
		<path class="st1" d="M242.2,475.4c-0.2,0-0.4,0-0.5,0.2c-0.1,0.2-0.1,0.3-0.1,0.5c0,0.4,0,0.9,0,1.3c0,0,0,0,0,0
			c0,0.4,0,0.9,0,1.3c0,0.1,0,0.2,0,0.3c0.1,0.2,0.2,0.3,0.4,0.2c0.3-0.1,0.4-0.3,0.4-0.7c0-0.7,0-1.4,0-2.1c0-0.2,0-0.5,0-0.7
			C242.5,475.6,242.4,475.4,242.2,475.4z"/>
	</g>
</g>
</svg>
