<?xml version="1.0" encoding="utf-8"?>
<!-- Generator: Adobe Illustrator 21.0.2, SVG Export Plug-In . SVG Version: 6.00 Build 0)  -->
<svg version="1.1" id="Layer_1" xmlns="http://www.w3.org/2000/svg" xmlns:xlink="http://www.w3.org/1999/xlink" x="0px" y="0px"
	 viewBox="0 0 2000 2000" style="enable-background:new 0 0 2000 2000;" xml:space="preserve">
<style type="text/css">
	.st0{fill:#333333;}
</style>
<g>
	<g>
		<path class="st0" d="M1000.1,1999.2c-551.2,0-999.6-448.4-999.6-999.6C0.5,448.4,448.9,0,1000.1,0s999.6,448.4,999.6,999.6
			C1999.7,1550.7,1551.3,1999.2,1000.1,1999.2z M1000.1,66.3C485.5,66.3,66.8,485,66.8,999.6s418.7,933.3,933.3,933.3
			s933.3-418.7,933.3-933.3S1514.7,66.3,1000.1,66.3z"/>
	</g>
	<g>
		<path class="st0" d="M1433.2,1410.7H567.1c-83.3,0-151-67.8-151-151V739.5c0-83.3,67.7-151,151-151h866.2c83.2,0,151,67.7,151,151
			v520.1C1584.2,1342.9,1516.5,1410.7,1433.2,1410.7z M567.1,654.8c-46.7,0-84.7,38-84.7,84.7v520.1c0,46.7,38,84.7,84.7,84.7h866.2
			c46.7,0,84.7-38,84.7-84.7V739.5c0-46.7-38-84.7-84.7-84.7H567.1z"/>
	</g>
	<g>
		<path class="st0" d="M1000.1,1148.4c-46.7,0-90.5-18.1-123.2-50.9L451.5,672.2l46.9-46.9l425.3,425.3
			c40.6,40.6,112.2,40.6,152.8,0l425.3-425.3l46.9,46.9l-425.3,425.4C1090.6,1130.4,1046.8,1148.4,1000.1,1148.4z"/>
	</g>
	<g>
		
			<rect x="1326.6" y="931.3" transform="matrix(0.7094 -0.7048 0.7048 0.7094 -426.8087 1297.3063)" class="st0" width="66.3" height="469.7"/>
	</g>
	<g>
		
			<rect x="405.6" y="1133.1" transform="matrix(0.7052 -0.7091 0.7091 0.7052 -638.0558 798.0124)" class="st0" width="469.7" height="66.3"/>
	</g>
</g>
</svg>
