<?xml version="1.0" encoding="utf-8"?>
<!-- Generator: Adobe Illustrator 21.0.2, SVG Export Plug-In . SVG Version: 6.00 Build 0)  -->
<svg version="1.1" id="Layer_1" xmlns="http://www.w3.org/2000/svg" xmlns:xlink="http://www.w3.org/1999/xlink" x="0px" y="0px"
	 viewBox="0 0 2000 2000" style="enable-background:new 0 0 2000 2000;" xml:space="preserve">
<style type="text/css">
	.st0{fill:#333333;}
</style>
<g>
	<g>
		<path class="st0" d="M1000,2000C448.6,2000,0,1551.4,0,1000S448.6,0,1000,0s1000,448.6,1000,1000S1551.4,2000,1000,2000z
			 M1000,66.3C485.2,66.3,66.3,485.2,66.3,1000s418.9,933.7,933.7,933.7c514.9,0,933.7-418.9,933.7-933.7S1514.8,66.3,1000,66.3z"/>
	</g>
	<g>
		<g>
			<path class="st0" d="M1000,1579.8c-319.7,0-579.8-260.1-579.8-579.8S680.3,420.2,1000,420.2c319.7,0,579.8,260.1,579.8,579.8
				S1319.7,1579.8,1000,1579.8z M1000,486.5c-283.1,0-513.5,230.4-513.5,513.5c0,283.1,230.4,513.5,513.5,513.5
				c283.2,0,513.5-230.4,513.5-513.5C1513.5,716.9,1283.1,486.5,1000,486.5z"/>
		</g>
		<g>
			<rect x="453.3" y="966.9" class="st0" width="1093.3" height="66.3"/>
		</g>
		<g>
			<rect x="526.6" y="693.5" class="st0" width="946.9" height="66.3"/>
		</g>
		<g>
			<rect x="526.5" y="1240.4" class="st0" width="946.9" height="66.3"/>
		</g>
		<g>
			<rect x="966.8" y="453.3" class="st0" width="66.3" height="1093.3"/>
		</g>
		<g>
			<rect x="453.3" y="966.9" class="st0" width="546.6" height="66.3"/>
		</g>
		<g>
			<path class="st0" d="M986.3,1577.1c-12-5.4-292.8-138-292.8-576.9c0-439.1,280.8-571.7,292.8-577.1l27.5,60.3
				c-10.4,4.8-254,122.3-254,516.5c0,394.5,243.6,512,254,516.8L986.3,1577.1z"/>
		</g>
		<g>
			<path class="st0" d="M1013.7,1577.1l-27.5-60.3c10.4-4.8,254-122.3,254-516.5c0-394.5-243.6-512-254-516.8l27.5-60.3
				c12,5.4,292.8,138,292.8,576.9C1306.5,1439.1,1025.7,1571.7,1013.7,1577.1z"/>
		</g>
	</g>
</g>
</svg>
