<?xml version="1.0" encoding="utf-8"?>
<!-- Generator: Adobe Illustrator 21.0.2, SVG Export Plug-In . SVG Version: 6.00 Build 0)  -->
<svg version="1.1" id="Layer_1" xmlns="http://www.w3.org/2000/svg" xmlns:xlink="http://www.w3.org/1999/xlink" x="0px" y="0px"
	 viewBox="0 0 2000 2000" style="enable-background:new 0 0 2000 2000;" xml:space="preserve">
<style type="text/css">
	.st0{fill:#333333;}
	.st1{fill:#AFCFDB;}
	.st2{fill:none;stroke:#333333;stroke-miterlimit:10;}
</style>
<g>
	<g>
		<path class="st0" d="M1642.3,2000H357.7C160.5,2000,0,1839.5,0,1642.3V357.6C0,160.5,160.5,0,357.7,0h1284.6
			C1839.5,0,2000,160.5,2000,357.6v1284.6C2000,1839.5,1839.5,2000,1642.3,2000z M357.7,143.3c-118.2,0-214.4,96.1-214.4,214.3
			v1284.6c0,118.2,96.2,214.5,214.4,214.5h1284.6c118.2,0,214.4-96.3,214.4-214.5V357.6c0-118.2-96.2-214.3-214.4-214.3H357.7z"/>
	</g>
	<g>
		<path class="st0" d="M1169.2,1240.9c-132.8,0-240.9-108-240.9-240.9c0-132.8,108.1-240.8,240.9-240.8s240.8,108,240.8,240.8
			C1410,1132.8,1302,1240.9,1169.2,1240.9z M1169.2,902.4c-53.8,0-97.6,43.8-97.6,97.5c0,53.9,43.8,97.7,97.6,97.7
			s97.5-43.8,97.5-97.7C1266.7,946.2,1223,902.4,1169.2,902.4z"/>
	</g>
	<g>
		<path class="st0" d="M1374.5,1465.3h-749c-143.5,0-260.4-116.8-260.4-260.4V795.1c0-143.7,116.8-260.5,260.4-260.5h266.9
			c49.8-81.8,139.9-134.2,237.5-134.2h78.7c102.1,0,196,57.6,244.6,146.9c106,35.1,181.8,135.4,181.8,247.8v409.8
			C1634.9,1348.4,1518.1,1465.3,1374.5,1465.3z M625.5,677.9c-64.6,0-117.1,52.6-117.1,117.2v409.8c0,64.6,52.5,117.1,117.1,117.1
			h749c64.6,0,117.2-52.5,117.2-117.1V795.1c0-55.7-44.4-106.6-101-116.1c-25.3-4.2-46.3-21.5-55.3-45.5
			c-19.8-52.9-72-89.8-126.8-89.8h-78.7c-55.7,0-106.3,35.3-126,87.7c-10.5,28-37.2,46.4-67.1,46.4H625.5z"/>
	</g>
	<g>
		<path class="st0" d="M782.4,875H636.7c-39.6,0-71.6-32-71.6-71.6c0-39.6,32-71.6,71.6-71.6h145.7c39.6,0,71.6,32,71.6,71.6
			C854,843,822,875,782.4,875z"/>
	</g>
</g>
</svg>
