<?xml version="1.0" encoding="utf-8"?>
<!-- Generator: Adobe Illustrator 21.0.2, SVG Export Plug-In . SVG Version: 6.00 Build 0)  -->
<svg version="1.1" id="Layer_1" xmlns="http://www.w3.org/2000/svg" xmlns:xlink="http://www.w3.org/1999/xlink" x="0px" y="0px"
	 viewBox="0 0 2000 2000" style="enable-background:new 0 0 2000 2000;" xml:space="preserve">
<style type="text/css">
	.st0{fill:#333333;}
	.st1{fill:#AFCFDB;}
	.st2{fill:none;stroke:#333333;stroke-miterlimit:10;}
</style>
<g>
	<g>
		<path class="st0" d="M1642.3,2000H357.7C160.5,2000,0,1839.5,0,1642.4V357.7C0,160.5,160.5,0,357.7,0h1284.6
			C1839.5,0,2000,160.5,2000,357.7v1284.6C2000,1839.5,1839.5,2000,1642.3,2000z M357.7,143.3c-118.2,0-214.4,96.3-214.4,214.5
			v1284.6c0,118.2,96.2,214.3,214.4,214.3h1284.6c118.2,0,214.4-96.1,214.4-214.3V357.7c0-118.2-96.2-214.5-214.4-214.5H357.7z"/>
	</g>
	<g>
		<path class="st0" d="M1327.2,1227.6l-71.6-124l184.3-106.5l-184.3-106.5l71.6-124L1619,935.2c22.2,12.7,35.8,36.4,35.8,62
			c0,25.6-13.6,49.2-35.8,62L1327.2,1227.6z"/>
	</g>
	<g>
		<path class="st0" d="M667.7,1227.6L376,1059.1c-22.2-12.7-35.8-36.4-35.8-62c0-25.6,13.6-49.2,35.8-62l291.7-168.5l71.6,124
			L555.1,997.1l184.3,106.5L667.7,1227.6z"/>
	</g>
	<g>
		
			<rect x="712.2" y="925.5" transform="matrix(0.4319 -0.9019 0.9019 0.4319 -329.4653 1471.0581)" class="st0" width="581.6" height="143.2"/>
	</g>
</g>
</svg>
