<?xml version="1.0" encoding="utf-8"?>
<!-- Generator: Adobe Illustrator 21.0.2, SVG Export Plug-In . SVG Version: 6.00 Build 0)  -->
<svg version="1.1" id="Layer_1" xmlns="http://www.w3.org/2000/svg" xmlns:xlink="http://www.w3.org/1999/xlink" x="0px" y="0px"
	 viewBox="0 0 2000 2000" style="enable-background:new 0 0 2000 2000;" xml:space="preserve">
<style type="text/css">
	.st0{fill:#333333;}
	.st1{fill:#AFCFDB;}
	.st2{fill:none;stroke:#333333;stroke-miterlimit:10;}
</style>
<g>
	<g>
		<g>
			<path class="st0" d="M1642.3,2000H357.7C160.5,2000,0,1839.5,0,1642.3V357.6C0,160.5,160.5,0,357.7,0h1284.6
				C1839.5,0,2000,160.5,2000,357.6v1284.6C2000,1839.5,1839.5,2000,1642.3,2000z M357.7,143.3c-118.2,0-214.4,96.1-214.4,214.3
				v1284.6c0,118.2,96.2,214.5,214.4,214.5h1284.6c118.2,0,214.4-96.3,214.4-214.5V357.6c0-118.2-96.2-214.3-214.4-214.3H357.7z"/>
		</g>
	</g>
	<g>
		<g>
			<path class="st0" d="M1011.7,1243.5H639.4l-71.1,171.8H378.2l357.5-801.8h183.3l358.6,801.8h-194.8L1011.7,1243.5z M953.2,1102.6
				l-127-307l-127.2,307H953.2z"/>
		</g>
		<g>
			<path class="st0" d="M1327.2,613.5c0-56.1,44.6-99.8,111.1-99.8s111.1,41.3,111.1,96.3c0,59.6-44.6,103.1-111.1,103.1
				S1327.2,669.6,1327.2,613.5z M1348.9,799h178.8v616.3h-178.8V799z"/>
		</g>
	</g>
</g>
</svg>
