<?xml version="1.0" encoding="utf-8"?>
<!-- Generator: Adobe Illustrator 21.0.2, SVG Export Plug-In . SVG Version: 6.00 Build 0)  -->
<svg version="1.1" id="Layer_1" xmlns="http://www.w3.org/2000/svg" xmlns:xlink="http://www.w3.org/1999/xlink" x="0px" y="0px"
	 viewBox="0 0 2000 2000" style="enable-background:new 0 0 2000 2000;" xml:space="preserve">
<style type="text/css">
	.st0{fill:#333333;}
	.st1{fill:#AFCFDB;}
	.st2{fill:none;stroke:#333333;stroke-miterlimit:10;}
</style>
<g>
	<g>
		<g>
			<path class="st0" d="M1642.3,2000H357.7C160.5,2000,0,1839.5,0,1642.4V357.7C0,160.5,160.5,0,357.7,0h1284.6
				C1839.5,0,2000,160.5,2000,357.7v1284.6C2000,1839.5,1839.5,2000,1642.3,2000z M357.7,143.3c-118.2,0-214.4,96.3-214.4,214.5
				v1284.6c0,118.2,96.2,214.3,214.4,214.3h1284.6c118.2,0,214.4-96.1,214.4-214.3V357.7c0-118.2-96.2-214.5-214.4-214.5H357.7z"/>
		</g>
	</g>
	<g>
		<g>
			<path class="st0" d="M510.7,613.6h185.5v801.8H510.7V613.6z"/>
		</g>
		<g>
			<path class="st0" d="M1501.6,565.5v849.9H1331v-71.1c-44.6,53.9-110,80.2-192.4,80.2c-174.2,0-308.2-123.7-308.2-317.2
				c0-193.6,134-317.3,308.2-317.3c75.6,0,139.8,24.1,184.4,74.4v-299H1501.6z M1326.5,1107.4c0-106.6-68.8-170.7-157-170.7
				c-89.4,0-158.1,64.1-158.1,170.7c0,106.5,68.7,170.5,158.1,170.5C1257.6,1277.9,1326.5,1213.9,1326.5,1107.4z"/>
		</g>
	</g>
</g>
</svg>
