<?xml version="1.0" encoding="utf-8"?>
<!-- Generator: Adobe Illustrator 21.0.2, SVG Export Plug-In . SVG Version: 6.00 Build 0)  -->
<svg version="1.1" id="Layer_1" xmlns="http://www.w3.org/2000/svg" xmlns:xlink="http://www.w3.org/1999/xlink" x="0px" y="0px"
	 viewBox="0 0 2000 2000" style="enable-background:new 0 0 2000 2000;" xml:space="preserve">
<style type="text/css">
	.st0{fill:#333333;}
	.st1{fill:#AFCFDB;}
	.st2{fill:none;stroke:#333333;stroke-miterlimit:10;}
</style>
<g>
	<g>
		<g>
			<path class="st0" d="M1642.3,2000H357.7C160.5,2000,0,1839.5,0,1642.3V357.6C0,160.5,160.5,0,357.7,0h1284.6
				C1839.5,0,2000,160.5,2000,357.6v1284.6C2000,1839.5,1839.5,2000,1642.3,2000z M357.7,143.3c-118.2,0-214.4,96.1-214.4,214.3
				v1284.6c0,118.2,96.2,214.5,214.4,214.5h1284.6c118.2,0,214.4-96.3,214.4-214.5V357.6c0-118.2-96.2-214.3-214.4-214.3H357.7z"/>
		</g>
	</g>
	<g>
		<g>
			<path class="st0" d="M1066.5,904.5c0,178.8-134,289.9-348.2,289.9H556.8v221.1H371.3V613.6h347
				C932.5,613.6,1066.5,724.7,1066.5,904.5z M878.8,904.5c0-88.1-57.4-139.6-170.7-139.6H556.8v278.3h151.2
				C821.4,1043.2,878.8,991.7,878.8,904.5z"/>
		</g>
		<g>
			<path class="st0" d="M1138.2,1358.2l59.6-128.3c54.8,35.4,138.5,59.5,214.2,59.5c82.4,0,113.3-21.7,113.3-56.1
				c0-100.7-372.3,2.4-372.3-244c0-116.8,105.4-199.2,285.3-199.2c84.8,0,178.7,19.4,237.1,53.7L1615.8,971
				c-60.7-34.3-121.4-45.8-177.5-45.8c-80.2,0-114.6,25.2-114.6,57.2c0,105.4,372.3,3.5,372.3,246.2c0,114.6-106.5,196-291,196
				C1300.7,1424.7,1195.4,1396,1138.2,1358.2z"/>
		</g>
	</g>
</g>
</svg>
