<?xml version="1.0" encoding="utf-8"?>
<!-- Generator: Adobe Illustrator 21.0.2, SVG Export Plug-In . SVG Version: 6.00 Build 0)  -->
<svg version="1.1" id="Layer_1" xmlns="http://www.w3.org/2000/svg" xmlns:xlink="http://www.w3.org/1999/xlink" x="0px" y="0px"
	 viewBox="0 0 2000 2000" style="enable-background:new 0 0 2000 2000;" xml:space="preserve">
<style type="text/css">
	.st0{fill:#333333;}
	.st1{fill:#AFCFDB;}
	.st2{fill:none;stroke:#333333;stroke-miterlimit:10;}
</style>
<g>
	<g>
		<g>
			<path class="st0" d="M1642.3,2000H357.7C160.5,2000,0,1839.5,0,1642.4V357.7C0,160.6,160.5,0.1,357.7,0.1h1284.6
				c197.2,0,357.7,160.5,357.7,357.6v1284.6C2000,1839.5,1839.5,2000,1642.3,2000z M357.7,143.4c-118.2,0-214.4,96.1-214.4,214.3
				v1284.6c0,118.2,96.2,214.3,214.4,214.3h1284.6c118.2,0,214.4-96.1,214.4-214.3V357.7c0-118.2-96.2-214.3-214.4-214.3H357.7z"/>
		</g>
	</g>
	<g>
		<g>
			<path class="st0" d="M1129.6,904.5c0,178.8-134,289.9-348.2,289.9H619.9v221.1H434.4V613.6h347
				C995.6,613.6,1129.6,724.7,1129.6,904.5z M941.9,904.5c0-88.1-57.4-139.8-170.7-139.8H619.9v278.4h151.2
				C884.5,1043.2,941.9,991.7,941.9,904.5z"/>
		</g>
		<g>
			<path class="st0" d="M1631.8,790.1v165c-14.8-1.3-26.3-2.4-40-2.4c-98.6,0-163.8,53.9-163.8,171.8v291h-178.7V799.2h170.5v81.3
				C1463.4,821,1536.8,790.1,1631.8,790.1z"/>
		</g>
	</g>
</g>
</svg>
