<?xml version="1.0" encoding="utf-8"?>
<!-- Generator: Adobe Illustrator 21.0.2, SVG Export Plug-In . SVG Version: 6.00 Build 0)  -->
<svg version="1.1" id="Layer_1" xmlns="http://www.w3.org/2000/svg" xmlns:xlink="http://www.w3.org/1999/xlink" x="0px" y="0px"
	 viewBox="0 0 1000 1000" style="enable-background:new 0 0 1000 1000;" xml:space="preserve">
<style type="text/css">
	.st0{fill:#282828;}
	.st1{fill:#FFFFFF;}
</style>
<rect x="-6" y="-4.8" class="st0" width="1019" height="1004.8"/>
<g>
	<rect x="146" y="581.8" class="st1" width="782.4" height="3.2"/>
	<polygon class="st1" points="332.5,627.2 327.6,620.1 325.9,620.1 325.9,634.8 328,634.8 328,624.4 331.9,630.2 333.1,630.2 
		336.9,624.4 336.9,634.8 339,634.8 339,620.1 337.3,620.1 	"/>
	<path class="st1" d="M353.5,626.3c-1.6-0.1-3.2-0.3-3.4-1.9c0-0.5,0.1-1,0.4-1.4c0.6-0.8,1.7-1.1,2.7-1.1c1.3,0,2.7,0.5,3,1.9
		l2.1-0.1c-0.4-2.7-2.7-3.9-5-3.9c-1.7,0-3.5,0.7-4.5,2c-0.6,0.8-0.9,1.8-0.8,2.8c0.2,3.1,2.9,3.6,5.2,3.8c1.5,0.1,3,0.3,3.2,1.5
		c0,0.2,0.1,0.4,0.1,0.5c0,1.5-1.7,2.4-3.3,2.4c-1.4,0-3-0.7-3.2-2.1v0.1l0-0.3l-2.1,0l0,0.4c0.3,2.6,3,4,5.3,4
		c2.7,0,5.5-1.6,5.5-4.5c0-0.3,0-0.7-0.1-1C358,627.1,355.5,626.6,353.5,626.3z"/>
	<path class="st1" d="M348,624.7C348,624.7,348,624.7,348,624.7C348,624.7,348,624.7,348,624.7L348,624.7z"/>
	<path class="st1" d="M374.2,632.8c-1.4,0-2.7-0.6-3.6-1.6c-0.9-1-1.5-2.3-1.5-3.8c0-1.5,0.6-2.8,1.5-3.8s2.2-1.6,3.6-1.6
		c2.2,0,4,1.1,4.8,3.3h2.1c-0.8-3.3-3.5-5.4-6.9-5.4c-2,0-3.8,0.9-5.1,2.2c-1.3,1.3-2.1,3.2-2.1,5.3c0,2,0.8,3.9,2.1,5.2
		c1.3,1.3,3.1,2.2,5.1,2.2c3.4,0,6.1-2.3,7-5.6H379C378.3,631.5,376.4,632.8,374.2,632.8z"/>
	<path class="st1" d="M411.4,632.8c-1.4,0-2.7-0.6-3.6-1.6c-0.9-1-1.5-2.3-1.5-3.8c0-1.5,0.6-2.8,1.5-3.8s2.2-1.6,3.6-1.6
		c2.2,0,4,1.1,4.8,3.3h2.1c-0.8-3.3-3.5-5.4-6.9-5.4c-2,0-3.8,0.9-5.1,2.2c-1.3,1.3-2.1,3.2-2.1,5.3c0,2,0.8,3.9,2.1,5.2
		c1.3,1.3,3.1,2.2,5.1,2.2c3.4,0,6.1-2.3,7-5.6h-2.1C415.5,631.5,413.6,632.8,411.4,632.8z"/>
	<polygon class="st1" points="435.2,626.3 428.9,626.3 428.9,620.1 426.8,620.1 426.8,634.8 428.9,634.8 428.9,628.4 435.2,628.4 
		435.2,634.8 437.3,634.8 437.3,620.1 435.2,620.1 	"/>
	<path class="st1" d="M453.2,619.9c-2.1,0-4,0.9-5.3,2.2c-1.3,1.4-2.2,3.2-2.2,5.3c0,2.1,0.9,4,2.2,5.3c1.3,1.4,3.2,2.2,5.3,2.2
		c2.1,0,4-0.8,5.3-2.2c1.3-1.4,2.2-3.2,2.2-5.3s-0.9-4-2.2-5.3C457.2,620.7,455.3,619.9,453.2,619.9z M457,631.3
		c-1,1-2.4,1.6-3.8,1.6c-1.5,0-2.8-0.6-3.8-1.6c-1-1-1.6-2.3-1.6-3.8c0-1.5,0.6-2.8,1.6-3.8c1-1,2.3-1.6,3.8-1.6
		c1.5,0,2.8,0.6,3.8,1.6c0.9,1,1.6,2.3,1.6,3.8C458.6,629,458,630.3,457,631.3z"/>
	<path class="st1" d="M479.7,624.8c0-2.3-1.6-4.7-4.8-4.7h-5.4v14.7h2.1v-12.6h3.3c1.8,0,2.7,1.3,2.7,2.5c0,1.3-0.9,2.6-2.7,2.6
		h-2.5v1l5.4,6.5h2.8l-4.7-5.5C478.4,628.8,479.7,626.8,479.7,624.8z"/>
	<path class="st1" d="M492.8,619.9l-5.9,14.9h2.3c0.5-1.2,1.2-3,1.8-4.3h5.3l1.8,4.3h2.3l-5.9-14.9H492.8z M491.7,628.5l1.9-5.2
		l1.8,5.2H491.7z"/>
	<polygon class="st1" points="510.1,620.1 508,620.1 508,634.8 517.1,634.8 517.1,632.7 510.1,632.7 	"/>
	<polygon class="st1" points="540.1,634.8 542.3,634.8 542.3,628.5 548.2,628.5 548.2,626.4 542.3,626.4 542.3,622.2 548.9,622.2 
		548.9,620.1 540.1,620.1 	"/>
	<polygon class="st1" points="559.2,628.5 565.8,628.5 565.8,626.4 559.2,626.4 559.2,622.2 566,622.2 566,620.1 557,620.1 
		557,634.8 566,634.8 566,632.7 559.2,632.7 	"/>
	<path class="st1" d="M579.7,626.3c-1.6-0.1-3.2-0.3-3.4-1.9c0-0.5,0.1-1,0.4-1.4c0.6-0.8,1.7-1.1,2.7-1.1c1.3,0,2.7,0.5,3,1.9
		l2.1-0.1c-0.4-2.7-2.7-3.9-5-3.9c-1.7,0-3.5,0.7-4.5,2c-0.6,0.8-0.9,1.8-0.8,2.8c0.2,3.1,2.9,3.6,5.2,3.8c1.5,0.1,3,0.3,3.2,1.5
		c0,0.2,0.1,0.4,0.1,0.5c0,1.5-1.7,2.4-3.3,2.4c-1.4,0-3-0.7-3.2-2.1v0.1l0-0.3l-2.1,0l0,0.4c0.3,2.6,3,4,5.3,4
		c2.7,0,5.5-1.6,5.5-4.5c0-0.3,0-0.7-0.1-1C584.3,627.1,581.7,626.6,579.7,626.3z"/>
	<path class="st1" d="M574.2,624.7C574.2,624.7,574.2,624.7,574.2,624.7C574.2,624.7,574.2,624.7,574.2,624.7L574.2,624.7z"/>
	<polygon class="st1" points="592.7,622 597.2,622 597.2,634.9 599.3,634.9 599.3,622 603.7,622 603.7,620.1 592.7,620.1 	"/>
	<polygon class="st1" points="611.5,622.2 614.2,622.2 614.2,632.7 611.5,632.7 611.5,634.8 619.1,634.8 619.1,632.7 616.3,632.7 
		616.3,622.2 619.1,622.2 619.1,620.1 611.5,620.1 	"/>
	<polygon class="st1" points="632.9,631.1 628.5,620.1 626.2,620.1 632.1,634.9 633.7,634.9 639.6,620.1 637.4,620.1 	"/>
	<path class="st1" d="M652.2,619.9l-5.9,14.9h2.3c0.5-1.2,1.2-3,1.8-4.3h5.3l1.8,4.3h2.3l-5.9-14.9H652.2z M651.2,628.5l1.9-5.2
		l1.8,5.2H651.2z"/>
	<polygon class="st1" points="669.6,620.1 667.4,620.1 667.4,634.8 676.5,634.8 676.5,632.7 669.6,632.7 	"/>
	<path class="st1" d="M706.3,620c-3.1,0-4.8,2.1-5.1,4.8l2.1,0.2c0.3-1.6,1.2-2.8,3-2.8c3.4,0,4,3.5,1.7,5.2h0l-6.9,5.9v1.6h10.3v-2
		h-6.8c2.1-1.8,2.7-2.1,4.8-3.9C713.4,626.1,711.9,620,706.3,620z"/>
	<path class="st1" d="M725,620.7c-3.6,0-5.4,3.6-5.4,7.1s1.8,7.1,5.4,7.1c3.6,0,5.4-3.5,5.4-7.1C730.4,624.2,728.6,620.7,725,620.7z
		 M725,632.8c-2.3,0-3.4-2.5-3.4-5s1.1-5.1,3.4-5.1c2.3,0,3.4,2.5,3.4,5.1S727.3,632.8,725,632.8z"/>
	<polygon class="st1" points="737.6,625.6 739.2,626.8 741.2,624.1 741.2,634.8 743.3,634.8 743.3,620 741.6,620 	"/>
	<polygon class="st1" points="751.7,622.1 759.2,622.1 752.3,634.8 754.8,634.8 762.1,621.5 762.1,620.1 751.7,620.1 	"/>
	<path class="st1" d="M183,408.2c0,0-0.9,3.6,2.2,5.4c0,0,3.2,1.9,5.2-0.9c0,0,1.6-2.4-1.5-4.2c0,0-1.8-1.2-3.9-0.6
		c0,0-0.8-1.5,1-2.8c0,0,2.1-1.7,6.2,0c0,0,6.3,2.5,3.4,12c0,0-1.2,5.3-8,7.7c0,0,9.2-1.3,11.5-9.6c0,0,1.9-7.6-6.6-11.2
		C192.4,404,185,401.1,183,408.2z"/>
	<ellipse transform="matrix(0.987 -0.1607 0.1607 0.987 -63.1104 38.185)" class="st1" cx="204.5" cy="409.2" rx="1.8" ry="1.3"/>
	<ellipse transform="matrix(0.987 -0.1607 0.1607 0.987 -64.1582 38.3648)" class="st1" cx="205" cy="415.7" rx="1.8" ry="1.3"/>
	<polygon class="st1" points="720.1,528.7 674.1,528.7 674.1,483.6 707.7,483.6 707.7,458.6 674.1,458.6 674.1,413.5 720.1,413.5 
		720.1,388.4 649.2,388.4 649.2,553.7 720.1,553.7 	"/>
	<path class="st1" d="M784.2,532.7c-3.9,0.2-7.3-1.4-10.3-4.6c-4-4.3-6.6-11.3-7.6-20.9l-23.7,1.7c0.5,8.8,2.4,16.6,5.5,23.4
		c3.1,6.8,7.4,12.2,12.7,16.2c6.4,4.8,14.5,7.3,24.3,7.3c5.3,0,9.9-0.6,13.8-1.8c7.4-2.3,13.1-6.2,17.1-11.7c6.2-8.2,9.1-18,9-29.5
		c-0.1-4.7-1.3-9.9-3.7-15.8c-1-2.4-2.2-5-3.8-7.8c-3.3-6-8.1-12-14.2-18.2c-1.8-1.9-5.7-5.3-11.5-10.2c-4.9-4-8.6-7.6-11.1-10.5
		c-6.5-7.8-9.8-15.5-9.8-23.1c0-4.8,1-8.9,2.9-12.1c2.4-4,5.8-6.1,10.4-6.1c4.3,0,7.6,1.4,9.9,4.1c3.2,3.8,5.1,9.1,5.8,15.8
		l23.9-4.4c-0.6-7.2-2.4-13.6-5.5-19.1c-3-5.5-7-9.8-11.9-12.9c-6.3-4-13.9-5.9-22.8-5.9c-9.2,0-17,2.3-23.2,7
		c-10.1,7.7-15.2,19.1-15.2,34.2c0,8.4,1.8,16.1,5.5,23.2c3.4,6.3,9.3,13.5,17.5,21.5c9.8,9.3,17.2,16.3,22.1,21
		c6.2,6.8,9.4,13.6,9.4,20.5c0,4.8-0.8,8.4-2.5,11C794,529.9,789.6,532.5,784.2,532.7z"/>
	<path class="st1" d="M886.7,532.8c-3.9,0.2-7.3-1.4-10.3-4.6c-4-4.3-6.6-11.3-7.6-20.9l-23.7,1.7c0.5,8.8,2.4,16.6,5.5,23.4
		c3.1,6.8,7.4,12.2,12.7,16.1c6.4,4.8,14.5,7.3,24.3,7.3c5.3,0,9.9-0.6,13.8-1.8c7.4-2.3,13.1-6.2,17.1-11.7c6.2-8.2,9.1-18,9-29.5
		c-0.1-4.7-1.3-9.9-3.7-15.8c-1-2.4-2.2-5-3.8-7.8c-3.3-6-8.1-12-14.2-18.2c-1.8-1.9-5.7-5.3-11.5-10.2c-4.9-4-8.6-7.6-11.1-10.5
		c-6.5-7.8-9.8-15.5-9.8-23.1c0-4.8,1-8.9,2.9-12.1c2.4-4,5.8-6.1,10.4-6.1c4.3,0,7.6,1.4,9.9,4.1c3.2,3.8,5.1,9.1,5.8,15.8
		l23.9-4.4c-0.6-7.2-2.4-13.6-5.5-19.1c-3-5.5-7-9.8-11.9-12.9c-6.3-4-13.9-5.9-22.8-5.9c-9.2,0-17,2.3-23.2,7
		c-10.1,7.7-15.2,19.1-15.2,34.2c0,8.4,1.8,16.1,5.5,23.2c3.4,6.3,9.3,13.5,17.5,21.5c9.8,9.3,17.2,16.3,22.1,21
		c6.2,6.8,9.4,13.6,9.4,20.5c0,4.8-0.8,8.4-2.5,11C896.5,529.9,892.2,532.6,886.7,532.8z"/>
	<path class="st1" d="M467.8,554.6c0.3-0.2,0.6-0.4,0.9-0.6l-8-23.7c0,0-7.2,2.8-5.7,10.4c0,0,0.7,5.3,6.1,7.5c0,0-7.2-1.1-9.3-8.7
		c0,0-3-10.5,6.5-16.1l-4.1-11.5c0,0-3.4,3.8-6.3,9.3v26.5c0.4,0.6,0.9,1.1,1.4,1.6c0,0,3.5,3.3,8.1,5.2H467.8z"/>
	<path class="st1" d="M447.8,505.9c1.6-2.3,2.8-3.6,2.8-3.6c-1.2-3.1-2.1-6-2.8-8.7V505.9z"/>
	<path class="st1" d="M472.7,554.6v-0.5c-0.3,0.2-0.6,0.4-0.9,0.5H472.7z"/>
	<path class="st1" d="M472.7,534.5c-4.6-5.7-10.6-4.6-10.6-4.6l8,23.3c1-0.7,1.9-1.5,2.6-2.3V534.5z"/>
	<path class="st1" d="M447.8,554.6h6.8c-2.7-1.4-5-3.2-6.8-5V554.6z"/>
	<path class="st1" d="M456.1,471.5c-3.1-1.8-5,2-5,2c-5.7,13.9,0.6,27.4,0.6,27.4C466.4,479,456.1,471.5,456.1,471.5z"/>
	<path class="st1" d="M447.8,466.5c2.1-3.8,4.7-4.8,4.7-4.8c7.9,5.2,9.3,20.7,9.3,20.7c1.5,19.9-6.6,28.5-6.6,28.5l4.7,12.1
		c5.6-1.5,9.8,0.8,12.8,4v-91.3l-0.1,0.2l0,0c-0.7,2-3.2,3.6-6.2,3.9c-3.7,0.3-6.9-1.7-7.1-4.3c-0.2-2.7,2.7-5.1,6.4-5.4
		c3-0.2,5.6,1,6.6,2.8l0.4-0.9v-17.4h6.9l0.5-1.3l1.2-5.2l1.9,1.1l-2.1,5.3h18v-25h-37.2l-0.9,11.9c0,0-0.2,3-3.3,3.9
		c-2.1,0.6-4.2-0.6-4.6-2.3c-0.3-1.7,1.2-3.4,3.3-3.9c1.6-0.3,2.7-0.3,3.5,0.7c0.5-5.3,0.7-8.4,0.7-10.3h-13.9l-0.3,0l-1.2,15.2
		c0,0,0,0.1,0,0.1l0,0c-0.1,1.4-1.5,2.8-3.4,3.1c-2.2,0.4-4.2-0.6-4.6-2.3c-0.3-1.7,1.2-3.4,3.3-3.9c1.4-0.3,2.7,0,3.6,0.7l0,0
		c0.7-7.4,0.8-12.9,0.8-12.9l0,0c0,0,0-0.1,0-0.2h-23.7v25h26.5V466.5z"/>
	<path class="st1" d="M385.9,466.3c-2.4-0.6-4.1-2.1-4.1-2.1s0,0,0,0c-1.1-0.9-1.6-2.3-1.2-3.5c0.6-1.6,2.7-2.2,4.7-1.4
		c0.2,0.1,0.4,0.2,0.6,0.3v-8.3c-0.4-0.4-0.6-0.6-0.6-0.6l-0.5,0.4c-7,6.1-15.9-0.3-15.9-0.3c-10.6-7.7-5.9-22.9-5.9-22.9
		c-0.7-0.7-1.4-1.4-2-2.1v39.9l1.2-0.9l0,0l8.9-6.8l0.9,1.9l5.4,11.3c0,0,1.1,2.3-1.4,4.5c-1.7,1.5-4.2,1.7-5.2,0.7
		c-1.1-1.1-0.4-3.1,1.4-4.5c1.3-1.1,2.3-1.6,3.5-1.3c-4-8.9-4.9-9.7-4.9-9.7l-7.6,5.8l0,0l-2.1,1.6v6.2l3.4,7.2c0,0,0,0.1,0,0.1l0,0
		c0.5,1.1-0.2,2.8-1.7,4c-0.5,0.4-1.1,0.8-1.7,1v3.2l24.9-5.7V466.3z"/>
	<path class="st1" d="M367.1,431.9c0,0-4.8,15.8,6.5,20.4c0,0,8.3,2.7,11.1-2.3l-9.8-10.2c0,0-3.1,3.1-0.4,6.7c0,0,1.6,2.5,4.9,2.4
		c0,0-4,1.1-6.9-2.2c0,0-4-4.7-0.6-9.8L367.1,431.9z"/>
	<path class="st1" d="M363.2,426.9c1.3-8.6-0.5-12.6-2.3-14.5v12.1C362.2,426.1,363.2,426.9,363.2,426.9z"/>
	<polygon class="st1" points="385.9,499.3 375.9,501.7 385.9,517.7 	"/>
	<path class="st1" d="M362.5,480.5c-0.5-1.1-1-2.2-1.5-3.1v3.3C361.5,480.6,362,480.5,362.5,480.5L362.5,480.5z"/>
	<path class="st1" d="M385.9,447.7v-4.5c-1-2.6-3.5-4-3.5-4c-3.9-2.1-6.9,0-6.9,0l9.7,10C385.5,448.7,385.7,448.2,385.9,447.7z"/>
	<path class="st1" d="M385.9,553.3c-8.6,3-17.6-2.7-17.6-2.7c-3.2-2-5.6-4.5-7.3-7.2v11.2h24.9V553.3z"/>
	<path class="st1" d="M385.9,531.8c-5.3-1.9-9,1.1-9,1.1l9,8.1V531.8z"/>
	<path class="st1" d="M367.4,431.1l5.3,5.1c6-5,13.1,2.8,13.1,2.8c0,0.1,0.1,0.1,0.1,0.2v-11.8c-0.5,0-1.1-0.1-1.8-0.4
		c-2.1-0.8-3.4-2.9-3-4.4c0.5-1.4,2.6-1.8,4.7-0.8c0,0,0.1,0,0.1,0.1v-10.7l-4.4-2.1l-7.9,10.3c0,0,0,0-0.1,0.1l0,0
		c-0.8,1-2.6,1.1-4.4,0.3c-2.1-1-3.4-2.9-3-4.4c0.5-1.4,2.6-1.8,4.7-0.8c1.3,0.6,2.3,1.6,2.8,2.6l0,0c4-4.9,6.6-8.8,6.6-8.8l0,0
		c0.1-0.3,0.5-1,0.8-1.7l4.8,2.4v-19.5H361v13.1c0.4,0.4,0.6,0.9,0.6,1.4c0,0,0.2,0.2,1-0.3l16.2-10.6l0.1,0.4c0,0-1.6,1.3-1.9,2.9
		c0,0-0.7,4.4-3.5,6.6c0,0-0.4,0.3-0.6,0.2c0,0,3.8-3.2,2.4-7.2c0,0-1.7,0.4-2.2,2.4c0,0-0.8,3.2-2.1,5.5c0,0-1.6,3.5-6.3,4.2
		l-0.1-0.1c0,0,8.3-1.6,6.1-9l-9.8,6.2v5.9c1.8,2,3,4,3,4C369.5,424.8,367.4,431.1,367.4,431.1z"/>
	<path class="st1" d="M363.7,523c0,0-5.6,23.8,11.6,29.5c0,0,5.8,1.5,10.6,0v-9.7l-9.8-9c0,0-4.2,5,0,9.9c0,0,2.7,3.6,7.5,3
		c0,0-5.7,2.1-10.4-2.6c0,0-6.4-6.5-1.8-14.4L363.7,523z"/>
	<path class="st1" d="M385.9,522.7c-0.1,0.1-0.1,0.2-0.2,0.3c-1.3,2.2-3.7,3.1-5.2,2.1c-1.6-1-1.7-3.5-0.4-5.7
		c1.1-1.7,2.8-2.7,4.2-2.5l-7.6-12.2l-2.2-2.6l-13.3,3.1c4.6,10.2,3,16.8,3,16.8l8.3,6.9c4.4-4.2,9.6-3.2,13.5-1.3V522.7z"/>
	<path class="st1" d="M587.4,420.8l10.9-32.4h-12.6V422c0.1,0.1,0.2,0.2,0.3,0.4C585.9,422.4,586.7,422.8,587.4,420.8z"/>
	<path class="st1" d="M552.3,520.1c-0.5,0.4-1.2,0.8-2,1.1c-2.4,0.7-4.7-0.6-5.1-2.5c-0.4-1.9,1.3-3.8,3.7-4.3
		c1.5-0.3,2.6-0.3,3.4,0.3v-13.4l-8.8,1.6v0l-5.6,1l-1.3,16.8c0,0,0,0.1,0,0.1l0,0c-0.1,1.6-1.7,3.1-3.7,3.5
		c-2.4,0.5-4.7-0.6-5.1-2.5c-0.4-1.9,1.3-3.8,3.7-4.3c1.5-0.3,3,0,3.9,0.8l0,0c0.7-8.2,0.9-14.2,0.9-14.2l0,0c0-0.4-0.1-1.4-0.2-2.5
		l7.6-1.4v0l8.6-1.5v-50.8l34.3,105.9h26.8V388.4h-9.1c0.3,1.1,0.7,2.3,1.4,3.6c0,0,6.6,11.4,5.1,18.9c0,0-0.2,1-0.9,1
		c0,0,1.7-10.9-8.3-19.5c0,0-2.7,2.4,0,7.5c0,0,4.1,8.4,5.8,15.1c0,0,3.2,9.8-5,15.1l-0.4-0.3c0,0,13.5-10.3-4.1-26.7l-8.4,23.6
		c-0.1,0.2-0.1,0.4-0.2,0.6v0c-0.2,0.5-0.5,0.9-0.8,1.4v70.8l-33.1-111.1h-28v165.3h24.9V520.1z"/>
	<path class="st1" d="M111.5,463.6L111.5,463.6c0.1-0.4,0.2-0.7,0.3-1.1l12.3-39.5c28.5,23,7.6,42.1,7.6,42.1l0.7,0.4
		c12.8-10,7.2-25.2,7.2-25.2c-3-10.4-9.9-23.1-9.9-23.1c-4.4-7.8-0.3-12.1-0.3-12.1c16.3,11.9,14.1,29.7,14.1,29.7
		c1.1-0.1,1.3-1.7,1.3-1.7c2.1-12.4-8.9-29.5-8.9-29.5c-4.2-6.4-2.8-13.6-2.8-13.6l-1.7-1.3l-18.8,64.1c-1,3.4-2.2,2.9-2.2,2.9
		c-2.8-3.6-8.5-5.8-14.9-5c-8.4,1-14.7,6.6-14,12.6c0.7,6,8.1,10,16.5,9C104.6,471.6,109.8,468,111.5,463.6z"/>
	<path class="st1" d="M150.7,465.7c0,0,4.5,2.4,8.1-2.7c0,0,4.2-7-0.9-10.3l2.5-5.1c0,0,5.2,0.1,11.2-6.3c0,0,4.6-5,3.9-9.1
		c0,0-6.2-3.1-13.7,11.4c0,0-12.2,0-15.5,9.6c0,0-2.7,8.1,3.4,11.8l0.4,0.3c0,0-1.7,3.4-3,5.8c0,0-2,3.8-5.4,1.9
		c0,0-2.2-1.5-1.6-3.4l0,0c0.3,0.3,0.7,0.4,1.1,0.4c1.3,0.1,2.5-1.1,2.6-2.7c0.1-1.6-0.8-3-2.1-3.1c-1-0.1-1.9,0.6-2.3,1.7
		c0,0,0,0,0,0s-2.2,4.9,1.6,7.4c0,0,3.1,2.3,5.5-0.4C146.4,472.8,147.6,471.3,150.7,465.7z M171.2,435.3c0,0,1.8-0.5,2.1,1
		c0,0,0.6,5.5-10.8,7.2C162.6,443.6,165,437.6,171.2,435.3z M157.8,460.5c0,0-1.1,5.5-6.7,4.4l5.2-9.4
		C156.3,455.5,158.5,457.2,157.8,460.5z M146.2,457c0.8-9.4,13.6-9.4,13.6-9.4l-2.5,4.7c-4.6-1.4-7.1,2.7-7.1,2.7
		c-1.8,2.9,0,5.6,0,5.6c-0.9-2.4,0.6-4.2,0.6-4.2c2-2.7,5-1.2,5-1.2l-5.3,9.5C146.1,463.8,146.2,457,146.2,457z"/>
	<path class="st1" d="M126.3,475.9l-2.5-3.7l-12.9,14.6l0,0l-8.4,9.5c1.2,1.3,2.4,2.5,2.8,2.9l0,0c0,0,5.9,8,13.3,19.2l0,0
		c-2,0-4.2,1.1-5.8,3c-2.6,3.1-2.8,7.2-0.4,9.2c2.4,2,6.5,1.1,9.1-2c2.2-2.6,2.7-6.1,1.3-8.3l0,0c0-0.1-0.1-0.1-0.1-0.2l-15.4-22.8
		l6.2-7l0,0l11.1-12.5c0,0,2,1.5,13.3,18.8c-2.2-0.4-3.8,0.8-5.7,3c-2.6,3.1-2.8,7.2-0.4,9.2c2.4,2,6.7,1.3,9.1-2
		c3.4-4.8,0.4-9.2,0.4-9.2L126.3,475.9z"/>
	<path class="st1" d="M157.5,493.5c-1.2-0.3-2.3,0.2-2.6,1.1c-0.2,0.9,0.5,2,1.7,2.2c1.7,0.3,2.6-1.1,2.6-1.1l4.1-6.8l0.7-1.1
		l-5.6-1.6l0,0l-3.6-1.1c-0.2,0.5-0.4,1-0.4,1.1l0,0c0,0-1.4,2.6-3.5,6l0,0c-0.3-0.5-0.8-1-1.6-1.2c-1.2-0.3-2.3,0.2-2.6,1.1
		c-0.2,0.9,0.5,1.9,1.7,2.2c1,0.3,2,0,2.4-0.7l0,0c0,0,0,0,0,0l4.2-7.1l2.7,0.8l0,0l4.8,1.4c0,0-0.1,0.7-3.4,6
		C158.8,494,158.3,493.8,157.5,493.5z"/>
	<path class="st1" d="M167.6,381.2c-1.1-0.1-2.3,0.7-3,2.2c-1,1.9-0.8,4.2,0.4,5.1c1.2,0.9,3,0.1,4-1.8c0.8-1.5,0.8-3.2,0.2-4.3l0,0
		c0-0.1-0.1-0.2-0.2-0.3l-5.7-9.5c8.3-1.8,8.9,5.9,8.9,5.9l0.2-0.1c-0.1-4.4-3.7-5.9-3.7-5.9c-2.4-1.2-5.7-2.1-5.7-2.1
		c-2.1-0.5-2.3-2.1-2.3-2.1c4.5-1.2,7.5,2.4,7.5,2.4c0.1-0.2-0.1-0.6-0.1-0.6c-2-2.6-6.7-3.4-6.7-3.4c-1.8-0.3-2.9-1.8-2.9-1.8
		l-0.5,0.1l9.3,15.1C167.9,381.1,167.6,381.2,167.6,381.2z"/>
	<path class="st1" d="M77.6,436.1c1,0.3,2,0,2.4-0.7l0,0c0,0,0,0,0,0l4.2-7.1L87,429l0,0l4.8,1.4c0,0-0.1,0.7-3.4,6
		c-0.2-0.7-0.7-0.9-1.5-1.2c-1.2-0.3-2.3,0.2-2.6,1.1s0.5,2,1.7,2.2c1.7,0.3,2.6-1.1,2.6-1.1l4.1-6.8l0.7-1.1l-5.6-1.6l0,0l-3.6-1.1
		c-0.2,0.5-0.4,1-0.4,1.1h0c0,0-1.4,2.6-3.5,6l0,0c-0.3-0.5-0.8-1-1.6-1.2c-1.2-0.3-2.3,0.2-2.6,1.1
		C75.7,434.8,76.5,435.7,77.6,436.1z"/>
	<path class="st1" d="M80,503.8L72.8,489l-1.2,0.3l1.7,2.5l5.2,10.8c-1.2-0.3-2.7,0.4-3.8,1.7c-1.3,1.7-1.4,3.8-0.2,4.8
		c1.2,1,3.3,0.4,4.6-1.3C80.3,506.5,80.5,504.9,80,503.8L80,503.8z"/>
	<path class="st1" d="M298.6,432.7c2.5,0.3,4.8-0.9,5.5-2.7l0,0c0,0,0-0.1,0.1-0.1l7.4-18.9l6.8,0.8l0,0l1.9,0.2l0.5-3.1l-1.2-0.1
		l0,0l-9.2-1.1c-0.2,1.3-0.5,2.5-0.6,2.9h0c0,0-2.4,6.9-6.1,16.1l0,0c-0.9-1.2-2.4-2.1-4.3-2.3c-3-0.3-5.5,1.3-5.8,3.6
		C293.4,430.3,295.6,432.4,298.6,432.7z"/>
	<path class="st1" d="M319.8,395.3c1.2-0.1,2.2-0.4,3.2-0.8l0.7-4.6h-10.9c-0.1,0.4-0.1,0.7-0.1,1.1
		C312.9,393.6,316.1,395.6,319.8,395.3z"/>
	<path class="st1" d="M299.3,410.6c1.7-1.1,2.7-2.8,2.5-4.2l0,0l-1.7-16.5h-1.1l0.2,0.8l1.4,14c-1.2-0.8-3.1-0.7-4.8,0.4
		c-0.2,0.1-0.3,0.2-0.5,0.3l-0.8,5.7C295.8,411.8,297.7,411.6,299.3,410.6z"/>
	<path class="st1" d="M306.1,445.3c-2.4,0.8-3.8,2.9-3.2,4.6c0.6,1.7,3,2.4,5.4,1.6c1.9-0.7,3.2-2.2,3.3-3.6l0,0l2.1-19.1l-1.4-0.4
		l0.1,3.6l-1.5,14C309.9,445,308,444.7,306.1,445.3z"/>
	<path class="st1" d="M257.6,479.9l0.7-5.1c-0.1,0.1-0.1,0.2-0.2,0.3C257.1,476.7,257,478.6,257.6,479.9z"/>
	<path class="st1" d="M310.4,474.8l1-6.3c-1.5-1.3-2.9-2.5-4.3-3.6c2.8-0.8,4.9-2.6,5.5-4.6l5.9-38l-0.9,4.9c-1.6,0.6-2.8,1.8-3,3.3
		c-0.1,1.3,0.6,2.7,1.7,3.6l-3.7,20.4c-0.3,1.8-1,1.6-1,1.6c-1.6-1.7-4.6-2.4-7.7-1.7c-2.9,0.7-5.2,2.4-6,4.4
		c-0.9-0.5-1.4-0.7-1.4-0.7c-1.3-0.8-2.7-1.6-4.1-2.3l7.9-13.3l3-5.1l-9-2.6c-0.3-1.8-1.5-3.5-1.5-3.5c-0.3-0.4-0.6-0.8-0.9-1.2
		l-1.3,9.6l6.1,1.8c0,0-0.4,1.9-6.8,13c-0.4-0.2-0.8-0.4-1.3-0.7l-1.5,10.8l2.3-3.8C298.1,464.6,304.9,469.5,310.4,474.8z"/>
	<path class="st1" d="M244.7,463.7L244.7,463.7c0-0.1,0.1-0.1,0.1-0.2l6.7-11.4c12,0.7,22.2,2.8,30.9,5.8l-1.2-8
		c-7.5-3.7-15.3-7-22.5-10l4.8-8.1l11.9,3.4l0,0l3.8,1.1l-0.9-6.3l-15.2-4.4c3-0.7,6.4-2.6,9.4-7.1c1.6,1.1,3.1,2.2,4.6,3.3
		l-1.2-7.9c-0.4-0.3-0.7-0.5-1.1-0.8c0.2-0.7,0.4-1.5,0.6-2.4l-1.9-13c-0.9-1.2-2.2-2.3-3.8-3.3l2.1-4.7h-1.8l-1.8,3.9
		c-9-2.3-14.2,4.2-15.6,6.3c-2.3-1.1-4.6-2.2-6.8-3.2c1.6-2.9,3.8-5.2,6.3-7h-5.5c-0.1,0.2-0.3,0.4-0.4,0.6l-2,14.4
		c2.2,0.7,4.4,1.4,6.5,2.2c0.2,3.7,2,6.2,2,6.2c-0.9-2.1-0.9-4.1-0.6-5.6c2.7,1.1,5.3,2.2,7.7,3.4l-5.8,11.6
		c-7.4-1.2-9.6-9.7-10.3-14.3l-0.5,3.5c1.2,4.4,3.8,8.8,9.1,11.7l0.9,0.6c0,0-2.8,6.1-5.3,11.4c-2.7-1-5.2-2-7.5-2.8l-2.6,19
		c3.6-0.1,7,0,10.4,0.1c-1.1,1.8-2.2,3.7-3.4,5.7l0,0c-1.2-2.4-3.7-4.4-7-5.3c0,0,0,0,0,0l-2,15
		C239.6,467.7,243.1,466.3,244.7,463.7z M270.7,410.3c-2.2-1.5-4.5-2.9-6.8-4.2l2.4-5C266.4,401.1,270.8,404.1,270.7,410.3z
		 M255.7,401.6c4.2-3.5,9.4-1.1,9.4-1.1l-2.4,4.9C260.4,404,258.1,402.8,255.7,401.6z M261.2,411.8c2.9,1.5,5.6,3,8.1,4.6
		c-1.7,3.6-5.5,8-13.6,6.8L261.2,411.8z M254.8,425c0,0,3.2,1.5,7.3,0.9c-0.8,2.1-1.5,3.9-1.7,4.6l0,0c0,0-1.6,3.1-4.5,8.2
		c-2.3-0.9-4.6-1.8-6.7-2.6C250.5,433.6,252.4,430,254.8,425z"/>
	<path class="st1" d="M274.9,463c-5.2-1.4-10.3,0.8-11.4,4.8c-0.8,3.1,0.9,6.6,4.1,8.5c-1,0.5-1.9,1.1-2.8,1.8c1-3-0.9-5.1-0.9-5.1
		l-3.2-3.6l0.4,2.6c0.2,0.2,0.3,0.4,0.5,0.6c-0.1,0-0.3,0-0.4,0l5,31.7c1.8,0.8,5.5,2,9.1,0.6c0.2,2.7,0.4,6.6,0.5,11.1l0,0
		c-1.1-0.7-2.7-0.9-4.3-0.3c-0.1,0-0.2,0.1-0.3,0.1c-1-1.4-2.1-2.9-3.4-4.5c0,0-0.2-0.2-0.6-0.6l0.9,6c0.1,0.4,0.2,0.7,0.3,1.1
		c0,0.1-0.1,0.1-0.1,0.2l0.6,4.1c0.2,0.1,0.3,0.2,0.5,0.3c0.3,1.9,0.5,4,0.6,6.4l4.1,26.2h6.5c-4.8-8.4-3.5-19.7-3.5-19.7l8.5,5.9
		c-3.1,7.1,1.5,12.3,3.1,13.8h3.7c-0.3-0.2-0.4-0.4-0.4-0.4c-4.8-4.5-1.2-10-1.2-10l4.6,3.3c-0.1,0.1-0.2,0.2-0.3,0.3
		c-1.9,2.2-2.4,5.1-1.3,6.8h4.1l1.5-9.3c-1,0.2-2,0.6-3,1.4l-4.8-3.4c0,0,2.9-3,7.8-2.4l0.6,1.1l0.8-5.1c-0.8-0.3-1.7-0.6-2.5-0.8
		l-1.9-4.2c2-0.1,3.8,0,5.2,0.3l0.2-1.3c-2.8-1.3-5.3-2.2-5.3-2.2c-2.7-0.9-3.2-2.6-3.3-3.2c0.1-0.1,0.2-0.2,0.3-0.3
		c3.9-0.3,6.9,1,8.8,2.3l0.1-0.8c-2.4-1.8-5.5-2.9-6.9-3.3c3.9-3.9,7.3-8.9,9.2-15.6c0,0,5.5-21.5-18.8-31.8l-0.3,1.8l-0.3-2
		c-0.7-0.2-2.4-0.8-4.6-1.1c1.3-1.1,1.9-2.2,1.9-2.2l1.8-3l-0.7-4.5c-0.6,0.9-1.1,1.8-1.7,2.8C281,465.3,278.7,464.1,274.9,463z
		 M296.8,536.4c-3.5-0.6-7.4,0-10.4,3.7l-8.9-5.8c4-1.3,9.5-3.6,14.5-7.6L296.8,536.4z M286.3,515.2c0.6,2,3.3,3.1,5.8,2.1
		c0.6-0.3,1.1-0.6,1.5-0.9c-0.6,1.3-1.4,3.1-2.8,5.1c-0.6-0.6-0.9-1.1-0.9-1.1l-0.8,0.1l1,2.1c-2.6,3.5-6.6,7.5-12.7,10.7
		c0-1.7-0.2-5.6-2.6-10.9c1.6-0.9,2.6-2.3,2.5-3.7v0c0,0,0-0.1,0-0.1l-0.6-14.3c1.1-0.7,2.2-1.7,3.2-3c0,0,0.6-0.9,0.9-2.2l1.6-0.5
		l0,0l10.6-3.2c0,0,0.6,1.5,0.9,15.2c-1.1-1-2.4-0.9-4.3-0.3C287.2,511,285.6,513.3,286.3,515.2z M284.8,479.6
		c0,0,16.5,6.6,10.6,30.9l-0.6-15.7l-0.1-3l-12.3,3.7l0,0l-1.3,0.4c-0.3-2.1-1.7-4.6-5.5-6.7c0,0-5.2-3.6-11.3-1.7
		c0,0-2.3-4.3,2.9-8c0,0,1.5-1.2,4.5-1.8c1.8,0.2,3.3,0.1,4.7-0.3C278.7,477.6,281.5,478.2,284.8,479.6z"/>
	<path class="st1" d="M244.3,530.8c0.8-5.3-3.9-12.6-3.9-12.6c-1.8-2.7-1.3-5.8-1.3-5.8l-0.7-0.6l-7.9,27.5c-0.4,1.5-1,1.2-1,1.2
		c-1.2-1.6-3.7-2.4-6.4-2.1c-3.6,0.5-6.3,2.9-6,5.4c0.3,2.6,3.5,4.3,7.1,3.8c2.8-0.4,5-1.9,5.8-3.8l0,0c0.1-0.2,0.1-0.3,0.1-0.5
		l5.2-17c12.3,9.8,3.4,18,3.4,18l0.3,0.2c5.5-4.3,3-10.8,3-10.8c-1.3-4.5-4.3-9.9-4.3-9.9c-1.9-3.3-0.2-5.2-0.2-5.2
		c7,5.1,6.1,12.7,6.1,12.7C244.2,531.5,244.3,530.8,244.3,530.8z"/>
	<path class="st1" d="M220.4,515c0,0-1.7,8.3,4.8,11.3l0.4,0.2c0,0-1.3,3.5-2.3,6.1c0,0-1.5,4-5.1,2.5c0,0-2.4-1.3-2-3.2l0,0
		c0.3,0.2,0.7,0.3,1.1,0.3c1.3-0.1,2.3-1.4,2.2-3c-0.1-1.6-1.2-2.9-2.5-2.8c-1,0-1.8,0.8-2.1,1.9c0,0,0,0,0,0s-1.6,5.2,2.5,7.2
		c0,0,3.3,1.9,5.4-1.1c0,0,1.1-1.6,3.4-7.6c0,0,4.7,1.9,7.7-3.6c0,0,3.3-7.5-2.1-10.1l1.9-5.3c0,0,5.2-0.5,10.3-7.6
		c0,0,1.8-2.5,2.6-5.4c0.2,0.9,0.6,1.6,1.4,2c1.7,1.1,4.3,0.2,5.7-2c1.2-1.9,1.2-4.2,0.1-5.5l0,0c0,0-0.1-0.1-0.1-0.1l-12-13.6
		l3.4-5.1l0,0l6.1-9.1c0,0,1.2,0.6,7.7,8.2l0.3-1.8l-7-7.9l-2-2.2l-7.2,10.6l0,0l-4.6,6.9c0.9,0.7,1.8,1.4,2.1,1.7l0,0
		c0,0,4.5,4.7,10.3,11.4l0,0c-1.3,0.2-2.7,1.1-3.6,2.5c-0.2,0.3-0.3,0.6-0.5,0.9c0-0.3-0.1-0.6-0.2-1c0,0-6.5-2.3-12.2,12.9
		C234.6,503.6,222.5,505.1,220.4,515z M243,494.3c0,0,1.7-0.7,2.3,0.8c0,0,1.3,5.4-9.9,8.5C235.4,503.5,237.1,497.2,243,494.3z
		 M232.7,520.9c0,0-0.4,5.6-6.2,5.2l4-10C230.5,516.1,233,517.5,232.7,520.9z M231.1,512.8c-4.7-0.8-6.7,3.5-6.7,3.5
		c-1.4,3.1,0.6,5.5,0.6,5.5c-1.1-2.3,0.1-4.2,0.1-4.2c1.7-3,4.9-1.8,4.9-1.8l-4.1,10.1c-4.5-0.4-5.2-7.1-5.2-7.1
		c-0.3-9.4,12.3-11,12.3-11L231.1,512.8z"/>
	<path class="st1" d="M215.9,511.5L215.9,511.5c0,0-0.1-0.1-0.1-0.1l-11.9-17.5l4.7-5.3l0,0l8.5-9.6c0,0,1.6,1.1,10.2,14.4
		c-1.7-0.3-2.9,0.6-4.4,2.3c-2,2.4-2.1,5.5-0.3,7.1c1.8,1.5,5.2,1,7-1.5c2.6-3.7,0.3-7.1,0.3-7.1l-11.4-16.9l-1.9-2.8l-9.9,11.2l0,0
		l-6.4,7.3c1,1,1.9,1.9,2.2,2.3l0,0c0,0,4.5,6.1,10.2,14.7l0,0c-1.5,0-3.2,0.8-4.5,2.3c-2,2.4-2.1,5.5-0.3,7.1c1.8,1.5,5,0.9,7-1.5
		C216.6,515.8,217,513.2,215.9,511.5z"/>
	<path class="st1" d="M193.7,429l-0.9,0.2l17.5,28.5c1,1.5,0.4,1.8,0.4,1.8c-2-0.2-4.2,1.4-5.6,4.1c-1.8,3.6-1.5,7.8,0.8,9.5
		c2.3,1.7,5.6,0.2,7.5-3.4c1.4-2.8,1.5-6,0.5-8.1l0,0c-0.1-0.2-0.2-0.3-0.3-0.5l-10.6-17.8c15.5-3.3,16.7,11,16.7,11l0.3-0.1
		c-0.2-8.2-6.9-11.1-6.9-11.1c-4.4-2.3-10.7-3.9-10.7-3.9c-3.9-0.9-4.3-3.9-4.3-3.9c8.4-2.3,14.1,4.5,14.1,4.5
		c0.3-0.5-0.2-1.1-0.2-1.1c-3.8-4.9-12.7-6.4-12.7-6.4C195.8,431.9,193.7,429,193.7,429z"/>
	<path class="st1" d="M218.9,428.7c-2.1,0.4-3.6,1.9-3.3,3.4c0.3,1.5,2.2,2.4,4.3,2c1.7-0.3,3-1.4,3.3-2.6l0,0l4.4-15.8l-1.1-0.5
		l-0.4,3l-3.2,11.6C222.2,428.9,220.6,428.4,218.9,428.7z"/>
	<path class="st1" d="M199.5,424.9c-1.3-0.4-2.6,0.2-2.8,1.2c-0.3,1,0.6,2.1,1.9,2.5c1.1,0.3,2.2,0,2.7-0.8l0,0c0,0,0,0,0-0.1
		l4.7-7.9l3,0.9l0,0l5.3,1.6c0,0-0.2,0.8-3.8,6.7c-0.2-0.7-0.8-1-1.7-1.3c-1.3-0.4-2.6,0.2-2.8,1.2c-0.3,1,0.5,2.2,1.9,2.5
		c1.9,0.4,2.8-1.2,2.8-1.2l4.5-7.6l0.8-1.3l-6.2-1.8l0,0l-4-1.2c-0.2,0.6-0.4,1.1-0.5,1.3l0,0c0,0-1.6,2.9-3.9,6.7l0,0
		C200.9,425.6,200.3,425.1,199.5,424.9z"/>
	<path class="st1" d="M198.3,482.4c1.7,1.7,4,1.6,5.1,0c1.1-1.7,0.6-4.4-1.1-6.1c-1.4-1.3-3.1-1.6-4.2-0.8l3.5-16l1.3-3.9l-1.3,0
		l-4.7,21.8l0,0C196.4,479,196.9,481,198.3,482.4z"/>
	<path class="st1" d="M225.6,461.1c0,0,2.4-3,1.3-9.4c0,0-0.9-5-3.6-6.5c0,0-4.6,2.3,0.5,13.2c0,0-5.5,7.3-1.3,13.6
		c0,0,3.5,5.3,8.5,3.4l0.3-0.1c0,0,1.2,2.5,2,4.4c0,0,1.3,2.9-1.3,4.1c0,0-1.9,0.6-2.7-0.6l0,0c0.3-0.1,0.6-0.2,0.8-0.4
		c0.7-0.7,0.5-2-0.4-2.8c-0.9-0.8-2.1-0.9-2.8-0.1c-0.5,0.6-0.5,1.4-0.1,2.1c0,0,0,0,0,0s1.9,3.5,5.1,2.4c0,0,2.8-0.8,2.2-3.4
		c0,0-0.3-1.4-2.3-5.8c0,0,3.5-1.6,2.1-6c0,0-2.3-5.6-6.5-4.1L225.6,461.1z M223.2,449.1c0,0,0.5-1.3,1.6-0.8c0,0,3.6,2.1-0.6,9.7
		C224.2,458,221.7,453.8,223.2,449.1z M232.1,468.5c0,0,2.8,3.2-0.5,6l-3.3-7.3C228.4,467.1,230.4,466.5,232.1,468.5z M231.2,474.7
		c-2.5,2.2-6.5-0.9-6.5-0.9c-5.2-4.7,0.6-12.3,0.6-12.3l1.7,3.6c-2.9,2.1-1.6,5.4-1.6,5.4c0.9,2.4,3.3,2.6,3.3,2.6
		c-1.8-0.6-2.2-2.3-2.2-2.3c-0.7-2.4,1.6-3.5,1.6-3.5L231.2,474.7z"/>
	<path class="st1" d="M205.9,508.5c-0.6-0.2-1.2,0.1-1.3,0.5c-0.1,0.5,0.2,1,0.9,1.1c0.9,0.2,1.3-0.5,1.3-0.5l2.1-3.5l0.4-0.6
		l-2.9-0.8l0,0l-1.9-0.5c-0.1,0.3-0.2,0.5-0.2,0.6h0c0,0-0.7,1.3-1.8,3.1l0,0c-0.1-0.3-0.4-0.5-0.8-0.6c-0.6-0.2-1.2,0.1-1.3,0.5
		c-0.1,0.5,0.3,1,0.9,1.1c0.5,0.1,1,0,1.2-0.4l0,0c0,0,0,0,0,0l2.2-3.6l1.4,0.4l0,0l2.5,0.7c0,0-0.1,0.4-1.7,3.1
		C206.6,508.7,206.3,508.6,205.9,508.5z"/>
	<path class="st1" d="M211.3,531.9c-1.1,0.8-1.5,2.1-0.9,2.8c0.6,0.8,1.9,0.7,3-0.1c0.9-0.7,1.3-1.6,1.1-2.4l0,0l-2-10l-0.8,0
		l0.6,1.8l1.5,7.4C213.1,531.1,212.1,531.2,211.3,531.9z"/>
	<path class="st1" d="M245.6,511.6L245.6,511.6L251,499l-0.9-0.6l-0.7,2.5l-4,9.2c-0.5-0.9-1.7-1.5-3.1-1.4
		c-1.8,0.1-3.2,1.2-3.1,2.5c0.1,1.3,1.5,2.3,3.3,2.2C244.1,513.3,245.3,512.6,245.6,511.6z"/>
	<path class="st1" d="M212,415.4c0.5,0.2,0.9,0.5,1.1,0.5l0,0c0,0,2.5,1.6,5.7,4l0,0c-0.6,0.2-1.1,0.7-1.3,1.4
		c-0.4,1.1,0,2.3,0.8,2.6c0.9,0.3,1.9-0.3,2.4-1.5c0.4-1,0.1-2-0.5-2.5l0,0c0,0,0,0,0,0l-6.7-4.9l1-2.6l0,0l1.8-4.6
		c0,0,0.7,0.2,5.7,3.9c-0.7,0.1-1,0.6-1.3,1.4c-0.4,1.1,0,2.3,0.8,2.6c0.9,0.3,2-0.3,2.4-1.5c0.5-1.7-0.8-2.6-0.8-2.6l-6.4-4.7
		l-1.1-0.8l-2.1,5.4l0,0L212,415.4z"/>
	<path class="st1" d="M203.1,405.2c1.5-0.6,2.7-1.9,2.9-3.1v0c0-0.1,0-0.2,0-0.3l1.8-10.9c7.5,4,3.1,10.2,3.1,10.2l0.2,0
		c2.7-3.4,1-6.9,1-6.9c-1-2.5-3-5.2-3-5.2c-1.3-1.7-0.4-3.1-0.4-3.1c4.2,1.9,4.2,6.6,4.2,6.6c0.3-0.1,0.3-0.5,0.3-0.5
		c0.1-3.3-3-6.9-3-6.9c-1.2-1.3-1.1-3.3-1.1-3.3l-0.4-0.2l-2.6,17.6c-0.1,0.9-0.5,0.9-0.5,0.9c-0.8-0.7-2.2-0.9-3.7-0.3
		c-2,0.8-3.3,2.7-3,4.2C199.2,405.5,201.1,406.1,203.1,405.2z"/>
	<path class="st1" d="M182.2,387.1L182.2,387.1c0,0,2.5,1.6,5.7,4l0,0c-0.6,0.2-1.1,0.7-1.3,1.4c-0.4,1.1,0,2.3,0.8,2.6
		c0.9,0.3,1.9-0.3,2.4-1.5c0.4-1,0.1-2-0.5-2.5l0,0c0,0,0,0,0,0l-6.7-4.9l1-2.6l0,0l1.8-4.6c0,0,0.7,0.2,5.7,3.9
		c-0.7,0.1-1,0.6-1.3,1.4c-0.4,1.1,0,2.3,0.8,2.6c0.9,0.3,2-0.3,2.4-1.5c0.5-1.7-0.8-2.6-0.8-2.6l-6.4-4.7l-1.1-0.8l-2.1,5.4l0,0
		l-1.4,3.5C181.6,386.8,182.1,387,182.2,387.1z"/>
	<path class="st1" d="M152.4,410.4c1.6-0.7,2.6-2.1,2.5-3.3l0,0l0.3-16.4l-1.2-0.2l0.4,3l-0.2,12c-0.9-0.8-2.6-0.9-4.1-0.2
		c-1.9,0.9-3,2.8-2.3,4.2C148.4,410.9,150.5,411.3,152.4,410.4z"/>
	<path class="st1" d="M172.7,415.8c-1.2,0.3-2,1.2-1.8,2.1c0.2,0.9,1.3,1.5,2.5,1.2c1.7-0.5,1.8-2.1,1.8-2.1l0.5-7.9l0.1-1.3
		l-5.7,1.1l0,0l-3.7,0.7c0.1,0.5,0.1,1,0.1,1.2l0,0c0,0-0.1,3-0.3,7l0,0c-0.5-0.4-1.2-0.5-1.9-0.4c-1.2,0.3-2,1.2-1.8,2.1
		c0.2,0.9,1.3,1.4,2.5,1.2c1-0.2,1.7-0.9,1.8-1.7l0,0c0,0,0,0,0-0.1l0.5-8.2l2.7-0.5l0,0l4.9-0.9c0,0,0.2,0.7-0.3,6.9
		C174.1,415.7,173.6,415.6,172.7,415.8z"/>
</g>
</svg>
