<?xml version="1.0" encoding="utf-8"?>
<!-- Generator: Adobe Illustrator 21.0.2, SVG Export Plug-In . SVG Version: 6.00 Build 0)  -->
<svg version="1.1" id="Layer_1" xmlns="http://www.w3.org/2000/svg" xmlns:xlink="http://www.w3.org/1999/xlink" x="0px" y="0px"
	 viewBox="0 0 1000 1000" style="enable-background:new 0 0 1000 1000;" xml:space="preserve">
<style type="text/css">
	.st0{fill:#353535;}
	.st1{fill:#A9762A;}
</style>
<g>
	<path class="st0" d="M628.3,349.3c0,0,30.4-17.5,60.9-44.8c10.5,1.3,31.6,2.9,48.9-2.9c0,0-35.7,5.4-45.1-0.6
		c19.9-18.3,39.2-40.7,49.9-65c0,0-19.4,33.8-60.1,67.5l-0.1,0c0,0,0,0,0,0c-27.6,22.8-64.9,45.6-112.7,57.9c-2,0.1-4.1,0.2-6.4,0.4
		c-0.6,0-1.3,0-1.9,0c13.7-8.9,96.7-65.5,98.4-125.9c0,0-10.3,63.3-110.9,123.9c-6-1.6-12.3-3.9-17.8-6.1c0,0,0,0,0,0
		c0.4-5.9,0.8-11.7,1.1-17.4c143.3-112.9,122.6-226.9,121.2-228.6c8.1,104.1-93.2,193.1-120.5,215.1c1-24,1.2-46.4,0.7-67
		c23.7-4.7,43.3-22.8,43.3-22.8c-16.6,12.8-36.9,17.2-43.4,18.3c-0.4-12.6-1-24.5-1.7-35.6c28.9-3.2,32.8-21.7,32.8-21.7
		c-10.3,18.6-33.2,16-33.2,16c-4.2-57.7-12.2-92.3-12.2-92.3s-0.8-0.7-0.5,1c12.2,65.1,4,193.5,1.2,230.2c-3.7-1.7-6-2.9-6-2.9
		c-43.3-28.1-60-110.6-74.4-168.2c-7.1-28.6-6-60.1-6-60.1c-4.4,16.1-4.2,57.4-2.2,77.7c1.1,11.6,2.6,23.3,4.4,34.9l0-0.1
		c0,0-44-14.8-67.6-40.4c4.7,5.2,15.5,16.7,29.5,28.3c0,0-10.2,3.5-39.8-4.9c0,0,28,10.6,46.2,10.1l0,0c10.3,8.1,22,15.8,34.1,21.2
		l0-0.1c9.2,54.7,22.8,105.2,28,123.5c-27.3-1.8-52.1-23.1-52.1-23.1c11.8,17,41.2,27,54.3,30.7c5.4,20.8,9.6,39.9,12.8,57.3
		c0,0-77.4-7.4-91.3-84c0,0-12.9-79.6-57.7-108.5c0,0,39.6,29.6,48.9,110.5c0,0,0.7,10.3,4.7,24.8c-20.7-1.8-92.1-10-147.1-41.1
		c0,0,22.3,16.7,65.6,30.8c-3.2,2.7-12,9.6-22.1,13.7c6.8-2.5,20.5-7.7,28.2-11.8c21.3,6.6,47.2,12.4,77.6,15.4
		c10.4,31.9,36,77.1,98.3,83.9C510,634.3,371.8,635.6,370.4,637.2c-1.5,1.7-2.9,3.4-4.1,5c3.3,1.6,6.3,3.7,9,6.3
		c4.5,4.4,9.2,8.6,14,12.7c2-0.4,4-0.6,5.9-0.6c10.2,0,17.5,4.3,25.1,10.4c3.2,2.5,6.3,5,9.5,7.5c16.6,12.7,33.6,24.9,50.5,37.2
		c26.7,1.6,50.9,1.5,64.7,1.2c25.2-28.4,65.1-38.9,95.7-60.7c2.5-2.1,4.9-4.3,7.1-6.7c0.2-0.3,0.3-0.5,0.5-0.8c0-0.3,0-0.6,0-0.8
		c-0.4-7.6,2-14.5,6.2-20.2c-81.9,0.2-109-44.2-109-44.2c-27.8-45.3-16.4-119.5-6.3-162.1c0.5-2.2,4.8-20.6,5.6-22.6
		c7.8-19.5,30.9-22.8,30.9-22.8c91.9-15.3,130.5,18.8,133.2,21.5c-20.9-21.3-41.8-25.7-41.8-25.7c41.8-12.1,62.9-29.9,62.9-29.9
		c-46.7,27.2-74.6,23.7-74.6,23.7c-14-1.3-24.7-2.3-33.3-3C616.6,361.1,613,357.6,628.3,349.3z"/>
	<path class="st1" d="M368.4,189.8c-1.4-1.5-2.2-2.5-2.5-2.8C366.7,187.9,367.5,188.8,368.4,189.8z"/>
	<path class="st1" d="M365.8,186.9c0,0-0.1-0.1-0.1-0.1C365.7,186.8,365.8,186.8,365.8,186.9z"/>
	<path class="st1" d="M444.6,296.6c-0.1-0.3-0.2-0.6-0.3-0.9c-0.9-2.3-3.7-7.6-11.6-6.6c0,0-15.4,1.5-20,9.3c0,0,13.1,7.4,24.5,5.6
		c4.6-0.7,8-4,7.4-7.2C444.7,296.8,444.7,296.7,444.6,296.6z"/>
	<path class="st1" d="M470,265.2c0,0,0,0,0.1,0.1c0.3,0.3,0.5,0.5,0.8,0.8c2.2,1.9,8,5.6,14.2,0.7c0,0,12.4-9.1,11.6-19.1
		c0,0-16.1-0.8-24.9,6.7C468.3,257.4,467.4,262.2,470,265.2z"/>
	<path class="st1" d="M439.7,399.5c0,0,8.2,13.7,19.3,16.8c4.5,1.2,8.9-0.7,10-4.5c0,0,0-0.1,0-0.1c0.1-0.4,0.2-0.8,0.2-1.1
		c0.3-2.9,0.2-9.7-7.3-12.2C461.9,398.5,447.5,393.2,439.7,399.5z"/>
	<path class="st1" d="M606.3,275.1c0.1,0.4,0.3,0.7,0.5,1c1.4,2.5,5.6,8,13.1,5.5c0,0,14.7-4.3,17.3-14c0,0-14.8-6.2-25.5-2.1
		c-4.3,1.6-6.8,5.9-5.4,9.5C606.2,275,606.3,275,606.3,275.1z"/>
	<path class="st1" d="M580.4,231.2c8.5,0.3,10.2-8.8,10.2-8.8c2.4-14.9-6.2-26.6-6.2-26.6c-10.6,5.7-16.9,18.2-16.9,18.2
		C561,229.1,580.4,231.2,580.4,231.2z"/>
	<path class="st1" d="M622.2,191c0,0,0.1,0,0.2,0c0.5,0,0.9-0.1,1.4-0.2c3.4-0.5,11.3-2.6,11.7-11.3c0,0,1.4-16.8-8.3-23.2
		c0,0-13.2,12.7-13.2,25.4C613.8,186.8,617.6,191,622.2,191z"/>
	<path class="st1" d="M542.8,196c0,0,0.1,0,0.2,0.1c0.5,0.2,1.1,0.3,1.6,0.3c4.1,0.6,14,0.6,17.5-11c0,0,7.5-22.3-1.4-34.6
		c0,0-19.7,12.4-24.2,29.6C534.7,187.3,537.5,194.3,542.8,196z"/>
	<path class="st1" d="M597.2,424.8c0.3-14-14-32.2-14-32.2l0,0c-4.1-5.7-12.1-7.1-17.9-3.1c-5.9,4.1-7.4,12.2-3.3,18
		c0.5,0.7,1.1,1.4,1.7,2l0,0C572.7,419,597.2,424.8,597.2,424.8z"/>
	<path class="st1" d="M662.7,177.1c0,0,9.8,10.1,30.1-25.8c0,0-24.1-4.7-32.5,7.6C660.3,158.9,654.1,169.8,662.7,177.1z"/>
	<path class="st1" d="M663,311.4c0,0,0.1,0,0.2,0c0.4,0,0.8,0,1.1,0c2.9-0.1,9.7-1.2,10.9-9c0,0,3-15-4.3-21.8
		c0,0-12.4,10.2-13.8,21.6C656.5,306.8,659.2,310.9,663,311.4z"/>
	<path class="st1" d="M676.1,136.7c0,0,15.9,2.7,12.3-35.2c0,0-26.2,8.8-26.4,22.5C662,124,663,135.5,676.1,136.7z"/>
	<path class="st1" d="M679.6,223.2c-6.8,1-7.7,1.6-7.7,1.6c-4.7,1.8-6.8,7.5-4.6,12.8c2.2,5.2,7.7,8,12.5,6.2c0.3-0.1,0.7-0.3,1-0.5
		c13.3-6.5,16.6-20.7,16.6-20.7C690.4,221.7,679.6,223.2,679.6,223.2z"/>
	<path class="st1" d="M691.3,325.5c0.5,0.5,1,1,1.6,1.4l0,0c7.8,6.3,28.6,9.3,28.6,9.3c-0.5-10.1-13.3-22.5-13.3-22.5l0,0
		c-3.7-3.9-10.4-4.5-15-1.4C688.3,315.6,687.5,321.5,691.3,325.5z"/>
	<path class="st1" d="M355.7,296c-0.1-0.4-0.2-0.7-0.3-1.1c-1-2.7-4.1-8.8-12-7.6c0,0-15.2,1.7-19.4,10.8c0,0,13.5,8.7,24.8,6.5
		c4.6-0.9,7.7-4.6,7-8.4C355.7,296.1,355.7,296.1,355.7,296z"/>
	<path class="st1" d="M645.6,361.4c0.6,0,1.2,0,1.8-0.1v0c8.9-0.8,22.6-11.7,22.6-11.7c-7.5-6.2-23.5-6.2-23.5-6.2v0
		c-4.9-0.2-9,3.5-9.3,8.4C636.9,356.8,640.7,361.1,645.6,361.4z"/>
	<path class="st1" d="M485.8,214.6c5.9,9.3,22.9,14.2,22.9,14.2l0,0c5.1,1.7,10.8-1.2,12.7-6.7c1.9-5.5-0.7-11.5-5.8-13.3
		c-0.7-0.2-1.3-0.4-2-0.5l0,0C503.9,206.5,485.8,214.6,485.8,214.6z"/>
	<path class="st1" d="M565,277.1c-2.6-8.8-10.9-15.6-10.9-15.6c-10.3-7.3-14.8,6.7-14.8,6.7c-1.5,6.3,5,9,5,9
		C555,281.5,565,277.1,565,277.1z"/>
	<path class="st1" d="M370.7,366.4c0,0,0.1-0.1,0.1-0.1c0.4-0.4,0.7-0.7,1-1.1c2.5-3,7.8-10.6,2.3-17.4c0,0-10.2-13.7-22.8-11.1
		c0,0-2.6,19.7,6,29.2C360.8,369.6,366.8,369.9,370.7,366.4z"/>
	<path class="st1" d="M519.2,111.7c0.3,0.1,0.6,0.1,1,0.1c0.1,0,0.1,0,0.1,0c3.4,0.1,6.2-3.1,6.3-7.2c0.3-10-9.1-20.4-9.1-20.4
		c-7.2,4.9-6.5,18.2-6.5,18.2C511,109.4,516.7,111.2,519.2,111.7z"/>
	<path class="st1" d="M316.5,380.2c-12.7,8.1-15.8,22.3-15.8,22.3c11.3,4.1,24.8,0.6,24.8,0.6c15.6-5.3,4.3-21.2,4.3-21.2
		C324.4,375.4,316.5,380.2,316.5,380.2z"/>
	<path class="st1" d="M235.3,368.2c0,0,18.9,16.8,33.7,11.2c0,0,12-5.6,8.5-16.3C277.5,363.2,274.6,349.7,235.3,368.2z"/>
	<path class="st1" d="M312.9,266.8c0,0,7.7,13,15.9,13.4c0,0,6.5,0.9,10.5-10.5c0,0,5.8-14.9-17.3-17.1c0,0-12.7-0.9-23.3,1.5
		C298.6,254.2,307.3,257.5,312.9,266.8z"/>
	<path class="st1" d="M309.4,354.3c0,0,0,0,0.1-0.1c0.3-0.2,0.6-0.4,0.9-0.7c2.2-1.8,7.1-6.8,4.3-14c0,0-4.8-14.3-13.8-15.6
		c0,0-4.9,15.8-0.6,26.2C302.1,354.3,306.2,356.2,309.4,354.3z"/>
	<path class="st1" d="M708.9,397.6c0,0-0.1-0.1-0.1-0.2C708.8,397.5,708.9,397.6,708.9,397.6z"/>
	<path class="st1" d="M717.3,363.6c-5.7-2.4-12-0.4-13.9,4.5c0,0,0,0.1-0.1,0.2c-0.2,0.5-0.3,1-0.4,1.5c-0.9,3.9-1.8,13.4,7.8,17.9
		c0,0,18.3,9.5,29.5,2.1C740.3,389.8,731.5,369.6,717.3,363.6z"/>
	<path class="st1" d="M727.9,274.3c-4.6,1.7-7.4,6.9-6.2,11.6c0,0,0,0.1,0.1,0.2c0.1,0.5,0.3,0.9,0.5,1.3c1.3,3.3,5.2,10.6,13.1,8.1
		c0,0,15.5-4.2,18.8-16.3C754,279.2,739.3,270.1,727.9,274.3z"/>
	<path class="st1" d="M370.8,269.7c3.4,3.6,9.1,3.8,12.7,0.5c0.5-0.4,0.9-0.9,1.2-1.4l0,0c5.5-7,7.1-24.4,7.1-24.4
		c-9.6,1.2-20.7,12.8-20.7,12.8l0,0C367.6,260.5,367.4,266.1,370.8,269.7z"/>
	<path class="st1" d="M410.7,209.9c0,0,0.1,0,0.2,0c0.5,0,0.9-0.1,1.4-0.2c3.5-0.6,11.6-3,12-12.7c0,0,1.4-18.8-8.6-26
		c0,0-13.6,14.3-13.6,28.5C402.1,205.2,405.9,209.9,410.7,209.9z"/>
	<path class="st1" d="M443.1,109c8.6,0.3,10.2-9.2,10.2-9.2c2.4-15.5-6.2-27.7-6.2-27.7C436.4,78,430,91,430,91
		C423.6,106.8,443.1,109,443.1,109z"/>
	<path class="st1" d="M449.4,169.1c0,0-5.3,3.9-0.2,14.8c0,0,6.2,14.8,24.3,0.2c0,0,9.8-8.2,15.7-17.3c0,0-8.6,3.7-19.1,0.9
		C470.1,167.7,455.5,163.7,449.4,169.1z"/>
	<path class="st1" d="M439.4,133.5c0,0-1.9,12.8,9.2,16.7c0,0,13.2,6.1,19.5-36.2C468.1,114,443,118.5,439.4,133.5z"/>
	<path class="st1" d="M418.1,271c0,0,14.6-3.9,17.2-11.6c0,0,2.6-6-7.3-12.9c0,0-12.8-9.6-21.1,12.1c0,0-4.3,12-4.8,22.9
		C402.1,281.4,407.6,273.9,418.1,271z"/>
	<path class="st1" d="M499.2,143.1c0,0,4.4,10.3,10.3,11.6c0,0,4.6,1.5,8.4-6.1c0,0,5.4-9.9-11-14.4c0,0-9.1-2.3-16.9-2
		C489.9,132.3,495.9,135.8,499.2,143.1z"/>
	<path class="st1" d="M258.6,338.3c0,0,11.6,4.7,17.7-4.8c0,0,8.7-11-29.5-26.5C246.9,307.1,245.4,331.6,258.6,338.3z"/>
	<path class="st1" d="M215.4,306.3c0,0,0.3,14.1,7.4,21.3c2.9,2.9,7.1,3.3,9.6,1c0,0,0,0,0.1-0.1c0.2-0.2,0.4-0.5,0.6-0.8
		c1.5-2,4.4-7.3-0.2-12.5C232.8,315.2,224.1,304.9,215.4,306.3z"/>
	<path class="st1" d="M343.6,211.1c0,0,15.1,2.7,20.8-3c0,0,5-4.1-1-14.2c0,0-7.5-13.6-24.6,1.8c0,0-9.2,8.6-14.4,17.8
		C324.4,213.5,332.8,209.3,343.6,211.1z"/>
	<path class="st1" d="M364.1,177.8c7.9-3,5.9-12.1,5.9-12.1c-3.6-14.6-16.1-22.1-16.1-22.1c-7.5,9.3-8.5,23.3-8.5,23.3
		C345.5,183.3,364.1,177.8,364.1,177.8z"/>
	<g>
		<path class="st0" d="M430.3,368.1c-7.2-4.1-13.9-9.1-19-14.9l-10.8,6.6c2.3,7.5,5.4,14.4,9.3,20.8L430.3,368.1z"/>
		<path class="st0" d="M556.3,326.3c-5.3,4.6-10.8,9.2-16.4,13.8c-0.1,0.9-0.1,1.7-0.2,2.6l11.6,7.1c7.4-4.6,14.3-9.3,20.7-13.9
			L556.3,326.3z"/>
		<path class="st0" d="M449.3,356.5l5.2-3.2c-1.8-6.6-3.8-14.3-5.9-22.9L426,344.3C431.5,348,439.8,353,449.3,356.5z"/>
		<path class="st0" d="M644.1,380.9c-7.1-0.8-14.9-1.4-23.4-1.4c-6.2,0-12.5,0.3-19.1,0.8l22.7,13.8c8.8,5.3,14.2,15,14.2,25.3v78.3
			v61.6v59.4c0,10.3-5.5,20-14.2,25.3l-103,62.7c-9.5,5.8-21.3,5.8-30.8,0l-103-62.7c-8.8-5.3-14.2-15-14.2-25.3v-62.4v-86.2v-50.7
			c0-9.2,4.4-17.9,11.6-23.5c-0.8-2.1-1.6-4.1-2.4-6.3c-6.9-0.8-13.6-1.7-20.3-2.8c-7.3,9.1-11.4,20.6-11.4,32.5v50.7v86.2v62.4
			c0,18.1,9.6,35.2,25.1,44.6l103,62.7c8.4,5.1,17.8,7.6,27.2,7.6c9.4,0,18.8-2.5,27.2-7.6l103-62.7c15.5-9.4,25.1-26.5,25.1-44.6
			v-59.4v-61.6v-78.3C661.1,404.8,654.7,390.7,644.1,380.9z"/>
		<path class="st0" d="M504,327.2c3.4-0.2,6.8,0.2,10,1.1c0.4-6.8,0.9-14.5,1.3-22.9c-8.5-1.6-17.3-1-25.6,1.7
			C494.1,314.6,498.8,321.4,504,327.2z"/>
	</g>
	<path class="st1" d="M576.4,305.7c-6,7-7.2,17.7-7.2,17.7c-0.6,12.6,13.6,8.8,13.6,8.8c6.1-2.1,4.9-9.1,4.9-9.1
		C585.5,311.7,576.4,305.7,576.4,305.7z"/>
	<path class="st1" d="M697.8,407.7c0,0-2-15.5-9.4-19.6c0,0-5.6-3.7-13.6,5c0,0-11.1,11.2,9.3,23.6c0,0,11.3,6.6,21.9,9.1
		C706,425.8,699.3,418.8,697.8,407.7z"/>
	<path class="st1" d="M475.8,476.1c12.3,108.7-48.7,139.5-91.9,147.9c-0.5-1.7-0.8-3.5-0.8-5.3V419.4c0-3.7,1.1-7.4,3.2-10.4
		c6.6,13.2,14.9,24.7,24.6,34.4C428.4,460.8,450.2,471.7,475.8,476.1z"/>
	<path class="st1" d="M429.2,398.7c0.3-2.8,1.6-5.4,3.9-7.2c4.5-3.6,10.3-5.5,17.2-5.5c3.8,0,7.4,0.6,10.2,1.2
		c-0.2-0.9-0.5-1.9-0.7-2.8c-6.1-1.9-13.8-4.7-21.7-8.4c-0.6,0.6-1.3,1.2-2.1,1.6L418.9,388C422.1,392,425.6,395.6,429.2,398.7z"/>
	<path class="st1" d="M621.7,407.5L599,393.7c-2-1.2-3.5-3-4.3-5c-0.3,0-0.7,0.1-1,0.1c0.3,0.4,0.6,0.7,0.9,1.1
		c0.1,0.1,0.1,0.2,0.2,0.3c1.7,2.2,16.6,21.7,16.2,39c-0.1,3.2-1.6,6.3-4.2,8.3c-1.9,1.5-4.2,2.2-6.6,2.2c-0.8,0-1.7-0.1-2.5-0.3
		c-4.6-1.1-28-7.1-38.6-18.1c-1.1-1.1-2.1-2.2-2.9-3.4c-0.3-0.5-0.6-1-0.9-1.5c-0.7,2.8-1.5,6.3-2.6,10.8l-0.2,0.7
		c-21.6,91.6-6.1,135.8,5,154c0.1,0.1,5.5,8.5,18.3,17.4c17.7,12.2,38.2,17.7,54.8,20V423.7C630.7,417.1,627.3,410.9,621.7,407.5z"
		/>
	<path class="st0" d="M759.7,872.4c-15.5,0-22.5-9-22.5-17.8c0-10.4,8.3-17.7,20.3-17.7c7.9,0,11.3,3,12.2,4l4.6,4.9v-7.9h3.7V849
		h-5.5c-1.7-5.5-6-8.6-12.2-8.6c-5.7,0-12.5,2.4-12.5,13.6c0,12.8,8.2,14.7,13.1,14.7c4.8,0,8.3-2.4,9.8-4.4l0.5-0.7v-3.8h-6.1v-3.4
		h19.6v3.4h-4.8v11.6h-2.4l-2.6-6.6l-2.8,2.9C769.4,870.4,766.9,872.4,759.7,872.4z M356.2,872.4c-11.5,0-23.1-6.1-23.1-17.8
		c0-10.1,9.9-17.7,23-17.7c11.5,0,23.2,6.1,23.2,17.8C379.2,866.3,367.6,872.4,356.2,872.4z M356,840.5c-6.2,0-12.5,4.4-12.5,14.1
		c0,8.5,5,14.1,12.5,14.1c7.4,0,12.6-5.8,12.6-14.1C368.6,847.8,364.2,840.5,356,840.5z M300.3,872.4c-11.5,0-23.1-6.1-23.1-17.8
		c0-10.1,9.9-17.7,23-17.7c11.5,0,23.2,6.1,23.2,17.8C323.3,866.3,311.8,872.4,300.3,872.4z M300.2,840.5c-6.2,0-12.5,4.4-12.5,14.1
		c0,8.5,5,14.1,12.5,14.1c7.4,0,12.6-5.8,12.6-14.1C312.8,847.8,308.4,840.5,300.2,840.5z M716.9,871.4l-20.1-22.6h-3.9v18.6h6.4v4
		h-19.3v-4h6.5v-25.6h-6.5v-4H697l15.5,17.8h4v-13.8h-5.1v-4h18.1v4h-6.5v29.6H716.9z M649.6,871.4v-4h6.5v-25.6h-6.5v-4h21.8v4
		h-6.5v25.6h6.5v4H649.6z M600.7,871.4v-4h6.5v-25.6h-6.5v-4H627c13.3,0,14.8,5.5,14.8,9.6c0,9.5-11.1,10.2-14.5,10.2H616v9.7h6.9v4
		H600.7z M616,853.8h2.6c0.3,0,0.9,0,1.7,0c1,0,2.3,0,3.2,0c2.1,0,8.4,0,8.4-6.3c0-1.7-0.7-5.7-7.3-5.7H616V853.8z M547.5,871.4v-4
		h6.5v-25.6h-6.5v-4h43.2v12.3h-6.3v-8.3h-21.5V854h8.4v-4.3h4.1v9.8h-4.1v-4.3h-8.4v12.3H585v-9.4h6.5v13.4H547.5z M494.3,871.4v-4
		h6.5v-25.6h-6.5v-4h43.2v12.3h-6.3v-8.3h-21.5V854h8.4v-4.3h4.1v9.8H518v-4.3h-8.4v12.3h22.2v-9.4h6.5v13.4H494.3z M466.7,871.4v-4
		h6.3l-12.1-12.6l-4.6,2.8v9.8h2.7v4h-17.7v-4h6.5v-25.6h-6.5v-4h18.6v4h-3.5v12h3.7l16-12h-8.4v-4h16.3v4h-3.2L468,852.2l14.8,15.2
		h3.2v4H466.7z M413.7,871.4v-4h6.3l-12.1-12.6l-4.6,2.8v9.8h2.7v4h-17.7v-4h6.5v-25.6h-6.5v-4h18.6v4h-3.5v12h3.7l16-12h-8.4v-4
		h16.3v4h-3.2L415,852.2l14.8,15.2h3.2v4H413.7z M227.6,871.4v-4h6.5v-25.6h-6.5v-4h26c4.8,0,12.9,0.9,12.9,7.1c0,1.8-0.6,3.7-5,5.3
		l-1.7,0.6v4.1l2.1,0.4c7.2,1.5,7.2,5.1,7.2,6.3c0,6.4-5.5,9.6-16.5,9.6H227.6z M242.8,867.5h9.3c5.2,0,7.1-3,7.1-5.8
		c0-2.2-1-5.9-7.5-5.9h-8.8V867.5z M242.8,851.9h7.8c5.3,0,6.1-3.3,6.1-5.3c0-1.1-0.4-4.8-6.1-4.8h-7.7V851.9z M650.8,815.6
		c-9,0-11.8-5.9-12.6-10.8c-0.9-5.8-4.2-7-6.7-7h-7.7v12.1h5.3v5h-22.7v-5h7.2V782h-7.2V777h29.7c15.7,0,17.8,4.4,17.8,9.2
		c0,3.8-3.6,6.9-9.2,7.9l-2.2,0.4v4.6l2.1,0.4c2.5,0.5,3.4,1.4,3.9,3.5c0.8,4.1,1.5,8,6,8c2.3,0,4.8-1.8,4.8-5.7c0-1-0.1-2-0.2-3
		l2-0.2c0.2,1.4,0.4,3.1,0.4,4.6C661.2,812.5,657.5,815.6,650.8,815.6z M623.8,793.7h9.1c2.5,0,9.1,0,9.1-5.9c0-5.8-6-5.8-8.6-5.8
		h-9.6V793.7z M728,814.9v-5h7.2V782H728V777h48.5v14.3h-7.6V782h-23.3v12.9h8.8v-4.7h5.2v11.4h-5.2v-4.8h-8.8v13.1h24.1v-10.4h7.8
		v15.4H728z M668.9,814.9v-5h7.2V782h-7.2V777h48.5v14.3h-7.6V782h-23.3v12.9h8.8v-4.7h5.2v11.4h-5.2v-4.8h-8.8v13.1h24.1v-10.4h7.8
		v15.4H668.9z M560.8,814.9v-5h7.4V782h-11.8v9.3h-7.6V777h49.2v14.3h-7.7V782h-11.6v27.9h7.5v5H560.8z M470.5,814.9v-5h7.2V782
		h-7.2V777H519v14.3h-7.6V782H488v12.9h8.8v-4.7h5.2v11.4h-5.2v-4.8H488v13.1h24.1v-10.4h7.8v15.4H470.5z M419.1,814.9v-5h7.2V782
		h-7.2V777h25.2v5.1h-7.7v27.9h17.9v-10.5h7.7v15.5H419.1z M364.8,814.9v-5h7.2V782h-7.2V777h29.5c15,0,16.8,6.3,16.8,11
		c0,10.8-12.6,11.7-16.4,11.7h-12.3v10.2h7.6v5H364.8z M382.3,794.7h2.6c0.4,0,1,0,1.8,0c1.2,0,2.5,0,3.5,0c2.2,0,9.1,0,9.1-6.7
		c0-1.8-0.8-6.1-7.9-6.1h-9.2V794.7z M332.3,814.9v-5h5.9l-2.3-7.7h-15l-2.5,7.7h5.4v5h-19.4v-5h6.1L325,777h11l14.7,32.9h6.1v5
		H332.3z M321.5,800.4h13.9l-5.1-14.7h-4L321.5,800.4z M275,814.9v-5h3.7v-18.3h-4.4l-10.7,23.3h-5.4l-11.2-23.5h-4.5v18.5h4.1v5
		h-19v-5h7.2V782h-7.2V777h21.2l14.1,27.6l13.6-27.6h19.8v5.1H289v27.9h7.2v5H275z"/>
</g>
</svg>
