<?xml version="1.0" encoding="utf-8"?>
<!-- Generator: Adobe Illustrator 21.0.2, SVG Export Plug-In . SVG Version: 6.00 Build 0)  -->
<svg version="1.1" id="Layer_1" xmlns="http://www.w3.org/2000/svg" xmlns:xlink="http://www.w3.org/1999/xlink" x="0px" y="0px"
	 viewBox="0 0 500 500" style="enable-background:new 0 0 500 500;" xml:space="preserve">
<style type="text/css">
	.st0{fill:#333333;}
</style>
<g>
	<circle class="st0" cx="250" cy="235.7" r="10.7"/>
	<circle class="st0" cx="217.1" cy="264.3" r="10.7"/>
	<circle class="st0" cx="250" cy="264.3" r="10.7"/>
	<circle class="st0" cx="250" cy="207.2" r="10.7"/>
	<circle class="st0" cx="217.1" cy="207.2" r="10.7"/>
	<circle class="st0" cx="217.1" cy="235.7" r="10.7"/>
	<circle class="st0" cx="282.9" cy="264.3" r="10.7"/>
	<circle class="st0" cx="282.9" cy="207.2" r="10.7"/>
	<path class="st0" d="M250,0C111.9,0,0,111.9,0,250c0,138.1,111.9,250,250,250c138.1,0,250-111.9,250-250C500,111.9,388.1,0,250,0z
		 M369.7,236.4c-10.3-4.3-20.3-8.5-31.1-13c0,47.2,0,93.6,0,140.2c-57.4,0-114.2,0-171.6,0c0-46.6,0-93.2,0-140.8
		c-11.3,4.7-21.6,9-32.5,13.6c-9.8-23-19.5-45.8-29.4-69.1c34.8-14.8,69.2-29.4,104.1-44.2c8.8,17.6,22.5,28.4,42.8,28.4
		c20,0,33.8-10.3,43-28.4c34.5,14.6,69.1,29.3,104.1,44.1C389.2,190.4,379.5,213.2,369.7,236.4z"/>
	<circle class="st0" cx="282.9" cy="235.7" r="10.7"/>
</g>
</svg>
