<?xml version="1.0" encoding="utf-8"?>
<!-- Generator: Adobe Illustrator 21.0.2, SVG Export Plug-In . SVG Version: 6.00 Build 0)  -->
<svg version="1.1" id="Layer_1" xmlns="http://www.w3.org/2000/svg" xmlns:xlink="http://www.w3.org/1999/xlink" x="0px" y="0px"
	 viewBox="0 0 500 500" style="enable-background:new 0 0 500 500;" xml:space="preserve">
<style type="text/css">
	.st0{fill:#333333;}
</style>
<g>
	<path class="st0" d="M339.2,256.4L295.2,231l-6.3,10.8l34.7,20l-34.7,20l6.3,10.8l44.1-25.4c1.9-1.1,3.1-3.2,3.1-5.4
		S341.1,257.5,339.2,256.4z"/>
	
		<rect x="213.1" y="255.6" transform="matrix(0.4319 -0.9019 0.9019 0.4319 -90.1475 380.5223)" class="st0" width="87.8" height="12.5"/>
	<path class="st0" d="M218.8,231l-44.1,25.4c-1.9,1.1-3.1,3.2-3.1,5.4s1.2,4.3,3.1,5.4l44.1,25.4l6.3-10.8l-34.7-20l34.7-20
		L218.8,231z"/>
	<path class="st0" d="M249.9,0C111.8,0-0.1,111.9-0.1,250c0,138.1,111.9,250,250,250c138.1,0,250-111.9,250-250
		C499.9,111.9,388,0,249.9,0z M397.2,168.1v19.2v168.2H116.8V182.1v-14v-16.9c0-10.1,8.2-18.3,18.3-18.3h243.9
		c10.1,0,18.3,8.2,18.3,18.3V168.1z"/>
	<path class="st0" d="M378.9,139.2H135c-6.6,0-12,5.4-12,12v16.9H391v-16.9C391,144.6,385.6,139.2,378.9,139.2z M147,161.7
		c-4.2,0-7.7-3.4-7.7-7.7s3.4-7.7,7.7-7.7s7.7,3.4,7.7,7.7S151.3,161.7,147,161.7z M173.9,161.7c-4.2,0-7.7-3.4-7.7-7.7
		s3.4-7.7,7.7-7.7c4.2,0,7.7,3.4,7.7,7.7S178.1,161.7,173.9,161.7z"/>
</g>
</svg>
