<?xml version="1.0" encoding="utf-8"?>
<!-- Generator: Adobe Illustrator 21.0.2, SVG Export Plug-In . SVG Version: 6.00 Build 0)  -->
<svg version="1.1" id="Layer_1" xmlns="http://www.w3.org/2000/svg" xmlns:xlink="http://www.w3.org/1999/xlink" x="0px" y="0px"
	 viewBox="0 0 2000 2000" style="enable-background:new 0 0 2000 2000;" xml:space="preserve">
<style type="text/css">
	.st0{fill:#333333;}
</style>
<g>
	<g>
		<path class="st0" d="M999.6,1999.2C448.4,1999.2,0,1550.8,0,999.6S448.4,0,999.6,0s999.6,448.4,999.6,999.6
			S1550.8,1999.2,999.6,1999.2z M999.6,66.3C485,66.3,66.3,485,66.3,999.6c0,514.6,418.7,933.3,933.3,933.3
			c514.6,0,933.3-418.7,933.3-933.3C1932.9,485,1514.2,66.3,999.6,66.3z"/>
	</g>
	<g>
		<path class="st0" d="M1347.5,990.6l-59.1-30c22.1-43.4,33.3-90.3,33.3-139.4c0-169.7-138-307.7-307.7-307.7
			c-169.7,0-307.7,138-307.7,307.7c0,49,11.2,95.9,33.2,139.2l-59.1,30C653.6,937.7,640,880.7,640,821.2c0-206.2,167.8-374,374-374
			c206.2,0,374,167.8,374,374C1387.9,880.8,1374.3,937.8,1347.5,990.6z"/>
	</g>
	<g>
		<path class="st0" d="M1013.9,1552c-28.1,0-54.1-16.3-66.4-41.7L680.4,990.6l59-30.3l267.5,520.5c2.7,5.5,11.7,4.9,13.7,0.8
			l267.8-521.2l59,30.3l-267.6,520.8C1067.4,1536.3,1042.1,1552,1013.9,1552z"/>
	</g>
	<g>
		<path class="st0" d="M1013.9,1024.5c-112.1,0-203.3-91.2-203.3-203.3s91.2-203.3,203.3-203.3c112.1,0,203.3,91.2,203.3,203.3
			S1126,1024.5,1013.9,1024.5z M1013.9,684.2c-75.5,0-137,61.5-137,137s61.5,137,137,137c75.6,0,137-61.5,137-137
			S1089.5,684.2,1013.9,684.2z"/>
	</g>
</g>
</svg>
