<?xml version="1.0" encoding="utf-8"?>
<!-- Generator: Adobe Illustrator 21.0.2, SVG Export Plug-In . SVG Version: 6.00 Build 0)  -->
<svg version="1.1" id="Layer_1" xmlns="http://www.w3.org/2000/svg" xmlns:xlink="http://www.w3.org/1999/xlink" x="0px" y="0px"
	 viewBox="0 0 2000 2000" style="enable-background:new 0 0 2000 2000;" xml:space="preserve">
<style type="text/css">
	.st0{fill:#333333;}
</style>
<g>
	<g>
		<path class="st0" d="M1000,2000C448.6,2000,0,1551.4,0,1000S448.6,0,1000,0s1000,448.6,1000,1000S1551.4,2000,1000,2000z
			 M1000,66.3C485.2,66.3,66.3,485.2,66.3,1000s418.9,933.7,933.7,933.7c514.9,0,933.7-418.9,933.7-933.7S1514.8,66.3,1000,66.3z"/>
	</g>
	<g>
		<g>
			<path class="st0" d="M605.4,1444.4c-4.2,0-8.4-0.8-12.5-2.4c-12.5-5.1-20.7-17.2-20.7-30.7V687.7c0-72.9,59.3-132.2,132.2-132.2
				h686.7c72.9,0,132.2,59.3,132.2,132.2v463.4c0,72.9-59.3,132.2-132.2,132.2H775.9l-146.8,151
				C622.8,1440.9,614.2,1444.4,605.4,1444.4z M704.4,621.9c-36.3,0-65.9,29.5-65.9,65.9v641.8l99.6-102.5c6.2-6.4,14.8-10,23.8-10
				h629.2c36.3,0,65.9-29.5,65.9-65.9V687.7c0-36.3-29.5-65.9-65.9-65.9H704.4z"/>
		</g>
		<g>
			<rect x="757.7" y="692" class="st0" width="570.5" height="66.3"/>
		</g>
		<g>
			<rect x="757.7" y="819.1" class="st0" width="570.5" height="66.3"/>
		</g>
		<g>
			<rect x="757.7" y="946.3" class="st0" width="570.5" height="66.3"/>
		</g>
		<g>
			<rect x="757.7" y="1073.4" class="st0" width="335" height="66.3"/>
		</g>
	</g>
</g>
</svg>
