<?xml version="1.0" encoding="utf-8"?>
<!-- Generator: Adobe Illustrator 21.0.2, SVG Export Plug-In . SVG Version: 6.00 Build 0)  -->
<svg version="1.1" id="Layer_1" xmlns="http://www.w3.org/2000/svg" xmlns:xlink="http://www.w3.org/1999/xlink" x="0px" y="0px"
	 viewBox="0 0 2000 2000" style="enable-background:new 0 0 2000 2000;" xml:space="preserve">
<style type="text/css">
	.st0{fill:#333333;}
	.st1{fill:#AFCFDB;}
</style>
<g>
	<path class="st1" d="M1000,0C448.6,0,0,448.6,0,1000s448.6,1000,1000,1000s1000-448.6,1000-1000S1551.4,0,1000,0z M1000,1922.2
		c-508.5,0-922.2-413.7-922.2-922.2S491.5,77.8,1000,77.8s922.2,413.7,922.2,922.2S1508.5,1922.2,1000,1922.2z"/>
	<path class="st1" d="M1401.9,1203.6l-3.6,3.5c-110.3,105.5-253.8,163.5-404.5,163.5c-1,0-2,0-3,0
		c-150.8-0.7-294.1-59.5-407.4-169.1l0.6-128.3c-25.7-9.6-51.7-19.6-77.6-30.3l-0.8,161.6c0,18.1,6.8,35.2,19.2,48.4l0.3-0.2l5,5.6
		c124.7,121.8,288.2,189.3,460.3,190c1.1,0,2.3,0,3.3,0c170.8,0,333.4-65.6,458.4-185.2l6.8-7.1l0.2,0.2
		c11.8-12.8,18.4-29.5,18.5-47.2l0.8-161.2c-25.6,10.2-51.2,19.8-76.6,29L1401.9,1203.6z"/>
	<path class="st1" d="M1543.5,792.4c-93.3-48.4-192-83.1-279.1-113.8c-69-24.3-134.3-47.3-187.7-73.8
		c-49.9-23.4-114.5-23.5-165.3-0.5C858.6,630,793,652.4,723.7,676.1c-87.3,29.8-186.2,63.6-279.7,110.9
		c-38.8,19.2-62.1,53-62.2,90.3c-0.2,37.4,22.7,71.4,61,90.9c93.3,48.3,191.9,83,278.8,113.6c69.2,24.4,134.5,47.5,188.1,74.1
		c25.1,11.7,54,17.6,82.9,17.6c28.5,0,57.2-5.8,82.4-17.2c52.9-25.7,118.4-48,187.7-71.7c75.9-26,160.7-54.9,242.9-93.1l-0.7,153.3
		c-0.1,21.4,17.2,39,38.7,39c0,0,0.1,0,0.2,0c21.4,0,38.8-17.3,38.9-38.7l0.8-177.1c0-8.1-0.7-16.1-2.2-23.9
		c15-17.4,23.4-38.5,23.5-60.8C1604.9,846,1582,812,1543.5,792.4z M1237.5,1011c-71.6,24.5-139.3,47.6-195.6,74.9
		c-29.7,13.6-69.7,13.4-98.5-0.1c-57-28.3-124.5-52.1-196-77.2C658.7,977.3,567,945,478.3,899.1c-11.6-5.9-18.8-14.1-18.8-21.3
		c0.1-7.2,7.4-15.3,19.3-21.2c88.9-45,181-76.5,270.1-106.9c71.6-24.5,139.4-47.6,195.7-75c14.8-6.8,32.1-10.1,49.3-10.1
		c17.4,0,34.7,3.4,49.2,10.3c56.8,28.2,124.2,52,195.6,77.1c77.3,27.2,156.9,55.3,234.7,92.4c-4.3-0.5-8.6-0.7-13-0.7l-437.4-2.1
		c-8.2-6.3-18.4-10.1-29.5-10.1c-27-0.1-49,21.6-49.1,48.6c-0.1,27,21.6,49,48.6,49.1c11.1,0.1,21.3-3.6,29.6-9.8l437.5,2.1
		c3.2,0,6.4,0.4,9.5,1C1392.6,958,1313.9,985,1237.5,1011z"/>
</g>
</svg>
