<?xml version="1.0" encoding="utf-8"?>
<!-- Generator: Adobe Illustrator 21.0.2, SVG Export Plug-In . SVG Version: 6.00 Build 0)  -->
<svg version="1.1" id="Layer_1" xmlns="http://www.w3.org/2000/svg" xmlns:xlink="http://www.w3.org/1999/xlink" x="0px" y="0px"
	 viewBox="0 0 2000 2000" style="enable-background:new 0 0 2000 2000;" xml:space="preserve">
<style type="text/css">
	.st0{fill:#333333;}
	.st1{fill:#AFCFDB;}
</style>
<g>
	<g>
		<path class="st1" d="M1000,2000C448.6,2000,0,1551.4,0,1000S448.6,0,1000,0s1000,448.6,1000,1000S1551.4,2000,1000,2000z
			 M1000,77.8C491.5,77.8,77.8,491.5,77.8,1000s413.7,922.2,922.2,922.2s922.2-413.7,922.2-922.2S1508.5,77.8,1000,77.8z"/>
	</g>
	<g>
		<path class="st1" d="M1399,1399.5H586.8c-49,0-88.9-39.9-88.9-88.9V762.5c0-49.1,39.9-88.9,88.9-88.9H1399
			c49,0,88.9,39.9,88.9,88.9v548.1C1487.9,1359.6,1448,1399.5,1399,1399.5z M586.8,751.3c-6,0-11.2,5.1-11.2,11.2v548.1
			c0,6.1,5.1,11.2,11.2,11.2H1399c6,0,11.2-5.1,11.2-11.2V762.5c0-6.1-5.1-11.2-11.2-11.2H586.8z"/>
	</g>
	<g>
		<rect x="536.7" y="844.2" class="st1" width="912.3" height="77.8"/>
	</g>
	<g>
		<rect x="536.7" y="973.6" class="st1" width="912.3" height="77.8"/>
	</g>
	<g>
		<path class="st1" d="M1294.9,678.2h-77.8v-61.4l-449.4,0.9l0.8,60.5h-77.8v-61.4c0-42.4,34.5-76.9,76.9-76.9H1218
			c42.4,0,76.9,34.5,76.9,76.9V678.2z"/>
	</g>
	<g>
		<path class="st1" d="M1121.6,1172H872.3V973.6h249.3V1172z M950.1,1094.3h93.7v-42.8h-93.7V1094.3z"/>
	</g>
</g>
</svg>
