<?xml version="1.0" encoding="utf-8"?>
<!-- Generator: Adobe Illustrator 21.0.2, SVG Export Plug-In . SVG Version: 6.00 Build 0)  -->
<svg version="1.1" id="Layer_1" xmlns="http://www.w3.org/2000/svg" xmlns:xlink="http://www.w3.org/1999/xlink" x="0px" y="0px"
	 viewBox="0 0 2000 2000" style="enable-background:new 0 0 2000 2000;" xml:space="preserve">
<style type="text/css">
	.st0{fill:#333333;}
	.st1{fill:#AFCFDB;}
	.st2{fill:none;stroke:#333333;stroke-miterlimit:10;}
</style>
<g>
	<g>
		<path class="st1" d="M1000,2000C448.6,2000,0,1551.4,0,1000S448.6,0,1000,0c551.4,0,1000,448.6,1000,1000S1551.4,2000,1000,2000z
			 M1000,77.8C491.5,77.8,77.8,491.5,77.8,1000s413.7,922.2,922.2,922.2s922.2-413.7,922.2-922.2S1508.5,77.8,1000,77.8z"/>
	</g>
	<g>
		
			<rect x="709.2" y="1153.5" transform="matrix(0.7072 -0.707 0.707 0.7072 -701.5284 910.1091)" class="st1" width="77.8" height="297.3"/>
	</g>
	<g>
		<path class="st1" d="M1440.9,874.5l-265.2-265.2l116.7-116.7c49.2-49.2,135.7-49.2,184.9,0l80.2,80.2c51,51,51,134,0,184.9
			L1440.9,874.5z M1285.8,609.2l155.2,155.3l61.8-61.8c20.6-20.7,20.6-54.3,0-75l-80.2-80.2c-19.9-19.9-55.1-19.9-75,0L1285.8,609.2
			z"/>
	</g>
	<g>
		
			<rect x="1204.1" y="658.6" transform="matrix(0.7071 -0.7071 0.7071 0.7071 -206.7167 1115.358)" class="st1" width="77.8" height="297.2"/>
	</g>
	<g>
		<path class="st1" d="M496.7,1553.5l111.9-377l622.2-622.2l265.2,265.2l-622.2,622.2L496.7,1553.5z M677.5,1217.5L612,1438.2
			l220.6-65.5l553.3-553.3l-155.2-155.3L677.5,1217.5z"/>
	</g>
</g>
</svg>
