<?xml version="1.0" encoding="utf-8"?>
<!-- Generator: Adobe Illustrator 21.0.2, SVG Export Plug-In . SVG Version: 6.00 Build 0)  -->
<svg version="1.1" id="Layer_1" xmlns="http://www.w3.org/2000/svg" xmlns:xlink="http://www.w3.org/1999/xlink" x="0px" y="0px"
	 viewBox="0 0 2000 2000" style="enable-background:new 0 0 2000 2000;" xml:space="preserve">
<style type="text/css">
	.st0{fill:#333333;}
	.st1{fill:#AFCFDB;}
	.st2{fill:none;stroke:#333333;stroke-miterlimit:10;}
</style>
<g>
	<g>
		<path class="st1" d="M1000,2000C448.6,2000,0,1551.4,0,1000S448.6,0,1000,0c551.4,0,1000,448.6,1000,1000S1551.4,2000,1000,2000z
			 M1000,77.8C491.5,77.8,77.8,491.5,77.8,1000s413.7,922.2,922.2,922.2s922.2-413.7,922.2-922.2S1508.5,77.8,1000,77.8z"/>
	</g>
	<g>
		<path class="st1" d="M1025.7,1540.2h-51.4c-153.8,0-278.9-125.1-278.9-278.8V735.8c0-153.8,125.1-278.9,278.9-278.9h51.4
			c153.8,0,278.9,125.1,278.9,278.9v525.6C1304.5,1415.1,1179.4,1540.2,1025.7,1540.2z M974.3,534.6
			c-110.9,0-201.1,90.2-201.1,201.1v525.6c0,110.9,90.2,201,201.1,201h51.4c110.9,0,201.1-90.2,201.1-201V735.8
			c0-110.9-90.2-201.1-201.1-201.1H974.3z"/>
	</g>
	<g>
		<path class="st1" d="M1000,880.1c-21.5,0-38.9-17.4-38.9-38.9v-79.8c0-21.5,17.4-38.9,38.9-38.9s38.9,17.4,38.9,38.9v79.8
			C1038.9,862.8,1021.5,880.1,1000,880.1z"/>
	</g>
</g>
</svg>
