<?xml version="1.0" encoding="utf-8"?>
<!-- Generator: Adobe Illustrator 21.0.2, SVG Export Plug-In . SVG Version: 6.00 Build 0)  -->
<svg version="1.1" id="Layer_1" xmlns="http://www.w3.org/2000/svg" xmlns:xlink="http://www.w3.org/1999/xlink" x="0px" y="0px"
	 viewBox="0 0 576 576" style="enable-background:new 0 0 576 576;" xml:space="preserve">
<style type="text/css">
	.st0{fill:#FFFFFF;}
</style>
<path class="st0" d="M531.7,47.8H38.6C22,47.8,8.3,61.4,8.3,78.1v43c0,16.7,13.6,30.3,30.3,30.3h493.1c19.8,0,35.9-16.2,35.9-35.9
	V83.7C567.7,64,551.5,47.8,531.7,47.8z"/>
<path class="st0" d="M532.6,236.2H39.5c-16.7,0-30.3,13.6-30.3,30.3v43c0,16.7,13.6,30.3,30.3,30.3h493.1
	c19.8,0,35.9-16.2,35.9-35.9v-31.6C568.6,252.4,552.4,236.2,532.6,236.2z"/>
<path class="st0" d="M532.6,424.8H39.5c-16.7,0-30.3,13.6-30.3,30.3v43c0,16.7,13.6,30.3,30.3,30.3h493.1
	c19.8,0,35.9-16.2,35.9-35.9v-31.6C568.6,441,552.4,424.8,532.6,424.8z"/>
</svg>
