<?xml version="1.0" encoding="utf-8"?>
<!-- Generator: Adobe Illustrator 21.0.2, SVG Export Plug-In . SVG Version: 6.00 Build 0)  -->
<svg version="1.1" id="Layer_1" xmlns="http://www.w3.org/2000/svg" xmlns:xlink="http://www.w3.org/1999/xlink" x="0px" y="0px"
	 viewBox="0 0 600 511" style="enable-background:new 0 0 600 511;" xml:space="preserve">
<style type="text/css">
	.st0{fill:#333333;}
	.st1{clip-path:url(#SVGID_2_);}
	.st2{fill:#316687;}
</style>
<rect y="-0.1" class="st0" width="600" height="511.2"/>
<g>
	<g>
		<defs>
			<rect id="SVGID_1_" y="-0.1" width="600" height="511.2"/>
		</defs>
		<clipPath id="SVGID_2_">
			<use xlink:href="#SVGID_1_"  style="overflow:visible;"/>
		</clipPath>
		<g class="st1">
			<path class="st2" d="M0-0.1v5.3c1.7-1.7,3.4-3.5,5.1-5.3C5.1-0.1,0-0.1,0-0.1z"/>
			<path class="st2" d="M22.7-0.1h-6C11.6,6.7,6.1,13,0,18.9v8C8.5,18.8,16,9.8,22.7-0.1z"/>
			<path class="st2" d="M40.2-0.1h-0.8C28.9,20.5,16,38.2,0,53.1v1.2C16.4,39.2,29.5,21.1,40.2-0.1z"/>
			<path class="st2" d="M58.9-0.1h-2.5C43.2,35,25.4,63.7,0,86.4v5.4C27,67.8,45.4,37.4,58.9-0.1z"/>
			<path class="st2" d="M70.8-0.1h-3.3C53.4,46.8,32.9,83.8,0,112.6v8.2C35.3,90.2,56.5,50.4,70.8-0.1z"/>
			<path class="st2" d="M81.8-0.1h-1.3C66.2,62.8,43.3,111,0,147.8v3.5C44.3,113.7,67.4,64.4,81.8-0.1z"/>
			<path class="st2" d="M92.5,16c1-5.3,2-10.7,3-16.1h-1.6c-0.8,4.4-1.6,8.7-2.5,13C77.9,85.2,55,140.3,6.2,183.6
				c-2,1.7-4.1,3.4-6.2,5v5c2.7-2.1,5.3-4.2,7.8-6.4C56.3,143.4,79.2,88.2,92.5,16z"/>
			<path class="st2" d="M98,31.9c1.9-10.4,3.7-21,5.3-32h-1c-1.6,10.3-3.2,20.3-5,30c-12.4,72.1-34.3,128-81.7,173.7
				c-4.9,4.5-10.1,8.9-15.5,13.1v3.3c5.9-4.6,11.4-9.3,16.6-14.1C63.9,159.9,85.8,103.9,98,31.9z"/>
			<path class="st2" d="M104.4,48.6c2.6-15.6,4.9-31.8,7-48.7h-2.8c-1.9,14.8-4.1,29.1-6.5,42.8c-11.5,71.9-32.6,128.4-79,175.8
				c-7.1,6.9-14.7,13.6-23,20v10.1c9.7-7.5,18.5-15.3,26.5-23.4C72.4,177.1,93.2,120.4,104.4,48.6z"/>
			<path class="st2" d="M109.2,60.5c3.1-19.2,5.5-39.4,7.7-60.5h-0.7c-2.2,20.6-4.7,40.3-7.7,59C98,130.6,78,187.8,33.1,237.4
				c-9.8,10.4-20.7,20.4-33.1,29.8v2.6c12.8-9.8,24.1-20.1,34.1-30.7C78.8,189.3,98.8,132.1,109.2,60.5z"/>
			<path class="st2" d="M116.6,77.3c3.5-24.3,6-50.1,8.3-77.4h-1.2c-2.3,26.4-4.9,51.3-8.3,74.9C106,146.2,87.1,204,43.7,255.7
				C31.4,269.9,17,283.6,0,296.4v4.6c17.8-13.4,32.7-27.7,45.5-42.5C88.7,206.5,107.3,148.6,116.6,77.3z"/>
			<path class="st2" d="M122.7,90.1c3.7-28.2,6.1-58.2,8.3-90.2h-1.9c-2.2,30.5-4.8,59.3-8.4,86.3c-8.6,71.1-26.5,129.4-68.8,182.6
				C37.7,286,20.8,302.6,0,318.3v7.5c22.2-16.6,40-34.3,54.8-52.6C96.8,219.5,114.4,161.1,122.7,90.1z"/>
			<path class="st2" d="M68.6,292.8c40-55.8,56.2-114.8,63.2-185.3c3.7-33.4,5.7-69.2,7.6-107.5h-0.5c-1.9,38-4,73.5-7.7,106.5
				C124.2,177,108,236,67.9,291.7C50.5,315,28.7,337.8,0,359.2v2C29.2,339.5,51.1,316.4,68.6,292.8z"/>
			<path class="st2" d="M81.2,308.7c38.3-57.6,53.2-117,58.9-187c3.5-37.6,4.9-78.1,6.4-121.8h-2.1c-1.6,42.1-3.2,81.3-6.9,117.7
				c-6.1,70.2-21.2,129.5-60.1,186.6C58.4,331.3,33.8,358,0,383.2v9.1C35.9,365.5,61.6,337.3,81.2,308.7z"/>
			<path class="st2" d="M89.5,318.2c37.3-58.6,51.2-118.3,56.2-187.9c3.3-40.2,4.2-83.5,5.4-130.4h-1c-1.3,46.1-2.3,88.9-5.8,128.5
				c-5.1,69.7-19.2,129.3-56.7,187.7C67,347.4,39.5,378.3,0,407.9v4.2C40.6,381.7,68.5,350.1,89.5,318.2z"/>
			<path class="st2" d="M103.1,332.4c35.5-60.2,48.1-120.1,51.8-189.1c2.9-44.1,2.8-91.7,3.5-143.4H157c-0.8,50.7-1,97.6-4,140.9
				c-4,69.1-16.7,129-52.6,188.9C78,366,47,402.3,0,437.9v6.4C48.7,407.3,80.4,369.8,103.1,332.4z"/>
			<path class="st2" d="M117.1,345.1c33.7-61.6,44.9-121.6,47.4-189.9c2.2-47.6,1.1-99.2,1.1-155.2h-0.2
				c-0.1,55.9,1.1,107.3-1.3,154.9c-2.5,68.3-13.7,128.4-47.5,189.9C92.5,387.6,57.2,431.2,0,475.3v0.9
				C57.4,431.8,92.8,388.1,117.1,345.1z"/>
			<path class="st2" d="M125.1,351.6c32.8-62.3,43.1-122.4,44.9-190.3c1.8-49.5-0.1-103.1-0.4-161.4h-0.9c0.2,57.8,2,110.9-0.1,160
				c-1.9,68-12.4,128.1-45.4,190.2C98.5,395.7,61.5,442.3,0,490.3v4C62.6,445.3,100.1,397.8,125.1,351.6z"/>
			<path class="st2" d="M137.4,360.4c31.3-63.2,40.4-123.4,41.2-190.6c1.1-52.1-1.9-108.5-2.8-169.9h-1.9
				c0.7,60.5,3.4,116,1.9,167.3c-1,67.4-10.6,127.6-42.3,190.5C107.8,407.3,68.3,458.7,0,512.8v8.6
				C71,464.8,111.5,411.6,137.4,360.4z"/>
			<path class="st2" d="M145.3,365.4c30.3-63.8,38.8-123.9,38.8-190.7c0.6-53.6-3.2-111.5-4.4-174.8h-0.8
				c1.2,62.8,4.8,120.4,4,173.7c-0.2,66.9-8.8,127-39.3,190.7C117.1,417.9,75.2,473.9,0,534.6v3.8
				C76.4,476.5,118.8,419.6,145.3,365.4z"/>
			<path class="st2" d="M160.1,373.5c28.6-64.7,35.6-124.7,34.5-190.6c-0.4-56.2-5.6-116.7-7.7-183h-2.3
				c1.8,65.3,6.5,125.1,6.5,180.6c0.8,66.2-6.7,126.3-35.8,190.7C128.5,429.4,83.8,491.3,0,560.5v9.9
				C87.1,497.7,133,433.6,160.1,373.5z"/>
			<path class="st2" d="M169.4,377.7c27.5-65.2,33.7-125.1,31.9-190.4C200.2,129.7,194,67.8,191.6,0h-0.5
				c2.4,67.6,8.5,129.4,9.4,186.9c1.9,65.4-4.4,125.4-32,190.5c-27.3,63-74.6,130.8-167,209.3h2.4
				C95.3,508.2,142.3,440.5,169.4,377.7z"/>
			<path class="st2" d="M179,381.4c26.4-65.6,31.8-125.4,29.2-190.2c-1.8-59-9-122.1-11.9-191.3h-0.8c2.9,69,9.8,131.9,11.4,190.6
				c2.5,64.9-3,124.7-29.5,190.2c-25.6,61.5-69.8,128.1-155,205.9h3.8C110.2,509,153.8,442.7,179,381.4z"/>
			<path class="st2" d="M185.9,383.6c25.6-65.9,30.4-125.6,27.3-189.9C210.8,133.9,203,70,199.7-0.1h-1.3
				c3.2,69.8,10.7,133.4,12.8,192.9c3,64.5-2,124.2-27.9,190c-24.5,60.7-66.8,126.5-147.9,203.8h5.2
				C120.2,509.5,161.9,444,185.9,383.6z"/>
			<path class="st2" d="M194.6,386c24.7-66.2,28.7-125.7,25-189.5C216.5,135.7,207.8,71,204.1-0.1h-0.2
				c3.7,71,12.4,135.7,15.2,196.5c3.8,63.8-0.2,123.3-25,189.5c-22.7,59.4-62,124.1-137,200.8H58C132.7,510,172,445.3,194.6,386z"/>
			<path class="st2" d="M206.6,388.5C230,322,233,262.7,228.4,199.7c-4-62-13.9-127.7-18.2-199.8h-0.9c4.2,72,14,137.6,17.7,199.3
				c4.6,63.1,1.4,122.4-22.1,188.9c-21.2,58.4-58.1,122.3-128,198.5h3C149.2,510.5,185.7,446.7,206.6,388.5z"/>
			<path class="st2" d="M216.1,389.7c22.4-66.8,24.7-125.8,19.4-188.2C230.8,139.5,220,73.9,215.2,2c-0.1-0.7-0.1-1.4-0.1-2.1h-1.4
				c0,0.3,0.1,0.6,0.1,0.8c4.6,72.2,15.2,138.1,19.6,200.3c5.2,62.5,2.7,121.7-20,188.4c-20.1,57.7-55.3,121.2-122,197.2h4.3
				C161.5,510.6,196.3,447.3,216.1,389.7z"/>
			<path class="st2" d="M242.9,203c-5.4-61.4-16.7-126-22.1-196.5c-0.2-2.2-0.4-4.4-0.5-6.6h-0.6c0.1,2,0.3,4.1,0.5,6.1
				c5.3,70.7,16.6,135.4,21.8,196.9c5.9,61.8,4.4,120.6-17.1,187.5c-18.8,57.1-52.1,120.1-115.1,196.2h1.7
				c62.8-76.1,95.9-139.1,114.5-196.1C247.4,323.5,248.9,264.7,242.9,203z"/>
			<path class="st2" d="M253.6,204.3C247.3,143.8,235.2,80.7,229,12c-0.4-4-0.7-8.1-1.1-12.1H227c0.3,3.8,0.7,7.7,1,11.5
				c6.1,68.9,18.1,132.2,24.2,192.8c6.8,60.8,6.4,119.3-13.8,186.5c-17.4,56.6-48.8,119.4-108.5,195.9h2.3
				c59.4-76.6,90.6-139.4,107.9-196C260.2,323.5,260.5,265,253.6,204.3z"/>
			<path class="st2" d="M260.5,204.6c-6.8-59.9-19.4-122.1-26-189.6c-0.5-5-1-10-1.4-15.1h-0.6c0.4,4.9,0.9,9.9,1.4,14.7
				c6.6,67.7,19.1,130,25.8,190c7.4,60.2,7.6,118.4-11.6,185.6c-16.6,56.5-46.8,119.3-104.8,196.4h1.5c57.8-77.1,88-140,104.4-196.5
				C268.2,322.9,267.9,264.7,260.5,204.6z"/>
			<path class="st2" d="M268.1,204.5c-7.4-59.2-20.5-120.4-27.7-186.7c-0.7-5.9-1.3-11.9-1.9-18h-2c0.5,5.7,1.1,11.4,1.7,17
				c7,66.7,19.9,128.2,27,187.7c7.9,59.7,8.6,117.6-10,185c-16,56.4-45.4,119.5-102.2,197h4.5c56.3-77.9,85.5-141,101.2-197.4
				C277.1,321.8,276.1,264,268.1,204.5z"/>
			<path class="st2" d="M273.7,204.2c-7.9-58.8-21.3-119.2-28.8-184.5c-0.8-6.6-1.5-13.2-2.2-19.8h-0.5c0.7,6.6,1.4,13.1,2.1,19.6
				c7.4,65.4,20.8,125.9,28.6,184.8c8.5,59,9.9,116.7-7.8,184c-15.2,56.5-43.7,119.8-99.4,198.3h1.1c55.5-78.6,84-141.9,99.2-198.5
				C283.7,320.8,282.2,263.1,273.7,204.2z"/>
			<path class="st2" d="M282.2,203.3c-8.5-58-22.4-117.4-30.4-181.2c-1-7.3-1.8-14.7-2.6-22.1h-1c0.8,7.3,1.6,14.6,2.5,21.8
				c7.9,64,21.7,123.6,30,181.7c9,58.3,11.1,115.6-5.7,183c-14.5,56.7-42.2,120.5-97,200.1h1.9c54.5-79.8,82.3-143.7,96.6-200.4
				C293.5,318.8,291.3,261.5,282.2,203.3z"/>
			<path class="st2" d="M289.2,202.2c-8.9-57.4-23.2-115.9-31.6-178.6c-1.1-7.8-2-15.7-2.9-23.7H253c0.8,7.8,1.8,15.6,2.8,23.3
				c8.3,63,22.4,121.8,31.1,179.4c9.4,57.8,12,114.8-4.1,182.3c-14,56.9-41.2,121.1-95.4,201.8h3.1c54-81,81.1-145.4,94.9-202.4
				C301.4,316.8,298.7,259.8,289.2,202.2z"/>
			<path class="st2" d="M299.3,200.2c-9.5-56.6-24.3-113.8-33.1-174.8c-1.3-8.4-2.4-16.9-3.4-25.4h-0.5c1,8.5,2.2,17,3.4,25.3
				c8.8,61.1,23.5,118.4,32.9,175.1c10.1,56.8,13.6,113.3-1.4,180.8c-13.1,57.4-39.5,122.7-93.1,205.6h0.8
				c53.6-83,80-148.3,93.1-205.8C312.9,313.5,309.4,256.9,299.3,200.2z"/>
			<path class="st2" d="M308.4,197.9C298.3,142,283.2,85.9,274,26.4c-1.4-8.8-2.6-17.6-3.8-26.5H268c1.1,8.8,2.3,17.5,3.7,26.2
				c9.1,60,24.1,116.4,33.9,172.5c10.5,56.2,14.5,112.4,0.2,179.8c-12.6,57.8-38.6,123.8-92.1,208.2h3.6
				c53.5-85,79.3-151.2,91.8-209.2C323.2,310,319,253.8,308.4,197.9z"/>
			<path class="st2" d="M314.3,196.2C304,140.8,288.7,85.5,279.2,26.9c-1.5-8.9-2.8-17.9-4-27h-1.1c1.2,9,2.5,18,4,26.9
				c9.4,58.8,24.7,114.3,34.9,169.8c10.9,55.6,15.4,111.5,1.7,178.9c-12.1,58.3-37.8,125.1-91.3,211.1h1.6
				c53.5-86.3,79.1-153.3,91.2-211.7C329.8,307.6,325.3,251.7,314.3,196.2z"/>
			<path class="st2" d="M324.2,193.1c-10.8-54.6-26.5-108.8-36.2-165.8c-1.6-9.1-3.1-18.2-4.3-27.4h-1.7c1.3,9.2,2.7,18.3,4.3,27.4
				c9.7,57.3,25.3,111.7,35.9,166.5c11.3,54.8,16.4,110.4,3.5,177.7c-11.6,59-36.9,126.8-90.6,215.1h2.5
				c53.8-88.8,79-156.9,90.5-216C340.7,303.3,335.5,247.8,324.2,193.1z"/>
			<path class="st2" d="M334.2,189.7C323,135.9,307,82.9,297,27.5c-1.7-9.1-3.2-18.3-4.6-27.5h-0.2c1.3,9.2,2.9,18.4,4.6,27.5
				c10,55.5,25.9,108.5,37.1,162.4c11.8,53.8,17.5,109,5.5,176.2c-11,59.9-35.9,129.2-90.1,220.6h0.4
				c54.2-91.5,79.1-160.9,90.2-220.8C351.7,298.6,346,243.5,334.2,189.7z"/>
			<path class="st2" d="M340,187.6c-11.5-53.3-27.5-105.7-37.6-160.2c-1.7-9.1-3.3-18.3-4.7-27.5h-1.1c1.4,9.2,2.9,18.4,4.7,27.5
				c10.1,54.7,26.2,107.2,37.4,160.7c11.9,53.5,17.9,108.4,6.3,175.6c-10.7,60.2-35.5,130.2-90.1,223h1.5
				c54.6-93.1,79.4-163.3,90.1-223.6C357.9,295.8,351.9,241,340,187.6z"/>
			<path class="st2" d="M348.8,184.2c-11.8-52.7-28-104-38.2-157.1c-1.8-9-3.4-18.1-4.8-27.2h-2.6c1.4,9.1,3,18.2,4.8,27.3
				c10.2,53.6,26.4,105.2,38,158.2c12.2,52.9,18.5,107.5,7.4,174.7c-10.4,60.8-35,131.8-90.1,226.6h3.2c55.3-95.6,79.8-167,90.2-228
				C367.5,291.5,361.1,236.9,348.8,184.2z"/>
			<path class="st2" d="M354.5,182c-11.9-52.2-28.3-102.9-38.6-155.2c-1.8-8.9-3.4-17.9-4.9-26.9h-1.2c1.4,9,3.1,18,4.9,27
				c10.3,52.5,26.6,103.3,38.4,155.7c12.4,52.3,19,106.7,8.3,173.8c-10.1,61.4-34.6,133.4-90.2,230.2h1.4
				c55.7-97.2,80.2-169.4,90.3-230.9C373.5,288.6,366.9,234.3,354.5,182z"/>
			<path class="st2" d="M365.3,177.7c-12.2-51.4-28.6-100.9-39-151.5c-1.9-8.7-3.5-17.5-5-26.2h-3.3c1.4,8.8,3.1,17.7,4.9,26.5
				c10.4,51.1,26.8,101,38.8,152.7c12.6,51.7,19.6,105.7,9.4,172.8c-9.8,62.1-34.2,135.3-90.5,234.7h3.6
				c56.6-100.4,81-174.1,90.7-236.5C385,283.1,378,229.2,365.3,177.7z"/>
			<path class="st2" d="M372.1,175c-12.3-50.9-28.7-99.7-39.2-149.3c-1.9-8.6-3.5-17.2-5-25.8h-0.7c1.4,8.6,3.1,17.2,5,25.8
				c10.4,49.7,26.9,98.5,39.1,149.6c12.8,51,20,104.7,10.3,171.7c-9.5,62.9-33.8,137.3-91,239.6h0.7c57.2-102.4,81.5-177,91.1-240
				C392.2,279.6,384.9,226,372.1,175z"/>
			<path class="st2" d="M378.4,172.5c-12.4-50.5-28.9-98.6-39.2-147.2c-1.9-8.4-3.5-16.9-5-25.3h-1.3c1.4,8.5,3.1,16.9,5,25.4
				c10.4,48.8,26.9,97.1,39.1,147.7c12.9,50.6,20.3,104.1,10.8,171.1c-9.4,63.3-33.6,138.6-91.4,242.5h1.3
				c57.8-104.3,82.1-179.7,91.4-243.1C398.7,276.5,391.3,223,378.4,172.5z"/>
			<path class="st2" d="M383.5,170.5c-12.4-50.2-28.9-97.7-39.3-145.6c-1.9-8.3-3.5-16.6-5-24.9h-1.9c1.4,8.4,3.1,16.7,5,25.1
				c10.4,48.2,26.9,95.9,39.2,146.3c13,50.3,20.5,103.6,11.2,170.6c-9.2,63.7-33.5,139.5-91.7,244.8h1.9
				c58.4-105.8,82.6-181.9,91.8-245.7C404,273.9,396.4,220.6,383.5,170.5z"/>
			<path class="st2" d="M390.1,167.9c-12.5-49.7-29-96.6-39.2-143.5c-1.9-8.2-3.5-16.3-4.9-24.5h-0.3c1.4,8.1,3.1,16.3,4.9,24.5
				c10.3,47,26.8,93.9,39.2,143.7c13,49.7,20.7,102.8,11.6,169.8c-9.1,64.2-33.3,141.1-92.3,248.8h0.3c59-107.8,83.2-184.7,92.3-249
				C410.7,270.7,403,217.6,390.1,167.9z"/>
			<path class="st2" d="M399.2,164.4c-12.5-49.1-28.9-95-39.1-140.6c-1.8-8-3.5-15.9-4.9-23.9h-1.3c1.4,8,3.1,15.9,4.9,23.9
				c10.2,45.8,26.6,91.8,39.1,141.1c13,49.1,20.9,102,12.1,169c-8.9,64.8-33.2,142.7-92.9,252.7h1.3
				c59.9-110.3,84.2-188.4,93.1-253.3C420.1,266.3,412.2,213.5,399.2,164.4z"/>
			<path class="st2" d="M406.4,161.7c-12.5-48.6-28.9-93.8-38.9-138.4c-1.8-7.8-3.4-15.7-4.9-23.4h-2.1c1.4,7.8,3.1,15.7,4.9,23.6
				c10.1,44.9,26.5,90.2,38.9,139.1c13,48.7,20.9,101.3,12.3,168.4c-8.8,65.2-33.1,143.9-93.5,255.7h1.9
				c60.6-112.4,84.8-191.3,93.7-256.7C427.4,262.9,419.5,210.3,406.4,161.7z"/>
			<path class="st2" d="M414.3,159c-12.5-48.1-28.7-92.5-38.6-136c-1.8-7.7-3.4-15.4-4.8-23.1h-1c1.4,7.6,3,15.3,4.8,23.1
				c9.9,43.6,26.1,88.1,38.5,136.3c13,48.1,21,100.5,12.5,167.6c-8.8,65.8-33.1,145.5-94.3,259.7h0.8
				c61.3-114.4,85.7-194.2,94.4-260.1C435.2,259.4,427.3,207.1,414.3,159z"/>
			<path class="st2" d="M425.6,155.2c-12.4-47.4-28.4-90.7-37.9-132.6c-1.8-7.6-3.4-15.2-4.7-22.7h-1.4c1.3,7.5,2.9,15.1,4.7,22.7
				c9.6,42.1,25.6,85.5,37.9,133.1c12.9,47.4,20.9,99.5,12.5,166.7c-8.7,66.3-33.1,147.2-95.3,264.2h1.2
				c62.3-117.3,86.7-198.3,95.4-264.7C446.4,254.7,438.4,202.6,425.6,155.2z"/>
			<path class="st2" d="M432.8,153c-12.2-47-28.1-89.6-37.4-130.5c-1.8-7.6-3.4-15.1-4.7-22.6h-1c1.3,7.5,2.9,15,4.7,22.6
				c9.4,41,25.2,83.7,37.4,130.8c12.8,47,20.8,98.8,12.4,166.1c-8.7,66.7-33.2,148.3-96,267.2h0.8c63-119.1,87.5-200.8,96.2-267.5
				C453.5,251.8,445.6,199.9,432.8,153z"/>
			<path class="st2" d="M441,150.7c-12.1-46.5-27.7-88.3-36.8-128.1c-1.8-7.6-3.4-15.2-4.6-22.6h-3.2c1.3,7.4,2.9,15,4.6,22.6
				c9.2,40.2,24.8,82.3,37,129c12.7,46.6,20.6,98.3,12.3,165.7c-8.8,67-33.3,149.1-96.6,269.5h2.5c63.5-121,88.1-203.4,96.9-270.5
				C461.5,248.8,453.7,197.1,441,150.7z"/>
			<path class="st2" d="M447.2,149c-12-46.2-27.4-87.4-36.2-126.4c-1.8-7.7-3.3-15.3-4.6-22.7h-0.8c1.3,7.5,2.8,15,4.6,22.7
				c8.9,39.1,24.3,80.4,36.2,126.7c12.5,46.1,20.4,97.6,12,165.1c-8.8,67.3-33.4,150.1-97.4,272.3h0.7
				c64-122.3,88.6-205.2,97.4-272.5C467.5,246.7,459.7,195.1,447.2,149z"/>
			<path class="st2" d="M456.5,146.8c-11.8-45.6-26.9-86-35.3-123.7c-1.8-7.8-3.3-15.6-4.5-23.1h-1.6c1.2,7.6,2.8,15.2,4.6,23.1
				c8.5,38,23.6,78.4,35.4,124.2c12.4,45.6,20,97,11.6,164.5c-8.9,67.5-33.7,151-98.2,274.9h1.2c64.6-124.2,89.3-207.8,98.3-275.4
				C476.5,243.7,468.8,192.4,456.5,146.8z"/>
			<path class="st2" d="M464.3,145.2c-11.6-45.2-26.4-84.9-34.5-121.6c-1.8-8-3.4-15.9-4.5-23.6h-2.6c1.1,7.7,2.7,15.5,4.5,23.4
				c8.2,37.1,23.2,76.9,34.7,122.4C474,191,481.6,242.2,473,310c-9,67.7-33.8,151.6-98.7,276.8h2c64.9-125.7,89.8-209.8,98.9-277.5
				C483.8,241.5,476.3,190.3,464.3,145.2z"/>
			<path class="st2" d="M475.7,143.1c-11.2-44.6-25.6-83.2-33.2-118.6c-1.9-8.4-3.4-16.7-4.4-24.6h-0.7c1,8,2.5,16.2,4.4,24.6
				c7.6,35.4,22,74.1,33.1,118.8c11.8,44.5,19.1,95.5,10.3,163.5c-9.3,67.9-34.3,152.6-99.8,279.9h0.5c65.5-127.4,90.5-212,99.9-280
				C494.7,238.6,487.4,187.7,475.7,143.1z"/>
			<path class="st2" d="M486.2,141.7c-10.9-44.1-24.8-81.8-31.8-115.8c-1.9-8.9-3.3-17.6-4.2-25.9h-3.6c0.9,8.2,2.4,16.7,4.3,25.5
				c7.1,34.4,21.2,72.4,32.2,116.7c11.5,44.1,18.6,94.9,9.5,163.1c-9.5,68-34.6,153-100.4,281.4h2.6
				c65.9-128.8,91.1-213.9,100.7-281.9C504.6,236.4,497.6,185.6,486.2,141.7z"/>
			<path class="st2" d="M493.3,140.9c-10.6-43.7-24.2-80.8-30.9-114c-1.9-9.3-3.3-18.3-4-26.9h-1.7c0.8,8.6,2.2,17.5,4.1,26.7
				c6.7,33.4,20.4,70.6,31,114.5c11.2,43.7,18,94.3,8.8,162.8c-9.7,68.1-35,153.4-101,282.8h1.3c66.1-129.6,91.4-214.9,101.2-283
				C511.1,235.2,504.4,184.5,493.3,140.9z"/>
			<path class="st2" d="M505,140c-10.1-43.1-23.3-79.3-29.2-111.1c-2-10.1-3.2-19.8-3.6-29h-2.9c0.5,9.1,1.7,18.6,3.7,28.5
				c6.1,32.1,19.3,68.4,29.5,111.8c10.8,43.1,17.2,93.6,7.6,162.4c-10.1,68-35.5,153.6-101.8,284.1h2
				c66.3-130.7,91.8-216.3,101.9-284.3C522,233.5,515.7,183,505,140z"/>
			<path class="st2" d="M517.3,139.5c-9.6-42.6-22.1-77.7-27.3-108.1c-2-11.2-3-21.6-2.8-31.4h-0.4c-0.2,9.8,0.8,20.2,2.8,31.4
				c5.2,30.5,17.7,65.6,27.2,108.3c10.2,42.5,16.1,92.7,5.9,162c-10.6,67.9-36.2,153.6-102.5,285.1h0.3
				c66.4-131.5,92-217.2,102.6-285.1C533.3,232.2,527.4,182,517.3,139.5z"/>
			<path class="st2" d="M524.5,139.5C515.2,97.2,503,62.7,498.4,33c-2-11.9-2.8-22.9-2.1-33.1h-2c-0.5,10.1,0.3,21,2.3,32.7
				c4.8,29.8,17,64.5,26.3,106.9c10,42.2,15.6,92.3,5.1,161.8c-10.7,67.8-36.5,153.6-102.8,285.3h1.3
				c66.4-131.8,92.1-217.5,103-285.3C539.9,231.8,534.3,181.6,524.5,139.5z"/>
			<path class="st2" d="M535.7,139.7C527,98,515.5,64.3,511.5,35.8c-1.9-13.2-2.3-25.1-0.5-35.9h-4.9c-1.4,10.6-0.8,22.2,1.1,35
				c4.2,28.8,15.9,62.8,24.7,104.8c9.5,41.8,14.8,91.8,3.8,161.7c-11.1,67.6-37,153.3-103.3,285.3h3
				c66.2-132,92.1-217.7,103.4-285.3C550.1,231.4,545,181.3,535.7,139.7z"/>
			<path class="st2" d="M543.1,140c-8.4-41.4-19.5-74.5-22.9-102.2c-1.9-14.1-1.8-26.7,1-37.9h-2.3c-2.5,11.1-2.5,23.5-0.6,37.4
				c3.5,27.9,14.8,61.1,23.2,102.7c9.1,41.4,13.9,91.3,2.5,161.5c-11.5,67.4-37.5,153-103.6,285.1h1.4
				c66.1-132.1,92.1-217.7,103.6-285C556.7,231.3,552,181.4,543.1,140z"/>
			<path class="st2" d="M557.4,141.2c-7.6-40.8-17.9-72.9-20.3-99.2c-1.6-16.4-0.2-30.3,5.5-42.1h-7.1c-4.6,11.6-5.5,25.1-3.8,40.7
				c2.7,26.7,13.3,59.1,21.1,100.2c8.5,40.9,12.8,90.7,0.8,161.4c-11.9,67-38.1,152.4-103.9,284.4h3.7
				c65.6-131.8,91.9-217.1,104-284C569.6,231.7,565.6,181.9,557.4,141.2z"/>
			<path class="st2" d="M566.6,142.2c-7.1-40.5-16.9-71.9-18.6-97.2c-1.4-18.2,1.3-33,10.1-45h-1.7c-8.5,12-10.9,26.7-9.5,44.7
				c1.8,25.5,11.6,56.9,18.7,97.5c7.8,40.4,11.5,90-1.3,161.4c-12.5,66.6-38.8,151.6-104.1,283.1h0.8
				c65.3-131.5,91.6-216.4,104.1-283C577.9,232.2,574.3,182.6,566.6,142.2z"/>
			<path class="st2" d="M576.4,143.5c-6.6-40.1-15.8-70.8-16.7-95.3c-1-20.6,3.7-36.3,17.6-48.3h-3.8c-12.8,12-17,27.5-16,47.7
				c1.1,24.6,10.4,55.4,17,95.7c7.3,40.1,10.5,89.6-2.8,161.4c-12.8,66.2-39.2,150.9-104.2,281.9h1.5
				c64.8-130.9,91.3-215.5,104.2-281.7C586.6,233.1,583.5,183.5,576.4,143.5z"/>
			<path class="st2" d="M583.4,144.5c-6.2-39.8-14.9-70.1-15.3-93.9c-0.5-22.8,6.3-39.2,25.9-50.7h-6.6
				c-17.2,11.7-23.2,27.9-22.5,49.8c0.6,24,9.5,54.4,15.7,94.5c7,39.8,9.8,89.3-3.8,161.5c-13.1,66-39.6,150.3-104.2,281h2.2
				c64.6-130.5,91.1-214.7,104.3-280.6C592.9,233.8,590.2,184.3,583.4,144.5z"/>
			<path class="st2" d="M578.8,53.8c-0.4,23,7.9,52.6,13.4,92.3c6.3,39.4,8.5,88.8-5.8,161.6c-13.6,65.4-40.2,149.2-104.2,278.9h0.4
				c63.9-129.6,90.5-213.4,104.2-278.8c14.4-72.8,12.2-122.2,6-161.7c-5.6-39.5-13.8-69.1-13.4-92.1c0.1-18.9,5.9-33,20.7-43.2v-0.7
				C584.8,20.4,578.9,34.7,578.8,53.8z"/>
			<path class="st2" d="M600,121.3v-12.2c-3.2-20-5.8-36.4-4.9-50.2c0.4-7.7,2-14.5,4.9-20.5V33c-4.4,7.1-6.7,15.4-7.1,25.2
				C591.9,74.8,595.9,95.4,600,121.3z"/>
			<path class="st2" d="M491.9,586.7h1.6c63.1-128.4,89.8-211.4,104-276.2c0.9-4.3,1.7-8.6,2.5-12.8v-9.2
				c-1.2,6.9-2.6,14.1-4.1,21.5C581.9,374.9,555.2,458.1,491.9,586.7z"/>
			<path class="st2" d="M502.4,586.7C556.9,475.4,584.3,398.5,600,338v-10.3c-15.2,62.1-42.5,141.4-100.2,258.9h2.6V586.7z"/>
			<path class="st2" d="M512.1,586.7c44.6-91.2,71-159.1,87.9-213.8v-3.7c-16.8,55.4-43.3,124.3-89,217.5H512.1z"/>
			<path class="st2" d="M526.5,586.7c33.6-68.7,56.8-124.1,73.5-170.5v-4.9c-16.8,47.4-40.4,104.2-75.2,175.4H526.5z"/>
			<path class="st2" d="M536,586.7c27.6-56.6,48.2-104,64-144.8v-3.1c-15.9,41.5-36.8,89.9-65.1,147.9H536z"/>
			<path class="st2" d="M547,586.7c21.7-44.4,39-83.2,53-117.5v-9.6c-14.7,36.6-33.2,78.5-56.9,127.1H547z"/>
			<path class="st2" d="M555.3,586.7c17.6-36.1,32.3-68.3,44.7-97.5v-2.5c-12.7,29.8-27.7,62.9-45.8,100H555.3z"/>
		</g>
	</g>
</g>
</svg>
