<?xml version="1.0" encoding="utf-8"?>
<!-- Generator: Adobe Illustrator 21.0.2, SVG Export Plug-In . SVG Version: 6.00 Build 0)  -->
<svg version="1.1" id="Layer_1" xmlns="http://www.w3.org/2000/svg" xmlns:xlink="http://www.w3.org/1999/xlink" x="0px" y="0px"
	 viewBox="0 0 1000 511" style="enable-background:new 0 0 1000 511;" xml:space="preserve">
<style type="text/css">
	.st0{fill:#333333;}
	.st1{clip-path:url(#SVGID_2_);}
	.st2{fill:#316687;}
</style>
<rect x="-1" y="-0.1" class="st0" width="1000" height="511.2"/>
<g>
	<defs>
		<rect id="SVGID_1_" x="-1" y="-0.1" width="1000" height="511.2"/>
	</defs>
	<clipPath id="SVGID_2_">
		<use xlink:href="#SVGID_1_"  style="overflow:visible;"/>
	</clipPath>
	<g class="st1">
		<path class="st2" d="M-1-0.1v5.3c2.9-1.7,5.7-3.5,8.5-5.3H-1z"/>
		<path class="st2" d="M36.9-0.1h-10C18.3,6.7,9.1,13-1,18.9v8C13.1,18.8,25.6,9.8,36.9-0.1z"/>
		<path class="st2" d="M66-0.1h-1.3C47.1,20.5,25.7,38.2-1,53.1v1.2C26.3,39.2,48.1,21.1,66-0.1z"/>
		<path class="st2" d="M97.1-0.1H93C71,35,41.4,63.7-1,86.4v5.4C44,67.8,74.6,37.4,97.1-0.1z"/>
		<path class="st2" d="M117-0.1h-5.5C88,46.8,53.8,83.8-1,112.6v8.2C57.8,90.2,93.1,50.4,117-0.1z"/>
		<path class="st2" d="M135.3-0.1h-2.1C109.3,62.8,71.1,111-1,147.8v3.5C72.9,113.7,111.4,64.4,135.3-0.1z"/>
		<path class="st2" d="M153.1,16c1.7-5.3,3.4-10.7,5-16.1h-2.7c-1.3,4.4-2.7,8.7-4.2,13C128.9,85.2,90.6,140.3,9.3,183.6
			c-3.4,1.7-6.8,3.4-10.3,5v5c4.5-2.1,8.8-4.2,13-6.4C92.9,143.4,131,88.2,153.1,16z"/>
		<path class="st2" d="M162.4,31.9c3.2-10.4,6.1-21,8.8-32h-1.7c-2.6,10.3-5.4,20.3-8.4,30c-20.6,72.1-57.2,128-136.2,173.7
			c-8.2,4.5-16.8,8.9-25.9,13.1v3.3c9.8-4.6,19-9.3,27.7-14.1C105.5,159.9,142,103.9,162.4,31.9z"/>
		<path class="st2" d="M173,48.6c4.4-15.6,8.2-31.8,11.6-48.7h-4.7c-3.2,14.8-6.8,29.1-10.8,42.8c-19.2,71.9-54.4,128.4-131.7,175.8
			c-11.8,6.9-24.5,13.6-38.3,20v10.1c16.2-7.5,30.8-15.3,44.2-23.4C119.7,177.1,154.3,120.4,173,48.6z"/>
		<path class="st2" d="M181,60.5c5.1-19.2,9.2-39.4,12.9-60.5h-1.2c-3.7,20.6-7.9,40.3-12.9,59C162.4,130.6,129,187.8,54.2,237.4
			C37.9,247.8,19.7,257.8-1,267.2v2.6c21.4-9.8,40.1-20.1,56.8-30.7C130.4,189.3,163.6,132.1,181,60.5z"/>
		<path class="st2" d="M193.3,77.3c5.8-24.3,10-50.1,13.8-77.4h-2c-3.8,26.4-8.2,51.3-13.9,74.9c-15.6,71.4-47,129.2-119.4,180.9
			C51.3,269.9,27.4,283.6-1,296.4v4.6c29.7-13.4,54.5-27.7,75.8-42.5C146.8,206.5,177.9,148.6,193.3,77.3z"/>
		<path class="st2" d="M203.5,90.1c6.1-28.2,10.1-58.2,13.8-90.2h-3.1c-3.7,30.5-8,59.3-14,86.3c-14.3,71.1-44.1,129.4-114.6,182.6
			C61.8,286,33.7,302.6-1,318.3v7.5c37-16.6,66.6-34.3,91.4-52.6C160.3,219.5,189.6,161.1,203.5,90.1z"/>
		<path class="st2" d="M113.4,292.8c66.7-55.8,93.7-114.8,105.3-185.3c6.1-33.4,9.5-69.2,12.6-107.5h-0.8
			c-3.2,38-6.7,73.5-12.9,106.5C206,177,179,236,112.1,291.7c-29,23.3-65.2,46.1-113.1,67.5v2C47.6,339.5,84.2,316.4,113.4,292.8z"
			/>
		<path class="st2" d="M134.4,308.7c63.9-57.6,88.6-117,98.2-187c5.9-37.6,8.2-78.1,10.7-121.8h-3.5c-2.7,42.1-5.4,81.3-11.5,117.7
			c-10.1,70.2-35.4,129.5-100.1,186.6C96.4,331.3,55.4,358-1,383.2v9.1C58.8,365.5,101.6,337.3,134.4,308.7z"/>
		<path class="st2" d="M148.1,318.2c62.1-58.6,85.4-118.3,93.7-187.9c5.5-40.2,7-83.5,9-130.4h-1.6c-2.1,46.1-3.9,88.9-9.6,128.5
			c-8.5,69.7-32,129.3-94.5,187.7C110.7,347.4,64.9,378.3-1,407.9v4.2C66.6,381.7,113.2,350.1,148.1,318.2z"/>
		<path class="st2" d="M170.9,332.4c59.2-60.2,80.1-120.1,86.4-189.1c4.8-44.1,4.7-91.7,5.8-143.4h-2.4
			c-1.3,50.7-1.6,97.6-6.6,140.9c-6.6,69.1-27.9,129-87.7,188.9C129,366,77.3,402.3-1,437.9v6.4C80.1,407.3,133,369.8,170.9,332.4z"
			/>
		<path class="st2" d="M194.1,345.1c56.2-61.6,74.9-121.6,79-189.9c3.7-47.6,1.8-99.2,1.8-155.2h-0.3c-0.1,55.9,1.8,107.3-2.1,154.9
			c-4.1,68.3-22.8,128.4-79.1,189.9C153.1,387.6,94.3,431.2-1,475.3v0.9C94.7,431.8,153.7,388.1,194.1,345.1z"/>
		<path class="st2" d="M207.5,351.6c54.6-62.3,71.9-122.4,74.9-190.3c3-49.5-0.1-103.1-0.7-161.4h-1.5c0.4,57.8,3.3,110.9-0.1,160
			c-3.2,68-20.7,128.1-75.6,190.2C163.2,395.7,101.5,442.3-1,490.3v4C103.4,445.3,165.9,397.8,207.5,351.6z"/>
		<path class="st2" d="M228,360.4c52.1-63.2,67.4-123.4,68.6-190.6c1.8-52.1-3.2-108.5-4.7-169.9h-3.2c1.2,60.5,5.6,116,3.2,167.3
			c-1.7,67.4-17.6,127.6-70.5,190.5C178.7,407.3,112.8,458.7-1,512.8v8.6C117.3,464.8,184.8,411.6,228,360.4z"/>
		<path class="st2" d="M241.1,365.4c50.5-63.8,64.6-123.9,64.7-190.7c1-53.6-5.3-111.5-7.4-174.8h-1.4c2,62.8,8,120.4,6.6,173.7
			c-0.3,66.9-14.6,127-65.5,190.7C194.2,417.9,124.3,473.9-1,534.6v3.8C126.3,476.5,197,419.6,241.1,365.4z"/>
		<path class="st2" d="M265.9,373.5c47.6-64.7,59.4-124.7,57.5-190.6c-0.7-56.2-9.4-116.7-12.8-183h-3.8
			c3,65.3,10.9,125.1,10.9,180.6c1.3,66.2-11.1,126.3-59.6,190.7C213.2,429.4,138.6,491.3-1,560.5v9.9
			C144.2,497.7,220.6,433.6,265.9,373.5z"/>
		<path class="st2" d="M281.4,377.7c45.8-65.2,56.2-125.1,53.1-190.4c-1.8-57.6-12.1-119.5-16.2-187.3h-0.8
			c4,67.6,14.2,129.4,15.7,186.9c3.1,65.4-7.4,125.4-53.4,190.5c-45.5,63-124.4,130.8-278.3,209.3h4
			C157.9,508.2,236.2,440.5,281.4,377.7z"/>
		<path class="st2" d="M297.4,381.4c44-65.6,53-125.4,48.6-190.2c-3-59-15-122.1-19.9-191.3h-1.4c4.8,69,16.4,131.9,19,190.6
			c4.2,64.9-5,124.7-49.2,190.2c-42.6,61.5-116.3,128.1-258.4,205.9h6.4C182.6,509,255.4,442.7,297.4,381.4z"/>
		<path class="st2" d="M308.8,383.6c42.7-65.9,50.7-125.6,45.5-189.9c-3.9-59.8-17-123.7-22.5-193.8h-2.1
			c5.3,69.8,17.9,133.4,21.3,192.9c5,64.5-3.3,124.2-46.5,190c-40.8,60.7-111.3,126.5-246.5,203.8h8.7
			C199.4,509.5,268.8,444,308.8,383.6z"/>
		<path class="st2" d="M323.4,386c41.1-66.2,47.9-125.7,41.6-189.5C359.9,135.7,345.3,71,339.2-0.1h-0.3
			c6.1,71,20.6,135.7,25.4,196.5c6.3,63.8-0.4,123.3-41.6,189.5C284.9,445.3,219.3,510,94.4,586.7h1.2
			C220.2,510,285.7,445.3,323.4,386z"/>
		<path class="st2" d="M343.4,388.5c39-66.5,44-125.8,36.3-188.8C373.1,137.7,356.5,72,349.4-0.1h-1.5c7,72,23.3,137.6,29.5,199.3
			c7.6,63.1,2.4,122.4-36.9,188.9c-35.3,58.4-96.8,122.3-213.4,198.5h5C247.6,510.5,308.5,446.7,343.4,388.5z"/>
		<path class="st2" d="M359.1,389.7c37.4-66.8,41.1-125.8,32.3-188.2C383.6,139.5,365.7,73.9,357.7,2c-0.1-0.7-0.2-1.4-0.2-2.1h-2.3
			c0,0.3,0.1,0.6,0.1,0.8c7.7,72.2,25.3,138.1,32.6,200.3c8.6,62.5,4.5,121.7-33.3,188.4c-33.5,57.7-92.2,121.2-203.4,197.2h7.2
			C268.2,510.6,326.1,447.3,359.1,389.7z"/>
		<path class="st2" d="M403.9,203c-9-61.4-27.8-126-36.8-196.5c-0.3-2.2-0.6-4.4-0.8-6.6h-1c0.2,2,0.5,4.1,0.8,6.1
			c8.8,70.7,27.6,135.4,36.3,196.9c9.9,61.8,7.4,120.6-28.5,187.5c-31.3,57.1-86.8,120.1-191.9,196.2h2.9
			c104.6-76.1,159.8-139.1,190.9-196.1C411.4,323.5,413.9,264.7,403.9,203z"/>
		<path class="st2" d="M421.7,204.3c-10.5-60.5-30.7-123.6-41-192.3c-0.6-4-1.2-8.1-1.8-12.1h-1.5c0.5,3.8,1.1,7.7,1.7,11.5
			c10.1,68.9,30.2,132.2,40.3,192.8c11.4,60.8,10.6,119.3-23,186.5c-29,56.6-81.3,119.4-180.9,195.9h3.9
			c99-76.6,151-139.4,179.8-196C432.6,323.5,433.2,265,421.7,204.3z"/>
		<path class="st2" d="M433.1,204.6C421.7,144.7,400.8,82.5,389.7,15c-0.9-5-1.6-10-2.4-15.1h-1c0.7,4.9,1.5,9.9,2.3,14.7
			c11,67.7,31.9,130,43,190c12.4,60.2,12.7,118.4-19.4,185.6c-27.6,56.5-78,119.3-174.6,196.4h2.5c96.3-77.1,146.6-140,174-196.5
			C446,322.9,445.5,264.7,433.1,204.6z"/>
		<path class="st2" d="M445.8,204.5c-12.4-59.2-34.2-120.4-46.1-186.7c-1.1-5.9-2.1-11.9-3.1-18h-3.3c0.9,5.7,1.8,11.4,2.8,17
			c11.6,66.7,33.1,128.2,45,187.7c13.1,59.7,14.4,117.6-16.6,185c-26.6,56.4-75.7,119.5-170.4,197h7.5
			c93.9-77.9,142.5-141,168.7-197.4C460.8,321.8,459.2,264,445.8,204.5z"/>
		<path class="st2" d="M455.2,204.2c-13.1-58.8-35.5-119.2-48-184.5c-1.3-6.6-2.5-13.2-3.6-19.8h-0.9c1.1,6.6,2.3,13.1,3.5,19.6
			c12.4,65.4,34.7,125.9,47.6,184.8c14.1,59,16.5,116.7-13,184c-25.3,56.5-72.9,119.8-165.6,198.3h1.9
			c92.5-78.6,140-141.9,165.3-198.5C471.8,320.8,469.3,263.1,455.2,204.2z"/>
		<path class="st2" d="M469.4,203.3c-14.1-58-37.3-117.4-50.6-181.2c-1.6-7.3-3-14.7-4.3-22.1h-1.6c1.3,7.3,2.7,14.6,4.2,21.8
			c13.2,64,36.2,123.6,50,181.7c15,58.3,18.5,115.6-9.5,183c-24.1,56.7-70.4,120.5-161.6,200.1h3.2c90.9-79.8,137.1-143.7,161-200.4
			C488.2,318.8,484.5,261.5,469.4,203.3z"/>
		<path class="st2" d="M481,202.2c-14.9-57.4-38.6-115.9-52.6-178.6c-1.8-7.8-3.4-15.7-4.9-23.7h-2.8c1.4,7.8,3,15.6,4.7,23.3
			c13.8,63,37.3,121.8,51.8,179.4c15.6,57.8,20,114.8-6.9,182.3c-23.3,56.9-68.7,121.1-159,201.8h5.2c90-81,135.2-145.4,158.2-202.4
			C501.4,316.8,496.8,259.8,481,202.2z"/>
		<path class="st2" d="M497.8,200.2c-15.9-56.6-40.5-113.8-55.2-174.8c-2.1-8.4-4-16.9-5.7-25.4h-0.8c1.7,8.5,3.6,17,5.6,25.3
			c14.7,61.1,39.2,118.4,54.9,175.1c16.8,56.8,22.7,113.3-2.3,180.8c-21.8,57.4-65.9,122.7-155.2,205.6h1.3
			c89.3-83,133.3-148.3,155.1-205.8C520.5,313.5,514.6,256.9,497.8,200.2z"/>
		<path class="st2" d="M513,197.9C496.2,142,471,85.9,455.7,26.4c-2.3-8.8-4.4-17.6-6.3-26.5h-3.7c1.8,8.8,3.9,17.5,6.1,26.2
			c15.2,60,40.2,116.4,56.5,172.5c17.5,56.2,24.2,112.4,0.3,179.8c-21,57.8-64.4,123.8-153.5,208.2h6c89.1-85,132.2-151.2,153-209.2
			C537.6,310,530.7,253.8,513,197.9z"/>
		<path class="st2" d="M522.9,196.2c-17.3-55.4-42.8-110.7-58.6-169.3c-2.5-8.9-4.7-17.9-6.7-27h-1.8c2,9,4.2,18,6.6,26.9
			c15.6,58.8,41.1,114.3,58.1,169.8c18.1,55.6,25.6,111.5,2.9,178.9c-20.2,58.3-63,125.1-152.1,211.1h2.7
			c89.2-86.3,131.9-153.3,152-211.7C548.7,307.6,541.1,251.7,522.9,196.2z"/>
		<path class="st2" d="M539.3,193.1c-18-54.6-44.2-108.8-60.4-165.8c-2.7-9.1-5.1-18.2-7.2-27.4h-2.8c2.1,9.2,4.5,18.3,7.1,27.4
			c16.1,57.3,42.2,111.7,59.9,166.5c18.8,54.8,27.3,110.4,5.8,177.7c-19.4,59-61.5,126.8-151,215.1h4.1
			c89.6-88.8,131.6-156.9,150.8-216C566.8,303.3,558.2,247.8,539.3,193.1z"/>
		<path class="st2" d="M556,189.7c-18.7-53.8-45.3-106.8-62-162.2c-2.8-9.1-5.4-18.3-7.6-27.5H486c2.2,9.2,4.8,18.4,7.6,27.5
			c16.7,55.5,43.2,108.5,61.8,162.4c19.7,53.8,29.2,109,9.2,176.2c-18.3,59.9-59.8,129.2-150.2,220.6h0.6
			c90.4-91.5,131.9-160.9,150.3-220.8C585.1,298.6,575.6,243.5,556,189.7z"/>
		<path class="st2" d="M565.6,187.6c-19.1-53.3-45.9-105.7-62.7-160.2c-2.9-9.1-5.5-18.3-7.8-27.5h-1.9c2.3,9.2,4.9,18.4,7.8,27.5
			c16.8,54.7,43.6,107.2,62.4,160.7c19.9,53.5,29.9,108.4,10.5,175.6c-17.9,60.2-59.2,130.2-150.1,223h2.5
			c91-93.1,132.3-163.3,150.1-223.6C595.5,295.8,585.5,241,565.6,187.6z"/>
		<path class="st2" d="M580.4,184.2c-19.6-52.7-46.6-104-63.7-157.1c-3-9-5.7-18.1-8-27.2h-4.4c2.4,9.1,5,18.2,8,27.3
			c17,53.6,44,105.2,63.3,158.2c20.3,52.9,30.9,107.5,12.3,174.7c-17.4,60.8-58.4,131.8-150.2,226.6h5.3
			c92.1-95.6,133-167,150.3-228C611.5,291.5,600.8,236.9,580.4,184.2z"/>
		<path class="st2" d="M589.8,182C570,129.8,542.7,79.1,525.5,26.8c-3-8.9-5.7-17.9-8.1-26.9h-2c2.4,9,5.1,18,8.1,27
			c17.2,52.5,44.4,103.3,64,155.7c20.7,52.3,31.7,106.7,13.9,173.8c-16.9,61.4-57.7,133.4-150.4,230.2h2.3
			c92.8-97.2,133.6-169.4,150.5-230.9C621.5,288.6,610.5,234.3,589.8,182z"/>
		<path class="st2" d="M607.9,177.7c-20.3-51.4-47.7-100.9-65-151.5c-3.1-8.7-5.8-17.5-8.3-26.2h-5.5c2.4,8.8,5.2,17.7,8.2,26.5
			c17.3,51.1,44.7,101,64.6,152.7c21,51.7,32.6,105.7,15.6,172.8c-16.4,62.1-57,135.3-150.9,234.7h6
			c94.4-100.4,135-174.1,151.2-236.5C640.7,283.1,629,229.2,607.9,177.7z"/>
		<path class="st2" d="M619.2,175c-20.5-50.9-47.9-99.7-65.3-149.3c-3.1-8.6-5.8-17.2-8.3-25.8h-1.2c2.4,8.6,5.2,17.2,8.3,25.8
			c17.3,49.7,44.8,98.5,65.1,149.6c21.3,51,33.4,104.7,17.2,171.7c-15.9,62.9-56.4,137.3-151.7,239.6h1.2
			c95.4-102.4,135.9-177,151.8-240C652.6,279.6,640.5,226,619.2,175z"/>
		<path class="st2" d="M629.7,172.5c-20.6-50.5-48.1-98.6-65.4-147.2c-3.1-8.4-5.9-16.9-8.3-25.3h-2.1c2.4,8.5,5.2,16.9,8.3,25.4
			c17.3,48.8,44.8,97.1,65.2,147.7c21.5,50.6,33.8,104.1,18,171.1c-15.6,63.3-56,138.6-152.3,242.5h2.2
			c96.4-104.3,136.9-179.7,152.4-243.1C663.5,276.5,651.1,223,629.7,172.5z"/>
		<path class="st2" d="M638.2,170.5c-20.7-50.2-48.2-97.7-65.5-145.6c-3.1-8.3-5.8-16.6-8.3-24.9h-3.1c2.4,8.4,5.2,16.7,8.3,25.1
			c17.3,48.2,44.8,95.9,65.3,146.3c21.6,50.3,34.1,103.6,18.6,170.6c-15.4,63.7-55.8,139.5-152.8,244.8h3.1
			c97.3-105.8,137.7-181.9,153-245.7C672.3,273.9,659.7,220.6,638.2,170.5z"/>
		<path class="st2" d="M649.1,167.9c-20.8-49.7-48.3-96.6-65.4-143.5c-3.1-8.2-5.8-16.3-8.2-24.5H575c2.4,8.1,5.2,16.3,8.2,24.5
			c17.2,47,44.6,93.9,65.3,143.7c21.7,49.7,34.5,102.8,19.4,169.8c-15.1,64.2-55.5,141.1-153.8,248.8h0.5
			C612.9,478.9,653.3,402,668.4,337.7C683.5,270.7,670.7,217.6,649.1,167.9z"/>
		<path class="st2" d="M664.4,164.4c-20.9-49.1-48.2-95-65.2-140.6c-3-8-5.8-15.9-8.1-23.9h-2.2c2.4,8,5.1,15.9,8.2,23.9
			c17,45.8,44.4,91.8,65.1,141.1c21.7,49.1,34.8,102,20.1,169c-14.9,64.8-55.3,142.7-154.9,252.7h2.1
			c99.8-110.3,140.3-188.4,155.1-253.3C699.1,266.3,686,213.5,664.4,164.4z"/>
		<path class="st2" d="M676.4,161.7c-20.9-48.6-48.1-93.8-64.8-138.4c-3-7.8-5.7-15.7-8.1-23.4H600c2.4,7.8,5.1,15.7,8.1,23.6
			c16.8,44.9,44.1,90.2,64.8,139.1c21.7,48.7,34.9,101.3,20.5,168.4c-14.7,65.2-55.2,143.9-155.8,255.7h3.2
			c101-112.4,141.4-191.3,156.1-256.7C711.3,262.9,698.1,210.3,676.4,161.7z"/>
		<path class="st2" d="M689.5,159c-20.8-48.1-47.8-92.5-64.3-136c-3-7.7-5.7-15.4-8-23.1h-1.6c2.3,7.6,5,15.3,8,23.1
			c16.5,43.6,43.5,88.1,64.2,136.3c21.7,48.1,35,100.5,20.8,167.6c-14.6,65.8-55.1,145.5-157.2,259.7h1.4
			C655,472.2,695.6,392.4,710.2,326.5C724.3,259.4,711.1,207.1,689.5,159z"/>
		<path class="st2" d="M708.3,155.2c-20.6-47.4-47.3-90.7-63.2-132.6c-3-7.6-5.6-15.2-7.9-22.7h-2.4c2.2,7.5,4.9,15.1,7.9,22.7
			c16,42.1,42.7,85.5,63.2,133.1c21.5,47.4,34.8,99.5,20.9,166.7c-14.5,66.3-55.2,147.2-158.8,264.2h2
			C673.8,469.3,714.5,388.3,729,321.9C743,254.7,729.7,202.6,708.3,155.2z"/>
		<path class="st2" d="M720.4,153C700,106,673.6,63.4,658,22.5c-3-7.6-5.6-15.1-7.8-22.6h-1.6c2.2,7.5,4.8,15,7.8,22.6
			c15.6,41,42,83.7,62.3,130.8c21.4,47,34.6,98.8,20.7,166.1c-14.5,66.7-55.3,148.3-160,267.2h1.3
			C685.7,467.5,726.5,385.8,741,319.1C754.9,251.8,741.7,199.9,720.4,153z"/>
		<path class="st2" d="M734,150.7c-20.2-46.5-46.2-88.3-61.3-128.1c-3-7.6-5.6-15.2-7.7-22.6h-5.3c2.2,7.4,4.8,15,7.7,22.6
			c15.3,40.2,41.4,82.3,61.6,129c21.2,46.6,34.4,98.3,20.5,165.7c-14.6,67-55.5,149.1-161,269.5h4.2
			c105.9-121,146.8-203.4,161.5-270.5C768.2,248.8,755.1,197.1,734,150.7z"/>
		<path class="st2" d="M744.3,149c-20-46.2-45.7-87.4-60.4-126.4c-3-7.7-5.5-15.3-7.6-22.7h-1.4c2.1,7.5,4.7,15,7.6,22.7
			c14.8,39.1,40.5,80.4,60.4,126.7c20.9,46.1,34,97.6,20,165.1c-14.7,67.3-55.7,150.1-162.3,272.3h1.1
			c106.6-122.3,147.7-205.2,162.4-272.5C778.1,246.7,765.1,195.1,744.3,149z"/>
		<path class="st2" d="M759.9,146.8c-19.7-45.6-44.8-86-58.9-123.7c-3-7.8-5.5-15.6-7.5-23.1h-2.6c2,7.6,4.6,15.2,7.6,23.1
			c14.2,38,39.4,78.4,59,124.2c20.6,45.6,33.4,97,19.3,164.5c-14.9,67.5-56.1,151-163.6,274.9h2C722.8,462.5,764.1,378.9,779,311.3
			C793.1,243.7,780.4,192.4,759.9,146.8z"/>
		<path class="st2" d="M772.8,145.2c-19.3-45.2-44-84.9-57.5-121.6c-3-8-5.6-15.9-7.5-23.6h-4.4c1.9,7.7,4.5,15.5,7.5,23.4
			c13.7,37.1,38.6,76.9,57.8,122.4c20.3,45.2,32.9,96.4,18.7,164.2c-15,67.7-56.4,151.6-164.5,276.8h3.4
			C734.5,461.1,775.9,377,791.1,309.3C805.4,241.5,792.9,190.3,772.8,145.2z"/>
		<path class="st2" d="M791.9,143.1c-18.7-44.6-42.7-83.2-55.3-118.6c-3.1-8.4-5.6-16.7-7.3-24.6h-1.2c1.7,8,4.2,16.2,7.3,24.6
			C748,59.9,772,98.6,790.6,143.3c19.7,44.5,31.8,95.5,17.1,163.5c-15.5,67.9-57.2,152.6-166.4,279.9h0.9
			c109.2-127.4,150.9-212,166.5-280C823.5,238.6,811.4,187.7,791.9,143.1z"/>
		<path class="st2" d="M809.4,141.7C791.3,97.6,768,59.9,756.4,25.9c-3.2-8.9-5.5-17.6-7-25.9h-6c1.5,8.2,4,16.7,7.1,25.5
			c11.9,34.4,35.4,72.4,53.6,116.7c19.2,44.1,31,94.9,15.9,163.1c-15.8,68-57.7,153-167.4,281.4h4.3
			c109.8-128.8,151.8-213.9,167.8-281.9C840,236.4,828.4,185.6,809.4,141.7z"/>
		<path class="st2" d="M821.1,140.9c-17.7-43.7-40.4-80.8-51.5-114c-3.2-9.3-5.5-18.3-6.7-26.9H760c1.3,8.6,3.6,17.5,6.8,26.7
			c11.2,33.4,34,70.6,51.7,114.5c18.7,43.7,30,94.3,14.6,162.8c-16.2,68.1-58.3,153.4-168.4,282.8h2.1
			c110.2-129.6,152.3-214.9,168.6-283C850.8,235.2,839.6,184.5,821.1,140.9z"/>
		<path class="st2" d="M840.7,140c-16.9-43.1-38.8-79.3-48.6-111.1c-3.3-10.1-5.3-19.8-6-29h-4.8c0.8,9.1,2.9,18.6,6.2,28.5
			c10.1,32.1,32.2,68.4,49.1,111.8c18,43.1,28.7,93.6,12.7,162.4c-16.8,68-59.2,153.6-169.6,284.1h3.3
			c110.5-130.7,153-216.3,169.9-284.3C869,233.5,858.5,183,840.7,140z"/>
		<path class="st2" d="M861.1,139.5c-16-42.6-36.9-77.7-45.5-108.1c-3.3-11.2-5-21.6-4.7-31.4h-0.7c-0.3,9.8,1.4,20.2,4.7,31.4
			c8.7,30.5,29.5,65.6,45.4,108.3c17,42.5,26.8,92.7,9.8,162c-17.6,67.9-60.3,153.6-170.9,285.1h0.5
			c110.6-131.5,153.4-217.2,171-285.1C887.8,232.2,878,182,861.1,139.5z"/>
		<path class="st2" d="M873.1,139.5C857.7,97.2,837.4,62.7,829.6,33c-3.3-11.9-4.6-22.9-3.5-33.1h-3.4c-0.9,10.1,0.5,21,3.8,32.7
			c8,29.8,28.4,64.5,43.8,106.9c16.6,42.2,26,92.3,8.5,161.8c-17.9,67.8-60.9,153.6-171.4,285.3h2.2
			c110.6-131.8,153.5-217.5,171.6-285.3C898.8,231.8,889.5,181.6,873.1,139.5z"/>
		<path class="st2" d="M891.9,139.7c-14.6-41.7-33.8-75.4-40.4-103.9c-3.2-13.2-3.8-25.1-0.9-35.9h-8.1c-2.3,10.6-1.4,22.2,1.8,35
			c7,28.8,26.5,62.8,41.2,104.8c15.8,41.8,24.6,91.8,6.4,161.7c-18.5,67.6-61.7,153.3-172.1,285.3h5
			c110.3-132,153.5-217.7,172.3-285.3C915.9,231.4,907.4,181.3,891.9,139.7z"/>
		<path class="st2" d="M904.1,140c-14-41.4-32.5-74.5-38.2-102.2c-3.1-14.1-3-26.7,1.6-37.9h-3.9c-4.2,11.1-4.1,23.5-1,37.4
			c5.9,27.9,24.6,61.1,38.6,102.7c15.1,41.4,23.1,91.3,4.2,161.5c-19.1,67.4-62.5,153-172.6,285.1h2.3
			c110.1-132.1,153.5-217.7,172.7-285C926.9,231.3,919,181.4,904.1,140z"/>
		<path class="st2" d="M928,141.2c-12.7-40.8-29.9-72.9-33.9-99.2c-2.7-16.4-0.4-30.3,9.1-42.1h-11.8c-7.7,11.6-9.2,25.1-6.3,40.7
			c4.5,26.7,22.2,59.1,35.1,100.2c14.1,40.9,21.3,90.7,1.3,161.4c-19.9,67-63.5,152.4-173.1,284.4h6.2
			c109.4-131.8,153.1-217.1,173.3-284C948.4,231.7,941.7,181.9,928,141.2z"/>
		<path class="st2" d="M943.3,142.2c-11.9-40.5-28.2-71.9-31-97.2c-2.3-18.2,2.1-33,16.9-45h-2.9c-14.1,12-18.2,26.7-15.9,44.7
			c3,25.5,19.3,56.9,31.2,97.5c13,40.4,19.1,90-2.1,161.4c-20.8,66.6-64.6,151.6-173.5,283.1h1.3c108.8-131.5,152.7-216.4,173.5-283
			C962.1,232.2,956.2,182.6,943.3,142.2z"/>
		<path class="st2" d="M959.6,143.5c-11-40.1-26.3-70.8-27.9-95.3c-1.6-20.6,6.2-36.3,29.4-48.3h-6.3c-21.3,12-28.4,27.5-26.6,47.7
			c1.8,24.6,17.3,55.4,28.3,95.7c12.2,40.1,17.5,89.6-4.6,161.4c-21.4,66.2-65.4,150.9-173.6,281.9h2.5
			c108-130.9,152.1-215.5,173.7-281.7C976.7,233.1,971.5,183.5,959.6,143.5z"/>
		<path class="st2" d="M971.4,144.5c-10.3-39.8-24.9-70.1-25.5-93.9c-0.9-22.8,10.5-39.2,43.2-50.7h-11
			c-28.7,11.7-38.7,27.9-37.5,49.8c1,24,15.8,54.4,26.2,94.5c11.6,39.8,16.4,89.3-6.4,161.5c-21.8,66-66,150.3-173.7,281h3.6
			C897.9,456.2,942.1,372,964.1,306.1C987.2,233.8,982.7,184.3,971.4,144.5z"/>
		<path class="st2" d="M963.6,53.8c-0.6,23,13.1,52.6,22.4,92.3c10.5,39.4,14.2,88.8-9.7,161.6c-22.6,65.4-67,149.2-173.6,278.9h0.6
			C909.8,457,954.2,373.2,976.9,307.8c24-72.8,20.4-122.2,10-161.7c-9.4-39.5-23-69.1-22.4-92.1c0.2-18.9,9.8-33,34.5-43.2v-0.7
			C973.6,20.4,963.8,34.7,963.6,53.8z"/>
		<path class="st2" d="M999,121.3v-12.2c-5.4-20-9.6-36.4-8.1-50.2c0.7-7.7,3.3-14.5,8.1-20.5V33c-7.4,7.1-11.1,15.4-11.9,25.2
			C985.5,74.8,992.1,95.4,999,121.3z"/>
		<path class="st2" d="M818.8,586.7h2.6c105.2-128.4,149.7-211.4,173.3-276.2c1.5-4.3,2.9-8.6,4.2-12.8v-9.2
			c-2,6.9-4.3,14.1-6.8,21.5C968.8,374.9,924.3,458.1,818.8,586.7z"/>
		<path class="st2" d="M836.3,586.7C927.2,475.4,972.8,398.5,999,338v-10.3c-25.4,62.1-70.8,141.4-167,258.9H836.3z"/>
		<path class="st2" d="M852.5,586.7c74.4-91.2,118.4-159.1,146.5-213.8v-3.7c-28,55.4-72.2,124.3-148.3,217.5H852.5z"/>
		<path class="st2" d="M876.5,586.7c56-68.7,94.7-124.1,122.5-170.5v-4.9c-28,47.4-67.4,104.2-125.4,175.4H876.5z"/>
		<path class="st2" d="M892.4,586.7c46-56.6,80.3-104,106.6-144.8v-3.1c-26.5,41.5-61.4,89.9-108.5,147.9H892.4z"/>
		<path class="st2" d="M910.6,586.7c36.1-44.4,65-83.2,88.4-117.5v-9.6c-24.5,36.6-55.4,78.5-94.9,127.1H910.6z"/>
		<path class="st2" d="M924.5,586.7c29.3-36.1,53.8-68.3,74.5-97.5v-2.5c-21.1,29.8-46.2,62.9-76.3,100H924.5z"/>
		<path class="st2" d="M946,586.7c19.7-24.3,37.3-46.9,53-67.9v-4.4c-16.5,22.3-35.1,46.3-56.2,72.3H946z"/>
		<path class="st2" d="M964.1,586.7c12.5-15.4,24.1-30.1,34.9-44.2v-7.3c-12.4,16.2-25.8,33.3-40.5,51.4H964.1z"/>
		<path class="st2" d="M991.4,586.7c2.6-3.2,5.1-6.3,7.6-9.4v-1.9c-3,3.7-6,7.5-9.1,11.3H991.4z"/>
	</g>
</g>
</svg>
