<?xml version="1.0" encoding="utf-8"?>
<!-- Generator: Adobe Illustrator 21.0.2, SVG Export Plug-In . SVG Version: 6.00 Build 0)  -->
<svg version="1.1" id="Layer_1" xmlns="http://www.w3.org/2000/svg" xmlns:xlink="http://www.w3.org/1999/xlink" x="0px" y="0px"
	 viewBox="0 0 586 438" style="enable-background:new 0 0 586 438;" xml:space="preserve">
<style type="text/css">
	.st0{fill:#FFFFFF;}
</style>
<g>
	<g>
		<g>
			<path class="st0" d="M292.5,389.1c-0.4,0-0.8-0.1-1.1-0.4l-30-30c-0.6-0.6-0.6-1.5,0-2.1s1.5-0.6,2.1,0l28.9,28.9l28.9-28.9
				c0.6-0.6,1.5-0.6,2.1,0s0.6,1.5,0,2.1l-30,30C293.3,389,292.9,389.1,292.5,389.1z"/>
		</g>
		<g>
			<path class="st0" d="M292.5,405.3c-0.4,0-0.8-0.1-1.1-0.4l-30-30c-0.6-0.6-0.6-1.5,0-2.1s1.5-0.6,2.1,0l28.9,28.9l28.9-28.9
				c0.6-0.6,1.5-0.6,2.1,0s0.6,1.5,0,2.1l-30,30C293.3,405.2,292.9,405.3,292.5,405.3z"/>
		</g>
	</g>
	<g>
		<path class="st0" d="M100,233.2c2.9,0,5.2,1,7.1,3l-0.6,0.6c-1.5-1.7-3.9-2.8-6.5-2.8c-4.8,0-8.6,3.7-8.6,9.1
			c0,5.4,3.8,9.2,8.6,9.2c2.8,0,5-1.4,6.1-2.6v-5.3h-8v-0.9h8.9v6.6c-1.7,1.9-4.2,3.1-7.1,3.1c-5.4,0-9.7-4.1-9.7-10
			S94.6,233.2,100,233.2z"/>
		<path class="st0" d="M111.4,238.8h0.9v2.6c1.2-1.7,2.8-2.8,4.8-2.8v1c-0.3,0-0.4,0-0.7,0c-1.5,0-3.5,1.5-4.1,2.8v10.5h-0.9V238.8z
			"/>
		<path class="st0" d="M129.3,251.1c-1.3,1.4-2.9,2.1-4.8,2.1c-2.5,0-4.9-1.7-4.9-4.7c0-3,2.4-4.7,4.9-4.7c2,0,3.5,0.6,4.8,2.1v-3.2
			c0-2.3-1.8-3.5-3.9-3.5c-1.8,0-3.2,0.6-4.5,2.2l-0.7-0.6c1.4-1.6,2.8-2.4,5.2-2.4c2.8,0,4.8,1.4,4.8,4.2v10.1h-0.9V251.1z
			 M129.3,246.8c-1.1-1.4-2.8-2.1-4.6-2.1c-2.6,0-4.2,1.7-4.2,3.9c0,2.2,1.6,3.9,4.2,3.9c1.8,0,3.5-0.7,4.6-2.1V246.8z"/>
		<path class="st0" d="M135.2,258.2v-19.3h0.9v2.3c1-1.5,2.8-2.7,5-2.7c3.8,0,6.3,2.9,6.3,7.3c0,4.4-2.5,7.4-6.3,7.4
			c-2.1,0-3.9-1.1-5-2.8v7.7H135.2z M141.1,239.2c-2.2,0-4.2,1.3-5,2.8v7.5c0.9,1.5,2.9,2.8,5,2.8c3.4,0,5.3-2.9,5.3-6.6
			S144.5,239.2,141.1,239.2z"/>
		<path class="st0" d="M161,243c0-2.9-1.5-3.7-3.6-3.7c-1.9,0-4,1.2-5,2.6v10.9h-0.9v-19.3h0.9v7.5c1-1.3,3.1-2.6,5.1-2.6
			c2.8,0,4.4,1.2,4.4,4.5v9.8H161V243z"/>
		<path class="st0" d="M166.5,235.6c0-0.5,0.4-0.8,0.8-0.8c0.5,0,0.8,0.4,0.8,0.8s-0.4,0.8-0.8,0.8
			C166.9,236.4,166.5,236,166.5,235.6z M166.9,238.8h0.9v14h-0.9V238.8z"/>
		<path class="st0" d="M178.6,238.5c2.3,0,3.6,0.9,4.8,2.3l-0.6,0.5c-1.1-1.5-2.5-2.1-4.1-2.1c-3.6,0-5.7,2.9-5.7,6.6
			c0,3.7,2.1,6.6,5.7,6.6c1.6,0,3-0.6,4.1-2.1l0.6,0.6c-1.2,1.5-2.5,2.3-4.8,2.3c-4.1,0-6.6-3.3-6.6-7.4S174.5,238.5,178.6,238.5z"
			/>
		<path class="st0" d="M194.6,233.5h5.7c6,0,9.6,4.5,9.6,9.7c0,5.2-3.6,9.7-9.6,9.7h-5.7V233.5z M200.4,251.9c5.5,0,8.6-3.9,8.6-8.8
			c0-4.8-3.1-8.8-8.6-8.8h-4.8v17.6H200.4z"/>
		<path class="st0" d="M220.2,238.5c4.3,0,6.5,3.5,6.5,7.3v0.3h-12.1c0.1,3.4,2.3,6.3,5.9,6.3c2,0,3.6-0.7,4.9-2.1l0.5,0.6
			c-1.4,1.5-3,2.3-5.4,2.3c-4.1,0-6.9-3.1-6.9-7.4C213.7,241.7,216.5,238.5,220.2,238.5z M214.6,245.3h11.2c0-2.7-1.8-6.1-5.6-6.1
			C216.6,239.2,214.7,242.5,214.6,245.3z"/>
		<path class="st0" d="M230.5,250.3c0.9,1.2,2.4,2.1,4.4,2.1c2.6,0,4.1-1.4,4.1-3.2c0-2.1-2.1-2.6-4.2-3.2c-2.3-0.6-4.8-1.2-4.8-3.8
			c0-2.1,1.7-3.7,4.8-3.7c2.4,0,3.9,1,4.8,2.1l-0.6,0.6c-0.8-1.2-2.3-1.9-4.2-1.9c-2.4,0-3.9,1.3-3.9,2.9c0,1.8,1.9,2.3,4,2.8
			c2.4,0.6,5,1.3,5,4.1c0,2.2-1.6,4-5,4c-2.2,0-3.7-0.6-5.1-2.2L230.5,250.3z"/>
		<path class="st0" d="M243.7,235.6c0-0.5,0.4-0.8,0.8-0.8c0.5,0,0.8,0.4,0.8,0.8s-0.4,0.8-0.8,0.8
			C244.1,236.4,243.7,236,243.7,235.6z M244.1,238.8h0.9v14h-0.9V238.8z"/>
		<path class="st0" d="M250.8,255.7c1.2,1.5,2.5,2.1,4.7,2.1c2.8,0,5-1.4,5-4.8v-2.4c-1,1.5-2.8,2.8-5,2.8c-3.8,0-6.3-2.9-6.3-7.4
			c0-4.4,2.5-7.4,6.3-7.4c2.1,0,3.9,1.1,5,2.8v-2.4h0.9v14.1c0,4-2.5,5.6-5.9,5.6c-2.3,0-3.7-0.4-5.4-2.1L250.8,255.7z M260.6,242.1
			c-0.9-1.5-2.9-2.8-5-2.8c-3.4,0-5.3,2.9-5.3,6.6c0,3.7,1.9,6.6,5.3,6.6c2.2,0,4.2-1.4,5-2.8V242.1z"/>
		<path class="st0" d="M275.9,243c0-2.9-1.5-3.8-3.6-3.8c-1.9,0-4,1.2-5,2.6v10.9h-0.9v-14h0.9v2.2c1-1.3,3.1-2.6,5.1-2.6
			c2.8,0,4.4,1.3,4.4,4.6v9.8h-0.9V243z"/>
		<path class="st0" d="M287.6,238.5c4.3,0,6.5,3.5,6.5,7.3v0.3H282c0.1,3.4,2.3,6.3,5.9,6.3c2,0,3.6-0.7,4.9-2.1l0.5,0.6
			c-1.4,1.5-3,2.3-5.4,2.3c-4.1,0-6.9-3.1-6.9-7.4C281,241.7,283.8,238.5,287.6,238.5z M282,245.3h11.2c0-2.7-1.8-6.1-5.6-6.1
			C283.9,239.2,282,242.5,282,245.3z"/>
		<path class="st0" d="M298.3,238.8h0.9v2.6c1.2-1.7,2.8-2.8,4.8-2.8v1c-0.3,0-0.4,0-0.7,0c-1.5,0-3.5,1.5-4.1,2.8v10.5h-0.9V238.8z
			"/>
		<path class="st0" d="M319,232.9h0.9l-6.9,20.5h-0.9L319,232.9z"/>
		<path class="st0" d="M330,233.5h6.7c3.6,0,5.7,2.5,5.7,5.5s-2.1,5.5-5.7,5.5h-5.8v8.4H330V233.5z M336.7,234.3h-5.7v9.2h5.7
			c2.8,0,4.7-1.9,4.7-4.6S339.5,234.3,336.7,234.3z"/>
		<path class="st0" d="M355.5,243c0-2.9-1.5-3.7-3.6-3.7c-1.9,0-4,1.2-5,2.6v10.9H346v-19.3h0.9v7.5c1-1.3,3.1-2.6,5.1-2.6
			c2.8,0,4.4,1.2,4.4,4.5v9.8h-0.9V243z"/>
		<path class="st0" d="M360.6,245.8c0-4.1,2.6-7.3,6.5-7.3c4,0,6.5,3.2,6.5,7.3s-2.6,7.4-6.5,7.4
			C363.2,253.2,360.6,249.9,360.6,245.8z M372.7,245.8c0-3.4-2-6.6-5.6-6.6c-3.6,0-5.6,3.2-5.6,6.6c0,3.4,2,6.6,5.6,6.6
			C370.7,252.4,372.7,249.2,372.7,245.8z"/>
		<path class="st0" d="M378.1,250.4v-10.8h-2.3v-0.8h2.3V235h0.9v3.8h2.8v0.8h-2.8v10.8c0,1.2,0.5,2,1.5,2c0.7,0,1.3-0.3,1.7-0.8
			l0.5,0.7c-0.6,0.5-1.1,0.9-2.2,0.9C378.8,253.2,378.1,252.1,378.1,250.4z"/>
		<path class="st0" d="M384.6,245.8c0-4.1,2.6-7.3,6.5-7.3c4,0,6.5,3.2,6.5,7.3s-2.6,7.4-6.5,7.4
			C387.1,253.2,384.6,249.9,384.6,245.8z M396.7,245.8c0-3.4-2-6.6-5.6-6.6c-3.6,0-5.6,3.2-5.6,6.6c0,3.4,2,6.6,5.6,6.6
			C394.7,252.4,396.7,249.2,396.7,245.8z"/>
		<path class="st0" d="M402.6,255.7c1.2,1.5,2.5,2.1,4.7,2.1c2.8,0,5-1.4,5-4.8v-2.4c-1,1.5-2.8,2.8-5,2.8c-3.8,0-6.3-2.9-6.3-7.4
			c0-4.4,2.5-7.4,6.3-7.4c2.1,0,3.9,1.1,5,2.8v-2.4h0.9v14.1c0,4-2.5,5.6-5.9,5.6c-2.3,0-3.7-0.4-5.4-2.1L402.6,255.7z M412.4,242.1
			c-0.9-1.5-2.9-2.8-5-2.8c-3.4,0-5.3,2.9-5.3,6.6c0,3.7,1.9,6.6,5.3,6.6c2.2,0,4.2-1.4,5-2.8V242.1z"/>
		<path class="st0" d="M418.3,238.8h0.9v2.6c1.2-1.7,2.8-2.8,4.8-2.8v1c-0.3,0-0.4,0-0.7,0c-1.5,0-3.5,1.5-4.1,2.8v10.5h-0.9V238.8z
			"/>
		<path class="st0" d="M436.1,251.1c-1.3,1.4-2.9,2.1-4.8,2.1c-2.5,0-4.9-1.7-4.9-4.7c0-3,2.4-4.7,4.9-4.7c2,0,3.5,0.6,4.8,2.1v-3.2
			c0-2.3-1.8-3.5-3.9-3.5c-1.8,0-3.2,0.6-4.5,2.2l-0.7-0.6c1.4-1.6,2.8-2.4,5.2-2.4c2.8,0,4.8,1.4,4.8,4.2v10.1h-0.9V251.1z
			 M436.1,246.8c-1.1-1.4-2.8-2.1-4.6-2.1c-2.6,0-4.2,1.7-4.2,3.9c0,2.2,1.6,3.9,4.2,3.9c1.8,0,3.5-0.7,4.6-2.1V246.8z"/>
		<path class="st0" d="M442,258.2v-19.3h0.9v2.3c1-1.5,2.8-2.7,5-2.7c3.8,0,6.3,2.9,6.3,7.3c0,4.4-2.5,7.4-6.3,7.4
			c-2.1,0-3.9-1.1-5-2.8v7.7H442z M447.9,239.2c-2.2,0-4.2,1.3-5,2.8v7.5c0.9,1.5,2.9,2.8,5,2.8c3.4,0,5.3-2.9,5.3-6.6
			S451.3,239.2,447.9,239.2z"/>
		<path class="st0" d="M467.8,243c0-2.9-1.5-3.7-3.6-3.7c-1.9,0-4,1.2-5,2.6v10.9h-0.9v-19.3h0.9v7.5c1-1.3,3.1-2.6,5.1-2.6
			c2.8,0,4.4,1.2,4.4,4.5v9.8h-0.9V243z"/>
		<path class="st0" d="M479.5,238.5c4.3,0,6.5,3.5,6.5,7.3v0.3h-12.1c0.1,3.4,2.3,6.3,5.9,6.3c2,0,3.6-0.7,4.9-2.1l0.5,0.6
			c-1.4,1.5-3,2.3-5.4,2.3c-4.1,0-6.9-3.1-6.9-7.4C472.9,241.7,475.8,238.5,479.5,238.5z M473.9,245.3h11.2c0-2.7-1.8-6.1-5.6-6.1
			C475.9,239.2,474,242.5,473.9,245.3z"/>
		<path class="st0" d="M490.3,238.8h0.9v2.6c1.2-1.7,2.8-2.8,4.8-2.8v1c-0.3,0-0.4,0-0.7,0c-1.5,0-3.5,1.5-4.1,2.8v10.5h-0.9V238.8z
			"/>
	</g>
	<g>
		<path class="st0" d="M321.5,32.7v102.5h-8.8c-24.8,0-45-20.2-45-45c0-20.5,13.8-37.9,32.6-43.3v9.3c-13.9,5.1-23.8,18.4-23.8,34
			c0,20,16.3,36.2,36.2,36.2V114c-13.1,0-23.8-10.7-23.8-23.8s10.7-23.8,23.8-23.8v-2.5v-10v-8.8v-4.6v-7.9
			c-31.7,0-57.5,25.8-57.5,57.5s25.8,57.5,57.5,57.5h8.8h3.1h9.4v-115H321.5z"/>
	</g>
	<g>
		<path class="st0" d="M69.7,194.6c0-11.5,8.7-19.3,19.6-19.3c8.5,0,13.3,4.5,15.9,9.1l-6.8,3.4c-1.6-3-4.9-5.4-9.1-5.4
			c-6.5,0-11.4,5.2-11.4,12.3s4.9,12.3,11.4,12.3c4.1,0,7.5-2.4,9.1-5.4l6.8,3.3c-2.7,4.6-7.4,9.2-15.9,9.2
			C78.4,213.9,69.7,206,69.7,194.6z"/>
		<path class="st0" d="M126.1,210.4c-1.8,2.2-5,3.5-8.6,3.5c-4.3,0-9.4-2.9-9.4-9c0-6.3,5.1-8.6,9.4-8.6c3.6,0,6.8,1.1,8.6,3.3v-3.8
			c0-2.7-2.4-4.5-5.9-4.5c-2.9,0-5.6,1.1-7.9,3.2l-2.7-4.8c3.3-2.9,7.6-4.3,11.8-4.3c6.2,0,11.8,2.5,11.8,10.2v17.5h-7.1V210.4z
			 M126.1,203.4c-1.2-1.6-3.4-2.4-5.7-2.4c-2.8,0-5.1,1.5-5.1,4.1c0,2.5,2.3,4,5.1,4c2.3,0,4.5-0.8,5.7-2.4V203.4z"/>
		<path class="st0" d="M173.8,196.1c0-2.5-1.1-4.3-4-4.3c-2.5,0-4.6,1.7-5.6,3.1v18.3H157v-17.1c0-2.5-1.1-4.3-4-4.3
			c-2.5,0-4.5,1.7-5.6,3.2v18.2h-7.1v-27h7.1v3.5c1.1-1.6,4.7-4.2,8.8-4.2c4,0,6.5,1.8,7.5,4.9c1.6-2.5,5.2-4.9,9.3-4.9
			c5,0,8,2.6,8,8.2v19.5h-7.2V196.1z"/>
		<path class="st0" d="M206.5,209.8c-2.1,2.6-5.1,4.1-8.3,4.1c-6.8,0-12-5.2-12-14.2c0-8.8,5.1-14.2,12-14.2c3.2,0,6.2,1.4,8.3,4.1
			v-13.8h7.2v37.4h-7.2V209.8z M206.5,194.9c-1.2-1.8-3.8-3.1-6.2-3.1c-4,0-6.8,3.2-6.8,7.9c0,4.6,2.8,7.8,6.8,7.8
			c2.4,0,4.9-1.3,6.2-3.1V194.9z"/>
		<path class="st0" d="M233,185.5c8.1,0,13.6,6,13.6,14.9v1.6h-20.1c0.4,3.4,3.2,6.3,7.8,6.3c2.5,0,5.5-1,7.2-2.7l3.1,4.6
			c-2.7,2.5-6.9,3.8-11.1,3.8c-8.2,0-14.4-5.5-14.4-14.2C219,191.8,224.8,185.5,233,185.5z M226.4,197.1h13.3c-0.2-2.6-2-6-6.7-6
			C228.6,191.1,226.7,194.5,226.4,197.1z"/>
		<path class="st0" d="M270,196.9c0-3.8-2-5-5-5c-2.8,0-5,1.6-6.2,3.2v18.2h-7.1v-27h7.1v3.5c1.7-2.1,5-4.2,9.5-4.2
			c5.9,0,8.8,3.4,8.8,8.6v19.1H270V196.9z"/>
		<path class="st0" d="M298.7,175.9h14.7c11.7,0,19.8,7.4,19.8,18.7s-8.1,18.6-19.8,18.6h-14.7V175.9z M313.4,206.2
			c7.4,0,11.7-5.3,11.7-11.6c0-6.6-4-11.7-11.7-11.7h-6.8v23.4H313.4z"/>
		<path class="st0" d="M338.7,186.2h7.1v3.7c1.9-2.4,5.3-4.3,8.6-4.3v6.9c-0.5-0.1-1.2-0.2-2-0.2c-2.4,0-5.5,1.3-6.7,3v17.9h-7.1
			V186.2z"/>
		<path class="st0" d="M358.1,177.9c0-2.4,2-4.3,4.3-4.3c2.4,0,4.3,1.9,4.3,4.3s-1.9,4.3-4.3,4.3
			C360.1,182.2,358.1,180.3,358.1,177.9z M358.9,186.2h7.1v27h-7.1V186.2z"/>
		<path class="st0" d="M385.3,185.5c8.1,0,13.6,6,13.6,14.9v1.6h-20.1c0.4,3.4,3.2,6.3,7.8,6.3c2.5,0,5.5-1,7.2-2.7l3.1,4.6
			c-2.7,2.5-6.9,3.8-11.1,3.8c-8.2,0-14.4-5.5-14.4-14.2C371.3,191.8,377.1,185.5,385.3,185.5z M378.6,197.1H392c-0.2-2.6-2-6-6.7-6
			C380.9,191.1,379,194.5,378.6,197.1z"/>
		<path class="st0" d="M422.6,209.8c-2.1,2.6-5.1,4.1-8.3,4.1c-6.8,0-12-5.2-12-14.2c0-8.8,5.1-14.2,12-14.2c3.2,0,6.2,1.4,8.3,4.1
			v-13.8h7.2v37.4h-7.2V209.8z M422.6,194.9c-1.2-1.8-3.8-3.1-6.2-3.1c-4,0-6.8,3.2-6.8,7.9c0,4.6,2.8,7.8,6.8,7.8
			c2.4,0,4.9-1.3,6.2-3.1V194.9z"/>
		<path class="st0" d="M439.4,215c2.2,2.4,5,3.4,8.5,3.4s7.4-1.5,7.4-6.8v-2.7c-2.1,2.7-5,4.3-8.3,4.3c-6.8,0-11.9-4.8-11.9-13.8
			c0-8.8,5.1-13.8,11.9-13.8c3.2,0,6.2,1.4,8.3,4.1v-3.5h7.2v25.2c0,10.3-8,12.8-14.6,12.8c-4.6,0-8.3-1.1-11.6-4L439.4,215z
			 M455.3,194.9c-1.2-1.8-3.8-3.1-6.1-3.1c-4,0-6.8,2.8-6.8,7.4s2.8,7.4,6.8,7.4c2.4,0,4.9-1.3,6.1-3.1V194.9z"/>
		<path class="st0" d="M481.8,185.5c8.1,0,13.6,6,13.6,14.9v1.6h-20.1c0.4,3.4,3.2,6.3,7.8,6.3c2.5,0,5.5-1,7.2-2.7l3.1,4.6
			c-2.7,2.5-6.9,3.8-11.1,3.8c-8.2,0-14.4-5.5-14.4-14.2C467.8,191.8,473.6,185.5,481.8,185.5z M475.2,197.1h13.3
			c-0.2-2.6-2-6-6.7-6C477.4,191.1,475.5,194.5,475.2,197.1z"/>
		<path class="st0" d="M500.5,186.2h7.1v3.7c1.9-2.4,5.3-4.3,8.6-4.3v6.9c-0.5-0.1-1.2-0.2-2-0.2c-2.4,0-5.5,1.3-6.7,3v17.9h-7.1
			V186.2z"/>
	</g>
</g>
</svg>
