<?xml version="1.0" encoding="utf-8"?>
<!-- Generator: Adobe Illustrator 21.0.2, SVG Export Plug-In . SVG Version: 6.00 Build 0)  -->
<svg version="1.1" id="Layer_1" xmlns="http://www.w3.org/2000/svg" xmlns:xlink="http://www.w3.org/1999/xlink" x="0px" y="0px"
	 viewBox="0 0 80 115" style="enable-background:new 0 0 80 115;" xml:space="preserve">
<style type="text/css">
	.st0{fill:#FFFFFF;}
</style>
<path class="st0" d="M66.4,1.1v100.6h-8.6c-24.4,0-44.2-19.8-44.2-44.2c0-20.1,13.5-37.2,32-42.5v9.1c-13.6,5-23.4,18-23.4,33.4
	c0,19.6,16,35.6,35.6,35.6V80.9c-12.9,0-23.4-10.5-23.4-23.4s10.5-23.4,23.4-23.4v-2.4v-9.8v-8.6V8.8V1.1
	C26.7,1.1,1.4,26.4,1.4,57.5s25.3,56.4,56.4,56.4h8.6h3h9.2V1.1H66.4z"/>
</svg>
